<svg width="196" height="213" viewBox="0 0 196 213" fill="none" xmlns="http://www.w3.org/2000/svg">
<g clip-path="url(#clip0_35_13847)">
<path d="M34.5497 9.70386C40.3841 6.67286 46.4784 4.32757 52.9655 3.11172C55.4379 2.64497 57.9449 2.18974 60.0649 4.08555C63.8602 0.432216 66.1708 -0.397557 71.4448 0.161388C73.4667 0.374599 75.5058 0.680003 77.4698 1.18708C81.369 2.19551 85.2278 3.37678 89.1039 4.48892C89.6411 4.6445 90.1726 4.93838 90.7156 4.95565C92.9916 5.04786 95.1058 5.70478 97.1276 6.67861C100.259 8.17683 103.21 9.96316 105.891 12.1817C110.466 15.9675 114.475 20.3124 118.426 24.7206C120.598 27.1465 122.435 29.8779 125.029 31.9178C125.358 32.1771 125.618 32.5343 125.889 32.857C128.287 35.6979 129.794 38.9997 130.799 42.532C131.614 45.3959 132.261 48.3059 133.075 51.1698C133.63 53.1233 134.271 55.0536 134.999 56.9437C135.686 58.7358 136.749 60.2283 138.482 61.277C140.181 62.3085 141.579 63.7491 142.849 65.3049C145.385 68.4108 147.228 71.9316 149.077 75.4524C150.659 78.4661 152.161 81.5317 153.86 84.482C155.818 87.8876 157.996 91.1606 159.989 94.5431C161.404 96.946 162.663 99.4411 164.021 101.879C166.32 106.016 168.671 110.119 170.924 114.273C171.848 115.973 172.605 117.765 173.367 119.546C173.529 119.926 173.546 120.549 173.333 120.86C172.992 121.355 172.483 120.917 172.056 120.762C171.998 120.739 171.911 120.796 171.761 120.843C172.027 121.932 172.298 123.015 172.57 124.127C172.974 124.127 173.252 124.116 173.535 124.127C176.232 124.173 178.358 125.233 179.467 127.763C180.559 130.258 180.033 132.598 178.323 134.655C177.157 136.061 175.493 136.666 173.777 137.133C173.448 137.225 173.125 137.334 172.662 137.479C173.962 138.498 175.117 139.403 176.267 140.308C178.965 142.428 181.437 144.768 183.28 147.678C184.164 149.072 184.92 150.553 185.619 152.052C185.954 152.766 186.22 153.602 185.637 154.529C184.25 153.048 182.951 151.66 181.495 150.11C181.818 151.815 183.06 153.043 182.667 155.042C182.124 154.529 181.755 154.276 181.506 153.936C180.553 152.639 179.623 151.325 178.711 150C176.492 146.785 173.644 144.272 170.23 142.382C169.988 142.25 169.716 142.175 169.173 141.956C169.716 142.728 170.092 143.218 170.415 143.736C170.687 144.174 170.999 144.687 170.514 145.148C170.08 145.557 169.612 145.269 169.214 145.01C168.578 144.595 167.954 144.169 167.354 143.708C162.467 139.939 158.458 135.369 154.98 130.304C154.148 129.1 153.236 127.942 152.288 126.824C151.67 126.092 150.925 125.464 150.087 124.64C149.926 125.372 149.822 125.821 149.724 126.276C148.603 131.676 148.666 137.087 149.464 142.515C151.069 153.411 153.929 163.98 157.84 174.271C159.509 178.656 161.496 182.892 164.119 186.804C166.164 189.858 168.538 192.595 171.553 194.739C171.883 194.97 172.247 195.148 172.657 195.384C172.755 195.085 172.824 194.912 172.859 194.733C173.384 192.065 175.002 191.403 177.266 191.524C180.288 191.685 182.904 193.783 183.846 196.773C184.042 197.396 184.187 198.035 184.348 198.64C184.499 198.675 184.591 198.727 184.684 198.715C190.449 198.191 195.128 192.319 194.348 186.585C193.897 183.272 192.112 181.301 188.848 180.518C188.525 180.443 188.184 180.408 187.884 180.281C187.618 180.172 187.387 179.964 186.827 179.584C187.606 179.411 188.034 179.25 188.473 179.233C190.206 179.152 191.743 179.711 193.077 180.8C194.949 182.338 195.717 184.436 195.942 186.764C196.549 192.947 192.054 198.905 185.856 200.173C185.359 200.277 184.857 200.369 184.233 200.49C184.175 201.049 184.164 201.573 184.054 202.075C183.28 205.786 181.316 208.696 178.075 210.689C174.378 212.971 170.363 213.467 166.152 212.597C161.808 211.698 158.117 209.548 154.847 206.621C150.347 202.593 147.182 197.626 144.819 192.14C138.575 177.636 136.305 162.585 138.8 146.906C139.563 142.117 140.602 137.409 142.953 133.099C144.761 129.786 146.61 126.49 148.47 123.13C146.454 121.021 145.05 118.538 144.039 115.795C143.358 113.957 142.174 112.395 140.724 111.064C139.505 109.946 138.257 108.851 136.986 107.791C134.404 105.63 131.903 103.394 129.742 100.795C127.686 98.3175 125.652 95.8224 123.579 93.3619C122.371 91.9213 121.112 90.521 119.847 89.0689C119.379 89.3973 118.986 89.5817 118.709 89.8814C115.769 93.0046 114.093 96.583 114.995 100.968C115.335 102.628 115.855 104.258 116.364 105.883C117.236 108.684 118.206 111.45 119.038 114.256C119.911 117.201 120.124 120.203 119.529 123.24C119.223 124.819 118.565 126.207 117.351 127.296C115.335 129.1 113.314 130.892 110.916 132.194C110.489 132.425 110.073 132.678 109.651 132.92C109.697 133.024 109.744 133.128 109.79 133.232C111.043 132.857 112.326 132.557 113.539 132.085C117.831 130.425 120.407 127.308 121.181 122.784C121.661 119.995 121.424 117.212 120.685 114.487C120.257 112.89 119.72 111.323 119.212 109.75C118.38 107.168 117.918 104.518 117.825 101.809C117.767 100.15 118.183 99.6025 119.731 99.0896C120.407 98.8649 121.089 98.669 121.776 98.4673C122.233 98.3348 122.712 98.1388 123.093 98.5883C123.492 99.0493 123.192 99.47 122.937 99.8791C122.059 101.297 121.955 102.841 122.342 104.403C122.614 105.497 123.001 106.581 123.463 107.606C124.925 110.839 126.363 114.083 127.27 117.523C128.558 122.416 128.096 127.095 125.479 131.491C124.272 133.526 123.041 135.548 121.823 137.576C121.586 137.974 121.36 138.383 121.129 138.787C124.047 136.147 126.334 133.059 128.073 129.567C129.534 126.634 130.031 123.545 129.54 120.318C129.292 118.682 128.957 117.062 128.639 115.437C128.004 112.234 127.501 109.007 127.507 105.728C127.507 104.973 127.559 104.212 127.657 103.469C127.692 103.204 127.946 102.968 128.142 102.645C128.934 103.279 128.749 104.051 128.754 104.702C128.783 107.946 129.939 110.781 131.695 113.449C133.849 116.722 136.576 119.471 139.441 122.099C140.302 122.888 141.22 123.626 142.197 124.456C142.821 124.018 143.323 123.672 143.82 123.315C143.97 123.205 144.091 123.067 144.305 122.871C143.375 122.145 142.48 121.459 141.602 120.756C138.546 118.324 135.704 115.708 133.728 112.274C132.561 110.246 131.701 108.108 131.325 105.791C131.238 105.267 131.036 104.673 131.614 104.224C132.342 104.437 132.342 105.082 132.475 105.59C133.711 110.263 136.224 114.141 139.851 117.304C141.74 118.952 143.71 120.508 145.639 122.11C146.408 122.744 146.425 123.067 145.651 123.649C144.86 124.248 144.028 124.807 143.208 125.366C142.503 125.844 141.786 125.844 141.082 125.354C140.735 125.112 140.371 124.882 140.054 124.6C136.495 121.459 133.104 118.163 130.528 114.129C130.372 113.882 130.187 113.645 130.02 113.403C129.869 113.98 129.927 114.435 130.008 114.884C130.285 116.417 130.58 117.95 130.846 119.488C131.533 123.453 130.915 127.21 129.032 130.771C127.362 133.935 125.271 136.781 122.781 139.351C121.124 141.057 119.344 142.619 117.305 143.857C116.866 144.128 116.369 144.537 115.93 143.967C115.549 143.466 116.052 143.154 116.352 142.78C117.559 141.264 118.83 139.783 119.882 138.164C121.349 135.9 122.614 133.514 124.012 131.203C126.738 126.703 127.206 121.926 125.572 117.005C124.561 113.962 123.273 111.006 122.036 108.044C121.02 105.601 120.24 103.152 120.979 100.478C120.997 100.403 120.921 100.305 120.887 100.219C119.194 100.628 119.148 100.686 119.258 102.415C119.281 102.743 119.321 103.071 119.344 103.406C119.575 106.16 120.35 108.788 121.268 111.381C122.394 114.579 122.984 117.852 122.833 121.263C122.568 127.4 118.559 132.315 112.996 133.785C109.472 134.713 105.885 135.416 102.321 136.205C102.003 136.274 101.651 136.303 101.333 136.24C100.738 136.113 100.57 135.444 101.038 135.053C101.321 134.816 101.68 134.649 102.026 134.511C102.904 134.159 103.794 133.819 104.689 133.514C109.172 131.981 113.042 129.475 116.393 126.161C117.998 124.577 118.744 121.373 118.102 119.045C117.987 119.252 117.883 119.396 117.814 119.558C115.977 123.885 111.783 125.631 107.739 124.986C106.347 124.761 104.949 124.369 103.644 123.839C98.9992 121.972 94.7303 119.437 90.7733 116.377C90.3632 116.06 89.9531 115.714 89.6411 115.311C89.1906 114.717 89.5429 114.008 90.2939 114.031C90.8022 114.043 91.3221 114.204 91.8131 114.366C96.4691 115.847 101.108 117.379 105.775 118.82C107.121 119.235 108.536 119.54 109.94 119.638C111.76 119.759 112.95 118.872 113.395 117.103C113.654 116.071 113.77 114.925 113.597 113.887C113.221 111.657 112.62 109.462 112.101 107.255C112.066 107.099 111.945 106.961 111.858 106.811C110.102 107.779 108.432 108.667 106.786 109.606C102.742 111.911 98.5487 112.337 94.2046 110.597C91.3048 109.433 88.3587 108.344 85.5455 107.001C81.6405 105.134 77.9897 102.841 75.1303 99.4988C74.8184 99.1357 74.5815 98.7036 74.2696 98.2483C75.9448 97.5972 77.2619 98.1907 78.5443 98.7785C83.2522 100.939 88.1681 102.547 93.0782 104.161C94.4299 104.604 95.8163 104.944 97.1969 105.273C99.0397 105.711 100.882 105.653 102.65 104.938C104.672 104.12 106.671 103.25 108.663 102.374C108.981 102.236 109.23 101.948 109.49 101.746C106.763 96.8538 104.932 91.7426 103.522 86.4758C102.124 81.2436 100.957 75.9595 100.455 70.5141C100.264 70.612 100.149 70.6293 100.114 70.6927C98.3985 73.5969 95.9723 75.8443 93.4075 77.9648C91.1373 79.8376 88.6418 81.0304 85.5975 80.8057C83.3273 80.6328 81.0456 80.6155 78.7811 80.3965C77.3716 80.264 75.9853 79.8952 74.5873 79.6129C74.0905 79.5091 73.6111 79.2095 73.7266 78.6736C73.7959 78.3509 74.2349 77.9936 74.5815 77.8726C75.3383 77.6133 76.1354 77.4231 76.9326 77.331C79.5725 77.0313 82.2067 76.7086 84.8581 76.5473C87.6251 76.3802 89.8202 75.1124 91.8362 73.3722C91.9344 73.2858 91.9633 73.1244 92.0904 72.8651C88.3356 74.6514 84.5577 74.9569 80.6759 74.3633C77.7471 73.9139 74.9975 72.8536 72.2478 71.8221C71.699 71.6147 70.8614 71.4937 70.9481 70.7388C71.052 69.8456 71.9359 70.007 72.5655 70.0012C75.8408 69.9782 79.1104 70.0012 82.3857 69.9897C83.7606 69.9897 85.1412 69.9897 86.5044 69.8687C87.5384 69.7765 88.5378 69.4653 89.2945 68.7335C88.1046 68.9179 86.8857 69.3328 85.7073 69.2464C80.8145 68.8833 76.8113 66.78 73.8768 62.7925C73.7382 62.6023 73.5649 62.4122 73.5071 62.1932C73.4493 61.9858 73.4378 61.6573 73.5591 61.5421C73.7324 61.375 74.079 61.2424 74.2927 61.3001C74.6971 61.4095 75.061 61.6573 75.4365 61.8532C77.8338 63.1382 80.3177 64.2158 83.0558 64.4636C84.1707 64.5673 85.3491 64.5443 86.4351 64.2907C88.8728 63.726 89.9011 62.1298 89.1675 59.7327C88.3934 57.1799 87.2901 54.731 86.2503 52.0342C85.9614 52.4606 85.817 52.6335 85.713 52.8351C84.783 54.5811 83.4602 55.9929 81.9063 57.1915C80.6354 58.1768 79.2317 58.9202 77.568 58.5053C73.5764 57.5084 69.8794 55.918 66.9044 52.8409C65.1946 53.59 63.4674 54.3679 61.7228 55.1055C59.2736 56.137 56.8127 57.1396 54.1728 57.5891C53.4334 57.7159 52.6594 57.7389 51.9142 57.687C51.2037 57.6409 50.8744 57.0359 50.7415 56.4251C50.5971 55.7682 51.1863 55.5435 51.6484 55.3302C52.0759 55.1343 52.538 54.996 52.9886 54.8577C55.357 54.1317 57.633 53.2039 59.7068 51.8267C61.9943 50.3055 64.3223 48.836 66.5521 47.2341C67.7478 46.3755 68.3544 45.0847 68.2331 43.4886C67.1124 44.9004 65.6856 45.8972 64.1779 46.7847C63.5251 47.1707 62.8493 47.5222 62.1734 47.8622C59.2851 49.2913 56.4199 50.7895 53.3005 51.6654C50.6606 52.4087 48.0034 52.7372 45.3115 51.8843C43.3764 51.2678 41.886 50.0865 40.8116 48.3808C40.5169 47.9083 40.0606 47.3897 40.4938 46.8365C40.9617 46.243 41.5221 46.6982 42.042 46.8826C43.0182 47.2341 43.9829 47.747 44.9938 47.8738C48.8641 48.3578 52.5611 47.7643 55.9173 45.6437C57.9218 44.3818 59.9263 43.1198 61.8903 41.7887C62.8262 41.1548 63.6753 40.3942 64.5245 39.6393C64.8191 39.38 64.9924 38.9767 65.2697 38.5675C64.536 37.9971 63.9295 37.4727 63.2652 37.029C61.0932 35.5826 58.8634 34.1996 57.9969 31.6239C54.2768 31.1571 50.8339 31.572 47.5875 33.1682C44.4277 34.7183 41.1697 35.986 37.8019 37.0059C36.5427 37.3862 35.37 38.0432 34.18 38.6252C32.0716 39.6566 30.3155 41.4314 27.8026 41.587C27.6987 41.8694 27.6062 42.0826 27.5369 42.3073C24.9432 50.3285 23.4066 58.5572 22.933 66.9529C22.6153 72.6173 22.6615 78.3048 22.5402 83.9807C22.5228 84.7817 22.5517 85.5942 22.4477 86.3894C22.2918 87.588 21.535 87.9049 20.553 87.1904C20.1371 86.8907 19.8079 86.4701 19.4612 86.084C18.8605 85.4098 18.277 84.7183 17.6878 84.0384C17.5261 84.7183 17.5896 85.2773 17.6243 85.8362C17.682 86.8158 17.3586 87.1039 16.3592 86.9944C16.2206 86.9772 16.0762 86.9541 15.9375 86.9195C12.3098 86.0321 8.9305 84.5742 5.8458 82.4652C4.08971 81.2609 3.1019 79.5783 3.07301 77.452C3.04991 75.6599 3.19434 73.862 3.27521 72.0699C3.29831 71.5743 3.35608 71.0846 3.39652 70.5832C2.61667 70.468 1.99858 70.4161 1.39781 70.2778C0.300263 70.0243 -0.0347739 69.6036 -0.0347739 68.4973C-0.034774 67.9325 0.0287636 67.3621 0.0807503 66.7974C0.981904 56.6325 3.93951 47.2572 10.4382 39.1495C12.1481 37.0232 13.4362 34.5569 14.9208 32.252C15.4234 31.4683 15.6082 30.6616 15.4927 29.6993C15.2616 27.7689 15.7007 25.9998 16.8271 24.3287C18.7854 21.4245 21.3097 19.0792 23.8861 16.7685C27.0863 13.8931 30.7256 11.6688 34.5208 9.69809L34.5497 9.70386ZM178.479 193.362C175.88 192.463 174.505 193.293 173.806 196.168C176.481 197.684 179.317 198.732 182.616 198.813C182.275 196.041 180.963 194.215 178.479 193.362ZM141.521 141.547C139.112 152.253 138.684 162.994 140.839 173.787C142.231 180.765 144.282 187.542 147.476 193.921C150.024 199.009 153.282 203.561 157.903 207.013C160.953 209.289 164.321 210.862 168.151 211.266C172.316 211.709 176.065 210.701 179.173 207.791C181.223 205.866 182.315 203.452 182.639 200.663C182.477 200.576 182.361 200.467 182.234 200.455C176.411 200.052 171.657 197.401 167.51 193.5C164.229 190.412 161.802 186.683 159.792 182.702C154.813 172.842 151.797 162.314 149.412 151.591C148.372 146.929 147.58 142.221 147.297 137.438C147.124 134.551 147.205 131.67 147.684 128.812C147.719 128.593 147.725 128.362 147.742 128.138C145.137 132.431 142.613 136.654 141.515 141.547L141.521 141.547ZM168.85 126.15C167.851 124.6 166.886 123.101 165.915 121.597C165.852 121.626 165.788 121.649 165.725 121.678C166.383 123.603 167.048 125.527 167.77 127.648C168.203 127.043 168.521 126.599 168.85 126.15ZM176.255 129.065C175.655 128.178 174.823 127.561 173.772 127.331C173.408 127.25 172.818 127.308 172.634 127.538C172.443 127.78 172.593 128.311 172.639 128.708C172.662 128.881 172.801 129.042 173.038 129.486C173.552 129.809 174.263 130.356 175.054 130.708C175.389 130.858 176.024 130.719 176.325 130.471C176.787 130.08 176.55 129.509 176.244 129.065L176.255 129.065ZM167.227 142.186C167.302 142.123 167.377 142.065 167.446 142.002C166.343 139.806 164.523 138.377 162.247 137.45C163.905 139.029 165.569 140.607 167.227 142.186ZM115.798 90.9993C116.647 89.9505 117.733 89.0862 118.767 88.0951C116.982 85.986 115.203 83.8885 113.319 81.67C112.17 85.3003 112.326 90.3481 113.66 94.4164C114.377 93.2466 114.966 92.0307 115.798 91.005L115.798 90.9993ZM97.0698 106.846C95.7297 106.546 94.3664 106.275 93.0782 105.82C88.5205 104.212 83.9858 102.536 79.4454 100.887C79.2317 100.807 79.0064 100.743 78.706 100.807C78.9371 101.014 79.1566 101.239 79.405 101.423C84.6039 105.278 90.4383 107.848 96.6019 109.721C99.0917 110.476 101.552 110.338 103.979 109.324C106.561 108.24 109.062 107.007 111.592 105.515C111.309 104.512 111.298 103.555 110.587 102.737C110.31 102.864 110.044 102.939 109.83 103.089C107.745 104.529 105.463 105.549 103.095 106.414C101.119 107.134 99.1205 107.301 97.0756 106.846L97.0698 106.846ZM112.909 104.91C113.747 107.606 114.267 110.407 114.868 113.173C115.162 114.527 115.133 115.898 114.758 117.253C114.111 119.598 112.291 121.09 109.859 120.981C108.409 120.912 106.942 120.606 105.544 120.186C101.87 119.079 98.2309 117.846 94.5743 116.671C94.2797 116.578 93.9736 116.527 93.4479 116.406C93.7136 116.717 93.8061 116.89 93.9505 116.988C97.6648 119.465 101.495 121.747 105.781 123.09C107.115 123.505 108.577 123.741 109.969 123.683C113.204 123.545 115.491 121.851 116.739 118.866C117.155 117.869 117.444 116.803 117.675 115.743C117.779 115.27 117.658 114.711 117.507 114.233C116.583 111.306 115.613 108.39 114.677 105.463C113.938 103.164 113.227 100.859 113.233 98.4039C113.233 98.0409 113.077 97.6721 113.002 97.3091C112.447 94.7218 111.8 92.1575 111.367 89.5529C110.893 86.7121 111.234 83.8828 112.049 81.1283C112.285 80.3331 112.21 79.7108 111.766 79.0078C110.963 77.7343 110.275 76.3974 109.386 74.8186C109.039 75.8097 108.704 76.5703 108.508 77.3713C108.057 79.2325 108.109 81.0938 108.467 82.9896C109.149 86.6545 109.697 90.3481 110.287 94.036C110.876 97.7297 111.8 101.331 112.909 104.91ZM107.635 75.6944C107.71 75.4006 107.705 75.0318 107.595 74.7437C107.248 73.8274 106.838 72.9343 106.312 71.7069C105.117 74.3057 105.781 76.4839 106.694 78.8983C107.063 77.6652 107.381 76.6856 107.641 75.6887L107.635 75.6944ZM102.228 72.5136C103.054 78.4719 104.389 84.3149 106.249 90.0312C107.179 92.8951 108.328 95.6841 109.617 98.4327C109.622 98.2541 109.669 98.0697 109.634 97.9026C108.791 93.1602 107.953 88.4177 107.075 83.6753C106.959 83.0357 106.63 82.4364 106.405 81.8198C105.752 80.0508 104.972 78.3163 104.481 76.5012C103.932 74.4786 104.135 72.4502 105.405 70.6697C105.654 70.3239 106.128 69.886 106.463 69.9148C106.798 69.9436 107.208 70.4449 107.381 70.831C107.814 71.8048 108.126 72.8363 108.56 74.0234C109.195 72.9458 108.427 72.116 108.571 71.2805C108.721 70.4046 108.854 69.5057 109.154 68.6759C109.449 67.8461 109.94 67.0797 110.339 66.3075C108.352 64.9707 106.318 63.605 104.187 62.1759C104.042 62.3949 103.823 62.6773 103.661 62.9884C102.049 65.9906 101.778 69.1945 102.234 72.5021L102.228 72.5136ZM96.2265 70.6409C94.3779 73.2397 92.0442 75.268 89.2483 76.7778C87.7984 77.5615 86.2041 77.7804 84.5808 77.8841C82.6919 78.0051 80.8029 78.1665 78.914 78.3278C78.5558 78.3566 78.1977 78.4719 77.8222 78.737C78.1053 78.8119 78.3825 78.9329 78.6714 78.9502C81.3228 79.1058 83.9685 79.2556 86.62 79.3824C88.1912 79.4573 89.6238 78.9617 90.9004 78.0801C94.557 75.5446 97.7977 72.5943 99.935 68.6183C100.374 67.7942 100.628 66.8723 100.992 66.0079C101.685 64.3599 102.39 62.7233 103.118 61.0292C101.703 59.2083 100.207 57.2779 98.618 55.2381C97.2143 57.082 96.1225 58.9605 96.3189 61.3231C96.3998 62.2624 96.5904 63.1901 96.7463 64.1236C96.8965 65.011 97.0756 65.8869 97.2143 66.7743C97.428 68.1976 97.0698 69.4653 96.2265 70.6524L96.2265 70.6409ZM91.9749 67.6387C90.5827 69.8745 88.5956 71.1825 85.9268 71.2978C84.4595 71.3611 82.9923 71.3035 81.525 71.2862C79.5379 71.2574 77.5507 71.2171 75.552 71.1825C75.5693 71.3554 75.552 71.4937 75.5924 71.5052C79.4916 73.061 83.5006 73.7237 87.6886 73.0149C90.213 72.5885 92.4486 71.4879 94.5975 70.1626C95.643 69.5172 96.0705 68.5434 95.9261 67.3851C95.7239 65.8062 95.4004 64.2388 95.1231 62.6657C95.0018 62.6427 94.8805 62.6196 94.7592 62.5908C94.1296 63.7318 93.4941 64.8785 92.8645 66.0194C92.5699 66.5553 92.3041 67.1143 91.9806 67.6329L91.9749 67.6387ZM88.4049 53.7802C89.1155 55.3245 89.7971 56.8861 90.3459 58.4938C92.0731 63.5301 88.7053 65.6564 85.2914 65.9849C83.2349 66.1808 81.2304 65.7947 79.2837 65.1263C78.7985 64.9592 78.3075 64.7978 77.7991 64.6307C77.7991 64.7459 77.7818 64.8151 77.7991 64.8382C80.4101 66.9299 83.414 67.9844 86.7355 67.7942C88.7169 67.679 90.2881 66.394 91.5012 64.9419C92.6045 63.6165 93.471 62.0549 94.2393 60.5048C94.5917 59.7961 94.5686 58.851 94.5339 58.0213C94.505 57.2779 94.2451 56.5461 94.0487 55.8143C93.8176 54.9499 93.5288 54.0971 93.3035 53.227C92.6507 50.6743 92.1713 48.1215 93.6963 45.7244C91.6341 44.4394 89.7278 43.2581 87.7926 42.0538C86.5795 45.9606 86.6084 49.9021 88.3934 53.7859L88.4049 53.7802ZM95.6719 57.0186C96.5153 55.8546 97.1565 54.9615 97.7746 54.1086C96.7695 51.6078 95.7932 49.1818 94.8112 46.727C94.1989 47.7182 93.8696 48.8303 94.1064 50.0173C94.5628 52.2647 95.1058 54.4947 95.6719 57.0128L95.6719 57.0186ZM68.4757 52.282C71.6413 54.8059 76.5918 54.9903 79.6303 52.7026C81.3575 51.4003 81.7619 49.7926 80.8203 47.8392C80.5141 47.1996 80.1964 46.5599 79.792 45.9779C78.3883 43.9611 78.0128 41.7484 78.4288 39.3627C78.4634 39.1783 78.4807 38.994 78.5154 38.7692C77.4236 38.4292 76.355 38.095 75.1188 37.7089C78.1919 45.1942 75.1476 49.5909 68.4757 52.282ZM60.8506 33.1912C61.7517 33.9519 62.7164 34.6434 63.6522 35.3637C64.5129 36.0321 65.391 36.6717 66.217 37.3805C66.9738 38.0316 67.0951 38.5214 66.6041 39.3685C66.1824 40.0946 65.6798 40.8379 65.0328 41.3508C63.7331 42.3765 62.3236 43.2523 60.943 44.1743C59.9956 44.8024 58.9847 45.3383 58.0778 46.0183C53.7858 49.2279 49.0143 50.1556 43.8096 49.0781C43.723 49.0608 43.6248 49.0781 43.1453 49.1011C43.9887 49.6025 44.5375 50.0116 45.144 50.2709C46.5188 50.8644 47.9745 51.02 49.4649 50.9163C51.5214 50.778 53.5143 50.3055 55.3801 49.4642C58.2742 48.1619 61.1336 46.7789 63.9757 45.3556C65.8646 44.4106 67.2337 42.9527 67.9096 40.8898C68.0193 40.5498 68.4295 40.3135 68.701 40.0254C68.984 40.3078 69.4288 40.5383 69.527 40.8725C70.2895 43.4944 70.0758 45.9722 68.0078 47.9659C67.0604 48.8764 65.986 49.6947 64.8595 50.3804C61.9539 52.161 59.1522 54.1374 55.9578 55.4052C55.9231 55.4167 55.9116 55.4858 55.8076 55.699C56.6279 55.434 57.3442 55.2611 58.0143 54.973C62.029 53.2731 66.0784 51.6366 70.0296 49.7984C74.4544 47.7412 75.9159 43.6038 73.9057 39.1207C73.3511 37.8761 72.5309 36.7524 71.8434 35.5711C71.416 34.8393 70.9654 34.1132 70.6072 33.3411C70.4339 32.9608 70.457 32.494 70.3877 32.0676C70.4975 32.01 70.6072 31.9466 70.717 31.889C71.156 32.275 71.7221 32.5862 72.0052 33.0645C73.2298 35.1101 75.1534 36.1473 77.285 36.9195C77.5103 37.0002 77.724 37.0924 77.9551 37.1615C79.7978 37.7089 79.7574 37.9971 79.5436 39.5529C79.2317 41.8175 79.9191 43.8459 81.1553 45.7301C81.5943 46.3986 81.9929 47.1131 82.2875 47.8507C83.0558 49.758 82.6515 51.4752 81.2651 52.9619C79.6707 54.6676 77.6893 55.5665 75.3614 55.7163C75.0379 55.7394 74.7144 55.7509 74.3447 55.7739C76.6727 57.6064 79.2664 57.6064 81.4557 55.8258C83.0269 54.5466 84.2978 53.0311 85.0487 51.1468C85.2509 50.6339 85.4127 50.0404 85.3607 49.5045C84.991 45.4074 84.5635 41.3162 84.1534 37.2191C84.1418 37.0808 84.1014 36.9425 84.0609 36.7121C83.7317 36.6371 83.3851 36.5276 83.0212 36.4758C79.9307 36.0436 77.1637 34.8566 74.8242 32.8167C72.5135 30.7999 69.8736 29.7338 66.8236 29.5437C65.7376 29.4745 64.6689 29.244 63.4558 29.0712C62.6298 30.2582 61.3993 31.0822 59.8628 31.4222C59.9148 32.2808 60.3711 32.7764 60.8679 33.1912L60.8506 33.1912ZM86.1463 43.1256C86.3427 42.6185 86.4813 42.2497 86.6258 41.8866C86.7644 41.5409 86.903 41.1952 87.0937 40.7342C86.6777 40.1464 86.308 39.6105 85.9326 39.0862C85.6842 39.9908 85.7419 41.3392 86.1521 43.1256L86.1463 43.1256ZM15.8104 33.0702C14.3316 36.107 12.4889 38.919 10.4498 41.5928C5.38945 48.231 2.89972 55.8431 1.83106 63.9968C1.62309 65.5815 1.46713 67.1719 1.27072 68.8891C2.091 69.0043 2.77265 69.1023 3.59293 69.2176C4.47675 60.6316 8.00624 53.1233 12.1538 45.8454C12.3271 45.5342 12.5813 45.2692 13.0261 45.1136C12.7835 45.6552 12.564 46.2084 12.2925 46.7386C9.56593 52.1148 7.16286 57.6179 5.81114 63.5186C5.51654 64.8093 5.24503 66.1059 5.0024 67.4139C4.8522 68.238 4.62694 69.0447 4.97931 69.9206C5.13527 70.3066 4.89844 70.8425 4.86955 71.3151C4.75401 73.3434 4.58071 75.3718 4.55184 77.4001C4.52872 79.0712 5.33745 80.3965 6.72383 81.3358C9.45616 83.1913 12.4427 84.4936 15.6314 85.3291C15.7584 85.3637 15.9086 85.3176 16.0819 85.3061C16.105 84.2515 16.1166 83.2201 16.1512 82.1829C16.1686 81.6988 16.2437 81.1226 16.8213 81.0995C17.1622 81.088 17.607 81.3877 17.8438 81.6815C18.8316 82.8859 19.7558 84.1363 20.7494 85.4328C21.2635 84.9373 21.0614 84.4475 21.0729 84.0211C21.2231 78.0167 21.2 72.0008 21.5466 66.0021C21.9741 58.5629 23.3893 51.262 25.4805 44.0994C25.7577 43.1486 26.0986 42.2151 26.4105 41.2874C25.5844 40.423 24.7815 39.5875 23.8284 38.5963C22.5748 42.3188 21.3791 45.9261 20.5299 49.6428C19.6692 53.3883 19.1666 57.1857 18.8605 61.0119C18.5601 64.7978 18.5139 68.6067 18.046 72.3811C17.9478 72.3811 17.8496 72.3868 17.7514 72.3926C17.6994 72.093 17.6127 71.7933 17.607 71.4879C17.503 65.1954 17.3932 58.8972 18.4215 52.6508C19.2359 47.6721 20.7379 42.8951 22.777 38.2794C22.8868 38.0259 22.9734 37.7666 23.1236 37.3805C22.5575 37.0866 22.0376 36.81 21.3906 36.4758C20.992 37.3344 20.6108 38.0893 20.2815 38.8614C16.648 47.3724 14.9093 56.2983 14.3778 65.4893C14.2161 68.2783 14.0832 71.0673 13.9157 73.8505C13.8753 74.4728 13.7366 75.0952 13.598 76.0229C12.6102 73.6891 12.9395 62.3661 14.037 55.5723C15.1692 48.5537 16.573 44.3472 20.4895 36.2453C18.7565 35.4904 17.1506 34.5223 16.209 32.6496C16.0126 32.8513 15.8624 32.9492 15.7931 33.0818L15.8104 33.0702ZM26.2545 16.878C23.0196 19.4307 19.9407 22.1967 17.8149 25.8212C15.9086 29.0827 17.2488 33.1336 20.7263 34.5685C21.1653 34.7471 21.6159 34.9027 22.0607 35.0525C23.4182 35.5077 24.4753 36.3144 25.209 37.5649C25.492 38.0489 25.8444 38.5099 26.2314 38.9248C27.2943 40.0715 28.1435 40.2444 29.5298 39.5414C30.4599 39.0746 31.3668 38.5445 32.2391 37.974C34.0356 36.7927 35.9534 35.8765 38.0272 35.3003C41.1466 34.4301 44.11 33.1624 47.0156 31.7564C50.0368 30.2985 53.2081 29.7396 56.547 29.9413C57.8121 30.0162 59.106 30.264 60.3249 29.6589C61.2607 29.1979 62.185 28.7196 62.7511 27.619C59.1176 23.3376 59.9263 18.6931 61.717 13.7951C62.3525 14.3137 62.2254 14.8497 62.1792 15.3222C62.0579 16.5956 61.8961 17.8634 61.7459 19.1311C61.3878 22.1678 62.2196 24.8301 64.1837 27.1696C64.5822 27.6479 65.0039 27.8784 65.6162 27.9417C67.4012 28.1261 69.1862 28.3624 71.0347 28.5871C71.0636 23.5047 74.3909 20.007 77.233 16.2614C77.4005 16.0367 77.6431 15.8638 77.8684 15.6909C77.9724 15.6103 78.1226 15.5815 78.3132 15.5008C78.5096 16.1577 78.0937 16.6014 77.8222 17.0509C77.0366 18.3474 76.1701 19.5921 75.4018 20.8944C74.6335 22.1967 73.8884 23.5162 73.2414 24.8877C72.8832 25.6483 72.7099 26.5011 72.5366 27.3309C72.3864 28.057 72.5482 28.76 73.097 29.3016C76.4589 32.6208 80.2599 35.0525 85.2047 35.1044C85.2971 34.2342 85.3318 33.3353 85.5051 32.4652C86.077 29.6128 87.5153 27.2041 89.8375 25.4985C92.5063 23.5393 95.3542 21.8163 98.1385 20.0185C98.4736 19.8053 98.901 19.7304 99.4382 19.8226C99.1147 20.1337 98.8201 20.4852 98.462 20.7445C96.7059 22.0353 94.8978 23.2684 93.1706 24.5996C91.9344 25.5503 90.704 26.5415 89.6354 27.6709C87.5153 29.9009 86.5911 32.5862 86.672 35.6921C86.7413 38.5733 88.4743 40.3596 90.473 41.9616C91.5994 42.8662 92.9858 43.454 94.3606 44.2435C94.505 43.8055 94.6206 43.5174 94.6957 43.2177C95.2907 40.8379 96.8388 39.1207 98.6873 37.6686C101.83 35.1965 105.434 33.6465 109.293 32.6841C109.952 32.5228 110.651 32.5228 111.552 32.4248C111.234 33.2028 110.749 33.2258 110.344 33.3987C107.739 34.5281 105.111 35.623 102.552 36.8446C100.605 37.7781 98.9703 39.1726 97.6186 40.8494C96.342 42.4398 95.7759 44.1685 96.3593 46.2603C97.041 48.6978 97.9941 50.9969 99.3054 53.1521C102.194 57.906 105.648 62.1068 110.766 64.6825C111.552 65.0802 112.135 65.1493 112.984 64.7517C115.081 63.7721 117.265 62.9596 119.425 62.1125C119.922 61.9224 120.471 61.7034 121.141 62.0261C120.621 62.8098 119.847 63.0864 119.16 63.4264C117.415 64.2849 115.636 65.0686 113.891 65.9215C112.638 66.5323 111.569 67.3448 110.882 68.6298C109.981 70.3182 110.05 71.9892 110.789 73.6834C112.233 76.9967 114.018 80.1199 116.393 82.8571C119.027 85.8938 121.776 88.8384 124.41 91.8752C126.334 94.0937 128.177 96.3756 130.02 98.6632C132.348 101.55 134.993 104.109 137.824 106.5C139.048 107.537 140.238 108.626 141.423 109.715C143.456 111.577 144.964 113.807 145.749 116.446C146.431 118.745 147.65 120.629 149.469 122.179C152.335 124.623 154.847 127.377 156.904 130.834C155.899 127.556 154.559 125.573 152.138 123.574C151.445 123.003 150.723 122.444 150.134 121.776C148.874 120.353 148.43 118.693 149.279 116.913C150.128 115.121 151.716 114.481 153.611 114.515C155.379 114.55 156.956 115.19 158.377 116.187C160.341 117.564 161.924 119.31 163.177 121.355C163.385 121.695 163.501 122.087 163.662 122.462C163.05 122.802 162.888 122.387 162.646 122.133C161.329 120.779 160.052 119.379 158.66 118.105C157.458 117.005 155.991 116.273 154.351 116.06C153.617 115.968 152.802 115.956 152.109 116.169C150.203 116.763 149.498 118.883 150.59 120.704C150.971 121.338 151.497 121.972 152.109 122.358C154.963 124.15 156.679 126.818 158.117 129.745C159.717 133.007 162.132 135.473 165.188 137.513C167.856 139.294 170.554 141.028 173.252 142.763C175.476 144.197 177.232 146.105 178.797 148.208C179.103 148.623 179.392 149.049 179.86 149.372C179.421 148.444 178.982 147.517 178.543 146.589C178.624 146.514 178.699 146.439 178.78 146.358C179.04 146.462 179.375 146.491 179.554 146.675C180.501 147.666 181.408 148.692 182.338 149.706C182.875 150.288 183.418 150.864 184.019 151.383C182.205 147.73 179.646 144.693 176.504 142.123C174.638 140.596 172.749 139.086 170.912 137.525C170.051 136.793 169.243 135.992 168.497 135.139C167.556 134.067 167.261 132.73 167.152 131.33C167.076 130.35 166.926 129.365 166.672 128.414C165.534 124.19 163.795 120.209 161.635 116.411C161.311 115.841 160.855 115.351 160.445 114.832C160.046 114.325 159.619 113.841 159.082 113.19C160.012 113.029 160.491 113.328 161.023 113.778C164.367 116.613 166.753 120.186 168.89 123.943C169.098 124.311 169.329 124.675 169.555 125.032C169.601 125.107 169.699 125.153 169.82 125.251C170.005 125.176 170.225 125.101 170.427 124.997C170.802 124.801 171.166 124.582 171.623 124.329C171.374 123.453 171.132 122.6 170.895 121.747C170.768 121.292 170.629 120.837 170.548 120.376C170.352 119.246 170.514 119.045 171.848 118.791C171.022 117.16 170.265 115.535 169.399 113.98C166.36 108.523 163.333 103.06 160.191 97.6663C158.573 94.8889 156.644 92.29 155.003 89.5241C152.883 85.9457 150.902 82.2808 148.886 78.639C147.24 75.6599 145.697 72.6173 143.982 69.6785C142.295 66.7916 140.111 64.3195 137.35 62.3661C135.975 61.3922 134.525 60.8909 132.821 61.0638C132.099 61.1387 131.319 61.3807 130.632 60.8679C131.129 59.8076 131.417 59.7154 134.987 59.4215C134.288 58.0558 133.434 56.742 132.931 55.3072C132.053 52.8121 131.377 50.2536 130.655 47.7066C129.771 44.618 129.055 41.4775 127.657 38.556C126.715 36.5795 125.577 34.7413 124.064 33.1336C122.585 31.5605 120.823 30.7019 118.651 30.7249C117.658 30.7365 116.658 30.7826 115.665 30.7653C115.231 30.7538 114.804 30.6212 114.238 30.5175C115.301 29.4803 115.821 29.3766 120.361 29.1634C120.326 29.0366 120.332 28.8867 120.263 28.8118C115.878 23.9714 111.465 19.1599 106.578 14.8035C103.655 12.2047 100.455 10.015 96.9139 8.36698C95.4639 7.69279 93.9216 7.16841 92.3677 6.77656C90.2592 6.25219 88.2259 6.69014 86.3311 7.74464C85.6033 8.14801 84.8523 8.52256 84.0609 8.93168C83.9801 8.15568 85.0372 6.98786 87.2323 5.42817C85.7188 5.01905 84.2631 4.63298 82.819 4.22961C79.2086 3.23272 75.6213 2.1033 71.8608 1.7806C70.5379 1.66537 69.1977 1.53282 67.8865 1.65959C64.9057 1.9477 62.416 3.12323 60.9719 5.94679C60.5271 6.82267 59.7934 6.92639 59.3602 6.09085C58.4302 4.29875 56.8763 4.10284 55.2357 4.40825C52.4456 4.92686 49.6266 5.45123 46.9232 6.29254C39.4425 8.63205 32.447 12.0088 26.2718 16.878L26.2545 16.878Z" fill="#4C1F21"/>
<path d="M118.767 66.9703C118.403 67.1259 118.12 67.2699 117.82 67.3736C115.405 68.2149 114.625 69.5922 115.214 72.0815C115.364 72.7211 115.584 73.355 115.838 73.96C116.664 75.9365 117.762 77.7747 119.148 79.3997C121.297 81.9178 123.458 84.436 125.739 86.8389C130.268 91.6159 134.751 96.4275 138.823 101.602C141.134 104.541 143.398 107.52 145.669 110.488C145.934 110.833 146.119 111.243 146.339 111.623C146.246 111.698 146.16 111.767 146.067 111.842C145.703 111.513 145.299 111.219 144.975 110.856C143.687 109.404 142.422 107.935 141.157 106.46C138.292 103.118 135.496 99.7178 132.55 96.4505C128.749 92.2325 124.798 88.147 120.956 83.9635C118.553 81.3416 116.295 78.5987 114.758 75.3545C114.042 73.8505 113.499 72.2832 113.533 70.589C113.58 68.3532 115.237 66.5727 117.398 66.4113C117.889 66.3768 118.42 66.3018 118.767 66.9703Z" fill="#4C1F21"/>
<path d="M141.313 70.5198C140.568 69.1772 139.834 67.8231 139.095 66.4747C139.199 66.4055 139.297 66.3306 139.401 66.2615C139.73 66.6245 140.094 66.9587 140.377 67.3505C143.785 72.0872 146.65 77.1408 149.383 82.2924C151.711 86.6775 154.073 91.0511 156.632 95.3038C159.122 99.4354 161.924 103.383 164.517 107.451C166.17 110.044 167.706 112.706 169.277 115.345C169.549 115.806 169.838 116.302 169.503 117.045C169.22 116.676 169.017 116.446 168.85 116.192C166.707 112.96 164.604 109.692 162.415 106.489C157.297 99.0263 152.554 91.345 148.407 83.295C146.177 78.9675 143.681 74.7782 141.313 70.5198Z" fill="#4C1F21"/>
<path d="M49.309 7.68696C50.0542 7.48528 50.8225 7.22596 51.7006 7.71C51.0363 7.99236 50.3835 8.29201 49.7076 8.54555C43.6769 10.8044 38.1082 13.9161 32.8284 17.5752C28.7617 20.3872 24.9838 23.5277 21.4658 26.9966C20.9171 27.5383 20.3856 28.1376 19.4902 28.2759C19.6347 27.7803 19.8542 27.3424 20.143 26.9621C22.0493 24.4612 24.3079 22.3003 26.7572 20.3526C31.2514 16.7742 36.0229 13.5991 41.1409 10.96C43.7577 9.61159 46.4554 8.45912 49.3033 7.6812L49.309 7.68696Z" fill="#4C1F21"/>
<path d="M135.109 81.8255C135.346 82.0963 135.611 82.3441 135.819 82.6322C141.192 89.9446 146.558 97.2571 151.901 104.581C152.046 104.777 151.942 105.157 151.953 105.451C151.665 105.394 151.26 105.44 151.098 105.267C150.394 104.506 149.701 103.722 149.1 102.875C144.871 96.8941 140.654 90.907 136.461 84.9026C135.825 83.9921 135.346 82.9722 134.791 81.9984C134.895 81.9407 134.999 81.8831 135.103 81.8255L135.109 81.8255Z" fill="#4C1F21"/>
<path d="M168.249 136.873C168.59 137.507 169.133 138.118 168.908 139.196C168.532 138.982 168.226 138.907 168.088 138.717C167.527 137.957 167.002 137.167 166.493 136.372C163.882 132.298 161.196 128.287 157.176 125.4C157.02 125.291 156.829 125.187 156.748 125.037C156.633 124.824 156.598 124.565 156.448 124.064C157.152 124.271 157.707 124.3 158.094 124.565C159.296 125.395 160.555 126.19 161.566 127.216C164.339 130.039 166.395 133.399 168.255 136.868L168.249 136.873Z" fill="#4C1F21"/>
<path d="M147.245 82.4595C147.477 82.8917 147.788 83.3354 147.436 83.8828C146.171 82.9781 136.888 67.7021 136.432 65.8466C136.513 65.7832 136.588 65.7141 136.669 65.6507C137.09 66.1808 137.552 66.6879 137.928 67.2526C139.886 70.203 141.885 73.136 143.751 76.144C145.016 78.1896 146.096 80.3505 147.245 82.4595Z" fill="#4C1F21"/>
<path d="M126.386 41.1086C125.364 39.7487 124.416 38.3369 123.342 37.0231C122.123 35.5249 120.442 34.9775 118.542 35.0236C118.166 35.0351 117.779 35.0812 117.409 35.0236C117.225 34.9948 116.959 34.7873 116.924 34.6202C116.884 34.4416 117.022 34.1131 117.178 34.0324C117.588 33.8192 118.045 33.6175 118.495 33.5657C120.881 33.2776 122.984 34.0151 124.451 35.8706C125.728 37.4841 126.698 39.3453 127.755 41.1317C127.969 41.4947 127.952 41.9903 128.038 42.4282C127.894 42.4858 127.744 42.5435 127.599 42.6011C127.195 42.1055 126.767 41.6272 126.386 41.1144L126.386 41.1086Z" fill="#4C1F21"/>
<path d="M77.3775 4.19497C77.7472 4.30445 78.0765 4.54647 78.4231 4.73086C78.3769 4.88069 78.3364 5.02474 78.2902 5.17456C77.7877 5.13422 77.2851 5.10541 76.7883 5.04779C74.8127 4.81153 72.8429 4.54647 70.8615 4.33326C68.9552 4.13158 67.0836 4.24682 65.2987 5.08813C65.0214 5.22066 64.6517 5.15151 64.3224 5.17456C64.2762 5.06508 64.2242 4.94984 64.178 4.84035C64.5535 4.45427 64.8827 3.99903 65.316 3.69363C66.3211 2.99062 67.5111 2.81199 68.7069 2.81776C71.6702 2.81776 74.547 3.36518 77.3775 4.20072L77.3775 4.19497Z" fill="#4C1F21"/>
<path d="M56.7146 18.4742C57.3963 21.6319 57.3616 24.9626 59.0599 27.8783C59.1812 28.0915 59.0137 28.6908 58.8058 28.8176C58.5863 28.9501 58.1183 28.8003 57.8237 28.6447C57.5985 28.5237 57.4309 28.2298 57.3327 27.9763C57.0381 27.2387 56.6395 26.5011 56.5413 25.729C56.2005 23.0207 55.9521 20.3008 55.6979 17.5868C55.6633 17.1892 55.7846 16.7743 55.8366 16.3651C55.9695 16.3536 56.0965 16.3421 56.2294 16.3306C56.3911 17.0451 56.5644 17.7654 56.7204 18.4799L56.7146 18.4742Z" fill="#4C1F21"/>
<path d="M73.2357 15.4891C72.3519 18.5201 71.4219 21.5396 70.5958 24.5821C70.3648 25.4292 70.463 26.3627 70.307 27.2386C70.255 27.5267 69.8795 27.7572 69.6542 28.0107C69.4001 27.7745 69.0304 27.5843 68.9148 27.2962C68.7877 26.9735 68.834 26.5471 68.8917 26.1841C69.0015 25.4868 69.0881 24.7723 69.325 24.1096C70.4687 20.9173 71.6472 17.7364 72.8314 14.5556C72.97 14.1811 73.2357 13.8469 73.4379 13.4953C73.5419 13.5357 73.6459 13.5818 73.7556 13.6221C73.5823 14.2445 73.4148 14.8668 73.2299 15.4834L73.2357 15.4891Z" fill="#4C1F21"/>
<path d="M126.461 45.5516C126.559 45.5227 126.663 45.4997 126.762 45.4709C126.964 45.759 127.212 46.0183 127.357 46.3295C128.818 49.5103 129.904 52.8294 130.776 56.2177C130.863 56.5634 130.736 56.9668 130.707 57.3471C130.563 57.3702 130.418 57.3932 130.28 57.4163C130.124 57.1973 129.904 56.9956 129.823 56.7478C128.674 53.3538 127.53 49.9598 126.421 46.5542C126.323 46.2546 126.444 45.8858 126.467 45.5458L126.461 45.5516Z" fill="#4C1F21"/>
<path d="M84.6503 21.8394C84.737 21.6953 84.9276 21.6146 85.072 21.5052C85.1529 21.5685 85.2337 21.6319 85.3088 21.6953C84.9853 22.4675 84.6792 23.2512 84.3384 24.0176C83.1599 26.6567 81.9064 29.2671 81.8544 32.2404C81.8486 32.713 81.6234 33.1048 81.115 33.1221C80.52 33.1394 80.2543 32.6784 80.2832 32.1771C80.3236 31.428 80.4334 30.6673 80.6298 29.9413C81.4154 26.9737 83.0848 24.4267 84.6503 21.8336L84.6503 21.8394Z" fill="#4C1F21"/>
<path d="M107.173 42.0422C107.225 42.1114 107.277 42.1805 107.329 42.2497C106.965 42.6415 106.596 43.0276 106.232 43.4194C104.684 45.0675 103.107 46.6925 101.61 48.3808C101.056 49.0089 100.68 49.7926 100.241 50.5187C99.9929 50.9278 99.6752 51.1871 99.1958 50.9912C98.6008 50.7492 98.6643 50.2306 98.8723 49.7926C99.1322 49.2452 99.4615 48.715 99.8254 48.2252C101.651 45.759 104.141 44.0245 106.555 42.2151C106.717 42.0941 106.965 42.0941 107.173 42.0365L107.173 42.0422Z" fill="#4C1F21"/>
<path d="M109.386 19.6728C110.703 20.8829 112.026 22.093 113.285 23.3665C114.047 24.1329 114.706 25.003 115.382 25.8501C115.648 26.1843 115.879 26.5761 115.411 26.9507C114.105 26.4321 108.225 20.4795 107.762 19.1139C108.525 18.9352 108.981 19.2983 109.38 19.667L109.386 19.6728Z" fill="#4C1F21"/>
<path d="M89.2253 21.8277C89.2658 21.7816 89.3871 21.7989 89.6586 21.7644C89.4217 22.2023 89.2542 22.5653 89.0347 22.888C88.2433 24.0635 87.4288 25.2218 86.6374 26.4031C85.3608 28.3104 84.3903 30.3445 84.0726 32.6437C84.061 32.7359 84.0437 32.8281 84.0264 32.9261C83.9282 33.4389 83.6971 33.8307 83.1021 33.7846C82.5938 33.7443 82.3801 33.3121 82.5476 32.5515C82.6689 31.9983 82.8653 31.4624 83.0617 30.9323C84.3614 27.3942 86.8107 24.6225 89.2253 21.8335L89.2253 21.8277Z" fill="#4C1F21"/>
<path d="M97.2374 33.3987L97.5956 33.5658C97.4165 34.0671 97.2894 34.5915 97.0526 35.064C96.3421 36.4989 95.568 37.8991 94.8633 39.3339C94.4704 40.1349 94.1816 40.982 93.8466 41.8118C93.6559 42.2843 93.3556 42.6934 92.7952 42.509C92.258 42.3361 92.1714 41.8348 92.3042 41.3335C92.4255 40.884 92.5468 40.4057 92.7837 40.0139C93.9737 38.0432 95.1925 36.0897 96.4287 34.1478C96.6193 33.8482 96.9602 33.6465 97.2317 33.3987L97.2374 33.3987Z" fill="#4C1F21"/>
<path d="M107.716 44.1858C107.774 44.2607 107.832 44.3299 107.89 44.4048C107.762 44.641 107.658 44.9003 107.502 45.1193C105.527 47.8795 103.338 50.5071 102.084 53.7225C101.905 54.1835 101.501 54.437 101.073 54.1662C100.831 54.0106 100.588 53.492 100.675 53.25C100.934 52.5009 101.235 51.7172 101.72 51.1064C103.447 48.9225 105.25 46.8019 107.04 44.6699C107.214 44.4624 107.491 44.3472 107.716 44.1858Z" fill="#4C1F21"/>
<path d="M129.269 64.8498C128.194 65.0918 127.287 65.91 125.676 65.9043C125.913 65.547 125.993 65.3626 126.126 65.2301C126.525 64.8382 126.895 64.3542 127.374 64.1122C129.482 63.0519 131.735 62.5448 134.098 62.637C134.803 62.6658 135.629 62.6485 136.004 63.7146C134.797 63.8356 133.682 63.8874 132.585 64.0776C131.47 64.2678 130.378 64.5962 129.269 64.8498Z" fill="#4C1F21"/>
<path d="M135.045 67.898C135.496 68.019 135.773 68.1976 135.952 68.4512C137.171 70.1914 138.419 71.9259 139.568 73.7122C140.331 74.905 140.961 76.1843 141.631 77.4289C141.804 77.7516 142.041 78.1031 141.423 78.5295C141.203 78.3221 140.955 78.1665 140.816 77.9418C138.956 74.9223 137.108 71.9028 135.276 68.8661C135.115 68.5952 135.12 68.2264 135.045 67.898Z" fill="#4C1F21"/>
<path d="M108.542 35.7959C108.623 35.8996 108.704 36.0034 108.779 36.1128C107.237 37.0233 105.694 37.9395 104.146 38.8385C101.853 40.1696 99.8601 41.7945 98.7395 44.2839C98.6413 44.4971 98.5546 44.7795 98.3755 44.8716C98.1156 45.0042 97.7112 45.131 97.5033 45.0157C97.3011 44.9005 97.1798 44.4798 97.1855 44.1974C97.1855 43.9439 97.3762 43.6616 97.5495 43.4483C98.1791 42.6819 98.7972 41.904 99.4846 41.1895C101.501 39.092 104.187 38.049 106.676 36.7006C107.283 36.3721 107.918 36.0956 108.542 35.7959Z" fill="#4C1F21"/>
<path d="M105.949 39.5067C105.885 40.3308 105.411 40.5382 105.094 40.8263C102.818 42.9411 100.322 44.8772 99.0802 47.8679C99.0629 47.914 99.0398 47.9543 99.0109 47.9947C98.7452 48.352 98.4217 48.6631 97.9422 48.4384C97.4108 48.1849 97.3472 47.7181 97.613 47.2456C97.9365 46.6751 98.2888 46.1104 98.6874 45.5918C100.241 43.5865 102.379 42.2323 104.314 40.6592C104.764 40.2904 105.267 39.985 105.943 39.5125L105.949 39.5067Z" fill="#4C1F21"/>
<path d="M53.7686 20.8885C54.4733 23.0263 55.1665 25.1641 55.8077 27.3193C55.8943 27.6016 55.7673 28.1318 55.5535 28.2643C55.3398 28.4026 54.7101 28.3219 54.5946 28.1318C54.1845 27.4633 53.7859 26.7373 53.6241 25.9766C53.2198 24.0923 52.9425 22.1792 52.6421 20.2777C52.5844 19.9319 52.6537 19.5689 52.6652 19.2116C52.7981 19.1771 52.9252 19.1425 53.058 19.1021C53.3007 19.6957 53.5721 20.2777 53.7743 20.8827L53.7686 20.8885Z" fill="#4C1F21"/>
<path d="M31.0549 21.3495C30.2231 22.8823 24.383 28.3508 22.8348 28.8982C24.6314 26.1495 26.7629 24.0809 29.0851 22.1966C29.6166 21.7644 30.1538 21.1305 31.0549 21.3495Z" fill="#4C1F21"/>
<path d="M152.288 118.999C152.283 118.906 152.277 118.814 152.271 118.722C152.479 118.515 152.658 118.175 152.901 118.123C153.629 117.973 154.414 117.754 155.113 117.887C157.251 118.301 158.81 119.667 160.156 121.298C160.301 121.471 160.416 121.73 160.405 121.943C160.387 122.191 160.22 122.427 160.075 122.761C157.851 120.48 155.604 118.676 152.294 118.999L152.288 118.999Z" fill="#4C1F21"/>
<path d="M108.577 49.5102C108.236 49.9308 107.918 50.3745 107.554 50.7721C106.128 52.351 104.655 53.8838 103.661 55.7969C103.557 55.9986 103.413 56.2349 103.222 56.3328C103.002 56.4423 102.65 56.523 102.459 56.4192C102.263 56.3098 102.119 55.9871 102.084 55.7335C102.055 55.5261 102.171 55.2725 102.286 55.0709C103.765 52.5815 105.931 50.7952 108.253 49.1875C108.363 49.2912 108.467 49.3949 108.577 49.4987L108.577 49.5102Z" fill="#4C1F21"/>
<path d="M86.3254 9.15051C86.7413 8.89697 87.1342 8.53971 87.5847 8.4187C88.2606 8.2343 89.0115 8.04991 89.6759 8.16515C91.5359 8.48785 93.3671 8.94307 95.2041 9.39254C95.4582 9.45593 95.6546 9.74981 95.8741 9.9342C95.8395 10.0264 95.799 10.1186 95.7644 10.2166C94.7477 10.0898 93.731 9.95724 92.7086 9.83623C91.6283 9.7037 90.5481 9.50203 89.4679 9.46745C88.4685 9.43864 87.4692 9.58845 86.4698 9.6576C86.4236 9.49049 86.3774 9.32339 86.3254 9.15628L86.3254 9.15051Z" fill="#4C1F21"/>
<path d="M50.9381 22.3982C51.5793 24.0175 52.1916 25.6424 52.7577 27.2847C52.8386 27.521 52.6942 27.9935 52.4978 28.1203C52.2898 28.2586 51.7815 28.2297 51.6082 28.0626C51.25 27.7111 50.915 27.2617 50.7821 26.7892C50.4009 25.4292 50.1121 24.0463 49.8348 22.6633C49.7597 22.283 49.8521 21.8739 49.8637 21.4763C49.9908 21.4474 50.1236 21.4129 50.2507 21.3841C50.4875 21.7183 50.7995 22.0237 50.9439 22.3925L50.9381 22.3982Z" fill="#4C1F21"/>
<path d="M119.841 75.6541C119.275 74.2769 118.865 72.8247 118.519 71.3726C118.357 70.6927 118.397 69.8917 119.437 69.4768C119.57 72.6288 120.962 75.3026 121.863 78.1492C120.742 77.619 120.24 76.6221 119.841 75.6541Z" fill="#4C1F21"/>
<path d="M90.5251 33.8425C90.0745 35.2831 89.5951 36.7179 89.1329 38.1585C88.9885 38.5964 88.7517 38.9767 88.2433 38.8845C87.6541 38.7808 87.5617 38.2968 87.6368 37.7839C87.6772 37.5073 87.7408 37.2192 87.8621 36.9657C88.665 35.2543 89.4853 33.5486 90.3171 31.8545C90.4327 31.624 90.6695 31.4511 90.8486 31.2552C90.9641 31.3128 91.0797 31.3704 91.1952 31.4223C90.9757 32.229 90.7793 33.0415 90.5309 33.8367L90.5251 33.8425Z" fill="#4C1F21"/>
<path d="M93.7079 32.5516C93.8061 32.6899 93.8581 32.7302 93.8523 32.759C93.0263 35.3521 91.6226 37.7435 91.2009 40.4748C91.172 40.6708 90.6406 40.9934 90.4904 40.9243C90.2073 40.7975 89.8318 40.4114 89.8607 40.1694C89.9243 39.5759 90.1207 38.9651 90.3979 38.4349C91.3338 36.6371 92.3216 34.868 93.3036 33.099C93.4076 32.9146 93.5635 32.7533 93.7195 32.5516L93.7079 32.5516Z" fill="#4C1F21"/>
<path d="M108.756 53.4171C107.757 55.0651 106.752 56.7074 105.706 58.3266C105.59 58.4995 105.094 58.6551 104.995 58.5686C104.793 58.39 104.574 57.9636 104.66 57.7792C105.082 56.8918 105.533 56.0044 106.105 55.2092C106.757 54.3045 107.398 53.3422 108.669 52.8754C108.721 53.1635 108.802 53.3306 108.75 53.4171L108.756 53.4171Z" fill="#4C1F21"/>
<path d="M67.8692 19.2521C67.9905 19.2521 68.1118 19.2636 68.2274 19.2694C68.2736 19.4365 68.3602 19.5978 68.3602 19.7649C68.3545 21.8394 68.3314 23.9081 68.314 25.9825C68.314 26.0747 68.314 26.1957 68.262 26.2534C68.083 26.4435 67.8923 26.7374 67.6786 26.7604C67.4591 26.7835 67.1298 26.6049 66.9854 26.4089C66.8294 26.2073 66.7601 25.873 66.7832 25.6137C66.9912 23.4644 67.4186 21.3553 67.8634 19.2521L67.8692 19.2521Z" fill="#4C1F21"/>
<path d="M33.8162 34.7239C32.7707 35.6632 31.5923 36.4699 30.1712 36.7638C30.0037 36.7984 29.79 36.6024 29.5935 36.5045C30.1192 35.571 33.331 33.1047 34.9254 32.419C35.5146 33.727 34.4112 34.1765 33.8162 34.7181L33.8162 34.7239Z" fill="#4C1F21"/>
<path d="M159.654 129.204C161.537 130.512 163.004 132.194 164.027 134.24C164.113 134.413 163.94 134.718 163.824 135.26C161.935 133.324 160.301 131.538 158.937 129.192C159.388 129.192 159.561 129.14 159.654 129.204Z" fill="#4C1F21"/>
<path d="M80.0925 24.7898C80.1618 24.8589 80.2253 24.8935 80.2253 24.9165C79.8383 27.1754 79.4513 29.44 79.0238 31.6931C78.9834 31.889 78.6368 32.1541 78.423 32.1656C78.2035 32.1771 77.7992 31.9524 77.7645 31.7738C77.6721 31.2897 77.5912 30.7192 77.753 30.2755C78.3884 28.5007 79.1162 26.7663 79.821 25.0145C79.8614 24.9165 80.0058 24.8589 80.0983 24.784L80.0925 24.7898Z" fill="#4C1F21"/>
<path d="M77.2332 24.8818C77.3545 24.9164 77.4758 24.9452 77.5971 24.9798C77.6202 25.5099 77.7126 26.0516 77.6491 26.5702C77.5104 27.6881 77.2794 28.7945 77.1003 29.9124C77.0194 30.4079 76.9097 30.9093 76.2858 30.8459C75.7197 30.7825 75.558 30.31 75.558 29.7971C75.558 29.5666 75.5868 29.3246 75.6504 29.0999C75.9623 28.0165 76.2627 26.9217 76.6209 25.8557C76.7364 25.5042 77.0252 25.2103 77.2332 24.8876L77.2332 24.8818Z" fill="#4C1F21"/>
<path d="M47.4894 24.3115C47.4894 24.2481 47.6165 24.1962 47.7378 24.0925C48.379 24.2884 48.5927 24.8819 48.8295 25.4178C49.2108 26.2764 49.5401 27.1523 49.9155 28.0167C50.0946 28.4258 50.2968 28.9156 49.7596 29.0827C49.4592 29.1749 48.8411 28.9675 48.6909 28.7082C47.9111 27.3598 47.4085 25.9076 47.4894 24.3115Z" fill="#4C1F21"/>
<path d="M103.632 15.6967C104.799 15.1781 106.162 15.472 107.243 16.6936C106.139 16.7858 105.227 16.7167 104.412 16.9645C103.574 17.2238 102.829 17.7885 101.974 18.261C101.841 17.0394 102.408 16.2499 103.632 15.6967Z" fill="#4C1F21"/>
<path d="M109.825 56.0908C109.703 57.6063 108.872 58.8279 108.103 60.061C107.988 60.2454 107.399 60.3722 107.271 60.257C107.046 60.0495 106.832 59.5712 106.925 59.335C107.179 58.6838 107.572 58.0788 107.965 57.4968C108.398 56.8457 108.704 56.062 109.605 55.745C109.732 55.941 109.825 56.0216 109.819 56.0965L109.825 56.0908Z" fill="#4C1F21"/>
<path d="M121.563 71.7183C121.407 71.2112 121.187 70.6523 121.771 69.9608C122.961 71.8566 123.573 73.7755 123.642 75.8845C122.458 74.7263 122.019 73.2165 121.563 71.7183Z" fill="#4C1F21"/>
<path d="M46.0915 29.5782C45.5023 28.2471 45.1557 26.8526 45.3694 25.3717C45.3752 25.3314 45.5254 25.3141 45.7853 25.2161C46.3572 26.8123 46.9291 28.4027 47.501 30.0104C46.7096 30.1717 46.3283 30.1141 46.0915 29.5782Z" fill="#4C1F21"/>
<path d="M137.05 75.9768C135.519 74.4901 134.583 72.7556 133.93 70.8598C135.097 71.511 136.565 73.6027 137.05 75.1297C137.131 75.3833 137.05 75.6887 137.05 75.971L137.05 75.9768Z" fill="#4C1F21"/>
<path d="M64.5419 25.389C64.2647 24.0118 64.3629 22.6518 64.8019 21.3035C65.7204 22.7325 65.3391 24.3518 65.6973 25.9076C64.9405 26.1381 64.6402 25.8442 64.5477 25.3947L64.5419 25.389Z" fill="#4C1F21"/>
<path d="M133.341 83.7906C134.664 85.0122 136.362 87.7666 136.38 88.7231C135.432 88.1815 133.503 85.0583 133.341 83.7906Z" fill="#4C1F21"/>
<path d="M42.949 28.3623C44.0465 28.7715 44.3354 29.7799 45.017 30.3734C45.1383 30.4829 45.1036 30.771 45.1383 30.9785C44.8841 31.0188 44.526 31.1917 44.3989 31.0879C43.6075 30.4253 43.0125 29.6243 42.949 28.3623Z" fill="#4C1F21"/>
<path d="M74.1022 28.6677C73.5765 27.4634 74.1773 26.5818 74.9225 25.7347C75.0784 26.818 75.0091 27.8437 74.1022 28.6677Z" fill="#4C1F21"/>
<path d="M97.7227 12.2509C98.7279 12.0953 99.4499 12.4525 100.068 13.0518C100.184 13.1613 100.16 13.4955 100.085 13.6799C100.039 13.7952 99.7388 13.9162 99.6117 13.8701C98.8145 13.605 98.0462 13.2766 97.7227 12.2509Z" fill="#4C1F21"/>
<path d="M40.829 29.3074C41.4125 30.1372 41.8399 30.6904 42.1923 31.2839C42.3021 31.4683 42.2096 31.7679 42.2039 32.0215C41.9439 31.9927 41.6031 32.0561 41.4298 31.9178C40.6962 31.33 40.598 30.5348 40.829 29.3074Z" fill="#4C1F21"/>
<path d="M61.1106 10.1475C60.5965 9.21396 60.5099 8.44181 61.1337 7.61202C61.9598 8.86246 61.9656 9.28887 61.1106 10.1475Z" fill="#4C1F21"/>
<path d="M40.3842 32.2577C40.4188 32.4017 40.2224 32.6553 40.0665 32.7763C39.9971 32.8281 39.6737 32.6956 39.6217 32.5803C39.3502 31.9695 39.0729 31.353 39.1595 30.4252C39.8874 31.013 40.2166 31.595 40.3842 32.2634L40.3842 32.2577Z" fill="#4C1F21"/>
<path d="M110.512 61.4211C110.477 60.4127 110.766 60.0266 111.922 59.5426C111.639 60.3666 111.517 61.1849 110.512 61.4211Z" fill="#4C1F21"/>
<path d="M127.42 61.64C127.033 61.7033 126.687 61.7667 126.04 61.8762C126.636 61.2001 127.097 61.1213 127.42 61.64Z" fill="#4C1F21"/>
<path d="M9.06345 61.7551C8.39914 60.8043 9.17897 60.0725 9.42736 59.3061C9.68731 58.5052 10.0859 57.7445 10.4267 56.9724C10.912 55.8698 11.3625 55.1918 11.7784 54.9383C11.5474 57.0069 9.97615 61.0118 9.06345 61.7551Z" fill="#4C1F21"/>
<path d="M7.60778 70.7216C7.9486 73.3953 7.91971 76.069 7.42293 78.7485C7.06478 76.0748 7.26696 73.3953 7.60778 70.7216Z" fill="#4C1F21"/>
<path d="M16.8503 36.8331C16.5673 38.1988 14.7823 41.1145 13.9101 41.6389C14.0891 40.3539 15.7181 37.6917 16.8503 36.8331Z" fill="#4C1F21"/>
<path d="M13.0724 82.5977C12.2695 81.3933 12.437 80.2812 12.6334 79.1691C13.2284 80.3734 13.3786 81.5777 13.0724 82.5977Z" fill="#4C1F21"/>
<path d="M65.7724 31.837C66.6909 32.6437 67.696 33.4101 68.4296 34.3666C70.0182 36.4469 71.0869 38.8267 72.0227 41.2642C72.1382 41.5581 72.1266 41.9038 72.1729 42.2207C72.0746 42.2553 71.9765 42.2899 71.8782 42.3245C69.377 38.7576 67.8173 34.5107 63.9701 31.6237C64.9406 31.2261 65.4027 31.5085 65.7782 31.837L65.7724 31.837Z" fill="#4C1F21"/>
<path d="M82.8364 44.8772C81.4616 43.0332 80.9532 40.25 81.8197 38.7576C82.6689 40.6188 83.2119 44.0128 82.8364 44.8772Z" fill="#4C1F21"/>
<path d="M90.502 46.1566C90.5829 47.6606 90.5655 49.1876 90.8428 50.657C91.253 52.8295 91.8942 54.9615 92.4314 57.1167C92.5873 57.7332 92.7202 58.3556 92.8646 58.9722L92.5238 59.1162C92.3389 58.8511 92.1137 58.6091 91.975 58.321C90.502 55.2785 89.4969 52.0861 89.1907 48.7151C89.1098 47.7932 89.2774 46.8366 89.4044 45.9089C89.4564 45.5228 89.6817 45.1655 89.8319 44.791C90.6637 45.0906 90.4789 45.6496 90.502 46.1566Z" fill="#4C1F21"/>
<path d="M105.839 64.1293C106.255 65.3855 105.469 68.284 104.343 69.373C104.291 67.7653 104.47 66.2038 105.14 64.7344C105.25 64.4981 105.567 64.354 105.839 64.1293Z" fill="#4C1F21"/>
<path d="M99.4615 59.4215C99.5366 59.2544 99.9121 59.0411 99.9987 59.093C100.201 59.214 100.461 59.5021 100.438 59.6923C100.27 60.9946 99.941 62.245 98.8665 63.2246C98.6644 61.882 98.9301 60.6258 99.4673 59.4215L99.4615 59.4215Z" fill="#4C1F21"/>
</g>
<defs>
<clipPath id="clip0_35_13847">
<rect width="213" height="196" fill="white" transform="matrix(-4.37114e-08 -1 -1 4.37114e-08 196 213)"/>
</clipPath>
</defs>
</svg>
