<svg width="32" height="32" viewBox="0 0 32 32" fill="none" xmlns="http://www.w3.org/2000/svg">
<g clip-path="url(#clip0_35_14568)">
<path d="M2.74733 11.0916C2.65911 11.1894 2.58397 11.3892 2.62808 11.4887C2.66873 11.582 2.87378 11.6499 3.00502 11.648C3.26009 11.6438 3.51506 11.5826 3.769 11.5462C3.87734 11.5297 3.98558 11.5156 4.13 11.4944C3.80271 11.7765 3.4938 12.0037 3.23373 12.2762C3.00604 12.5142 2.80043 12.7865 2.64231 13.0769C2.47489 13.3829 2.6386 13.6409 2.98838 13.6209C3.25384 13.6047 3.51432 13.5005 3.77367 13.4235C3.89518 13.3877 4.00903 13.3281 4.18783 13.2539C4.04202 13.5757 3.90336 13.8149 3.82219 14.0701C3.69512 14.4769 3.90973 14.7308 4.32801 14.7C4.47695 14.6889 4.6293 14.6556 4.77346 14.6109C5.12081 14.5004 5.47506 14.4026 5.8042 14.2542C7.45481 13.5125 9.17522 13.0559 10.9818 12.9357C11.0736 12.9296 11.1623 12.9098 11.253 12.9024C12.1589 12.8387 12.9989 12.5458 13.821 12.1767C14.2221 11.9954 14.6288 11.8256 15.0455 11.6845C15.3241 11.5897 15.6238 11.554 15.9685 11.4792C15.7745 12.4227 16.1339 13.0922 16.7448 13.6634C16.8568 13.767 16.9611 13.8778 17.0797 13.9706C17.4128 14.2319 17.6237 14.5748 17.7645 14.968C18.0173 15.6714 18.3561 16.329 18.8037 16.9317C18.9642 17.1475 19.108 17.3787 19.249 17.5887C18.9911 17.9875 18.7304 18.3937 18.4684 18.801C18.299 18.8285 18.1221 18.8558 17.9465 18.8844C17.9098 18.8445 17.8751 18.8146 17.8494 18.7789C17.5155 18.2997 17.0902 17.964 16.49 17.8771C16.3941 17.8632 16.3087 17.7446 16.2239 17.6705C16.0462 17.5109 15.8983 17.2882 15.6906 17.1966C15.2228 16.9903 14.8228 16.7002 14.4587 16.3534C13.9232 15.8411 13.3204 15.6972 12.6164 15.9623C11.666 16.3211 10.7022 16.6472 9.75954 17.0274C8.52241 17.5265 7.86496 18.4568 7.84235 19.8009C7.83535 20.147 7.87389 20.4988 7.9339 20.8404C8.05098 21.5047 8.33399 22.1068 8.66595 22.6923C9.40228 23.9962 10.3636 25.0385 11.8017 25.5946C12.4362 25.8401 13.0478 26.1564 13.6375 26.4977C14.6137 27.063 15.6413 27.4338 16.7684 27.5277C16.9496 27.544 17.1302 27.575 17.3097 27.6023C18.5468 27.7875 19.768 27.7282 20.9447 27.2848C21.5531 27.0553 22.1531 26.7907 22.723 26.4779C23.7563 25.9097 24.4974 25.0522 24.9375 23.9631C25.4493 22.6963 25.9356 21.4199 26.3915 20.131C26.5471 19.6932 26.6103 19.2145 26.652 18.7486C26.8159 16.9253 26.5907 15.144 25.9784 13.4171C25.6329 12.4426 25.2271 11.4927 24.5693 10.6795C23.4032 9.23643 21.9111 8.25241 20.1842 7.61744C19.2763 7.28387 18.342 7.10759 17.3673 7.27732C16.8762 7.36326 16.379 7.41925 15.8943 7.52774C14.7652 7.78013 13.6234 7.92309 12.4688 7.9851C12.1389 8.00352 11.8101 8.08509 11.4835 8.14325C11.2491 8.18545 11.0167 8.26856 10.7811 8.28102C8.10351 8.42803 5.63214 9.23821 3.33468 10.5964C3.11646 10.7258 2.91959 10.907 2.74959 11.0966L2.74733 11.0916ZM19.521 17.1175C19.0502 16.5386 18.6165 15.9303 18.3725 15.2235C18.1086 14.4589 17.7048 13.816 17.0731 13.2972C16.6341 12.9361 16.3167 12.475 16.4383 11.8144C16.5238 11.9305 16.6194 12.0422 16.6959 12.1641C16.966 12.6023 17.3268 12.9403 17.7971 13.1467C18.1519 13.3026 18.3964 13.5528 18.5236 13.9132C18.7072 14.4381 19.0445 14.8357 19.5207 15.1055C19.8011 15.2657 19.8847 15.4573 19.8046 15.7756C19.7142 16.1344 19.7733 16.4982 19.9286 16.84C19.9785 16.9485 20.0222 17.0579 20.0662 17.16C19.8428 17.3845 19.6789 17.3072 19.5236 17.1151L19.521 17.1175ZM12.9125 16.4003C12.8008 16.408 12.6866 16.4157 12.575 16.4234C12.6805 16.3857 12.7861 16.3456 12.8916 16.3079C12.8989 16.3391 12.9063 16.3704 12.9125 16.4003ZM8.38379 19.3978C8.45688 18.6535 8.7976 18.0787 9.40214 17.646C10.2962 17.0065 11.3135 16.674 12.3647 16.422C12.4096 16.4115 12.4622 16.4273 12.5126 16.4356C12.2985 16.5257 12.0821 16.6107 11.8725 16.7109C11.692 16.7961 11.5219 16.9004 11.3459 16.9958C11.3579 17.0346 11.3711 17.0748 11.3844 17.1125C11.5408 17.0992 11.6981 17.0971 11.8526 17.0713C12.2263 17.0102 12.597 16.9328 12.972 16.873C13.4927 16.7883 13.9844 16.9251 14.2519 17.3656C14.5067 17.7845 14.3373 18.2563 14.0783 18.6514C13.7137 19.2054 13.1621 19.5252 12.5654 19.77C11.2158 20.325 9.90196 20.2604 8.63469 19.5233C8.55739 19.478 8.47355 19.4411 8.38744 19.3992L8.38379 19.3978ZM9.90811 23.6164C8.99087 22.467 8.30456 21.2691 8.33371 19.7384C8.61436 19.9221 8.84066 20.1036 9.09403 20.2292C10.6458 20.9992 12.9125 20.5863 14.1168 19.3311C14.5087 18.923 14.7014 18.4559 14.5954 17.881C14.544 17.6005 14.5249 17.3163 14.4912 17.0266C14.8361 17.1845 15.1854 17.2931 15.4703 17.4943C15.6614 17.6297 15.7957 17.8816 15.8939 18.1072C16.0113 18.3793 15.9802 18.6787 15.8489 18.9492C15.4971 19.672 15.1525 20.4 14.7692 21.1042C14.6057 21.4067 14.3763 21.6842 14.1298 21.9276C13.8484 22.2079 13.4981 22.4185 13.0907 22.456C12.0049 22.5592 11.0583 23.0357 10.1136 23.5247C10.0618 23.551 10.0064 23.5734 9.90939 23.6152L9.90811 23.6164ZM16.0391 25.7564C15.5967 25.952 15.1405 26.1198 14.6979 26.3179C14.5277 26.3937 14.3944 26.3857 14.2309 26.3009C13.3164 25.8285 12.3912 25.3754 11.4779 24.9018C10.985 24.645 10.4846 24.3902 10.1527 23.9235C10.6853 23.702 11.1668 23.4894 11.6572 23.302C11.925 23.2005 12.2075 23.1331 12.4862 23.0668C12.7061 23.0141 12.9338 22.9852 13.1581 22.9475C13.831 22.8345 14.3839 22.5111 14.795 21.9689C15.0241 21.6679 15.2511 21.3594 15.4282 21.0277C15.7355 20.4528 16.015 19.8631 16.2799 19.2678C16.3945 19.0103 16.4424 18.7215 16.5208 18.4451C17.1058 18.5412 17.5705 19.0283 17.6265 19.6729C17.6507 19.9548 17.6187 20.2479 17.5722 20.5306C17.432 21.3723 17.3734 22.215 17.4492 23.067C17.4676 23.2781 17.4649 23.492 17.4524 23.7031C17.3948 24.6683 16.9351 25.3668 16.044 25.7591L16.0391 25.7564ZM23.1468 25.601C22.6752 25.9018 22.2172 26.2329 21.7172 26.4744C20.318 27.151 18.8423 27.4063 17.2939 27.1487C16.8601 27.0775 16.4213 27.0369 15.989 26.9595C15.6955 26.9064 15.4111 26.8117 15.1206 26.656C15.2077 26.6163 15.2948 26.5742 15.3829 26.5383C15.7733 26.3739 16.1798 26.2399 16.5518 26.0426C17.3403 25.6213 17.799 24.9475 17.9028 24.0584C17.9431 23.7149 17.9493 23.36 17.9165 23.0172C17.8511 22.3314 17.9089 21.6557 18.0052 20.978C18.0783 20.4712 18.1342 19.9613 18.2077 19.3853C18.4892 19.2807 18.7176 19.4127 18.8873 19.6462C19.2862 20.1986 19.6686 20.7615 20.0523 21.3231C20.1725 21.4977 20.2735 21.685 20.3835 21.8665C20.7085 22.4109 21.18 22.7374 21.8166 22.7813C22.3546 22.8185 22.6931 23.0987 22.8469 23.5939C23.0114 24.1291 23.1397 24.6739 23.298 25.2101C23.351 25.3917 23.2828 25.5138 23.1494 25.5986L23.1468 25.601ZM25.9479 19.9071C25.5948 20.8686 25.2331 21.8571 24.8396 22.9271C24.2801 22.1019 23.6758 21.4296 22.9332 20.8988C22.9015 20.9185 22.8709 20.9395 22.8391 20.9592C22.9039 21.0968 22.9471 21.2495 23.0349 21.3683C23.4415 21.916 23.8544 22.4579 24.2776 22.9927C24.3727 23.1142 24.5179 23.1945 24.6734 23.3223C24.4462 23.8758 24.1969 24.4544 23.7326 24.9956C23.6908 24.8392 23.6631 24.7316 23.6342 24.6252C23.5176 24.186 23.4299 23.7369 23.2744 23.3122C23.0635 22.7318 22.6556 22.3349 22.0068 22.2856C21.4234 22.2402 21.0231 21.96 20.7385 21.4544C20.4863 21.0047 20.21 20.5675 19.9184 20.1421C19.6454 19.7446 19.3394 19.3681 19.0356 18.9681C19.2912 18.1485 19.7654 17.755 20.6152 17.6741C21.1196 17.6258 21.6155 17.6614 22.1031 17.8067C22.6422 17.9665 23.1897 18.0994 23.7191 18.2823C24.479 18.5454 25.0826 19.0568 25.6627 19.597C25.7508 19.6798 25.826 19.7745 25.9479 19.9071ZM25.5263 14.3486C25.6274 14.3862 25.7561 14.4745 25.7808 14.5658C26.0999 15.7262 26.2262 16.9119 26.1751 18.1681C25.099 17.4762 23.9869 17.0524 22.6438 17.0076C23.0274 17.3626 23.4498 17.3802 23.8085 17.5325C24.1988 17.6985 24.5906 17.8584 24.9795 18.0255C25.3516 18.1846 25.6911 18.44 26.165 18.4103C26.1433 18.663 26.1243 18.9109 26.0964 19.2241C25.9665 19.1345 25.8832 19.0852 25.809 19.0252C25.2847 18.6 24.7051 18.2875 24.0536 18.0933C23.5917 17.9553 23.1241 17.8034 22.6939 17.5863C21.9971 17.2343 21.2781 17.0571 20.5182 17.1504C20.1827 16.561 20.1384 16.1979 20.325 15.582C21.1017 15.5018 21.7615 15.0776 22.4741 14.7832C23.3089 14.4381 24.1545 14.159 25.0779 14.2693C25.2281 14.2879 25.3861 14.297 25.525 14.3498L25.5263 14.3486ZM12.0796 8.50713C12.729 8.45129 13.3835 8.42412 14.0301 8.34713C14.6743 8.27004 15.313 8.1457 15.9608 8.04154C15.92 8.27865 15.8792 8.51329 15.8353 8.76512C14.7316 8.76614 13.6179 8.76674 12.399 8.76915C12.5192 8.91275 12.5654 9.02232 12.6351 9.04131C12.837 9.09798 13.0504 9.14152 13.2592 9.14899C14.1377 9.17941 15.0159 9.18879 15.898 9.01396C16.22 9.51119 15.7926 9.90913 15.7219 10.3591C16.1045 10.1733 16.4538 9.63106 16.4446 9.25947C16.4434 9.19879 16.4335 9.13898 16.4249 9.07799C16.3274 8.32904 16.3842 8.24355 17.0603 7.93517C17.4891 7.74021 17.9316 7.69184 18.3939 7.73214C19.6034 7.83823 20.6826 8.30639 21.713 8.90985C22.9099 9.61183 23.9179 10.5138 24.6439 11.7084C24.7528 11.8862 24.8439 12.0756 24.983 12.3326C23.7215 11.9892 22.1971 12.1967 21.5103 12.7929C21.6342 12.8191 21.7289 12.8626 21.8196 12.8528C22.0458 12.8301 22.2723 12.7974 22.4934 12.7485C23.1679 12.596 23.8422 12.5671 24.528 12.6799C24.6951 12.7066 24.879 12.6301 25.1045 12.5938C25.2405 12.9508 25.4012 13.3708 25.5687 13.8059C25.4923 13.8287 25.4477 13.8578 25.4134 13.8514C24.3886 13.6182 23.4216 13.8427 22.4876 14.2529C22.0439 14.4472 21.6171 14.6831 21.1813 14.8963C21.0323 14.9693 20.8773 15.0358 20.7237 15.0987C20.4833 15.1964 20.2524 15.2164 20.0703 14.9824C20.0608 14.9721 20.0464 14.9616 20.0331 14.9549C19.3938 14.6474 19.0029 14.1398 18.801 13.4632C18.7121 13.1626 18.4838 12.9402 18.1984 12.8108C17.6373 12.5572 17.2274 12.1479 16.9049 11.6346C16.848 11.5444 16.7809 11.4611 16.7138 11.3804C16.4991 11.1264 16.2617 11.0052 15.8896 11.0268C15.0919 11.0765 14.3911 11.3838 13.6872 11.7059C13.3694 11.851 13.0549 12.0025 12.7292 12.1287C12.5707 12.1914 12.3921 12.2013 12.2223 12.2363C12.2013 12.2057 12.1805 12.1727 12.1595 12.1421C12.2768 11.9985 12.3835 11.8433 12.5127 11.7126C13.162 11.0653 13.1771 10.8519 12.5842 10.1454C12.3873 9.91075 12.1779 9.71146 12.2586 9.34733C12.2874 9.22108 12.1537 9.04475 12.064 8.91109C11.9917 8.80414 11.8761 8.72756 11.7404 8.59817C11.8894 8.55612 11.9815 8.51418 12.0784 8.50584L12.0796 8.50713ZM11.0554 8.64634C11.2102 8.79137 11.3307 8.93003 11.4735 9.0362C11.6703 9.18299 11.7916 9.33034 11.7318 9.60626C11.6752 9.86745 11.8688 10.0599 12.0193 10.2493C12.1028 10.3555 12.2117 10.4429 12.3028 10.5445C12.6647 10.9456 12.67 11.1141 12.2948 11.5068C12.2146 11.5901 12.0634 11.6555 11.9473 11.6507C10.3742 11.5728 8.8813 12.003 7.37768 12.3648C7.29018 12.3859 7.20907 12.432 7.12924 12.4769C7.09759 12.4941 7.08081 12.5405 7.0086 12.6402C7.27299 12.6202 7.47973 12.6177 7.68138 12.589C8.92736 12.412 10.1725 12.2263 11.4197 12.0482C11.5666 12.0271 11.7175 12.0284 11.8713 12.02C11.9336 12.2168 11.8943 12.329 11.6905 12.3502C11.4183 12.3797 11.1492 12.423 10.8762 12.4413C9.05556 12.572 7.32152 13.0294 5.66473 13.8005C5.23065 14.0026 4.76142 14.1279 4.30923 14.2897C4.28735 14.2504 4.26795 14.2112 4.24608 14.172C4.52246 13.5376 4.96555 13.0302 5.49835 12.597C6.0735 12.1273 6.74726 11.8448 7.45869 11.6678C8.16508 11.4931 8.88285 11.372 9.59562 11.2223C9.76289 11.1872 9.92506 11.1259 10.0892 11.0771C10.0884 11.0374 10.0887 10.9991 10.0879 10.9595C9.98518 10.9304 9.88111 10.8741 9.77952 10.8773C8.1338 10.9374 6.56152 11.2245 5.17987 12.2224C4.58156 12.6541 3.87002 12.8929 3.18164 13.1699C3.30115 12.7962 3.56276 12.546 3.82849 12.3158C4.8913 11.3975 6.07181 10.7129 7.49854 10.5336C8.16031 10.4498 8.81945 10.3399 9.47957 10.2362C9.64772 10.2098 9.81411 10.166 9.9752 10.101C9.52739 9.94993 7.54203 10.054 6.50641 10.3202C5.382 10.6087 4.27694 10.9672 3.15016 11.2531C5.58011 9.74459 8.23511 8.92227 11.0552 8.65128L11.0554 8.64634Z" fill="#4C1F21"/>
<path d="M21.354 13.989C22.4878 13.5945 23.6202 13.2037 24.8502 13.5284C24.9372 13.5506 25.1083 13.481 25.1474 13.4047C25.2228 13.2593 25.0998 13.1515 24.9687 13.0916C24.874 13.048 24.7682 13.0028 24.6668 13.0011C24.291 12.9928 23.9098 12.9658 23.5391 13.0122C22.8276 13.1013 22.1754 13.4021 21.5217 13.678C21.2206 13.8053 20.9275 13.9514 20.631 14.0888C20.6479 14.1278 20.6648 14.1669 20.6818 14.206C20.905 14.1336 21.1319 14.0651 21.3529 13.9877L21.354 13.989Z" fill="#4C1F21"/>
<path d="M19.5134 8.74998C19.7093 8.83114 19.9065 8.90866 20.1079 8.97521C20.2129 9.00928 20.3252 9.0152 20.4628 9.03826C20.0626 8.04282 17.769 7.67502 16.9132 8.46467C17.1502 8.65767 17.3822 8.58444 17.5935 8.56107C18.2487 8.48568 18.8929 8.49644 19.5134 8.74998Z" fill="#4C1F21"/>
<path d="M21.3442 11.9691C21.4719 12.0227 21.5269 12.0696 21.573 12.0603C22.3766 11.9293 23.1815 11.7945 23.9833 11.6485C24.0443 11.6375 24.1283 11.5222 24.126 11.4602C24.1227 11.3895 24.0421 11.2761 23.9783 11.2635C23.8041 11.2265 23.6102 11.1888 23.4426 11.2313C22.8297 11.3889 22.2242 11.5777 21.6188 11.764C21.5386 11.7879 21.4759 11.867 21.343 11.9679L21.3442 11.9691Z" fill="#4C1F21"/>
<path d="M21.3328 11.3216C21.472 11.3076 21.6154 11.3111 21.7504 11.2772C22.2032 11.1599 22.6538 11.0376 23.0988 10.899C23.1966 10.8685 23.332 10.7677 23.3402 10.6888C23.3561 10.515 23.1908 10.4747 23.0518 10.4838C22.3916 10.5305 21.802 10.7522 21.297 11.1716C21.3098 11.2217 21.3212 11.2729 21.3328 11.3216Z" fill="#4C1F21"/>
<path d="M15.4478 9.57295C15.0326 9.35148 13.6519 9.37684 13.2403 9.63438C13.7764 9.89429 15.064 9.84526 15.4478 9.57295Z" fill="#4C1F21"/>
<path d="M20.8973 10.4893C21.4103 10.5614 22.1249 10.2199 22.3377 9.7747C21.9175 9.64335 21.634 9.88519 21.3405 10.0388C21.1583 10.1351 20.9152 10.2091 20.8973 10.4893Z" fill="#4C1F21"/>
<path d="M14.8805 10.299C14.5379 10.1177 13.6815 10.1216 13.2992 10.3284C13.7591 10.6656 14.5174 10.6403 14.8805 10.299Z" fill="#4C1F21"/>
<path d="M21.5032 9.46133C21.1708 9.44872 20.8734 9.66771 20.7079 10.0456C21.118 9.94393 21.3988 9.73786 21.5032 9.46133Z" fill="#4C1F21"/>
<path d="M18.2899 23.2342C18.1402 23.885 18.1947 24.5666 17.8758 25.1831C17.5433 25.8263 16.9151 26.1144 16.3313 26.4662C16.5546 26.6884 16.5805 26.7216 16.7686 26.6317C17.0653 26.4894 17.3783 26.3416 17.6199 26.1265C18.5157 25.3261 18.3951 24.2706 18.2899 23.2342Z" fill="#4C1F21"/>
<path d="M22.7162 25.0372C22.3037 25.1388 20.7257 25.8303 20.519 26.0085C20.4703 26.051 20.451 26.1282 20.42 26.1875C20.5979 26.3731 20.7832 26.2905 20.944 26.2329C21.2694 26.114 21.5883 25.9751 21.9013 25.8273C22.1462 25.7113 22.3878 25.584 22.6155 25.4364C22.7541 25.3469 22.8709 25.2156 22.715 25.0384L22.7162 25.0372Z" fill="#4C1F21"/>
<path d="M18.954 24.013C18.9111 24.005 18.8682 23.9946 18.8252 23.9866C18.7667 24.2019 18.7045 24.4184 18.6485 24.6338C18.5127 25.1602 18.3757 25.6878 18.0597 26.1448C17.9662 26.2807 17.8376 26.3966 17.7611 26.5407C17.7234 26.6134 17.7294 26.7646 17.7817 26.8163C17.8352 26.8692 18.0026 26.891 18.0564 26.8463C18.1934 26.7369 18.3229 26.5988 18.4072 26.4451C18.8249 25.6855 18.8503 24.8402 18.9528 24.0142L18.954 24.013Z" fill="#4C1F21"/>
<path d="M19.4773 25.7078C19.5301 25.1532 19.5706 24.598 19.5294 24.042C19.4865 24.034 19.4448 24.0248 19.4018 24.0169C19.3645 24.139 19.3198 24.2609 19.2924 24.386C19.1532 25.0224 19.0215 25.6591 18.8812 26.2942C18.8477 26.4462 18.862 26.578 19.013 26.6362C19.17 26.6985 19.2889 26.6057 19.3271 26.4613C19.3919 26.214 19.4519 25.9616 19.4761 25.7065L19.4773 25.7078Z" fill="#4C1F21"/>
<path d="M18.6363 19.8199C18.555 20.3461 18.9017 21.1722 19.2167 21.3623C19.1975 20.9024 19.0967 20.501 18.922 20.1201C18.8676 20.0015 18.7349 19.9193 18.6363 19.8199Z" fill="#4C1F21"/>
<path d="M14.3075 22.9209C14.6111 22.6725 14.9218 22.4318 15.2219 22.1795C15.2962 22.1182 15.3447 22.0237 15.4061 21.9459C15.3919 21.9304 15.3765 21.9137 15.361 21.8994C15.2563 21.9767 15.1469 22.0489 15.0468 22.1338C14.3236 22.7422 13.5837 23.304 12.5765 23.3635C12.2838 23.381 11.989 23.5073 11.7096 23.6194C11.5171 23.6967 11.3433 23.8281 11.1783 23.9586C11.1334 23.995 11.1293 24.1248 11.1535 24.1951C11.1668 24.2328 11.2879 24.2663 11.3468 24.2502C11.477 24.2135 11.5963 24.1418 11.7209 24.0913C12.14 23.9219 12.5515 23.7262 12.9826 23.5957C13.4689 23.4477 13.9129 23.2435 14.3049 22.9233L14.3075 22.9209Z" fill="#4C1F21"/>
<path d="M14.5227 23.2196C14.34 23.2689 14.1517 23.3043 13.9744 23.3724C13.2377 23.651 12.5055 23.9398 11.7697 24.2246C11.7282 24.2415 11.6733 24.2516 11.6485 24.2839C11.5975 24.3499 11.5184 24.4369 11.5293 24.5004C11.5415 24.5653 11.6513 24.6614 11.7121 24.6578C11.9343 24.6411 12.1759 24.6326 12.3728 24.5393C13.0293 24.2276 13.6734 23.8845 14.3149 23.5438C14.4123 23.4921 14.4788 23.3811 14.559 23.2978C14.5452 23.2725 14.5327 23.246 14.5189 23.2206L14.5227 23.2196Z" fill="#4C1F21"/>
<path d="M14.6731 23.8866C14.0735 24.1697 13.4752 24.4541 12.8813 24.7486C12.8346 24.7726 12.7859 24.9005 12.808 24.9348C12.8487 24.9972 12.94 25.0628 13.0118 25.0634C13.112 25.0638 13.2225 25.0239 13.3112 24.9731C13.7689 24.7089 14.2232 24.4383 14.6728 24.16C14.7427 24.1172 14.786 24.0274 14.8811 23.9138C14.7543 23.8974 14.7033 23.873 14.6705 23.8889L14.6731 23.8866Z" fill="#4C1F21"/>
<path d="M16.9003 18.8988C16.7001 19.1021 16.6501 19.3524 16.6967 19.9842C16.9891 19.5892 17.0516 19.2182 16.9003 18.8988Z" fill="#4C1F21"/>
<path d="M13.9356 25.3703C14.2016 25.3727 14.4192 25.2865 14.6504 25.0239C14.2841 25.026 14.0597 25.0946 13.9356 25.3703Z" fill="#4C1F21"/>
<path d="M21.6673 21.2887C21.7981 21.5936 22.0952 21.7099 22.3358 21.8734C22.8952 22.2568 23.3615 22.7068 23.5976 23.3663C23.6863 23.6125 23.8315 23.84 23.9892 24.1535C24.2181 23.7077 24.035 23.0541 23.5859 22.4006C23.1973 21.8363 22.1719 21.2355 21.6686 21.2875L21.6673 21.2887Z" fill="#4C1F21"/>
<path d="M23.2402 20.3025C23.2754 20.4389 23.2713 20.5068 23.3045 20.5428C23.7522 21.0527 24.2 21.5601 24.6618 22.057C24.7139 22.1136 24.9047 22.1376 24.936 22.0993C24.9998 22.024 25.0227 21.8889 25.0109 21.7857C25.0031 21.7074 24.926 21.6263 24.8604 21.5678C24.4441 21.1954 24.0264 20.8265 23.601 20.4648C23.5221 20.3972 23.4055 20.3738 23.2402 20.3025Z" fill="#4C1F21"/>
<path d="M24.8713 20.7431C24.9171 20.7722 25.0541 20.7507 25.0691 20.7179C25.0991 20.6499 25.1079 20.5277 25.0653 20.4814C24.7611 20.1507 24.4294 19.8548 23.9617 19.7363C24.151 20.1822 24.4795 20.4954 24.8713 20.7431Z" fill="#4C1F21"/>
<path d="M25.3392 19.8469C25.1555 19.5645 24.8721 19.476 24.5441 19.4784C24.7766 19.6588 24.9983 19.8611 25.3392 19.8469Z" fill="#4C1F21"/>
<path d="M11.4218 9.41612C10.985 9.20736 9.60561 9.29093 9.0845 9.59216C9.82995 9.63808 10.5762 9.63577 11.3212 9.54432C11.3572 9.53964 11.3851 9.46408 11.4218 9.41612Z" fill="#4C1F21"/>
<path d="M12.3556 10.9992C11.9471 10.7954 11.5479 10.8443 11.1518 11.0258C11.5551 11.1156 11.9563 11.2573 12.3556 10.9992Z" fill="#4C1F21"/>
<path d="M11.7685 10.3612C11.4918 10.1121 11.2963 10.1114 10.9597 10.3498C11.2353 10.417 11.467 10.5578 11.7685 10.3612Z" fill="#4C1F21"/>
<path d="M12.0677 21.1425C11.8171 21.0999 11.6334 21.0551 11.4483 21.0424C10.697 20.9876 9.94544 20.9402 9.19396 20.8903C9.05819 20.8822 8.91563 20.8589 8.86483 21.0387C9.34743 21.4832 11.3344 21.5772 12.0677 21.1425Z" fill="#4C1F21"/>
<path d="M9.6866 21.5987C9.49066 21.5794 9.27188 21.3958 9.04346 21.6511C9.46647 21.863 9.88454 21.8371 10.2926 21.8727C10.3019 21.8285 10.311 21.7868 10.3203 21.7427C10.1096 21.6918 9.89983 21.6188 9.6866 21.5987Z" fill="#4C1F21"/>
<path d="M9.75185 22.3487C9.98798 22.5021 10.2225 22.4574 10.487 22.4041C10.1733 22.094 9.95983 22.0789 9.75185 22.3487Z" fill="#4C1F21"/>
<path d="M23.7356 16.5802C23.7219 16.6118 23.7081 16.6459 23.6945 16.6775C23.8047 16.7637 23.9016 16.8742 24.0241 16.9325C24.501 17.1565 24.9835 17.366 25.4659 17.5778C25.6093 17.6407 25.7731 17.6896 25.8598 17.5101C25.9559 17.3124 25.8118 17.2074 25.6568 17.1243C25.6169 17.104 25.577 17.0813 25.5342 17.0684C25.0631 16.9127 24.5921 16.752 24.118 16.6085C23.9995 16.5726 23.8627 16.5892 23.7355 16.5827L23.7356 16.5802Z" fill="#4C1F21"/>
<path d="M24.1546 16.1163C24.2989 16.2473 24.3524 16.3287 24.4278 16.3615C24.7875 16.5176 25.1512 16.6676 25.5178 16.8079C25.6457 16.8565 25.8074 16.8954 25.8702 16.726C25.9386 16.5396 25.789 16.4467 25.64 16.4009C25.2662 16.2839 24.8884 16.1753 24.5077 16.0765C24.4294 16.056 24.3387 16.0942 24.1533 16.1175L24.1546 16.1163Z" fill="#4C1F21"/>
<path d="M25.4978 15.8049C25.54 15.8017 25.6127 15.7206 25.6065 15.6906C25.5929 15.6295 25.5411 15.537 25.4932 15.5288C25.2191 15.484 24.942 15.4538 24.6717 15.6146C24.9274 15.7737 25.2045 15.8348 25.499 15.8062L25.4978 15.8049Z" fill="#4C1F21"/>
<path d="M25.2897 15.0078C25.3166 14.9854 25.3142 14.8666 25.2888 14.8519C25.1089 14.7442 24.9265 14.6982 24.7793 14.9334C24.936 15.0624 25.0937 15.1692 25.2897 15.0078Z" fill="#4C1F21"/>
<path d="M10.2364 17.7287C9.77376 17.6365 9.57551 17.8806 9.35497 18.036C9.12038 18.2019 8.8741 18.381 8.77971 18.8052C9.35424 18.5878 9.72311 18.258 10.0907 17.9293C10.1447 17.8796 10.1798 17.8093 10.2364 17.7287Z" fill="#4C1F21"/>
</g>
<defs>
<clipPath id="clip0_35_14568">
<rect width="24.5657" height="19.7244" fill="white" transform="translate(16.9322 32) scale(1.01803) rotate(-132.613)"/>
</clipPath>
</defs>
</svg>
