<svg width="154" height="162" viewBox="0 0 154 162" fill="none" xmlns="http://www.w3.org/2000/svg">
<g clip-path="url(#clip0_35_13784)">
<path d="M99.5563 11.5781C95.5172 10.695 91.4333 10.2713 87.2971 10.5988C85.7201 10.7215 84.124 10.857 83.15 12.3578C80.2456 10.7611 78.707 10.6366 75.5991 11.8434C74.4075 12.3054 73.2206 12.8262 72.1124 13.4574C69.9127 14.7113 67.766 16.0637 65.5973 17.3769C65.297 17.5598 65.023 17.8258 64.6964 17.9255C63.3306 18.3557 62.156 19.1026 61.0897 20.0269C59.4368 21.4523 57.94 23.0233 56.6791 24.8124C54.5267 27.8657 52.8099 31.1657 51.1386 34.4947C50.2203 36.3263 49.5555 38.2885 48.3178 39.9548C48.1607 40.1665 48.0618 40.4264 47.9503 40.6672C46.9636 42.788 46.5926 45.0428 46.5645 47.3551C46.542 49.2298 46.6287 51.1049 46.6061 52.9796C46.5914 54.2581 46.5203 55.5368 46.3899 56.8053C46.268 58.0076 45.8689 59.0895 44.9901 60.0119C44.1296 60.918 43.5187 62.0235 43.0038 63.1781C41.9767 65.4828 41.4385 67.9258 40.8968 70.3697C40.4328 72.4618 40.0264 74.572 39.4818 76.6445C38.8545 79.0364 38.0722 81.3839 37.4201 83.7675C36.9572 85.4607 36.604 87.1843 36.1818 88.889C35.4683 91.7818 34.7175 94.6621 34.0348 97.5578C33.754 98.743 33.59 99.9567 33.4206 101.164C33.3851 101.422 33.4771 101.803 33.658 101.957C33.9464 102.202 34.1827 101.853 34.4164 101.688C34.4477 101.664 34.5098 101.685 34.6085 101.688C34.6266 102.394 34.6403 103.097 34.6587 103.818C34.4134 103.884 34.2433 103.923 34.0734 103.976C32.4442 104.448 31.3291 105.442 31.0727 107.162C30.8212 108.858 31.5255 110.193 32.9017 111.163C33.8413 111.825 34.9503 111.92 36.0681 111.921C36.2831 111.923 36.4974 111.937 36.8015 111.948C36.1809 112.782 35.6289 113.522 35.0804 114.261C33.7929 115.993 32.6781 117.821 32.0393 119.893C31.7327 120.886 31.5175 121.911 31.3401 122.936C31.2545 123.426 31.2309 123.977 31.7377 124.445C32.335 123.317 32.8948 122.259 33.5228 121.078C33.6074 122.168 33.056 123.118 33.6237 124.269C33.8687 123.868 34.0512 123.653 34.1459 123.405C34.5107 122.461 34.8586 121.509 35.1941 120.554C36.0104 118.234 37.3246 116.239 39.0847 114.529C39.2101 114.409 39.3625 114.319 39.6559 114.096C39.4536 114.655 39.3064 115.014 39.1956 115.383C39.1029 115.693 38.9981 116.056 39.3685 116.257C39.6987 116.434 39.9352 116.182 40.1343 115.959C40.4515 115.602 40.7598 115.241 41.0484 114.862C43.3929 111.768 45.0727 108.331 46.3484 104.681C46.6548 103.812 47.0178 102.958 47.4085 102.123C47.663 101.576 48.0117 101.072 48.3842 100.433C48.6029 100.852 48.74 101.108 48.8745 101.368C50.4437 104.466 51.2963 107.765 51.7066 111.196C52.5268 118.083 52.5324 124.977 51.8545 131.875C51.5638 134.815 51.0556 137.716 50.1088 140.525C49.3711 142.718 48.3813 144.772 46.9048 146.57C46.743 146.765 46.5516 146.933 46.3417 147.144C46.2327 146.978 46.1622 146.884 46.1118 146.782C45.3534 145.246 44.2629 145.109 42.9089 145.555C41.1025 146.15 39.8602 147.855 39.7814 149.828C39.7648 150.238 39.7825 150.651 39.784 151.045C39.6985 151.091 39.651 151.138 39.593 151.146C36.0088 151.775 32.2028 148.975 31.7317 145.362C31.4594 143.274 32.2178 141.782 34.069 140.77C34.253 140.671 34.4541 140.594 34.6154 140.467C34.7586 140.357 34.8647 140.193 35.142 139.87C34.6404 139.893 34.3544 139.865 34.0852 139.927C33.0205 140.163 32.1802 140.755 31.55 141.636C30.6678 142.879 30.5471 144.28 30.7938 145.732C31.444 149.59 35.1521 152.473 39.1216 152.225C39.4401 152.206 39.7603 152.179 40.1587 152.15C40.2858 152.481 40.3792 152.798 40.5283 153.084C41.6092 155.213 43.2801 156.658 45.5747 157.338C48.1936 158.117 50.7111 157.758 53.1229 156.537C55.6105 155.276 57.4961 153.363 58.9978 151.046C61.0647 147.858 62.1674 144.319 62.6974 140.596C64.0975 130.753 62.9961 121.232 58.8997 112.112C57.6485 109.326 56.2422 106.636 54.1059 104.402C52.4632 102.686 50.7988 100.986 49.1169 99.2499C49.9928 97.6365 50.4354 95.8961 50.5971 94.0628C50.7079 92.8334 51.1692 91.6895 51.8297 90.6421C52.3852 89.7622 52.9619 88.8916 53.5584 88.0382C54.7692 86.3003 55.9186 84.5301 56.8014 82.5953C57.641 80.7512 58.4638 78.9003 59.3169 77.0638C59.8121 75.9897 60.3456 74.9315 60.874 73.8409C61.212 73.9636 61.4807 74.0112 61.6983 74.1477C63.9966 75.5627 65.6024 77.4624 65.7778 80.2759C65.8443 81.3407 65.7975 82.4174 65.7567 83.4886C65.6886 85.3343 65.5554 87.175 65.5128 89.0175C65.4685 90.9507 65.8333 92.8106 66.6944 94.5586C67.1402 95.468 67.7685 96.2038 68.6839 96.6664C70.2041 97.4312 71.726 98.1882 73.395 98.5856C73.6923 98.6554 73.9864 98.7412 74.2821 98.819C74.2712 98.8896 74.2602 98.9602 74.2492 99.0309C73.427 99.0093 72.5996 99.038 71.7857 98.9502C68.9083 98.6471 66.8317 97.1758 65.617 94.5535C64.8668 92.9371 64.5521 91.2065 64.5519 89.4282C64.5484 88.3878 64.6162 87.3468 64.6655 86.307C64.7451 84.6011 64.5889 82.914 64.199 81.2526C63.9607 80.2344 63.6182 79.97 62.5944 79.9128C62.1473 79.8873 61.7015 79.8803 61.2512 79.8707C60.9525 79.8652 60.6293 79.8249 60.472 80.1608C60.3061 80.5065 60.5576 80.7128 60.7792 80.9197C61.5454 81.637 61.8629 82.5586 61.8852 83.5714C61.9008 84.2815 61.8444 85.0036 61.7329 85.703C61.3786 87.9082 61.0402 90.1166 61.0565 92.3567C61.0806 95.5421 62.1316 98.3102 64.4434 100.552C65.5109 101.59 66.5905 102.617 67.6641 103.65C67.8733 103.853 68.0774 104.064 68.284 104.271C66.0794 103.147 64.1828 101.646 62.5527 99.8089C61.1829 98.2664 60.3728 96.4707 60.1393 94.4286C60.0205 93.3931 59.9571 92.3538 59.8823 91.3138C59.7401 89.262 59.5136 87.2179 58.9701 85.2259C58.8458 84.7671 58.689 84.3133 58.507 83.8777C58.4423 83.7222 58.2492 83.6204 58.0769 83.4566C57.7011 83.9719 57.9404 84.4109 58.0441 84.8076C58.5609 86.7843 58.3269 88.6975 57.7008 90.6078C56.9325 92.9515 55.7309 95.0704 54.4252 97.1386C54.033 97.7599 53.5972 98.3593 53.1415 99.0241C52.6908 98.8605 52.329 98.7329 51.9687 98.5975C51.8596 98.5556 51.7632 98.4915 51.6012 98.4075C52.0459 97.8133 52.4763 97.2493 52.8932 96.6777C54.3468 94.6972 55.6404 92.6399 56.2734 90.2276C56.6474 88.8029 56.8175 87.3619 56.6638 85.8922C56.63 85.5592 56.655 85.1652 56.2305 84.987C55.824 85.2362 55.9302 85.6285 55.9331 85.9586C55.9528 89.0024 55.0668 91.7727 53.3868 94.2919C52.5121 95.6042 51.5731 96.8737 50.6663 98.1646C50.3046 98.6762 50.3472 98.8751 50.9127 99.1016C51.4916 99.3358 52.0883 99.5388 52.6781 99.7437C53.1845 99.9185 53.6191 99.8008 53.966 99.3872C54.1364 99.1831 54.3193 98.9832 54.4655 98.7593C56.1073 96.2655 57.6219 93.7046 58.5207 90.8293C58.5746 90.653 58.6478 90.4791 58.7096 90.3044C58.8956 90.63 58.9355 90.9162 58.9605 91.2027C59.0447 92.1799 59.1184 93.16 59.2105 94.1389C59.4464 96.6616 60.4402 98.8436 62.1692 100.699C63.7032 102.347 65.4407 103.734 67.3746 104.886C68.6614 105.651 69.9981 106.307 71.4394 106.725C71.7503 106.817 72.1191 106.984 72.2916 106.566C72.4403 106.198 72.0841 106.092 71.8402 105.913C70.8581 105.191 69.8431 104.499 68.9386 103.688C67.6754 102.553 66.5149 101.311 65.2862 100.136C62.8907 97.8488 61.8201 95.0222 62.0015 91.7622C62.1137 89.7467 62.4085 87.7382 62.6707 85.7346C62.8852 84.0824 62.9551 82.4657 62.0661 80.962C62.0432 80.9194 62.0727 80.8475 62.0795 80.7892C63.1738 80.7597 63.2113 80.7871 63.4294 81.8559C63.4695 82.0593 63.499 82.2656 63.5401 82.4726C63.8535 84.1848 63.8166 85.9092 63.6864 87.6363C63.5296 89.7654 63.7112 91.8517 64.3641 93.9005C65.536 97.587 68.7779 99.9156 72.3951 99.8942C74.6859 99.8788 76.9782 99.7164 79.2707 99.6103C79.4749 99.6001 79.6934 99.5597 79.8758 99.4689C80.2159 99.294 80.2075 98.8602 79.859 98.699C79.6484 98.6019 79.4035 98.5592 79.1705 98.5321C78.5798 98.4628 77.9841 98.4024 77.3906 98.364C74.4183 98.1692 71.6572 97.2819 69.0787 95.8187C67.8434 95.1196 66.8636 93.2947 66.8692 91.7742C66.9735 91.8813 67.0603 91.9518 67.1289 92.0385C68.9562 94.3669 71.7883 94.7387 74.1354 93.6817C74.9431 93.3162 75.7267 92.8482 76.4315 92.3113C78.942 90.413 81.1145 88.1701 83.0114 85.6598C83.2081 85.3997 83.4 85.1221 83.5228 84.8257C83.6985 84.3908 83.3679 84.0179 82.9161 84.1554C82.6096 84.246 82.3207 84.4295 82.0494 84.6083C79.4683 86.2739 76.9063 87.9681 74.3116 89.6111C73.5633 90.0845 72.7549 90.5028 71.9194 90.7931C70.8353 91.1658 69.9671 90.8221 69.4059 89.8199C69.0783 89.2357 68.8194 88.5577 68.7537 87.8988C68.6142 86.4815 68.6172 85.0483 68.5691 83.6214C68.5645 83.5211 68.6154 83.4171 68.6433 83.3118C69.8682 83.6115 71.0272 83.8765 72.1808 84.1767C75.0138 84.913 77.6286 84.4827 79.9777 82.7108C81.5454 81.5266 83.1536 80.3803 84.6393 79.1017C86.7011 77.3249 88.5385 75.3307 89.723 72.8292C89.8525 72.5573 89.925 72.2556 90.0393 71.9277C88.9156 71.8073 88.2143 72.3846 87.533 72.9526C85.0324 75.0401 82.3145 76.8254 79.6011 78.6133C78.854 79.1052 78.0688 79.5398 77.2853 79.9664C76.2393 80.5355 75.1118 80.8035 73.9216 80.6597C72.5601 80.4948 71.2042 80.2945 69.8507 80.0897C69.6352 80.0579 69.437 79.9236 69.2461 79.8437C70.0947 76.4219 70.3639 73.0141 70.3517 69.5811C70.3382 66.171 70.176 62.7673 69.5841 59.3748C69.7159 59.403 69.7888 59.3945 69.8203 59.4274C71.3395 60.9106 73.1817 61.8777 75.0871 62.745C76.7729 63.5101 78.4835 63.8249 80.2936 63.1878C81.6425 62.7095 83.0241 62.3239 84.3619 61.8185C85.1953 61.5063 85.9757 61.0542 86.7774 60.6527C87.0618 60.508 87.3033 60.2471 87.145 59.9403C87.0497 59.7556 86.7245 59.6106 86.4943 59.594C85.9925 59.5608 85.4775 59.5763 84.9786 59.6513C83.3275 59.9032 81.6762 60.1401 80.0409 60.4779C78.3345 60.8312 76.7939 60.4215 75.2841 59.6952C75.2102 59.6588 75.1661 59.5655 75.0463 59.4288C77.6187 59.8973 79.9612 59.4618 82.2187 58.4629C83.9217 57.7082 85.4154 56.6117 86.9138 55.5327C87.2126 55.3164 87.7009 55.1052 87.524 54.6606C87.3138 54.1348 86.8042 54.3782 86.4212 54.4782C84.4301 55.0026 82.4501 55.5541 80.461 56.0856C79.6268 56.3116 78.7891 56.5386 77.9421 56.6891C77.2995 56.8031 76.6419 56.7782 76.0622 56.4578C76.8146 56.3743 77.6225 56.4261 78.3232 56.1798C81.2321 55.1548 83.3146 53.2182 84.4383 50.3121C84.4911 50.1737 84.565 50.0296 84.564 49.887C84.5648 49.7515 84.5178 49.5499 84.4252 49.4998C84.2925 49.4267 84.0604 49.4031 83.9402 49.4733C83.7129 49.6063 83.5329 49.8168 83.3373 49.9976C82.0944 51.1728 80.7648 52.2361 79.1443 52.8368C78.4849 53.0831 77.7661 53.2629 77.0655 53.2873C75.4934 53.3448 74.6067 52.5436 74.657 50.966C74.7062 49.2871 74.9723 47.6172 75.1591 45.807C75.4045 46.0187 75.5206 46.1001 75.6169 46.2056C76.4688 47.1139 77.5039 47.7546 78.6441 48.2277C79.5775 48.6177 80.5516 48.8387 81.4927 48.313C83.7504 47.0509 85.7315 45.4764 87.0298 43.117C88.1906 43.2912 89.3667 43.4801 90.5466 43.6416C92.2026 43.8659 93.8608 44.0708 95.5365 43.91C96.006 43.8655 96.4795 43.7523 96.9231 43.5983C97.3466 43.4534 97.4467 43.0315 97.4267 42.6384C97.4062 42.2154 97.0117 42.1757 96.6962 42.1221C96.4045 42.0732 96.1014 42.0652 95.8052 42.0552C94.2486 42.0032 92.7149 41.8135 91.2298 41.3173C89.5914 40.7687 87.9369 40.2583 86.3202 39.6511C85.4533 39.3258 84.8727 38.641 84.6834 37.6508C85.5959 38.3247 86.6258 38.6961 87.6867 38.9876C88.1463 39.115 88.6143 39.2175 89.0803 39.3131C91.0681 39.7069 93.0533 40.1465 95.0902 40.166C96.8143 40.1839 98.4807 39.9467 99.9735 38.9858C101.046 38.2929 101.756 37.3298 102.127 36.1165C102.228 35.7808 102.419 35.3906 102.065 35.1256C101.684 34.8417 101.419 35.2105 101.134 35.4081C100.599 35.7822 100.098 36.2526 99.5058 36.4958C97.2372 37.4263 94.8963 37.6733 92.5108 36.9361C91.0867 36.4986 89.6627 36.0611 88.2518 35.5749C87.5796 35.3434 86.9391 35.0207 86.2996 34.7015C86.0782 34.5923 85.9066 34.3756 85.671 34.1725C86.0221 33.7052 86.3038 33.2867 86.6338 32.9078C87.7134 31.6716 88.8385 30.4644 88.94 28.7564C91.1203 27.8611 93.2776 27.5473 95.5102 27.9838C97.6826 28.4065 99.8682 28.6414 102.079 28.7077C102.906 28.7319 103.726 28.9384 104.544 29.0965C105.993 29.3768 107.351 30.1669 108.901 29.8484C109.011 30.0029 109.102 30.1173 109.181 30.2425C112.075 34.6916 114.363 39.4406 116.033 44.4659C117.159 47.8567 118.067 51.3212 119.076 54.7513C119.218 55.2353 119.334 55.7339 119.529 56.2001C119.821 56.903 120.332 56.9713 120.81 56.3755C121.013 56.125 121.144 55.8152 121.29 55.5235C121.544 55.015 121.784 54.4988 122.029 53.9886C122.239 54.3753 122.293 54.7255 122.364 55.0709C122.49 55.6759 122.734 55.7978 123.322 55.567C123.404 55.5337 123.487 55.4959 123.566 55.4521C125.621 54.3163 127.431 52.8746 128.955 51.0856C129.822 50.0649 130.145 48.8798 129.812 47.5826C129.531 46.4895 129.147 45.4205 128.803 44.3445C128.707 44.047 128.592 43.7588 128.484 43.4608C128.939 43.2625 129.305 43.1294 129.647 42.9466C130.271 42.612 130.405 42.3012 130.223 41.6288C130.13 41.2855 129.997 40.9492 129.873 40.6145C127.652 34.5842 124.313 29.3718 119.035 25.5121C117.648 24.5008 116.46 23.2135 115.179 22.0566C114.745 21.6628 114.5 21.2029 114.412 20.599C114.234 19.3876 113.677 18.3845 112.718 17.554C111.051 16.1106 109.134 15.1001 107.19 14.1192C104.775 12.8975 102.2 12.1438 99.5729 11.5699L99.5563 11.5781ZM42.4756 146.872C43.9048 145.898 44.8756 146.177 45.7733 147.809C44.4001 149.17 42.8519 150.274 40.8639 150.865C40.6142 149.125 41.109 147.799 42.4756 146.872ZM56.3663 109.301C59.5911 115.413 61.6195 121.872 62.0897 128.786C62.3942 133.256 62.266 137.713 61.3784 142.115C60.6707 145.626 59.4437 148.929 57.2082 151.787C55.7325 153.672 53.9483 155.182 51.691 156.056C49.237 157.011 46.7963 157.014 44.4314 155.756C42.8702 154.924 41.8101 153.635 41.1545 151.993C41.2384 151.914 41.2905 151.829 41.3657 151.801C44.8322 150.598 47.2802 148.206 49.1542 145.153C50.6363 142.736 51.4943 140.071 52.0583 137.32C53.4557 130.509 53.5514 123.614 53.2328 116.704C53.0959 113.699 52.8008 110.707 52.1848 107.754C51.8145 105.971 51.2909 104.233 50.5293 102.574C50.4722 102.447 50.4308 102.308 50.3832 102.174C52.671 104.355 54.8982 106.507 56.3699 109.301L56.3663 109.301ZM37.249 104.436C37.6 103.329 37.9386 102.26 38.2797 101.186C38.323 101.193 38.3654 101.197 38.4087 101.204C38.3261 102.482 38.24 103.761 38.1511 105.169C37.7886 104.872 37.5228 104.655 37.249 104.436ZM33.2359 107.425C33.4543 106.787 33.8574 106.276 34.4574 105.963C34.6649 105.854 35.0319 105.792 35.182 105.902C35.3375 106.017 35.3337 106.364 35.3711 106.614C35.3856 106.723 35.328 106.843 35.2574 107.152C34.9986 107.433 34.6577 107.882 34.2354 108.226C34.0568 108.372 33.6485 108.393 33.4254 108.291C33.0805 108.129 33.1302 107.743 33.2429 107.423L33.2359 107.425ZM40.875 113.916C40.819 113.89 40.7639 113.867 40.7114 113.84C41.0193 112.324 41.8879 111.157 43.1161 110.219C42.3702 111.451 41.6208 112.684 40.875 113.916ZM63.6488 74.3486C62.9609 73.8507 62.1596 73.5039 61.369 73.0714C62.1047 71.496 62.8388 69.9286 63.616 68.2706C64.9113 70.2882 65.648 73.382 65.5084 76.0742C64.8812 75.4809 64.3234 74.8388 63.6498 74.3521L63.6488 74.3486ZM77.6215 80.9017C78.3852 80.4993 79.1678 80.1105 79.8744 79.6221C82.375 77.8956 84.8502 76.1309 87.3336 74.3827C87.45 74.2985 87.5762 74.223 87.7689 74.2121C87.6629 74.3762 87.5667 74.5489 87.4464 74.7018C84.9269 77.8997 81.8102 80.4209 78.3789 82.5725C76.9926 83.4407 75.4768 83.7612 73.8377 83.5436C72.0926 83.3096 70.3719 82.9713 68.591 82.4801C68.5976 81.8241 68.447 81.2408 68.7434 80.6266C68.9325 80.6581 69.1061 80.6599 69.2604 80.7159C70.7629 81.2487 72.3153 81.4935 73.8947 81.6295C75.212 81.7425 76.4522 81.5155 77.618 80.9027L77.6215 80.9017ZM67.6922 82.3288C67.6281 84.1057 67.7739 85.8934 67.8649 87.6734C67.9092 88.5449 68.1526 89.3737 68.6034 90.1351C69.3822 91.4543 70.732 92.0623 72.1896 91.5959C73.0579 91.3155 73.8979 90.8887 74.6768 90.4032C76.7237 89.1267 78.7286 87.7789 80.7536 86.4633C80.9172 86.3588 81.0944 86.2769 81.3934 86.117C81.2834 86.3498 81.2558 86.47 81.1844 86.5533C79.3388 88.67 77.3909 90.6867 75.0114 92.2074C74.2701 92.6789 73.4222 93.0628 72.5681 93.2566C70.5826 93.7044 68.9156 93.0507 67.667 91.4415C67.2504 90.904 66.8996 90.3035 66.5848 89.697C66.4439 89.4269 66.4255 89.0672 66.4378 88.7518C66.5165 86.8206 66.6251 84.8888 66.7108 82.9557C66.7808 81.4366 66.8323 79.9188 66.4245 78.4277C66.3647 78.207 66.3986 77.9572 66.3844 77.7242C66.2947 76.0604 66.265 74.3954 66.0989 72.741C65.9184 70.9364 65.2457 69.2727 64.2978 67.7324C64.0232 67.288 63.9663 66.8974 64.1203 66.397C64.3978 65.4909 64.5947 64.5653 64.8744 63.4594C65.2479 64.0048 65.5765 64.4121 65.8276 64.8666C66.4075 65.9239 66.6825 67.0637 66.7774 68.275C66.9674 70.6146 67.2428 72.9499 67.4926 75.2884C67.7434 77.6304 67.7758 79.9714 67.6922 82.3288ZM66.0807 63.704C65.9867 63.5377 65.9295 63.3126 65.9486 63.1195C66.008 62.5056 66.1097 61.8953 66.2266 61.0628C67.3801 62.4459 67.3357 63.879 67.1796 65.4966C66.7522 64.8079 66.3981 64.2647 66.0762 63.7015L66.0807 63.704ZM68.8374 60.8817C69.3175 64.6392 69.4701 68.4101 69.283 72.1904C69.1903 74.084 68.9522 75.9682 68.6233 77.8507C68.5904 77.7431 68.532 77.6386 68.5255 77.5313C68.2561 74.5101 67.9833 71.4898 67.735 68.4629C67.6998 68.0551 67.8009 67.6367 67.836 67.2249C67.9407 66.0423 68.1282 64.8599 68.1272 63.6759C68.127 62.3562 67.6703 61.1566 66.606 60.2832C66.3983 60.1139 66.0388 59.9256 65.8403 59.9982C65.6417 60.0708 65.4755 60.4429 65.4339 60.7061C65.3314 61.3693 65.312 62.0475 65.2447 62.8402C64.6817 62.2897 65.0112 61.659 64.7859 61.1749C64.5505 60.6672 64.3219 60.1427 64.003 59.6877C63.6876 59.2318 63.2634 58.8467 62.8944 58.4428C63.8799 57.3036 64.8887 56.1392 65.9467 54.9202C66.0704 55.0295 66.2501 55.165 66.3994 55.3276C67.8717 56.8875 68.5641 58.7902 68.832 60.8757L68.8374 60.8817ZM72.1705 58.7567C73.7201 60.0325 75.4701 60.8817 77.4151 61.3397C78.4239 61.5777 79.4273 61.4487 80.4293 61.2449C81.5953 61.0079 82.768 60.7954 83.9406 60.583C84.1627 60.5416 84.399 60.5528 84.6704 60.6522C84.511 60.7442 84.3627 60.8634 84.1903 60.9214C82.6072 61.4518 81.0267 61.9778 79.4388 62.4908C78.4978 62.7946 77.547 62.7289 76.6272 62.4029C73.991 61.4629 71.5389 60.2024 69.5873 58.137C69.1852 57.7083 68.8791 57.1897 68.516 56.7242C67.824 55.8364 67.1269 54.9575 66.4062 54.0475C66.965 52.708 67.5549 51.2887 68.1828 49.7877C69.3381 50.6777 70.3099 51.64 70.5799 53.1083C70.6855 53.6926 70.7226 54.2878 70.7817 54.8809C70.8368 55.4449 70.8724 56.0068 70.9344 56.5689C71.0391 57.4692 71.4652 58.1809 72.1724 58.7637L72.1705 58.7567ZM74.2557 56.233C75.4686 57.3631 76.8897 57.8315 78.5279 57.4628C79.4286 57.2601 80.3093 56.9839 81.1967 56.7321C82.3977 56.388 83.5967 56.0368 84.8037 55.6872C84.8217 55.7951 84.8549 55.8763 84.8323 55.8899C82.7227 57.4766 80.3995 58.5385 77.7417 58.7962C76.1399 58.952 74.6022 58.6505 73.0801 58.1982C72.3394 57.9778 71.9197 57.4562 71.8166 56.7284C71.6792 55.7355 71.6174 54.7296 71.5265 53.7279C71.5963 53.6939 71.6661 53.66 71.735 53.6225C72.3049 54.2125 72.8793 54.805 73.4492 55.395C73.7162 55.6723 73.9695 55.9684 74.2512 56.2304L74.2557 56.233ZM74.1393 47.2225C73.9625 48.278 73.8061 49.3392 73.738 50.4067C73.5194 53.7518 75.913 54.4906 78.0385 54.129C79.3185 53.91 80.4711 53.3458 81.5421 52.6195C81.809 52.4381 82.0804 52.2593 82.3613 52.0742C82.3802 52.1443 82.4021 52.1834 82.3954 52.2003C81.1557 53.901 79.5068 55.0357 77.4602 55.4662C76.2391 55.7219 75.0741 55.1991 74.0989 54.5159C73.2112 53.8917 72.4283 53.085 71.7069 52.2691C71.3763 51.8962 71.2347 51.318 71.1191 50.808C71.0142 50.3514 71.0514 49.8638 71.05 49.3867C71.0479 48.8234 71.0827 48.2575 71.0761 47.6916C71.0517 46.0327 70.9222 44.4022 69.6021 43.1959C70.6417 42.0758 71.6038 41.0444 72.5796 39.9942C73.959 42.1695 74.5906 44.57 74.1473 47.2241L74.1393 47.2225ZM70.2635 50.3856C69.5601 49.8167 69.024 49.3793 68.5085 48.9625C68.7065 47.2772 68.8992 45.6421 69.0908 43.9886C69.6255 44.4904 70.0085 45.1122 70.0603 45.8727C70.1535 47.3137 70.1913 48.7584 70.2626 50.3821L70.2635 50.3856ZM85.9844 43.0356C84.4794 45.0901 81.5061 46.016 79.2858 45.125C78.0233 44.6174 77.5132 43.7067 77.7628 42.3645C77.8432 41.9254 77.9306 41.4844 78.0801 41.0642C78.5997 39.6075 78.4631 38.2008 77.8178 36.8192C77.7664 36.7128 77.7255 36.6036 77.6675 36.4727C78.2739 36.0865 78.8673 35.7077 79.5537 35.2698C78.9219 40.3248 81.4931 42.4967 85.9844 43.0356ZM87.4668 30.1782C87.0453 30.7886 86.5738 31.3676 86.1247 31.9592C85.7125 32.507 85.2851 33.0401 84.9007 33.6067C84.5488 34.1269 84.5558 34.4446 84.9933 34.8787C85.3687 35.2507 85.796 35.6199 86.273 35.8253C87.2306 36.2351 88.23 36.5357 89.2195 36.8692C89.8978 37.0952 90.5994 37.2547 91.2616 37.5189C94.3943 38.7643 97.4422 38.5437 100.423 37.0331C100.472 37.0084 100.535 37.0028 100.829 36.9379C100.4 37.3813 100.135 37.7202 99.8094 37.9775C99.073 38.5643 98.2154 38.8982 97.2941 39.0802C96.0235 39.3342 94.7365 39.3746 93.4659 39.17C91.4955 38.8542 89.5328 38.4837 87.574 38.0858C86.2723 37.8219 85.2015 37.1608 84.4517 36.018C84.3291 35.8294 84.0413 35.7532 83.8292 35.6227C83.7039 35.8409 83.472 36.0541 83.4675 36.2734C83.4366 37.9924 83.9744 39.4634 85.5575 40.3353C86.2822 40.7329 87.0689 41.0536 87.8653 41.2853C89.9215 41.8899 91.9469 42.6306 94.0939 42.876C94.1168 42.8773 94.1352 42.9175 94.2334 43.03C93.692 43.0037 93.229 43.0164 92.7749 42.9514C90.0591 42.5782 87.3326 42.2492 84.6326 41.7814C81.609 41.2585 80.0409 38.9839 80.5223 35.9285C80.6538 35.0808 80.9664 34.2629 81.1889 33.4319C81.3278 32.9168 81.4816 32.4014 81.5717 31.8732C81.6142 31.6135 81.5233 31.3337 81.4952 31.0631C81.4191 31.0461 81.342 31.0256 81.266 31.0086C81.0632 31.3155 80.7709 31.5977 80.678 31.9349C80.2718 33.3796 79.2755 34.3263 78.1094 35.1461C77.986 35.2321 77.8715 35.3233 77.7427 35.4033C76.7148 36.039 76.7868 36.2075 77.1727 37.118C77.7349 38.4432 77.6519 39.7891 77.2122 41.1377C77.0559 41.6162 76.9317 42.116 76.8744 42.6127C76.7224 43.8984 77.2506 44.8757 78.3366 45.5514C79.5848 46.326 80.9351 46.5467 82.3722 46.2551C82.5723 46.2159 82.7704 46.1697 82.9985 46.1229C81.8879 47.6194 80.3142 48.0458 78.6926 47.3235C77.5286 46.8042 76.5079 46.092 75.7419 45.0701C75.5348 44.7916 75.3389 44.4575 75.2822 44.1232C74.8318 41.5721 74.4173 39.0151 73.9914 36.4573C73.9757 36.3714 73.9774 36.2807 73.964 36.1339C74.1514 36.0343 74.3437 35.9107 74.556 35.8194C76.3599 35.0486 77.8433 33.8722 78.9268 32.2477C79.9966 30.642 81.4227 29.56 83.242 28.943C83.8895 28.7225 84.5 28.4067 85.2075 28.1022C85.9042 28.6879 86.7865 28.9865 87.7748 28.9405C87.8846 29.4709 87.6893 29.8472 87.4562 30.181L87.4668 30.1782ZM73.755 40.3751C73.5523 40.0991 73.4075 39.8977 73.26 39.7008C73.119 39.5135 72.9779 39.3261 72.7863 39.0772C72.9419 38.6516 73.0779 38.2651 73.2194 37.8847C73.5191 38.3937 73.7061 39.2228 73.7515 40.376L73.755 40.3751ZM114.774 22.7002C116.172 24.3029 117.753 25.7092 119.431 26.9991C123.594 30.2021 126.358 34.4196 128.35 39.2C128.737 40.129 129.093 41.0701 129.495 42.0816C129.017 42.2865 128.619 42.4581 128.14 42.663C126.19 37.5895 122.812 33.606 119.097 29.8641C118.941 29.7035 118.743 29.5841 118.447 29.5627C118.684 29.852 118.908 30.1522 119.16 30.4298C121.7 33.2494 124.064 36.1993 125.856 39.5636C126.247 40.2998 126.626 41.0432 126.988 41.7984C127.215 42.2746 127.485 42.7279 127.415 43.3182C127.384 43.5785 127.616 43.8653 127.711 44.1477C128.115 45.3616 128.555 46.566 128.906 47.7942C129.195 48.8061 128.923 49.7446 128.237 50.5435C126.884 52.1205 125.287 53.403 123.49 54.4351C123.418 54.477 123.32 54.4737 123.212 54.4951C123.025 53.858 122.848 53.2329 122.656 52.6082C122.566 52.3168 122.425 51.9789 122.071 52.0599C121.862 52.1089 121.642 52.3641 121.547 52.5817C121.146 53.4761 120.791 54.3881 120.401 55.3395C120.008 55.1228 120.05 54.7919 119.973 54.5346C118.893 50.9096 117.916 47.2492 116.718 43.6601C115.233 39.2086 113.172 35.0036 110.724 30.9937C110.399 30.4614 110.038 29.95 109.696 29.4374C110.055 28.7762 110.405 28.1363 110.82 27.3772C112.193 29.4338 113.513 31.4298 114.64 33.5493C115.779 35.6844 116.71 37.91 117.526 40.1853C118.331 42.4371 118.987 44.7446 119.892 46.9619C119.952 46.9457 120.012 46.9331 120.073 46.9204C120.055 46.7298 120.058 46.5334 120.011 46.3468C119.038 42.505 118.068 38.6587 116.415 35.031C115.101 32.1387 113.403 29.482 111.405 27.0117C111.297 26.8757 111.202 26.7323 111.047 26.5223C111.342 26.2506 111.612 25.997 111.95 25.6875C112.333 26.1439 112.688 26.54 113.015 26.9552C116.622 31.5311 119.147 36.6707 120.983 42.1698C121.54 43.8385 122.08 45.5118 122.64 47.176C122.767 47.5476 122.954 47.9031 123.191 48.4442C123.406 46.8633 121.341 40.035 119.556 36.086C117.713 32.006 116.169 29.68 112.458 25.3993C113.385 24.6556 114.2 23.8031 114.463 22.51C114.616 22.6003 114.723 22.6352 114.787 22.7043L114.774 22.7002ZM105.771 14.5751C108.154 15.5949 110.478 16.7699 112.364 18.6235C114.058 20.2926 113.912 22.9752 112.039 24.419C111.802 24.5997 111.554 24.7684 111.309 24.9326C110.56 25.4324 110.051 26.0966 109.812 26.9772C109.72 27.318 109.582 27.6561 109.416 27.9719C108.96 28.8436 108.473 29.0883 107.516 28.8889C106.875 28.7581 106.237 28.585 105.614 28.3816C104.33 27.959 103.015 27.7173 101.662 27.708C99.626 27.6919 97.6192 27.4086 95.6247 27.0316C93.5515 26.6422 91.5353 26.8238 89.5427 27.4953C88.7874 27.7488 88.0431 28.1121 87.204 27.9447C86.5603 27.8184 85.9207 27.6796 85.396 27.1037C86.8954 23.904 85.6398 21.2139 83.7467 18.5311C83.4465 18.9508 83.6119 19.2557 83.7178 19.5353C84.0011 20.2894 84.308 21.0334 84.6079 21.7792C85.3254 23.5662 85.2591 25.3211 84.4527 27.066C84.2897 27.4222 84.0718 27.6317 83.7107 27.7709C82.6581 28.1764 81.6139 28.6134 80.5294 29.0539C79.6748 25.9694 77.08 24.3904 74.7387 22.581C74.6001 22.4719 74.4244 22.4067 74.2592 22.3387C74.1829 22.3068 74.087 22.3139 73.958 22.2962C73.9471 22.7278 74.2725 22.9291 74.5112 23.1577C75.2014 23.8166 75.9321 24.4307 76.6128 25.096C77.2934 25.7612 77.9629 26.4408 78.5813 27.1681C78.9238 27.5715 79.1694 28.0614 79.4112 28.5373C79.6219 28.9539 79.6396 29.4078 79.3958 29.8272C77.9026 32.3974 75.9969 34.5003 73.0053 35.3448C72.8059 34.8311 72.6368 34.2904 72.3884 33.79C71.5716 32.1503 70.3022 30.9227 68.6123 30.2677C66.6704 29.5156 64.6588 28.9365 62.6733 28.3014C62.4349 28.2269 62.1632 28.2517 61.8524 28.396C62.1 28.532 62.3366 28.6972 62.5966 28.7959C63.8747 29.2918 65.1748 29.7441 66.442 30.2692C67.3486 30.6439 68.2584 31.0441 69.0928 31.5549C70.7463 32.5618 71.7494 34.0421 72.2118 35.9432C72.6443 37.7059 71.887 39.0766 70.9381 40.3788C70.4037 41.1139 69.6593 41.6991 68.9552 42.405C68.7954 42.1625 68.6779 42.0064 68.5829 41.8366C67.83 40.4879 66.6079 39.6986 65.2472 39.1199C62.9334 38.1339 60.4911 37.7843 57.9913 37.8337C57.5652 37.8439 57.1411 37.9589 56.5782 38.0475C56.8991 38.4681 57.1973 38.4023 57.4711 38.4409C59.2378 38.6991 61.0128 38.9325 62.7667 39.2543C64.1016 39.5017 65.3231 40.0806 66.4194 40.8776C67.4559 41.6344 68.0841 42.5921 68.0746 43.9594C68.0625 45.553 67.8628 47.1072 67.4221 48.6327C66.4526 51.9972 65.0486 55.1184 62.3674 57.5254C61.9563 57.8962 61.6137 58.0342 61.033 57.9321C59.5994 57.6814 58.1407 57.5465 56.6904 57.3868C56.3576 57.3529 55.9886 57.31 55.6352 57.6163C56.0797 58.0072 56.5949 58.0481 57.068 58.1417C58.2678 58.3768 59.4764 58.5606 60.6753 58.7922C61.5365 58.9574 62.3187 59.2756 62.9474 59.9436C63.7722 60.8217 64.0054 61.8488 63.8358 63.0001C63.5052 65.2515 62.9366 67.4433 61.9469 69.4973C60.8488 71.7762 59.6654 74.018 58.5673 76.2969C57.7656 77.9616 57.0233 79.6515 56.282 81.345C55.345 83.4824 54.1611 85.4725 52.8376 87.3914C52.2654 88.2231 51.7227 89.0808 51.1836 89.9374C50.2564 91.403 49.7089 93.0063 49.6669 94.7396C49.6319 96.2492 49.2027 97.5949 48.354 98.8362C47.018 100.792 45.947 102.88 45.2686 105.319C45.3385 103.161 45.8252 101.736 46.9644 100.123C47.291 99.6619 47.6371 99.2034 47.8845 98.7003C48.4142 97.6281 48.4107 96.5463 47.6023 95.6036C46.7919 94.6539 45.7227 94.5263 44.5788 94.8588C43.512 95.1704 42.6605 95.8184 41.9625 96.658C40.9976 97.818 40.3249 99.1394 39.9012 100.589C39.831 100.83 39.8254 101.087 39.789 101.341C40.2165 101.447 40.2463 101.168 40.3518 100.974C40.9279 99.9348 41.4718 98.8738 42.1068 97.8708C42.6545 97.0043 43.4242 96.3183 44.3845 95.919C44.8144 95.7424 45.3067 95.6015 45.7624 95.6171C47.0168 95.6645 47.7936 96.8375 47.4311 98.1238C47.3042 98.5718 47.0896 99.0435 46.7817 99.3788C45.3454 100.937 44.7439 102.841 44.3532 104.857C43.9195 107.102 42.8607 108.998 41.3425 110.74C40.0165 112.261 38.6654 113.759 37.3143 115.257C36.2012 116.495 35.4498 117.943 34.8464 119.478C34.729 119.781 34.624 120.088 34.3932 120.361C34.5068 119.725 34.6204 119.089 34.7339 118.453C34.6725 118.42 34.6146 118.387 34.5523 118.351C34.4116 118.457 34.2131 118.53 34.1348 118.671C33.7233 119.429 33.3419 120.202 32.9447 120.971C32.7145 121.413 32.48 121.853 32.2009 122.267C32.6998 119.748 33.7523 117.482 35.2357 115.403C36.1163 114.168 37.0137 112.94 37.8711 111.689C38.2728 111.102 38.6316 110.482 38.9432 109.842C39.338 109.035 39.2966 108.174 39.1326 107.305C39.0168 106.697 38.9457 106.074 38.9433 105.454C38.9381 102.7 39.3373 99.9935 40.0227 97.3302C40.1251 96.9303 40.3213 96.5575 40.4847 96.1749C40.643 95.8011 40.8227 95.4366 41.0414 94.9525C40.4505 95.0073 40.209 95.2683 39.9606 95.6289C38.3982 97.902 37.539 100.466 36.861 103.101C36.7955 103.359 36.7151 103.618 36.6373 103.872C36.6216 103.925 36.5696 103.969 36.5121 104.049C36.3876 104.034 36.2421 104.024 36.1023 103.994C35.8423 103.937 35.5854 103.864 35.2668 103.785C35.2732 103.211 35.28 102.653 35.2832 102.096C35.2853 101.798 35.2945 101.499 35.2676 101.205C35.2008 100.486 35.0694 100.39 34.2181 100.456C34.4507 99.3287 34.6422 98.2166 34.9117 97.1285C35.8566 93.3121 36.7934 89.494 37.8118 85.6991C38.3358 83.745 39.0784 81.8481 39.6183 79.8972C40.3152 77.3736 40.9138 74.8203 41.5372 72.2753C42.0455 70.1938 42.4802 68.0909 43.0372 66.0226C43.5851 63.9905 44.5028 62.129 45.8565 60.4877C46.5302 59.6698 47.3274 59.1267 48.3898 58.9516C48.8403 58.8784 49.3533 58.8973 49.6859 58.4726C49.2099 57.9098 49.0194 57.9012 46.805 58.3095C47.0042 57.3645 47.3065 56.4254 47.3752 55.4706C47.497 53.8097 47.4857 52.1435 47.5043 50.4766C47.5319 48.454 47.4493 46.4274 47.8163 44.4218C48.0621 43.0656 48.4498 41.7612 49.1034 40.5352C49.7415 39.3359 50.6691 38.5244 51.9907 38.1813C52.5955 38.025 53.2094 37.8887 53.8094 37.7149C54.0704 37.6367 54.3079 37.4858 54.6343 37.3297C53.8186 36.874 53.4861 36.8964 50.6961 37.5133C50.6963 37.4305 50.6681 37.3404 50.6978 37.2835C52.5608 33.6205 54.4461 29.9704 56.6938 26.5191C58.0393 24.4589 59.6204 22.6019 61.4974 21.018C62.2661 20.3699 63.1156 19.7976 63.9938 19.3039C65.1868 18.6386 66.4926 18.5705 67.8159 18.9C68.3239 19.0255 68.8413 19.1297 69.3888 19.2483C69.3101 18.7633 68.4763 18.2273 66.8876 17.6401C67.7385 17.1426 68.5582 16.6686 69.368 16.1861C71.3943 14.9866 73.3849 13.7104 75.6134 12.896C76.397 12.6085 77.1883 12.3076 78.0048 12.1691C79.8608 11.8542 81.565 12.1594 82.9062 13.6382C83.3204 14.0975 83.7826 14.0399 83.9078 13.4608C84.177 12.2186 85.0875 11.8441 86.1332 11.76C87.9115 11.6166 89.7082 11.4719 91.487 11.5388C96.4112 11.731 101.212 12.6335 105.76 14.5779L105.771 14.5751Z" fill="#4C1F21"/>
<path d="M57.8897 60.2313C58.1362 60.266 58.3316 60.307 58.531 60.3207C60.1345 60.4351 60.8345 61.144 60.887 62.7539C60.9012 63.1674 60.8724 63.5888 60.8179 63.9983C60.6422 65.3355 60.279 66.6332 59.7054 67.8489C58.8163 69.7327 57.9202 71.6185 56.9315 73.4542C54.9704 77.1023 53.0431 80.7638 51.4243 84.5786C50.5064 86.7447 49.6231 88.9278 48.7344 91.1048C48.6302 91.3587 48.5854 91.6377 48.5148 91.905C48.5832 91.9353 48.6472 91.9631 48.7156 91.9934C48.8823 91.734 49.0793 91.4889 49.2158 91.215C49.7582 90.1206 50.2838 89.0195 50.8084 87.9149C51.9964 85.4124 53.1328 82.8863 54.3822 80.416C55.9938 77.2273 57.7183 74.0945 59.36 70.9201C60.3862 68.9314 61.3049 66.8929 61.7029 64.6684C61.8898 63.6364 61.9612 62.5945 61.6611 61.5704C61.2649 60.2191 59.9657 59.4093 58.6283 59.6664C58.3247 59.7261 57.9899 59.768 57.8897 60.2313Z" fill="#4C1F21"/>
<path d="M44.7948 66.0953C45.0258 65.1567 45.2479 64.213 45.4744 63.2719C45.3999 63.2469 45.328 63.2176 45.2535 63.1926C45.1136 63.4674 44.9478 63.7304 44.8406 64.0151C43.5528 67.4545 42.6467 70.9972 41.8373 74.5776C41.147 77.6258 40.4338 80.6726 39.5815 83.6781C38.7514 86.5987 37.7016 89.4586 36.7979 92.3577C36.2225 94.2055 35.7287 96.0762 35.21 97.9387C35.1212 98.2635 35.0276 98.6122 35.3533 99.009C35.4643 98.7383 35.549 98.5649 35.6089 98.3833C36.3768 96.0661 37.1145 93.7345 37.9152 91.4271C39.7915 86.05 41.404 80.6015 42.5947 75.0266C43.2349 72.0296 44.0591 69.073 44.7948 66.0953Z" fill="#4C1F21"/>
<path d="M90.269 12.7788C89.7836 12.7787 89.2748 12.7474 88.8217 13.1859C89.2713 13.2483 89.7167 13.3232 90.1685 13.3662C94.1996 13.7477 98.0908 14.7236 101.897 16.0797C104.827 17.1204 107.637 18.4082 110.343 19.9384C110.765 20.1774 111.186 20.4543 111.752 20.3911C111.583 20.1137 111.377 19.8836 111.14 19.6999C109.571 18.4932 107.845 17.551 106.038 16.7698C102.722 15.3336 99.3039 14.1881 95.7639 13.4254C93.9541 13.036 92.1275 12.779 90.2715 12.7743L90.269 12.7788Z" fill="#4C1F21"/>
<path d="M50.421 71.9474C50.3219 72.151 50.2014 72.3453 50.1227 72.5546C48.0675 77.8825 46.0157 83.2094 43.9799 88.5395C43.9246 88.6824 44.0503 88.8964 44.0917 89.077C44.2574 88.9944 44.5104 88.956 44.58 88.8243C44.8824 88.2461 45.1739 87.6558 45.3989 87.0422C46.9794 82.7114 48.5519 78.3791 50.1076 74.04C50.3432 73.3821 50.4661 72.6834 50.6422 72.0003C50.5696 71.9823 50.497 71.9644 50.4245 71.9465L50.421 71.9474Z" fill="#4C1F21"/>
<path d="M39.3794 110.855C39.277 111.296 39.0481 111.757 39.3623 112.375C39.555 112.184 39.7284 112.088 39.7812 111.949C39.9959 111.395 40.1848 110.829 40.3623 110.262C41.2756 107.356 42.2448 104.477 44.2087 102.061C44.2853 101.969 44.3839 101.875 44.4083 101.77C44.4433 101.622 44.4216 101.458 44.4302 101.129C44.0368 101.371 43.705 101.48 43.5139 101.704C42.9215 102.406 42.2884 103.097 41.844 103.886C40.6267 106.058 39.9322 108.438 39.3749 110.853L39.3794 110.855Z" fill="#4C1F21"/>
<path d="M43.1616 74.3278C43.0926 74.6285 42.9764 74.9494 43.2803 75.2243C43.8989 74.4664 47.0154 63.6551 46.9867 62.4523C46.9272 62.427 46.8703 62.3974 46.8107 62.3721C46.6422 62.7637 46.4453 63.1479 46.3105 63.5529C45.6083 65.6681 44.8786 67.7794 44.2419 69.9145C43.8112 71.3659 43.5117 72.8569 43.1616 74.3278Z" fill="#4C1F21"/>
<path d="M49.0076 45.7645C49.404 44.7698 49.7463 43.7559 50.1818 42.7807C50.6746 41.6697 51.6044 41.0606 52.7651 40.7762C52.9948 40.7214 53.2372 40.6858 53.452 40.59C53.5594 40.5421 53.6865 40.3724 53.68 40.2651C53.6751 40.1499 53.5369 39.973 53.429 39.9496C53.145 39.8874 52.8349 39.8399 52.553 39.8824C51.058 40.0995 49.9037 40.8935 49.3191 42.2625C48.8102 43.4531 48.5279 44.744 48.1807 46.0035C48.1109 46.2593 48.203 46.5577 48.2225 46.8381C48.3196 46.8494 48.4203 46.8598 48.5174 46.871C48.6811 46.5033 48.8617 46.1424 49.0086 45.768L49.0076 45.7645Z" fill="#4C1F21"/>
<path d="M72.6636 15.2706C72.4574 15.3979 72.2974 15.5992 72.1175 15.7682C72.1702 15.8517 72.2185 15.9326 72.2712 16.0161C72.5695 15.9089 72.8697 15.8088 73.1616 15.6921C74.3214 15.2237 75.4729 14.7388 76.6399 14.2834C77.7633 13.8475 78.9179 13.6098 80.1394 13.8278C80.3295 13.8627 80.5424 13.7599 80.746 13.7198C80.756 13.6457 80.7686 13.5671 80.7786 13.4929C80.4872 13.32 80.2124 13.0974 79.8993 12.983C79.1736 12.7209 78.4222 12.808 77.6977 13.0081C75.8997 13.4952 74.2444 14.3009 72.6646 15.2741L72.6636 15.2706Z" fill="#4C1F21"/>
<path d="M87.5522 20.5529C87.6587 22.5843 88.2283 24.6031 87.6781 26.6545C87.6396 26.8041 87.8399 27.1408 87.987 27.1837C88.142 27.2281 88.4012 27.0602 88.5543 26.9172C88.6711 26.8066 88.7243 26.6004 88.7422 26.4301C88.7994 25.9334 88.9198 25.4195 88.8522 24.9341C88.613 23.2318 88.3157 21.5378 88.023 19.8463C87.9785 19.599 87.8366 19.3667 87.7377 19.1266C87.6551 19.1414 87.5761 19.1553 87.4936 19.1702C87.5132 19.6311 87.5266 20.0974 87.5497 20.5573L87.5522 20.5529Z" fill="#4C1F21"/>
<path d="M77.0367 21.4545C78.0721 23.1516 79.1337 24.834 80.136 26.5475C80.4157 27.0244 80.5098 27.608 80.7487 28.1147C80.8277 28.2813 81.0935 28.3597 81.2719 28.4767C81.3872 28.2913 81.5802 28.115 81.6029 27.9209C81.6269 27.7038 81.5286 27.4522 81.4337 27.2411C81.2523 26.8353 81.0821 26.4152 80.8292 26.0514C79.6095 24.299 78.3707 22.5594 77.1283 20.8206C76.9825 20.6158 76.7662 20.4563 76.5857 20.2759C76.5292 20.3175 76.4737 20.3626 76.4138 20.4052C76.6214 20.755 76.8256 21.1057 77.0393 21.4501L77.0367 21.4545Z" fill="#4C1F21"/>
<path d="M49.6937 48.4774C49.6294 48.4761 49.5625 48.4791 49.4982 48.4778C49.423 48.6861 49.315 48.8846 49.2786 49.0975C48.9157 51.2711 48.8034 53.4671 48.8322 55.67C48.8366 55.8944 48.9801 56.1187 49.0603 56.3451C49.1517 56.3354 49.2431 56.3256 49.331 56.3168C49.3896 56.1581 49.4896 55.9994 49.4978 55.8355C49.6363 53.5836 49.7713 51.3325 49.8834 49.0802C49.8936 48.8819 49.7593 48.6777 49.6893 48.4749L49.6937 48.4774Z" fill="#4C1F21"/>
<path d="M71.1569 27.1908C71.0806 27.1175 70.9516 27.0998 70.846 27.057C70.8073 27.1088 70.7687 27.1607 70.7336 27.2115C71.057 27.6277 71.3718 28.0537 71.7049 28.4635C72.8545 29.8739 74.045 31.2545 74.5662 33.0532C74.6475 33.3395 74.8487 33.5406 75.16 33.4676C75.5239 33.3803 75.6092 33.0564 75.5091 32.7564C75.3612 32.3077 75.1693 31.8634 74.9306 31.4544C73.9652 29.7798 72.5328 28.5061 71.1559 27.1873L71.1569 27.1908Z" fill="#4C1F21"/>
<path d="M60.8186 43.1733C60.7984 43.2239 60.7783 43.2745 60.7581 43.3251C61.0434 43.5034 61.3313 43.6773 61.6167 43.8556C62.8274 44.6029 64.0519 45.3313 65.2377 46.1116C65.6776 46.4022 66.0345 46.8168 66.4204 47.186C66.6385 47.3938 66.874 47.4992 67.1326 47.3013C67.4538 47.0564 67.3298 46.7516 67.1315 46.5196C66.8836 46.2296 66.5966 45.9615 66.2951 45.7236C64.7814 44.5246 62.9851 43.8796 61.2221 43.1768C61.104 43.1298 60.9533 43.1707 60.8176 43.1698L60.8186 43.1733Z" fill="#4C1F21"/>
<path d="M55.7921 29.9402C55.1923 30.8923 54.589 31.8453 54.0346 32.8264C53.6982 33.4175 53.442 34.0547 53.1714 34.6807C53.0652 34.9275 52.9896 35.2037 53.3351 35.3544C54.0418 34.8245 56.6295 30.2397 56.6849 29.3336C56.1929 29.3504 55.9758 29.6461 55.7947 29.9358L55.7921 29.9402Z" fill="#4C1F21"/>
<path d="M68.3791 27.9359C68.347 27.9146 68.2762 27.945 68.1058 27.9686C68.3216 28.1959 68.4831 28.389 68.6694 28.5491C69.3432 29.1335 70.0281 29.7036 70.7028 30.2915C71.7915 31.241 72.7153 32.3178 73.2868 33.6631C73.309 33.7172 73.3347 33.7704 73.3613 33.8271C73.5053 34.1227 73.7101 34.3229 74.0635 34.197C74.3653 34.089 74.4238 33.7911 74.1969 33.3563C74.0322 33.04 73.8247 32.7466 73.6183 32.4567C72.247 30.5198 70.3044 29.2377 68.3801 27.9395L68.3791 27.9359Z" fill="#4C1F21"/>
<path d="M65.4235 36.2861L65.2337 36.4466C65.4249 36.7218 65.5884 37.0197 65.8099 37.268C66.4773 38.0233 67.1775 38.7471 67.8414 39.5034C68.2117 39.9257 68.5264 40.3931 68.8664 40.8424C69.0599 41.0982 69.3095 41.2975 69.6191 41.0933C69.9166 40.8999 69.8866 40.581 69.7234 40.2981C69.5758 40.0448 69.4234 39.7741 69.2152 39.5748C68.1686 38.5726 67.1074 37.5856 66.0375 36.6085C65.8725 36.4577 65.6325 36.3911 65.427 36.2852L65.4235 36.2861Z" fill="#4C1F21"/>
<path d="M60.8422 44.5657C60.8194 44.6207 60.7958 44.6722 60.7731 44.7273C60.8891 44.85 60.9949 44.9905 61.1256 45.0979C62.7788 46.4509 64.5399 47.6881 65.83 49.4364C66.0146 49.6872 66.3017 49.7748 66.5165 49.5399C66.638 49.4055 66.6998 49.0504 66.6074 48.9175C66.3263 48.5049 66.015 48.078 65.62 47.7865C64.2123 46.7429 62.7696 45.7503 61.3319 44.7488C61.1926 44.6512 61.0054 44.6267 60.8422 44.5657Z" fill="#4C1F21"/>
<path d="M51.1686 60.6689C51.8604 60.6394 52.5454 60.9876 53.5223 60.7192C53.3198 60.5409 53.2403 60.4422 53.1379 60.3834C52.8315 60.2108 52.5275 59.9774 52.1967 59.9091C50.7428 59.6112 49.2924 59.6734 47.8741 60.1178C47.4513 60.2512 46.9472 60.3765 46.895 61.0862C47.6474 60.9613 48.3324 60.8095 49.0296 60.7447C49.7374 60.677 50.4539 60.6971 51.1686 60.6689Z" fill="#4C1F21"/>
<path d="M48.1657 63.4712C47.9123 63.6189 47.7735 63.773 47.7066 63.9566C47.2537 65.2147 46.7823 66.4741 46.379 67.7489C46.1128 68.5992 45.9414 69.4803 45.7398 70.347C45.6878 70.5716 45.602 70.8242 46.0473 70.9818C46.1463 70.8196 46.2714 70.6842 46.3185 70.5248C46.9498 68.3837 47.5741 66.2445 48.185 64.0977C48.2385 63.9064 48.1743 63.6832 48.1657 63.4712Z" fill="#4C1F21"/>
<path d="M58.9592 39.6018C58.9272 39.6781 58.8952 39.7545 58.8677 39.8334C59.9534 40.1332 61.0401 40.4365 62.1275 40.7284C63.7381 41.1605 65.2149 41.8206 66.3049 43.1494C66.3996 43.2629 66.4986 43.4203 66.6225 43.4469C66.802 43.4847 67.0682 43.4953 67.1754 43.391C67.2791 43.2877 67.2834 43.0121 67.2334 42.8414C67.1917 42.6873 67.0295 42.547 66.8893 42.4459C66.381 42.0836 65.8779 41.7124 65.3431 41.3911C63.7745 40.4476 61.9729 40.2552 60.2403 39.8449C59.8181 39.745 59.3871 39.6813 58.9592 39.6018Z" fill="#4C1F21"/>
<path d="M61.144 41.4309C61.3183 41.9213 61.6399 41.9695 61.8801 42.0924C63.6093 43.0037 65.4423 43.7703 66.6884 45.3839C66.7065 45.4091 66.7271 45.4298 66.7513 45.4496C66.9714 45.623 67.2189 45.759 67.4728 45.5436C67.7535 45.3021 67.7152 45.0079 67.4761 44.7644C67.1859 44.4708 66.8791 44.1855 66.5518 43.9358C65.2788 42.9724 63.7589 42.5007 62.3257 41.8626C61.9916 41.7125 61.6364 41.6095 61.1485 41.4334L61.144 41.4309Z" fill="#4C1F21"/>
<path d="M89.7374 21.536C89.6619 22.9513 89.5934 24.3647 89.5593 25.7801C89.5532 25.9659 89.7176 26.2673 89.8691 26.3127C90.0216 26.3616 90.3903 26.2091 90.4291 26.0745C90.5679 25.6008 90.6901 25.0939 90.663 24.605C90.598 23.3932 90.4512 22.1848 90.3202 20.9796C90.2983 20.7599 90.1965 20.5507 90.1307 20.3354C90.0444 20.3363 89.9615 20.3361 89.8743 20.3335C89.8248 20.7341 89.756 21.1325 89.7329 21.5335L89.7374 21.536Z" fill="#4C1F21"/>
<path d="M103.595 18.0822C104.352 18.8771 108.796 21.2409 109.825 21.3191C108.282 19.9438 106.648 19.0368 104.929 18.2732C104.536 18.0979 104.105 17.8009 103.595 18.0822Z" fill="#4C1F21"/>
<path d="M46.1195 97.3664C46.1078 97.3094 46.0962 97.2524 46.0845 97.1954C45.9241 97.1035 45.7595 96.9263 45.6038 96.9347C45.1375 96.9633 44.6247 96.9593 44.2225 97.1548C42.994 97.7583 42.2726 98.8448 41.7245 100.057C41.6654 100.186 41.638 100.363 41.6801 100.49C41.7314 100.638 41.872 100.754 42.0146 100.934C42.9882 99.1811 44.0546 97.7154 46.116 97.3673L46.1195 97.3664Z" fill="#4C1F21"/>
<path d="M61.1968 47.9434C61.4729 48.1431 61.7387 48.3605 62.025 48.5424C63.1507 49.2675 64.2969 49.957 65.2148 50.9565C65.3111 51.062 65.4377 51.1819 65.5695 51.2101C65.7207 51.2405 65.9478 51.2316 66.0463 51.1372C66.1475 51.0384 66.182 50.8185 66.1612 50.6587C66.1446 50.5279 66.0327 50.3928 65.9294 50.2892C64.6222 49.0192 63.0137 48.2895 61.3399 47.6941C61.2904 47.7752 61.2444 47.8553 61.1949 47.9364L61.1968 47.9434Z" fill="#4C1F21"/>
<path d="M68.0507 19.7538C67.7566 19.6681 67.4594 19.5155 67.1661 19.5161C66.7257 19.5151 66.2397 19.5265 65.8556 19.7057C64.7802 20.2076 63.7441 20.7854 62.7036 21.3606C62.5598 21.4409 62.489 21.6518 62.3862 21.8C62.4224 21.8503 62.4621 21.8997 62.4993 21.9536C63.0953 21.7094 63.6903 21.4617 64.2908 21.22C64.9243 20.9619 65.5465 20.6617 66.1963 20.4631C66.7979 20.2813 67.4289 20.2081 68.0466 20.0858C68.0471 19.9766 68.0476 19.8675 68.0517 19.7574L68.0507 19.7538Z" fill="#4C1F21"/>
<path d="M91.7034 21.9884C91.581 23.078 91.4771 24.1664 91.4041 25.2577C91.394 25.4146 91.5594 25.6781 91.6995 25.7228C91.8484 25.7727 92.1521 25.6716 92.2297 25.5416C92.3891 25.269 92.5184 24.9408 92.5212 24.6317C92.5285 23.7424 92.476 22.8543 92.4165 21.9682C92.3994 21.7246 92.276 21.4912 92.2035 21.2514C92.1216 21.2548 92.0353 21.2556 91.9535 21.259C91.8648 21.5011 91.7258 21.738 91.699 21.9859L91.7034 21.9884Z" fill="#4C1F21"/>
<path d="M58.668 65.6862C58.7846 64.756 58.7943 63.806 58.7655 62.8663C58.7516 62.4265 58.5952 61.9462 57.896 61.865C58.3345 63.8027 57.9301 65.6568 57.8522 67.5352C58.4448 67.0287 58.5856 66.3401 58.668 65.6862Z" fill="#4C1F21"/>
<path d="M69.5692 35.4523C70.0798 36.2539 70.607 37.0472 71.1247 37.8469C71.2844 38.0893 71.4908 38.2815 71.784 38.1419C72.1244 37.982 72.1008 37.6726 71.9708 37.3732C71.9007 37.2118 71.8147 37.0471 71.6993 36.9129C70.9303 36.0047 70.1517 35.1028 69.368 34.2098C69.2599 34.0887 69.0877 34.0225 68.9468 33.9329C68.8862 33.9869 68.8256 34.0409 68.764 34.0915C69.0301 34.5457 69.2831 35.0073 69.5647 35.4498L69.5692 35.4523Z" fill="#4C1F21"/>
<path d="M67.4254 35.1911C67.3886 35.2913 67.3637 35.3244 67.372 35.341C68.3002 36.7813 69.5458 38.0041 70.2515 39.5949C70.3012 39.7093 70.6768 39.8181 70.7566 39.7513C70.9074 39.6277 71.0717 39.3314 71.0143 39.189C70.878 38.8387 70.6582 38.4997 70.4027 38.2231C69.5388 37.2841 68.6481 36.3712 67.7609 35.4574C67.6675 35.3624 67.5463 35.29 67.4184 35.193L67.4254 35.1911Z" fill="#4C1F21"/>
<path d="M61.7316 50.3477C62.6094 51.1851 63.4897 52.0181 64.3907 52.8304C64.4893 52.9165 64.8163 52.9294 64.8617 52.8607C64.9549 52.7189 65.0179 52.4236 64.935 52.3258C64.533 51.8557 64.1134 51.3904 63.6355 51.0011C63.0904 50.5585 62.5429 50.079 61.695 50.0042C61.7109 50.1879 61.6893 50.3027 61.7351 50.3467L61.7316 50.3477Z" fill="#4C1F21"/>
<path d="M80.9125 22.8594C80.8388 22.8794 80.7671 22.9063 80.698 22.9288C80.6975 23.038 80.6715 23.1503 80.699 23.2519C81.0442 24.5118 81.3989 25.7654 81.751 27.0235C81.7662 27.0795 81.7861 27.1531 81.8272 27.1796C81.9671 27.2657 82.1312 27.413 82.2647 27.3919C82.4017 27.3698 82.572 27.2071 82.6274 27.0643C82.6888 26.916 82.6758 26.7015 82.6191 26.5477C82.1389 25.2754 81.5322 24.0638 80.916 22.8585L80.9125 22.8594Z" fill="#4C1F21"/>
<path d="M104.122 26.6655C104.911 27.0645 105.759 27.3612 106.669 27.3062C106.777 27.2997 106.874 27.1454 106.977 27.0536C106.504 26.5726 104.15 25.6015 103.069 25.4468C102.927 26.3388 103.671 26.4306 104.121 26.662L104.122 26.6655Z" fill="#4C1F21"/>
<path d="M43.3315 104.78C42.4043 105.885 41.7912 107.149 41.5078 108.56C41.4837 108.68 41.6391 108.837 41.7984 109.147C42.6256 107.66 43.3233 106.305 43.7642 104.655C43.4908 104.729 43.3772 104.726 43.3315 104.78Z" fill="#4C1F21"/>
<path d="M74.4081 28.2349C74.3774 28.2883 74.3446 28.3197 74.3484 28.3338C74.9552 29.6431 75.563 30.956 76.1934 32.2552C76.2502 32.3676 76.5042 32.4718 76.6358 32.4436C76.7708 32.4146 76.9792 32.2115 76.9708 32.0972C76.9471 31.7878 76.9023 31.4277 76.731 31.1846C76.0532 30.2103 75.3259 29.2757 74.6099 28.3268C74.5692 28.2739 74.4721 28.2626 74.4037 28.2323L74.4081 28.2349Z" fill="#4C1F21"/>
<path d="M76.1582 27.8208C76.0903 27.8617 76.0215 27.8992 75.9535 27.9401C76.0268 28.2662 76.06 28.6106 76.1839 28.9154C76.4522 29.5721 76.7746 30.2066 77.0673 30.8566C77.198 31.1445 77.3472 31.4312 77.7153 31.2901C78.0483 31.1585 78.0686 30.8447 77.9841 30.533C77.9462 30.3929 77.8888 30.2506 77.8132 30.1244C77.4456 29.5172 77.083 28.9011 76.6901 28.312C76.5621 28.1174 76.3385 27.9862 76.1592 27.8243L76.1582 27.8208Z" fill="#4C1F21"/>
<path d="M94.1109 22.5843C94.1005 22.5457 94.0148 22.5351 93.9241 22.492C93.5674 22.7165 93.5354 23.1124 93.48 23.4771C93.3901 24.0616 93.3345 24.6481 93.2491 25.2352C93.2078 25.5134 93.1658 25.8443 93.5193 25.8576C93.7167 25.8642 94.0576 25.6365 94.106 25.4542C94.3571 24.5064 94.4229 23.5412 94.1109 22.5843Z" fill="#4C1F21"/>
<path d="M58.6282 26.5776C57.8348 26.4542 57.056 26.857 56.6018 27.7771C57.2864 27.6518 57.8288 27.4597 58.3638 27.4764C58.9147 27.4963 59.4599 27.717 60.0564 27.8637C59.9358 27.0993 59.4623 26.7126 58.6282 26.5776Z" fill="#4C1F21"/>
<path d="M61.5235 52.1485C61.8467 53.0497 62.5526 53.6555 63.2219 54.2787C63.3223 54.3718 63.7007 54.352 63.7588 54.2611C63.8614 54.098 63.9123 53.7721 63.8173 53.6437C63.5558 53.2897 63.2179 52.9865 62.8837 52.6973C62.5136 52.3728 62.1987 51.9468 61.5998 51.9023C61.5549 52.0423 61.5121 52.1065 61.528 52.1511L61.5235 52.1485Z" fill="#4C1F21"/>
<path d="M56.9753 63.5769C56.9865 63.243 57.0276 62.8672 56.5597 62.5428C56.1499 63.8907 56.0944 65.1578 56.3997 66.4511C56.9275 65.5524 56.9452 64.5626 56.9753 63.5769Z" fill="#4C1F21"/>
<path d="M95.8265 25.5558C95.9648 24.6498 95.9454 23.7452 95.5718 22.8802C95.5617 22.8567 95.4677 22.8708 95.2938 22.854C95.2097 23.9182 95.1247 24.979 95.0425 26.0502C95.5492 26.0181 95.771 25.9204 95.8265 25.5558Z" fill="#4C1F21"/>
<path d="M48.2801 68.7113C48.964 67.556 49.2462 66.3479 49.33 65.0882C48.7292 65.6758 48.1835 67.1885 48.1406 68.1964C48.1333 68.3638 48.2326 68.5361 48.2791 68.7078L48.2801 68.7113Z" fill="#4C1F21"/>
<path d="M83.942 26.0426C83.8834 25.1599 83.5998 24.3494 83.1114 23.602C82.7895 24.6216 83.2875 25.5432 83.3264 26.5477C83.8235 26.5634 83.9573 26.3354 83.9394 26.047L83.942 26.0426Z" fill="#4C1F21"/>
<path d="M51.8171 72.8512C51.2156 73.8112 50.6388 75.7646 50.7858 76.3489C51.2714 75.8639 51.9277 73.6483 51.8171 72.8512Z" fill="#4C1F21"/>
<path d="M97.5329 24.3001C96.9344 24.7292 96.9252 25.3897 96.6094 25.8625C96.5538 25.949 96.6223 26.1184 96.6354 26.2502C96.7963 26.2329 97.042 26.2791 97.1021 26.1952C97.4731 25.6623 97.7022 25.0776 97.5329 24.3001Z" fill="#4C1F21"/>
<path d="M78.6814 29.6073C78.802 28.7889 78.2923 28.3518 77.7006 27.9594C77.7844 28.6435 77.9954 29.2556 78.6814 29.6073Z" fill="#4C1F21"/>
<path d="M61.6462 23.5118C61.0107 23.5825 60.6314 23.9183 60.3551 24.3842C60.303 24.4697 60.3721 24.6691 60.448 24.7688C60.495 24.8313 60.6972 24.8554 60.7667 24.8065C61.2068 24.5144 61.6188 24.1884 61.6462 23.5118Z" fill="#4C1F21"/>
<path d="M98.9748 24.526C98.7575 25.1263 98.5892 25.5328 98.4732 25.9515C98.437 26.0816 98.5424 26.2485 98.5876 26.4017C98.7406 26.3414 98.9578 26.3239 99.0402 26.2114C99.3885 25.7335 99.3172 25.234 98.9748 24.526Z" fill="#4C1F21"/>
<path d="M83.5137 16.2145C83.6719 15.5626 83.5973 15.079 83.0821 14.6772C82.7869 15.573 82.8536 15.8332 83.5137 16.2145Z" fill="#4C1F21"/>
<path d="M99.7306 26.2463C99.7333 26.3395 99.8942 26.4614 100.009 26.5093C100.059 26.5294 100.234 26.3957 100.246 26.3171C100.311 25.9012 100.377 25.4808 100.172 24.9312C99.827 25.4081 99.7231 25.816 99.7316 26.2498L99.7306 26.2463Z" fill="#4C1F21"/>
<path d="M61.9843 55.5012C61.8392 54.8826 61.6004 54.6954 60.8197 54.5911C61.1272 55.0454 61.3355 55.5228 61.9843 55.5012Z" fill="#4C1F21"/>
<path d="M51.7616 58.414C52.0068 58.3889 52.2276 58.3705 52.6381 58.3306C52.1646 58.0178 51.8724 58.0456 51.7616 58.414Z" fill="#4C1F21"/>
<path d="M123.592 39.0266C123.839 38.3394 123.245 38.0228 122.968 37.5978C122.678 37.1537 122.311 36.7569 121.977 36.3436C121.501 35.7532 121.116 35.4152 120.822 35.3294C121.303 36.5489 122.916 38.7248 123.592 39.0266Z" fill="#4C1F21"/>
<path d="M125.952 44.2372C126.186 45.9184 126.643 47.5388 127.386 49.0858C127.163 47.4018 126.599 45.8063 125.952 44.2372Z" fill="#4C1F21"/>
<path d="M114.763 25.1583C115.16 25.9418 116.723 27.4207 117.338 27.596C117.018 26.8444 115.591 25.494 114.763 25.1583Z" fill="#4C1F21"/>
<path d="M124.592 52.3544C124.881 51.4904 124.596 50.8419 124.294 50.1982C124.131 51.0281 124.239 51.7848 124.592 52.3544Z" fill="#4C1F21"/>
<path d="M84.2574 30.1642C83.8329 30.8055 83.3493 31.4366 83.0617 32.1387C82.4405 33.6642 82.184 35.2864 82.0177 36.9219C81.996 37.1195 82.0599 37.3277 82.0841 37.528C82.1493 37.5328 82.2146 37.5377 82.2799 37.5426C83.2101 34.9633 83.457 32.1255 85.3158 29.7383C84.6615 29.6562 84.4276 29.9038 84.2538 30.1652L84.2574 30.1642Z" fill="#4C1F21"/>
<path d="M76.0515 40.8959C76.582 39.549 76.4321 37.7737 75.6606 37.009C75.4519 38.28 75.6814 40.4322 76.0515 40.8959Z" fill="#4C1F21"/>
<path d="M71.6113 42.9334C71.8099 43.8608 72.0719 44.7862 72.1457 45.7249C72.2546 47.1128 72.2167 48.5141 72.2457 49.9124C72.2526 50.3128 72.2745 50.7129 72.2884 51.1114L72.5189 51.1429C72.5874 50.9514 72.6842 50.7673 72.7209 50.5694C73.1136 48.4779 73.1976 46.3722 72.8282 44.2729C72.7255 43.6992 72.4663 43.1454 72.2364 42.6024C72.1413 42.3762 71.9457 42.1961 71.7929 41.9931C71.3376 42.312 71.5418 42.6214 71.6113 42.9334Z" fill="#4C1F21"/>
<path d="M65.2658 56.3793C65.2203 57.2112 66.1743 58.8438 67.0371 59.3206C66.8039 58.3349 66.4381 57.4151 65.7895 56.6321C65.684 56.5066 65.4675 56.4712 65.2658 56.3793Z" fill="#4C1F21"/>
<path d="M68.3598 52.4693C68.2867 52.3801 68.0238 52.3122 67.9798 52.358C67.877 52.4648 67.7668 52.6827 67.8121 52.7944C68.1282 53.5585 68.5339 54.2644 69.3472 54.6832C69.2487 53.8339 68.8806 53.114 68.3563 52.4703L68.3598 52.4693Z" fill="#4C1F21"/>
</g>
<defs>
<clipPath id="clip0_35_13784">
<rect width="133.73" height="122.837" fill="white" transform="translate(35.0794 161.689) scale(1.00303) rotate(-105.16)"/>
</clipPath>
</defs>
</svg>
