<svg width="44" height="50" viewBox="0 0 44 50" fill="none" xmlns="http://www.w3.org/2000/svg">
<g clip-path="url(#clip0_35_14393)">
<path d="M27.3142 48.4407C27.5381 48.4743 27.8957 48.3923 27.9965 48.2345C28.0915 48.0877 27.9942 47.7294 27.8668 47.5432C27.6186 47.1818 27.2889 46.8745 26.9956 46.5453C26.869 46.4057 26.7461 46.264 26.5786 46.0772C27.2936 46.2783 27.9123 46.5052 28.5497 46.6191C29.1069 46.7193 29.6923 46.7554 30.2584 46.7062C30.8559 46.6555 31.0702 46.176 30.7093 45.6939C30.4341 45.3289 30.0375 45.0546 29.6809 44.7562C29.5142 44.616 29.3208 44.5095 29.0447 44.3238C29.6442 44.2271 30.1186 44.1987 30.5613 44.0726C31.2648 43.8685 31.4248 43.3199 30.9835 42.7499C30.8262 42.547 30.6339 42.3603 30.433 42.1962C29.9448 41.8035 29.4683 41.3888 28.9432 41.0581C26.3134 39.3973 24.0256 37.3659 22.1381 34.8916C22.0422 34.7658 21.9296 34.6576 21.833 34.5347C20.8816 33.2972 19.6644 32.3717 18.3549 31.5443C17.7145 31.1418 17.0849 30.7203 16.4872 30.2572C16.0868 29.9479 15.751 29.5525 15.3167 29.1297C16.8527 28.5119 17.4707 27.3612 17.709 25.9436C17.7512 25.6847 17.8108 25.4301 17.8312 25.1721C17.8894 24.4467 18.1804 23.8189 18.6101 23.244C19.3779 22.2138 19.9983 21.104 20.4369 19.8905C20.5937 19.4556 20.7884 19.0301 20.9555 18.6287C21.7718 18.6196 22.6012 18.6075 23.4335 18.5961C23.6339 18.8127 23.8409 19.0401 24.0486 19.2647C24.0263 19.3552 24.0163 19.4332 23.9896 19.504C23.6201 20.4373 23.5429 21.3654 23.9882 22.3079C24.0594 22.4585 23.9705 22.6935 23.9449 22.8853C23.8849 23.2914 23.7063 23.7147 23.7723 24.0994C23.9208 24.9655 23.8849 25.814 23.7338 26.6651C23.5082 27.9187 23.8743 28.919 24.9226 29.6759C26.3391 30.6969 27.7215 31.7683 29.1612 32.7579C31.0508 34.0566 33.008 34.1153 34.9552 32.8715C35.4578 32.5529 35.9253 32.1637 36.3576 31.7534C37.1984 30.9548 37.7923 29.9778 38.316 28.9462C39.4851 26.6532 40.0658 24.2862 39.4971 21.6976C39.2464 20.5556 39.1188 19.3789 39.0481 18.21C38.9312 16.2746 38.4866 14.4502 37.5512 12.7461C37.4024 12.4711 37.2754 12.1829 37.144 11.8998C36.2348 9.95149 34.9904 8.25791 33.2379 6.99305C32.3313 6.33922 31.3826 5.7307 30.3934 5.21124C28.5981 4.27013 26.6659 4.02259 24.6876 4.42607C22.3866 4.89544 20.096 5.41069 17.8164 5.9813C17.0415 6.17398 16.2956 6.53785 15.5884 6.92055C12.8205 8.41689 10.4822 10.4308 8.58926 12.9477C7.52087 14.368 6.54524 15.8514 6.00475 17.5659C5.04425 20.6068 5.05104 23.6789 5.78087 26.756C6.16499 28.3736 6.79948 29.8796 7.9681 31.115C8.55752 31.737 9.10989 32.3964 9.72546 32.9877C11.1591 34.3658 12.4481 35.8661 13.6332 37.4615C13.9728 37.9167 14.4019 38.3103 14.7953 38.7231C15.0783 39.0188 15.418 39.2729 15.6596 39.5986C18.4125 43.2954 21.9198 46.0671 26.047 48.0694C26.4398 48.2591 26.8862 48.3692 27.3193 48.4327L27.3142 48.4407ZM20.022 18.6863C19.6396 19.9106 19.1798 21.1095 18.3988 22.1302C17.5539 23.2342 17.0161 24.4232 16.8726 25.8209C16.7722 26.7927 16.4127 27.6853 15.3508 28.1383C15.436 27.9056 15.5052 27.6626 15.6073 27.4371C15.9787 26.6342 16.1203 25.7963 15.9696 24.9265C15.856 24.2701 15.9824 23.6823 16.378 23.1577C16.9558 22.3964 17.2052 21.5356 17.1396 20.597C17.1029 20.0432 17.298 19.7416 17.8302 19.554C18.4301 19.343 18.8952 18.9129 19.2375 18.3659C19.3455 18.1914 19.4609 18.0248 19.5653 17.8649C20.0992 17.9718 20.1439 18.28 20.0162 18.6849L20.022 18.6863ZM25.2691 28.8358C25.3862 28.9885 25.5055 29.1449 25.6226 29.2976C25.4684 29.1822 25.3106 29.0689 25.1565 28.9535C25.1942 28.9133 25.232 28.8731 25.2691 28.8358ZM33.8636 32.4785C32.7278 33.0805 31.5807 33.138 30.3869 32.6826C28.6216 32.0089 27.1793 30.867 25.8203 29.6001C25.7626 29.5457 25.7353 29.4554 25.6993 29.3753C26.0317 29.5965 26.3589 29.8258 26.7014 30.031C26.995 30.2087 27.3059 30.3534 27.6096 30.515C27.6539 30.4609 27.6989 30.404 27.7403 30.3492C27.5727 30.1376 27.4204 29.9143 27.2369 29.7174C26.7944 29.2399 26.3316 28.7822 25.8898 28.3018C25.274 27.6361 25.0032 26.8017 25.3804 26.0002C25.7387 25.2375 26.5756 25.0322 27.3875 25.0282C28.5274 25.0246 29.5093 25.5112 30.4267 26.1337C32.5033 27.5404 33.6581 29.4843 33.8052 31.9998C33.8137 32.1536 33.8405 32.3087 33.8621 32.4719L33.8636 32.4785ZM38.4606 26.2891C37.6847 28.6946 36.62 30.8153 34.3992 32.2268C34.396 31.6503 34.441 31.1538 34.3805 30.6715C34.0104 27.7171 31.2667 24.8614 28.3248 24.3277C27.368 24.1536 26.5157 24.321 25.7927 25.0186C25.4396 25.3587 25.0506 25.6558 24.6675 25.9792C24.5663 25.3352 24.3902 24.7315 24.408 24.1323C24.4206 23.73 24.6539 23.2985 24.8838 22.9435C25.1624 22.517 25.6208 22.2772 26.133 22.2085C27.5026 22.0264 28.873 21.8289 30.2458 21.7094C30.8345 21.6565 31.4499 21.7216 32.0326 21.8437C32.7014 21.9808 33.3358 22.2827 33.7763 22.8309C34.9551 24.2885 36.5366 25.1924 38.1342 26.0817C38.2211 26.1309 38.3058 26.189 38.4577 26.2884L38.4606 26.2891ZM35.7056 15.4728C36.406 15.921 37.0796 16.4152 37.7836 16.8613C38.0538 17.0331 38.1689 17.2318 38.2027 17.5465C38.3941 19.3054 38.6234 21.0612 38.8119 22.8193C38.9118 23.7695 39.022 24.7283 38.6685 25.647C37.8453 25.0942 37.0836 24.6061 36.3494 24.0815C35.9498 23.7941 35.5851 23.4534 35.2254 23.1171C34.941 22.852 34.6835 22.5532 34.4166 22.2676C33.6158 21.4108 32.6274 20.9256 31.4603 20.8513C30.8114 20.8089 30.1539 20.7767 29.5105 20.8378C28.395 20.9434 27.2847 21.1029 26.1803 21.2886C25.7025 21.3688 25.2432 21.5743 24.7728 21.7245C24.3552 20.7951 24.6118 19.6667 25.4821 18.9745C25.863 18.6722 26.3135 18.4398 26.7625 18.2379C28.1017 17.6397 29.3648 16.9236 30.5135 16.006C30.7985 15.7791 31.1076 15.5799 31.4219 15.3974C32.8595 14.5634 34.2968 14.5589 35.7049 15.4633L35.7056 15.4728ZM28.7345 5.4366C29.6132 5.82667 30.5225 6.16855 31.3432 6.65575C33.6413 8.01801 35.4081 9.88996 36.5092 12.3529C36.8189 13.0422 37.1774 13.7094 37.477 14.4023C37.6797 14.8733 37.8139 15.3707 37.8667 15.9346C37.7272 15.8476 37.5841 15.7628 37.4489 15.6706C36.8427 15.2673 36.2648 14.8121 35.6288 14.4665C34.2767 13.7368 32.8758 13.7194 31.5033 14.4147C30.9728 14.6831 30.4586 15.0112 29.9984 15.3837C29.078 16.1286 28.055 16.6872 26.9925 17.1927C26.197 17.5692 25.4133 17.9732 24.5182 18.4148C24.1011 18.1108 24.0734 17.6582 24.2469 17.1934C24.6596 16.0973 25.1029 15.0151 25.5434 13.932C25.6794 13.5941 25.8518 13.2714 26.0075 12.9415C26.4788 11.959 26.4991 10.9735 25.9574 10.0197C25.5001 9.21355 25.5801 8.46258 26.1435 7.77203C26.7541 7.02812 27.4129 6.32706 28.0309 5.59115C28.2407 5.34268 28.4805 5.32443 28.7286 5.43516L28.7345 5.4366ZM17.9168 6.82937C19.6298 6.42236 21.3894 6.00208 23.2961 5.54999C22.6451 7.13513 22.2556 8.63926 22.2 10.2072C22.2584 10.234 22.3175 10.2579 22.3759 10.2846C22.5115 10.0612 22.6894 9.85435 22.7761 9.61574C23.175 8.51318 23.5592 7.40702 23.9238 6.2929C24.0075 6.04118 23.9848 5.757 24.0201 5.41286C25.029 5.21289 26.0947 5.02074 27.3109 5.17215C27.1264 5.38045 26.9986 5.52226 26.8737 5.66478C26.3551 6.24877 25.7949 6.80083 25.3341 7.42692C24.7027 8.28022 24.5213 9.24143 25.0667 10.2178C25.5556 11.0967 25.5342 11.9365 25.08 12.8242C24.6751 13.6126 24.311 14.4235 23.9783 15.2453C23.6681 16.0137 23.4191 16.8097 23.1345 17.6247C21.7175 18.0367 20.7034 17.7308 19.7807 16.5902C19.2327 15.9133 18.8127 15.169 18.5578 14.3324C18.275 13.4084 17.9456 12.4976 17.7051 11.5654C17.3605 10.2269 17.5202 8.87653 17.7434 7.53254C17.7784 7.32762 17.8427 7.12989 17.9168 6.82937ZM10.3531 12.7111C10.311 12.5305 10.3152 12.2622 10.4227 12.1402C11.7822 10.5812 13.3611 9.2745 15.2096 8.15497C15.2399 10.3538 15.6886 12.3495 16.8996 14.3165C17.0441 13.4297 16.6682 12.8078 16.5459 12.1493C16.4131 11.4325 16.2702 10.7194 16.1404 10.0033C16.0151 9.31932 16.0587 8.59033 15.5661 7.93956C15.9488 7.73063 16.3221 7.52245 16.7972 7.26512C16.7922 7.53627 16.8008 7.70242 16.7852 7.86574C16.6737 9.0206 16.7764 10.1478 17.1167 11.2655C17.3575 12.0585 17.5838 12.8726 17.6812 13.6952C17.8385 15.0278 18.2672 16.2261 19.1224 17.2264C18.5965 18.2666 18.1182 18.6749 17.0587 18.9923C16.2063 17.9557 14.9721 17.4129 13.8736 16.6715C12.5866 15.8031 11.3839 14.8565 10.6651 13.4288C10.5492 13.1959 10.4122 12.9609 10.356 12.7118L10.3531 12.7111ZM14.7507 37.5235C14.054 36.646 13.3937 35.7341 12.6695 34.8807C11.9474 34.031 11.1628 33.2339 10.3985 32.4047C10.777 32.238 11.1519 32.0736 11.5544 31.8974C12.6038 33.4779 13.662 35.0729 14.8228 36.817C14.9144 36.5084 15.0276 36.3383 14.9885 36.2203C14.8781 35.8774 14.7378 35.5302 14.5503 35.2239C13.7598 33.9363 12.9394 32.6692 11.8514 31.5714C12.2581 30.6379 13.2341 30.8724 13.9458 30.5465C13.3164 30.1746 12.2078 30.1891 11.6842 30.5551C11.5984 30.6145 11.5221 30.6854 11.4429 30.7556C10.4623 31.6064 10.286 31.6062 9.2022 30.9303C8.51572 30.501 8.02625 29.9129 7.64503 29.2122C6.64872 27.3787 6.29477 25.3878 6.18115 23.3386C6.05045 20.9571 6.38574 18.6565 7.40801 16.482C7.55932 16.1572 7.7442 15.8469 7.9804 15.4037C8.68612 17.537 10.4307 19.5242 11.9371 19.9422C11.8571 19.7398 11.8295 19.5628 11.7293 19.4421C11.482 19.1397 11.2201 18.8461 10.9401 18.5758C10.0811 17.7542 9.39958 16.8154 8.90999 15.7258C8.78962 15.4609 8.50549 15.2701 8.23927 14.9816C8.62169 14.4476 9.07087 13.8186 9.53528 13.1656C9.64051 13.2534 9.72444 13.2896 9.74794 13.3449C10.3867 15.0346 11.6265 16.207 13.1011 17.1557C13.8007 17.6069 14.5439 17.9945 15.2632 18.4164C15.5093 18.5606 15.7518 18.7195 15.9877 18.8798C16.3558 19.1316 16.6039 19.4435 16.4414 19.9265C16.4357 19.9498 16.4343 19.9805 16.4373 20.006C16.6037 21.2139 16.2476 22.2558 15.47 23.1876C15.1236 23.6005 15.0218 24.1387 15.1073 24.6705C15.2768 25.7151 15.0794 26.6909 14.6502 27.6405C14.5749 27.8077 14.5194 27.9828 14.4674 28.1557C14.3074 28.7043 14.3591 29.1597 14.7434 29.6723C15.5719 30.7681 16.6776 31.4803 17.8074 32.183C18.3171 32.5006 18.8327 32.8073 19.3229 33.1542C19.5632 33.3218 19.7469 33.5683 19.9582 33.7782C19.9343 33.8374 19.9068 33.8987 19.883 33.9578C19.5658 33.926 19.2422 33.9204 18.9322 33.8595C17.3882 33.5437 17.0681 33.7247 16.6188 35.2451C16.4696 35.7499 16.3829 36.2392 15.7845 36.4693C15.5763 36.5479 15.4506 36.9069 15.3443 37.1623C15.2597 37.3674 15.2597 37.6057 15.2031 37.923C15.0014 37.7494 14.8539 37.6573 14.75 37.5265L14.7507 37.5235ZM15.9225 38.8587C15.9834 38.4992 16.0677 38.195 16.0842 37.8896C16.1076 37.4682 16.2036 37.1545 16.6557 36.9782C17.0837 36.8114 17.1755 36.3512 17.304 35.9557C17.3769 35.7354 17.3988 35.4962 17.4578 35.2694C17.689 34.37 17.9253 34.2023 18.8442 34.367C19.0396 34.4029 19.277 34.5574 19.3803 34.7283C20.7623 37.0563 22.7962 38.7867 24.7421 40.5976C24.8554 40.7029 24.9985 40.7754 25.1387 40.8471C25.1934 40.8761 25.2757 40.8561 25.4871 40.8649C25.2075 40.505 25.0076 40.2112 24.775 39.9496C23.3385 38.3324 21.8902 36.7247 20.4507 35.1069C20.281 34.9164 20.1397 34.6989 19.9816 34.4866C20.2045 34.2104 20.4026 34.1602 20.6264 34.4321C20.9271 34.7941 21.2446 35.1386 21.53 35.5123C23.446 37.9968 25.7476 40.0471 28.4255 41.6887C29.1273 42.1187 29.7523 42.6722 30.4134 43.1664C30.3779 43.235 30.3402 43.3 30.3047 43.3687C29.1334 43.575 27.9857 43.4219 26.8592 43.0698C25.6401 42.6917 24.5956 41.9946 23.6666 41.1433C22.7455 40.2971 21.8906 39.3836 20.9994 38.5045C20.7903 38.2982 20.5485 38.124 20.3226 37.9352C20.2666 37.974 20.2114 38.0099 20.1554 38.0487C20.2113 38.2235 20.2294 38.426 20.3305 38.5686C21.9791 40.8695 23.8833 42.8496 26.6249 43.8817C27.8114 44.3291 28.8293 45.1218 29.8796 45.8452C29.2308 46.0287 28.624 45.8914 28.0418 45.7293C25.7169 45.0785 23.6152 44.037 22.0036 42.1631C21.2553 41.2945 20.472 40.4544 19.6967 39.607C19.4993 39.3912 19.2785 39.1943 19.0324 39.0253C19.2411 39.8103 21.2753 42.5561 22.64 43.7872C24.1208 45.1243 25.6838 46.3672 27.1632 47.7102C22.6947 45.6609 18.9957 42.6376 15.9298 38.8543L15.9225 38.8587Z" fill="#4C1F21"/>
<path d="M13.7992 19.0303C12.1575 17.7804 10.5224 16.529 9.81979 14.4584C9.76904 14.3128 9.50681 14.1336 9.36037 14.1501C9.08058 14.1801 9.04283 14.4586 9.0815 14.7034C9.10903 14.8804 9.14463 15.0749 9.23839 15.2219C9.58341 15.7681 9.90664 16.34 10.3251 16.827C11.1283 17.7618 12.1785 18.4108 13.1944 19.0854C13.6626 19.3959 14.1504 19.6772 14.6287 19.9716C14.6686 19.9102 14.7085 19.8489 14.7484 19.7875C14.4327 19.5363 14.1192 19.2764 13.7985 19.0332L13.7992 19.0303Z" fill="#4C1F21"/>
<path d="M8.04045 26.6418C7.97081 26.2842 7.89461 25.928 7.79875 25.5763C7.74788 25.3935 7.64969 25.2269 7.55206 25.0078C6.50584 26.5264 8.15653 30.1619 10.1004 30.6382C10.152 30.1155 9.82682 29.8526 9.5927 29.572C8.86256 28.7048 8.26632 27.7716 8.04045 26.6418Z" fill="#4C1F21"/>
<path d="M10.9146 20.9623C10.8701 20.7285 10.885 20.6052 10.828 20.5478C9.87724 19.521 8.91993 18.4956 7.94954 17.4855C7.87568 17.4085 7.63075 17.3976 7.54421 17.4598C7.44604 17.5316 7.36002 17.7549 7.40262 17.8582C7.51503 18.1429 7.64503 18.4566 7.86505 18.6563C8.67274 19.3848 9.5182 20.0731 10.36 20.7636C10.4704 20.8558 10.6432 20.8706 10.9139 20.9652L10.9146 20.9623Z" fill="#4C1F21"/>
<path d="M9.99756 21.5933C9.84537 21.4072 9.71424 21.1985 9.53735 21.0372C8.93945 20.4998 8.33647 19.9703 7.71534 19.4643C7.57869 19.3532 7.30579 19.2549 7.185 19.318C6.92087 19.4602 7.02014 19.7354 7.16505 19.9259C7.85886 20.8275 8.73622 21.4618 9.81669 21.7871C9.87624 21.7213 9.93872 21.6562 9.99756 21.5933Z" fill="#4C1F21"/>
<path d="M13.0797 31.6856C13.1566 32.4907 14.5039 34.4449 15.2637 34.7902C15.1271 33.7753 13.8343 31.9769 13.0797 31.6856Z" fill="#4C1F21"/>
<path d="M9.21844 23.0077C8.83471 22.2042 7.66705 21.5046 6.82705 21.6224C7.0378 22.3491 7.65352 22.5258 8.15219 22.8004C8.46322 22.97 8.8001 23.2481 9.21844 23.0077Z" fill="#4C1F21"/>
<path d="M14.6588 31.8089C14.7243 32.4719 15.543 33.6953 16.2023 34.0467C16.2488 33.0677 15.4925 32.0052 14.6588 31.8089Z" fill="#4C1F21"/>
<path d="M7.17066 23.1155C7.46812 23.6036 8.06429 23.8219 8.76288 23.7001C8.2278 23.2091 7.66593 23.0024 7.17066 23.1155Z" fill="#4C1F21"/>
<path d="M29.9551 14.6427C31.0296 14.2391 31.9544 13.5139 33.1406 13.3855C34.3777 13.2512 35.387 13.8777 36.4454 14.3802C36.5516 13.8493 36.5747 13.7807 36.2673 13.5965C35.7817 13.3065 35.2727 12.9983 34.7351 12.8565C32.7378 12.3329 31.3399 13.5079 29.9551 14.6427Z" fill="#4C1F21"/>
<path d="M28.3356 6.58878C28.8728 7.08344 31.3619 8.6878 31.8134 8.81465C31.9206 8.8442 32.0495 8.7986 32.1639 8.78658C32.2609 8.35552 31.9666 8.1684 31.7314 7.99276C31.2521 7.63932 30.7504 7.31438 30.2414 7.00623C29.8427 6.7655 29.4309 6.54013 29.0032 6.35417C28.7434 6.24056 28.4444 6.19777 28.3385 6.5895L28.3356 6.58878Z" fill="#4C1F21"/>
<path d="M30.4401 12.9516C30.4695 13.0208 30.4952 13.0921 30.5246 13.1613C30.8887 13.0406 31.2578 12.9243 31.6197 12.7999C32.5028 12.4947 33.3889 12.1901 34.3437 12.209C34.6273 12.2139 34.9154 12.2881 35.1945 12.261C35.3344 12.2459 35.5453 12.0937 35.5696 11.9697C35.5948 11.8428 35.4671 11.5823 35.3518 11.5476C35.0651 11.4552 34.7442 11.4009 34.444 11.4259C32.959 11.5486 31.7238 12.3149 30.4431 12.9523L30.4401 12.9516Z" fill="#4C1F21"/>
<path d="M32.3714 10.5927C31.5267 11.0436 30.6929 11.5127 29.9353 12.0997C29.9646 12.1688 29.9911 12.2372 30.0205 12.3064C30.2309 12.2438 30.4479 12.1921 30.6532 12.1127C31.6971 11.7078 32.7344 11.292 33.7776 10.89C34.0273 10.7937 34.2025 10.6482 34.1426 10.3765C34.0827 10.0924 33.8368 10.0101 33.5936 10.0925C33.1779 10.2345 32.7593 10.3881 32.3707 10.5956L32.3714 10.5927Z" fill="#4C1F21"/>
<path d="M24.7341 17.3879C25.5652 17.0048 26.4198 15.7237 26.393 15.0918C25.7524 15.556 25.273 16.0815 24.893 16.6935C24.7748 16.8841 24.7829 17.1523 24.7341 17.3879Z" fill="#4C1F21"/>
<path d="M33.2873 20.6458C32.6431 20.4467 32.0032 20.23 31.3569 20.0396C31.1985 19.9913 31.0171 20.0116 30.8473 19.9975C30.8386 20.0325 30.8293 20.0705 30.8235 20.1062C31.0337 20.1828 31.241 20.2711 31.4576 20.3338C33.0159 20.7924 34.5234 21.319 35.565 22.7056C35.868 23.1085 36.3288 23.4109 36.7547 23.7048C37.0483 23.9072 37.4015 24.0314 37.7451 24.1441C37.84 24.1736 38.0298 24.0564 38.1075 23.9549C38.1489 23.9001 38.0819 23.6947 38.003 23.6258C37.8268 23.474 37.6108 23.3712 37.4201 23.2406C36.7795 22.8009 36.1084 22.3971 35.5121 21.9033C34.8384 21.3471 34.1241 20.9048 33.2932 20.6472L33.2873 20.6458Z" fill="#4C1F21"/>
<path d="M33.5108 20.0541C33.7549 20.269 33.9845 20.5052 34.2504 20.6946C35.3491 21.4856 36.4579 22.2605 37.5646 23.0441C37.6282 23.0877 37.6947 23.1567 37.7647 23.1616C37.9076 23.1721 38.1074 23.2028 38.1881 23.1267C38.2695 23.0477 38.3029 22.7991 38.24 22.7155C38.0051 22.413 37.7635 22.0749 37.4429 21.8813C36.3731 21.2367 35.2699 20.6396 34.1725 20.0439C34.0061 19.9534 33.7838 19.9635 33.5883 19.9277C33.5652 19.9715 33.5391 20.0146 33.5159 20.0584L33.5108 20.0541Z" fill="#4C1F21"/>
<path d="M34.3236 19.2053C35.2985 19.7955 36.2741 20.3828 37.2599 20.954C37.3387 20.9982 37.5681 20.9465 37.5964 20.8822C37.647 20.7647 37.6544 20.5716 37.587 20.4683C37.4926 20.3243 37.3304 20.2038 37.1734 20.1248C36.3602 19.72 35.5412 19.3261 34.7156 18.946C34.5879 18.8867 34.4181 18.9098 34.1651 18.8814C34.262 19.0786 34.2754 19.1748 34.3294 19.2067L34.3236 19.2053Z" fill="#4C1F21"/>
<path d="M25.0626 20.75C25.5439 20.8439 25.9501 20.6779 26.8109 20.0112C25.9675 19.9672 25.3765 20.23 25.0626 20.75Z" fill="#4C1F21"/>
<path d="M37.1497 18.853C36.9007 18.4697 36.5705 18.2397 35.9748 18.1578C36.3256 18.6807 36.6369 18.937 37.1497 18.853Z" fill="#4C1F21"/>
<path d="M23.9609 11.6507C24.2735 11.1738 24.1581 10.6377 24.1638 10.1377C24.182 8.97222 24.3841 7.87684 25.1048 6.91247C25.3733 6.55157 25.5615 6.12751 25.8608 5.60397C25.0047 5.69924 24.2422 6.58211 23.7324 7.8461C23.2927 8.93859 23.4055 10.9783 23.9579 11.65L23.9609 11.6507Z" fill="#4C1F21"/>
<path d="M21.0544 10.3332C21.2164 10.1534 21.3175 10.0948 21.3377 10.0131C21.6432 8.88751 21.945 7.76411 22.2184 6.63061C22.2501 6.50223 22.1033 6.20605 22.0188 6.19757C21.8503 6.17769 21.6349 6.27312 21.4982 6.38799C21.3936 6.47359 21.3504 6.66105 21.329 6.81053C21.1906 7.76067 21.0588 8.70933 20.9445 9.6623C20.9224 9.83949 20.9995 10.0287 21.0544 10.3332Z" fill="#4C1F21"/>
<path d="M20.1368 7.57821C20.1351 7.48492 19.9742 7.30905 19.913 7.31872C19.787 7.34025 19.6036 7.4436 19.5777 7.54864C19.3928 8.29849 19.2836 9.05466 19.558 9.83731C20.0171 9.14272 20.1539 8.3748 20.1368 7.57821Z" fill="#4C1F21"/>
<path d="M18.4085 7.75863C18.1784 8.28996 18.3206 8.78004 18.6355 9.2477C18.6733 8.74321 18.7526 8.23349 18.4085 7.75863Z" fill="#4C1F21"/>
<path d="M16.6778 37.6028C16.7933 38.4268 18.2228 40.3238 19.1492 40.7845C18.5072 39.6728 17.7954 38.6058 16.957 37.6252C16.916 37.578 16.7813 37.6098 16.6778 37.6028Z" fill="#4C1F21"/>
<path d="M18.0594 34.7616C18.1552 35.5405 18.6044 36.066 19.2405 36.4613C18.9862 35.7981 18.8083 35.0887 18.0594 34.7616Z" fill="#4C1F21"/>
<path d="M17.7025 36.2088C17.6083 36.8418 17.7929 37.1225 18.454 37.3784C18.2886 36.9198 18.2704 36.4541 17.7025 36.2088Z" fill="#4C1F21"/>
<path d="M32.8655 25.5437C33.0424 25.9432 33.1527 26.249 33.3103 26.5262C33.9451 27.6547 34.5907 28.7765 35.2328 29.9006C35.35 30.1028 35.4521 30.3292 35.7579 30.2313C35.9366 29.1177 34.1846 26.1816 32.8655 25.5437Z" fill="#4C1F21"/>
<path d="M35.7801 28.5221C35.9385 28.8212 35.8832 29.309 36.4658 29.3939C36.3678 28.5866 35.9337 28.0122 35.5972 27.3937C35.5252 27.4224 35.4568 27.4488 35.3847 27.4775C35.5119 27.8276 35.6063 28.1976 35.7801 28.5221Z" fill="#4C1F21"/>
<path d="M36.7929 27.7164C36.7885 27.2325 36.5019 26.9389 36.1743 26.6105C36.028 27.3544 36.209 27.6745 36.7929 27.7164Z" fill="#4C1F21"/>
<path d="M15.2507 13.1578C15.309 13.1474 15.3709 13.1348 15.4291 13.1245C15.4481 12.8846 15.5143 12.641 15.4815 12.41C15.3497 11.5139 15.1916 10.6238 15.0372 9.73141C14.9912 9.46625 14.9058 9.18518 14.5663 9.23145C14.1918 9.28146 14.1782 9.58763 14.2061 9.88856C14.2151 9.96506 14.2204 10.0438 14.2425 10.1173C14.4667 10.9402 14.6836 11.7675 14.9282 12.583C14.9893 12.7869 15.1429 12.9672 15.2543 13.1556L15.2507 13.1578Z" fill="#4C1F21"/>
<path d="M14.1883 12.9979C14.239 12.6668 14.3048 12.5128 14.2803 12.3737C14.1623 11.7101 14.032 11.0465 13.8848 10.3881C13.8331 10.1586 13.7353 9.89 13.4331 9.96092C13.101 10.04 13.1099 10.3424 13.1858 10.5995C13.373 11.2461 13.5762 11.8905 13.7961 12.5297C13.841 12.6615 13.982 12.7551 14.1912 12.9986L14.1883 12.9979Z" fill="#4C1F21"/>
<path d="M12.4667 11.3692C12.422 11.3117 12.2368 11.2846 12.1997 11.3219C12.1249 11.3994 12.0416 11.5615 12.0754 11.6379C12.2714 12.0732 12.4914 12.4988 12.9782 12.7334C12.9635 12.216 12.7879 11.761 12.4674 11.3663L12.4667 11.3692Z" fill="#4C1F21"/>
<path d="M11.5225 12.424C11.4648 12.4067 11.2968 12.5231 11.2999 12.5734C11.3164 12.9334 11.4237 13.2385 11.9004 13.226C11.9364 12.879 11.9398 12.5517 11.5225 12.424Z" fill="#4C1F21"/>
<path d="M29.7136 31.4086C30.0206 32.159 30.5587 32.2113 30.9907 32.3797C31.4511 32.5583 31.9415 32.7412 32.6389 32.4736C31.782 31.8568 30.9592 31.6415 30.1393 31.4269C30.0167 31.3967 29.8827 31.4131 29.7136 31.4086Z" fill="#4C1F21"/>
</g>
<defs>
<clipPath id="clip0_35_14393">
<rect width="42.3153" height="33.9759" fill="white" transform="translate(43.8035 8.26509) scale(1.01584) rotate(103.855)"/>
</clipPath>
</defs>
</svg>
