<svg width="388" height="362" viewBox="0 0 388 362" fill="none" xmlns="http://www.w3.org/2000/svg">
<g clip-path="url(#clip0_35_13910)">
<path d="M41.1134 302.077C35.1241 292.758 30.2471 282.898 27.2074 272.205C26.0433 268.13 24.8932 263.996 27.7527 260.148C21.0312 254.345 19.282 250.598 19.4107 241.666C19.4582 238.242 19.658 234.775 20.2083 231.403C21.3034 224.708 22.6953 218.054 23.9682 211.382C24.1471 210.457 24.5592 209.521 24.5048 208.607C24.31 204.776 25.0889 201.129 26.4145 197.588C28.4506 192.106 30.9984 186.88 34.3141 182.044C39.9721 173.787 46.6562 166.395 53.4557 159.089C57.1981 155.073 61.505 151.572 64.5338 146.908C64.9189 146.315 65.4793 145.824 65.9797 145.319C70.3845 140.861 75.7006 137.824 81.4811 135.595C86.1679 133.788 90.9578 132.255 95.6446 130.448C98.8415 129.217 101.986 127.845 105.05 126.333C107.956 124.904 110.3 122.892 111.796 119.824C113.268 116.816 115.474 114.25 117.892 111.879C122.721 107.148 128.354 103.515 133.985 99.8729C138.806 96.7544 143.726 93.7634 148.422 90.4609C153.843 86.6522 159.008 82.4959 164.385 78.6327C168.205 75.8891 172.203 73.3929 176.09 70.7409C182.689 66.248 189.221 61.6732 195.855 57.2552C198.569 55.4433 201.464 53.8983 204.339 52.3453C204.953 52.0155 205.996 51.8906 206.552 52.2012C207.437 52.6965 206.779 53.6165 206.583 54.3574C206.553 54.4579 206.663 54.5943 206.764 54.8391C208.553 54.2258 210.331 53.6037 212.158 52.9771C212.096 52.2989 212.034 51.8357 212.01 51.3591C211.673 46.8275 213.128 43.099 217.208 40.8494C221.232 38.6342 225.244 39.1557 228.963 41.7068C231.505 43.4474 232.777 46.1445 233.825 48.9502C234.03 49.4882 234.264 50.0139 234.577 50.7668C236.091 48.4299 237.434 46.3529 238.777 44.2857C241.925 39.4347 245.476 34.9279 250.083 31.3894C252.29 29.6924 254.662 28.1952 257.072 26.7923C258.221 26.1204 259.584 25.5461 261.232 26.3818C258.957 28.935 256.823 31.3287 254.443 34.0088C257.259 33.2036 259.13 30.9317 262.55 31.2827C261.772 32.2723 261.403 32.9314 260.87 33.4004C258.838 35.1986 256.773 36.9606 254.687 38.6954C249.625 42.9108 245.841 48.0739 243.19 54.0907C243.005 54.5181 242.921 54.985 242.636 55.9294C243.85 54.8998 244.615 54.1947 245.437 53.5723C246.131 53.0495 246.945 52.4474 247.794 53.1902C248.548 53.8539 248.136 54.683 247.761 55.3914C247.162 56.521 246.541 57.633 245.859 58.7116C240.278 67.4881 233.216 74.9153 225.24 81.5275C223.345 83.108 221.539 84.8171 219.806 86.5781C218.671 87.7274 217.731 89.0739 216.475 90.6056C217.729 90.7642 218.5 90.8694 219.28 90.964C228.524 92.0124 237.606 91.0729 246.604 88.9003C264.666 84.5295 281.983 78.1068 298.674 69.9635C305.785 66.4885 312.596 62.5037 318.767 57.5028C323.584 53.603 327.818 49.1997 330.957 43.8123C331.293 43.2246 331.538 42.5867 331.871 41.8625C331.353 41.7439 331.052 41.6543 330.746 41.6236C326.183 41.1527 324.821 38.5419 324.676 34.7255C324.483 29.6336 327.605 24.9218 332.485 22.8822C333.501 22.457 334.553 22.1163 335.545 21.7519C335.58 21.4947 335.653 21.3317 335.62 21.1785C333.853 11.5901 323.268 4.64639 313.754 6.83694C308.256 8.1027 305.219 11.3998 304.404 16.9944C304.328 17.5485 304.322 18.1254 304.155 18.6487C304.012 19.1113 303.699 19.5307 303.146 20.5291C302.736 19.2477 302.399 18.5556 302.303 17.822C301.901 14.9278 302.604 12.2647 304.229 9.859C306.526 6.4831 309.932 4.87165 313.809 4.13543C324.105 2.16634 334.806 8.78673 337.889 18.9873C338.139 19.8045 338.372 20.6332 338.671 21.6609C339.619 21.6718 340.502 21.6104 341.361 21.7173C347.715 22.4443 352.906 25.2904 356.754 30.4187C361.156 36.2681 362.606 42.9252 361.791 50.1221C360.948 57.5461 357.904 64.0679 353.488 70.0022C347.412 78.1695 339.552 84.2434 330.698 89.0505C307.288 101.756 282.348 107.881 255.62 106.109C247.457 105.567 239.387 104.548 231.784 101.269C225.939 98.7462 220.117 96.1533 214.187 93.5507C210.953 97.2567 206.996 99.9933 202.542 102.111C199.559 103.537 197.117 105.764 195.103 108.4C193.412 110.617 191.764 112.878 190.178 115.173C186.944 119.836 183.572 124.375 179.537 128.399C175.69 132.229 171.81 136.024 167.995 139.881C165.76 142.127 163.601 144.455 161.355 146.8C161.979 147.535 162.349 148.165 162.895 148.584C168.595 153.034 174.865 155.293 182.094 153.107C184.83 152.28 187.49 151.157 190.142 150.054C194.714 148.16 199.212 146.107 203.799 144.279C208.613 142.363 213.624 141.543 218.818 142.073C221.518 142.343 223.952 143.234 225.968 145.101C229.309 148.205 232.63 151.32 235.187 155.14C235.64 155.821 236.13 156.48 236.601 157.15C236.768 157.056 236.936 156.963 237.103 156.87C236.281 154.825 235.58 152.72 234.6 150.758C231.152 143.815 225.518 139.974 217.799 139.372C213.039 138.997 208.399 139.823 203.933 141.483C201.317 142.445 198.766 143.588 196.201 144.682C191.992 146.475 187.609 147.658 183.073 148.23C180.293 148.582 179.309 147.969 178.21 145.451C177.728 144.353 177.294 143.239 176.85 142.118C176.557 141.373 176.154 140.599 176.851 139.89C177.564 139.151 178.317 139.59 179.044 139.953C181.56 141.207 184.171 141.144 186.735 140.254C188.533 139.631 190.294 138.815 191.946 137.882C197.153 134.933 202.383 132.021 208.024 129.97C216.046 127.057 223.979 127.112 231.768 130.824C235.371 132.535 238.959 134.288 242.554 136.02C243.258 136.356 243.98 136.671 244.694 136.996C239.811 132.51 234.27 129.148 228.136 126.77C222.983 124.77 217.717 124.412 212.371 125.733C209.659 126.401 206.99 127.212 204.309 127.995C199.023 129.554 193.678 130.894 188.169 131.389C186.9 131.505 185.614 131.535 184.35 131.485C183.899 131.467 183.463 131.078 182.891 130.798C183.835 129.373 185.16 129.564 186.253 129.454C191.7 128.906 196.286 126.532 200.499 123.176C205.667 119.059 209.866 114.063 213.841 108.853C215.035 107.287 216.133 105.633 217.377 103.868C216.546 102.889 215.888 102.1 215.211 101.322C215.004 101.086 214.753 100.904 214.391 100.576C213.314 102.248 212.299 103.855 211.253 105.436C207.637 110.935 203.678 116.105 198.211 119.947C194.982 122.216 191.523 123.989 187.688 124.975C186.821 125.201 185.854 125.632 185.01 124.732C185.257 123.478 186.341 123.379 187.173 123.078C194.835 120.285 200.965 115.474 205.723 108.903C208.201 105.481 210.513 101.938 212.908 98.4551C213.855 97.0689 214.394 96.9902 215.491 98.1989C216.62 99.4339 217.687 100.743 218.752 102.033C219.664 103.141 219.774 104.342 219.059 105.6C218.706 106.218 218.374 106.864 217.949 107.441C213.219 113.892 208.202 120.087 201.821 125.029C201.428 125.328 201.06 125.675 200.679 125.993C201.67 126.156 202.426 125.989 203.169 125.784C205.702 125.083 208.232 124.353 210.776 123.671C217.331 121.908 223.739 122.366 230.012 124.976C235.584 127.289 240.688 130.358 245.389 134.138C248.509 136.656 251.406 139.4 253.801 142.629C254.324 143.324 255.088 144.094 254.197 144.918C253.413 145.635 252.813 144.84 252.137 144.394C249.405 142.602 246.722 140.699 243.84 139.184C239.809 137.072 235.607 135.318 231.509 133.329C223.529 129.449 215.431 129.399 207.413 132.899C202.457 135.062 197.688 137.678 192.901 140.207C188.952 142.289 184.957 143.974 180.351 143.145C180.223 143.127 180.07 143.269 179.93 143.34C180.877 146.116 180.981 146.184 183.869 145.734C184.417 145.645 184.963 145.526 185.521 145.436C190.113 144.625 194.409 142.922 198.625 140.982C203.826 138.601 209.234 137.109 214.989 136.835C225.341 136.336 234.216 142.304 237.54 151.407C239.64 157.174 241.372 163.083 243.246 168.939C243.411 169.461 243.514 170.048 243.456 170.59C243.335 171.608 242.237 171.992 241.507 171.267C241.067 170.829 240.731 170.254 240.445 169.694C239.72 168.275 239.012 166.836 238.361 165.381C235.097 158.099 230.29 151.993 224.208 146.884C221.299 144.435 215.802 143.678 211.989 145.112C212.355 145.274 212.613 145.426 212.895 145.517C220.448 147.932 224.026 154.697 223.563 161.578C223.399 163.948 222.956 166.353 222.266 168.624C219.842 176.701 216.238 184.251 211.705 191.358C211.236 192.095 210.718 192.836 210.088 193.422C209.16 194.269 207.915 193.787 207.838 192.524C207.78 191.669 207.971 190.772 208.167 189.924C209.939 181.887 211.802 173.872 213.505 165.821C213.995 163.5 214.291 161.08 214.24 158.71C214.164 155.64 212.49 153.78 209.449 153.307C207.676 153.03 205.732 153.012 204.016 153.463C200.326 154.436 196.73 155.781 193.102 156.993C192.846 157.075 192.632 157.3 192.393 157.468C194.29 160.264 196.037 162.928 197.869 165.544C202.363 171.972 203.724 178.94 201.467 186.493C199.957 191.536 198.58 196.645 196.756 201.57C194.219 208.407 190.927 214.883 185.751 220.193C185.189 220.772 184.499 221.236 183.782 221.829C182.431 219.12 183.225 216.819 184.016 214.578C186.923 206.349 188.869 197.857 190.825 189.373C191.363 187.038 191.721 184.66 192.061 182.294C192.514 179.136 192.134 176.055 190.662 173.2C188.976 169.935 187.207 166.717 185.429 163.509C185.148 162.997 184.626 162.625 184.247 162.22C176.446 167.546 168.14 171.404 159.507 174.579C150.93 177.729 142.231 180.5 133.159 182.181C133.353 182.485 133.4 182.676 133.512 182.725C138.655 185.155 142.804 188.878 146.761 192.854C150.256 196.373 152.644 200.375 152.734 205.515C152.793 209.349 153.114 213.179 153.094 217.01C153.088 219.395 152.682 221.777 152.422 224.165C152.324 225.014 151.894 225.864 150.976 225.753C150.423 225.686 149.755 225.005 149.499 224.442C148.947 223.213 148.505 221.905 148.228 220.583C147.318 216.201 146.371 211.833 145.693 207.411C144.987 202.796 142.52 199.309 139.286 196.196C139.126 196.044 138.85 196.021 138.395 195.848C141.973 201.87 143.067 208.159 142.666 214.761C142.361 219.743 141.002 224.517 139.692 229.288C139.427 230.24 139.353 231.664 138.071 231.635C136.554 231.598 136.69 230.091 136.583 229.035C136.041 223.546 135.577 218.058 135.055 212.567C134.844 210.261 134.631 207.945 134.219 205.678C133.905 203.958 133.228 202.329 131.883 201.173C132.375 203.14 133.26 205.121 133.295 207.11C133.437 215.372 130.519 222.41 124.27 227.946C123.971 228.208 123.679 228.528 123.32 228.658C122.98 228.787 122.43 228.857 122.217 228.671C121.91 228.406 121.634 227.845 121.698 227.478C121.82 226.783 122.18 226.134 122.452 225.475C124.243 221.256 125.671 216.924 125.667 212.294C125.67 210.408 125.45 208.435 124.857 206.653C123.534 202.651 120.694 201.172 116.779 202.772C112.609 204.463 108.664 206.69 104.292 208.849C105.053 209.268 105.366 209.484 105.72 209.627C108.797 210.918 111.372 212.919 113.625 215.341C115.476 217.321 116.941 219.561 116.499 222.415C115.437 229.263 113.333 235.709 108.62 241.172C110.142 243.924 111.714 246.701 113.222 249.514C115.331 253.463 117.394 257.436 118.555 261.794C118.881 263.015 119.039 264.309 119.066 265.567C119.098 266.766 118.132 267.411 117.126 267.728C116.045 268.072 115.576 267.118 115.147 266.376C114.752 265.689 114.449 264.935 114.147 264.201C112.564 260.34 110.655 256.666 108.022 253.4C105.115 249.797 102.288 246.119 99.254 242.626C97.6277 240.753 95.3657 239.934 92.7025 240.383C95.2467 242.045 97.1409 244.285 98.8636 246.677C99.6126 247.712 100.307 248.792 100.982 249.873C103.827 254.497 106.785 259.072 108.736 264.169C110.39 268.482 111.35 272.888 110.331 277.534C109.593 280.875 107.837 283.556 105.136 285.621C104.387 286.188 103.586 287.033 102.59 286.392C101.521 285.698 102.2 284.688 102.43 283.788C102.87 282.096 103.584 280.4 103.641 278.685C103.86 272.119 102.295 266.01 98.216 260.707C95.7876 257.539 93.3593 254.372 90.821 251.283C89.6121 249.811 88.2036 248.504 86.8048 247.196C86.3239 246.741 85.6195 246.513 84.8895 246.111C84.0437 247.429 83.2558 248.527 82.6124 249.71C80.516 253.575 78.535 257.528 74.3403 259.377C74.1277 265.689 75.3539 271.399 78.5347 276.598C81.6246 281.659 84.2553 286.928 86.4865 292.42C87.319 294.473 88.6029 296.339 89.7637 298.245C91.8207 301.623 95.0726 304.295 95.7201 308.485C96.2105 308.616 96.5829 308.738 96.9712 308.82C110.847 311.935 124.909 313.246 139.088 312.748C148.654 312.409 158.203 311.456 167.759 310.785C169.107 310.691 170.468 310.518 171.82 310.57C173.858 310.647 174.506 311.867 173.457 313.624C173.017 314.368 172.361 314.985 171.766 315.625C170.725 316.737 169.653 317.822 168.601 318.915C169.768 319.081 170.698 318.889 171.632 318.745C173.269 318.497 173.802 318.995 173.772 320.688C173.764 320.923 173.748 321.169 173.711 321.407C172.777 327.628 170.847 333.52 167.778 339.018C166.024 342.149 163.349 344.065 159.78 344.44C156.773 344.755 153.73 344.79 150.706 344.93C149.87 344.967 149.038 344.946 148.19 344.955C148.116 346.281 148.124 347.326 147.984 348.354C147.726 350.234 147.071 350.861 145.212 351.031C144.263 351.118 143.295 351.099 142.338 351.099C125.121 351.153 108.914 347.635 94.2929 337.984C90.4576 335.443 86.1157 333.663 82.0149 331.527C80.6209 330.805 79.237 330.619 77.6379 330.961C74.43 331.646 71.3902 331.182 68.4093 329.55C63.2287 326.713 58.9003 322.84 54.622 318.874C49.2989 313.95 45.0025 308.188 41.1081 302.126L41.1134 302.077ZM327.578 32.4079C326.467 36.9061 328.073 39.0842 333.012 39.8139C335.147 35.0948 336.473 30.1764 336.102 24.6318C331.497 25.6301 328.63 28.1106 327.578 32.4079ZM246.198 102.371C264.557 104.763 282.67 103.826 300.473 98.5511C311.984 95.142 323.055 90.6594 333.282 84.3197C341.439 79.2638 348.587 73.0988 353.677 64.8167C357.032 59.3508 359.158 53.4603 359.247 46.9748C359.353 39.9211 357.082 33.7885 351.715 29.0241C348.166 25.881 343.942 24.4216 339.206 24.3083C339.086 24.5929 338.92 24.8035 338.92 25.0185C339.137 34.8465 335.414 43.2281 329.496 50.785C324.811 56.7635 318.92 61.4065 312.538 65.3911C296.738 75.2602 279.512 81.9382 261.861 87.5904C254.188 90.0519 246.399 92.1039 238.407 93.3149C233.583 94.05 228.73 94.3579 223.854 93.9937C223.48 93.9693 223.092 93.9951 222.712 94.0006C230.325 97.7093 237.81 101.293 246.199 102.381L246.198 102.371ZM216.128 58.9051C213.677 60.8198 211.308 62.6684 208.931 64.5276C208.989 64.6297 209.037 64.7328 209.095 64.8349C212.228 63.4342 215.36 62.0237 218.812 60.4862C217.728 59.8527 216.934 59.3882 216.128 58.9051ZM219.889 46.0357C218.491 47.1799 217.583 48.6699 217.357 50.4687C217.277 51.0915 217.465 52.0709 217.88 52.3454C218.316 52.6279 219.184 52.2944 219.845 52.1556C220.132 52.0903 220.382 51.8329 221.091 51.3674C221.554 50.4554 222.364 49.1795 222.833 47.7981C223.034 47.2131 222.704 46.1686 222.241 45.703C221.512 44.9882 220.59 45.4733 219.891 46.0551L219.889 46.0357ZM243.323 59.1589C243.204 59.0427 243.096 58.9256 242.979 58.8191C239.46 61.0076 237.338 64.2794 236.129 68.2395C238.527 65.2159 240.924 62.1825 243.323 59.1589ZM165.221 153.295C163.328 152.032 161.709 150.344 159.885 148.762C156.616 152.08 153.365 155.387 149.927 158.887C156.203 160.256 164.66 159.218 171.291 156.353C169.215 155.332 167.082 154.531 165.231 153.294L165.221 153.295ZM194.724 182.265C194.426 184.559 194.181 186.887 193.614 189.118C191.613 197.01 189.492 204.873 187.421 212.742C187.318 213.113 187.246 213.5 187.399 213.994C187.712 213.575 188.056 213.172 188.328 212.727C194.006 203.414 197.428 193.233 199.627 182.607C200.513 178.315 199.902 174.209 197.825 170.296C195.609 166.133 193.152 162.127 190.256 158.113C188.615 158.743 187.009 158.909 185.744 160.227C185.999 160.672 186.166 161.106 186.45 161.442C189.191 164.718 191.256 168.388 193.072 172.227C194.586 175.429 195.174 178.756 194.723 182.256L194.724 182.265ZM189.037 155.998C193.439 154.178 198.065 152.875 202.62 151.441C204.85 150.739 207.158 150.576 209.491 150.997C213.531 151.721 216.319 154.543 216.508 158.639C216.615 161.082 216.327 163.589 215.835 165.999C214.541 172.331 213.028 178.625 211.615 184.938C211.505 185.447 211.465 185.968 211.343 186.868C211.825 186.375 212.101 186.193 212.243 185.936C215.836 179.325 219.081 172.55 220.679 165.154C221.171 162.853 221.343 160.365 221.032 158.039C220.303 152.635 217.105 149.059 211.898 147.426C210.159 146.882 208.323 146.561 206.507 146.337C205.697 146.235 204.776 146.525 203.996 146.85C199.219 148.851 194.469 150.928 189.695 152.948C185.945 154.542 182.182 156.088 178.056 156.457C177.446 156.512 176.851 156.831 176.252 157.013C171.99 158.341 167.781 159.821 163.472 160.948C158.771 162.18 153.965 162.044 149.212 161.102C147.839 160.827 146.805 161.049 145.692 161.903C143.676 163.446 141.536 164.805 139.019 166.54C140.738 166.968 142.067 167.413 143.443 167.619C146.64 168.089 149.759 167.715 152.889 166.822C158.942 165.115 165.064 163.626 171.17 162.07C177.286 160.513 183.195 158.409 189.037 155.998ZM140.76 169.341C140.255 169.26 139.636 169.326 139.169 169.555C137.683 170.277 136.245 171.102 134.263 172.173C138.814 173.778 142.371 172.329 146.288 170.427C144.159 169.996 142.464 169.614 140.749 169.332L140.76 169.341ZM136.246 178.899C146.131 176.596 155.743 173.458 165.062 169.459C169.731 167.458 174.24 165.101 178.66 162.517C178.359 162.535 178.042 162.486 177.767 162.57C169.928 164.714 162.089 166.849 154.256 169.052C153.199 169.344 152.242 169.988 151.241 170.461C148.369 171.828 145.574 173.403 142.6 174.506C139.286 175.738 135.847 175.711 132.66 173.854C132.041 173.49 131.232 172.763 131.229 172.197C131.226 171.631 132.005 170.866 132.628 170.515C134.197 169.639 135.882 168.957 137.81 168.048C135.902 167.148 134.626 168.564 133.2 168.45C131.705 168.333 130.174 168.249 128.734 167.873C127.295 167.507 125.931 166.801 124.573 166.251C122.632 169.79 120.65 173.411 118.576 177.206C118.966 177.414 119.474 177.739 120.022 177.962C125.314 180.203 130.739 180.165 136.226 178.891L136.246 178.899ZM134.022 189.253C138.673 191.953 142.439 195.555 145.406 200.012C146.945 202.323 147.558 204.964 147.982 207.67C148.475 210.819 149.037 213.963 149.598 217.106C149.701 217.702 149.95 218.285 150.453 218.874C150.536 218.388 150.696 217.904 150.681 217.417C150.535 212.946 150.38 208.486 150.186 204.019C150.07 201.373 149.017 199.046 147.34 197.041C142.518 191.298 137.063 186.317 130.054 183.345C128.602 182.735 127.014 182.451 125.506 181.973C122.63 181.064 119.772 180.134 116.814 179.174C113.972 181.828 110.958 184.635 107.775 187.613C111.089 189.684 114.413 191.226 118.352 190.532C119.918 190.252 121.447 189.79 122.992 189.384C124.46 188.996 125.904 188.561 127.374 188.192C129.732 187.614 131.917 188.02 134.041 189.251L134.022 189.253ZM129.631 196.846C133.602 198.837 136.105 201.968 136.708 206.426C137.04 208.878 137.169 211.347 137.366 213.811C137.622 217.148 137.86 220.487 138.109 223.845C138.397 223.789 138.632 223.797 138.645 223.727C140.66 216.948 141.157 210.122 139.323 203.207C138.219 199.039 136.026 195.459 133.469 192.059C132.224 190.405 130.522 189.838 128.598 190.258C125.976 190.84 123.392 191.624 120.792 192.331C120.772 192.538 120.752 192.745 120.722 192.953C122.736 193.834 124.76 194.723 126.774 195.603C127.719 196.015 128.699 196.374 129.621 196.837L129.631 196.846ZM106.895 204.967C109.38 203.537 111.899 202.154 114.516 200.986C122.713 197.314 126.803 202.635 127.879 208.31C128.525 211.729 128.184 215.15 127.36 218.518C127.154 219.358 126.958 220.206 126.755 221.084C126.949 221.067 127.068 221.085 127.104 221.052C130.217 216.351 131.528 211.151 130.698 205.609C130.2 202.304 127.799 199.867 125.173 198.056C122.776 196.409 120.019 195.196 117.297 194.146C116.052 193.664 114.468 193.849 113.079 194.034C111.834 194.197 110.645 194.746 109.445 195.188C108.028 195.709 106.64 196.324 105.212 196.836C101.024 198.324 96.8083 199.521 92.5463 197.332C90.7041 200.989 89.0123 204.368 87.2861 207.799C94.0368 209.232 100.655 208.577 106.906 204.985L106.895 204.967ZM111.219 192.28C109.134 191.045 107.535 190.107 106.007 189.202C101.959 191.272 98.0332 193.283 94.0596 195.308C95.819 196.182 97.7382 196.563 99.6963 195.984C103.402 194.872 107.066 193.618 111.21 192.281L111.219 192.28ZM107.44 238.623C111.194 232.925 110.743 224.593 106.433 219.849C103.979 217.153 101.216 216.722 98.0781 218.602C97.0505 219.214 96.0246 219.846 95.1088 220.613C91.9359 223.278 88.2757 224.248 84.2035 223.918C83.8884 223.888 83.5759 223.888 83.193 223.864C82.7895 225.748 82.3921 227.591 81.9334 229.724C94.038 223.418 101.893 227.847 107.44 238.623ZM76.5353 254.35C77.6749 252.722 78.6885 250.997 79.7549 249.317C80.7458 247.77 81.6855 246.199 82.7495 244.705C83.7272 243.335 84.5315 243.056 86.0302 243.749C87.315 244.345 88.6411 245.073 89.6022 246.08C91.5253 248.102 93.2136 250.331 94.9748 252.504C96.1757 253.997 97.2315 255.61 98.5133 257.026C104.566 263.73 106.858 271.59 105.847 280.485C105.831 280.633 105.875 280.795 105.988 281.596C106.7 280.104 107.304 279.121 107.646 278.064C108.432 275.666 108.47 273.201 108.066 270.717C107.518 267.29 106.418 264.02 104.718 261.02C102.085 256.367 99.3218 251.784 96.4936 247.236C94.6155 244.213 91.9556 242.142 88.3856 241.326C87.7976 241.194 87.3376 240.542 86.8117 240.131C87.2427 239.613 87.5616 238.832 88.1081 238.616C92.3962 236.933 96.5922 236.91 100.26 240.072C101.935 241.52 103.475 243.197 104.8 244.98C108.239 249.579 111.99 253.974 114.611 259.137C114.636 259.193 114.754 259.202 115.128 259.343C114.556 258.008 114.156 256.834 113.569 255.754C110.096 249.282 106.724 242.743 103.028 236.399C98.8917 229.294 91.7155 227.48 84.4919 231.541C82.4858 232.663 80.7239 234.212 78.8447 235.547C77.6808 236.376 76.5301 237.244 75.2878 237.963C74.6754 238.312 73.8877 238.346 73.1819 238.527C73.0682 238.352 72.9448 238.178 72.8311 238.003C73.4124 237.207 73.8481 236.21 74.6083 235.661C77.8572 233.292 79.3043 229.906 80.2741 226.213C80.3751 225.822 80.4972 225.45 80.5778 225.051C81.2145 221.877 81.7048 221.9 84.3517 222.019C88.2046 222.194 91.507 220.728 94.4831 218.365C95.5387 217.526 96.678 216.747 97.872 216.14C100.959 214.557 103.906 214.971 106.617 217.068C109.728 219.479 111.543 222.664 112.152 226.545C112.241 227.084 112.31 227.625 112.405 228.242C115.126 224.055 114.728 219.705 111.4 216.307C109.009 213.869 106.267 211.971 102.986 211.001C102.093 210.741 101.071 210.561 100.178 210.731C93.3515 211.982 86.543 213.328 79.7222 214.647C79.4916 214.688 79.2654 214.777 78.8844 214.88C78.8091 215.444 78.6784 216.042 78.6472 216.66C78.396 221.91 76.8267 226.734 73.7588 230.971C70.7251 235.157 69.3397 239.749 69.4888 244.894C69.5396 246.726 69.3165 248.554 69.2124 250.615C71.3338 251.818 72.9074 253.754 73.7148 256.279C75.1494 256.06 75.9119 255.218 76.5327 254.321L76.5353 254.35ZM89.3399 210.395C88.4577 210.144 87.8168 209.968 87.1846 209.782C86.5824 209.602 85.9802 209.423 85.1763 209.174C84.2527 209.962 83.4091 210.665 82.5857 211.375C84.144 211.653 86.4007 211.348 89.339 210.385L89.3399 210.395ZM83.253 329.909C88.5826 331.922 93.5905 334.58 98.3963 337.588C110.327 345.054 123.5 348.057 137.364 348.595C140.058 348.7 142.755 348.716 145.67 348.781C145.738 347.388 145.797 346.229 145.865 344.836C131.303 344.675 118.145 339.912 105.28 334.076C104.73 333.833 104.246 333.447 103.916 332.725C104.863 333.049 105.827 333.332 106.759 333.706C116.211 337.451 125.827 340.634 135.949 341.993C138.163 342.288 140.383 342.544 142.618 342.75C144.026 342.875 145.416 343.128 146.833 342.403C147.458 342.082 148.395 342.396 149.193 342.372C152.619 342.253 156.053 342.232 159.466 341.968C162.277 341.75 164.38 340.189 165.745 337.719C168.443 332.851 170.172 327.642 171.086 322.165C171.124 321.947 171.024 321.702 170.978 321.413C169.202 321.537 167.468 321.676 165.72 321.777C164.904 321.823 163.924 321.786 163.796 320.82C163.725 320.251 164.16 319.458 164.617 319.016C166.489 317.174 168.448 315.431 170.474 313.565C169.562 312.779 168.77 313.194 168.052 313.24C157.94 313.912 147.836 314.877 137.704 315.219C125.139 315.648 112.654 314.398 100.298 311.993C98.6581 311.674 97.0373 311.247 95.4306 310.866C94.1052 312.385 92.8247 313.86 91.3059 315.611C97.753 317.141 103.998 318.591 110.373 319.443C116.798 320.31 123.256 320.568 129.732 320.493C136.139 320.414 142.546 319.905 148.959 320.109C148.975 320.273 148.999 320.437 149.024 320.601C148.529 320.734 148.038 320.926 147.526 320.982C136.97 322.125 126.404 323.279 115.751 322.516C107.261 321.916 99.0035 320.133 90.935 317.423C90.4921 317.278 90.0431 317.173 89.3713 316.98C88.9645 317.975 88.5797 318.89 88.1176 320.026C89.6214 320.562 90.9483 321.086 92.2963 321.519C107.155 326.303 122.419 327.845 137.944 327.322C142.654 327.164 147.361 326.957 152.063 326.81C153.115 326.782 154.182 326.918 155.762 327.008C151.993 329.024 132.917 330.215 121.333 329.42C109.367 328.601 102.083 326.895 87.8687 321.573C86.8667 324.596 85.4869 327.438 82.485 329.306C82.854 329.604 83.0417 329.841 83.275 329.937L83.253 329.909ZM54.442 314.885C59.2281 319.918 64.3486 324.656 70.7652 327.663C76.538 330.359 83.1385 327.487 85.0149 321.434C85.2476 320.67 85.4398 319.89 85.6231 319.121C86.1794 316.775 87.3724 314.877 89.3607 313.454C90.1305 312.905 90.8509 312.243 91.4885 311.53C93.2519 309.571 93.4119 308.12 92.0176 305.903C91.0905 304.415 90.0604 302.976 88.9679 301.601C86.707 298.769 84.8728 295.694 83.586 292.304C81.6447 287.207 79.0593 282.432 76.2505 277.775C73.3367 272.932 71.9102 267.699 71.736 262.068C71.6675 259.935 71.885 257.727 70.6811 255.775C69.7627 254.277 68.8171 252.8 66.8809 252.02C60.2456 258.773 52.3177 258.132 43.8129 255.883C44.5866 254.737 45.5066 254.868 46.3076 254.872C48.4659 254.88 50.6208 254.956 52.7739 255.013C57.9313 255.146 62.2765 253.341 65.9056 249.687C66.6479 248.945 66.9704 248.202 66.9828 247.165C67.0183 244.143 67.141 241.113 67.2346 237.978C58.6907 238.712 52.3024 233.67 45.5725 229.48C45.1691 229.233 44.8414 228.853 44.5164 228.502C44.3648 228.34 44.2933 228.092 44.1285 227.785C45.2021 227.355 46.0115 227.984 46.8084 228.37C49.1076 229.488 51.332 230.75 53.6381 231.838C55.9443 232.926 58.276 233.973 60.6797 234.847C62.0127 235.33 63.4723 235.49 64.8931 235.652C66.1361 235.793 67.2924 235.413 68.1182 234.409C73.1784 228.26 76.6801 221.51 76.0074 213.209C74.5312 213.188 73.0155 213.268 71.5269 213.112C66.6465 212.592 62.3784 210.55 59.1557 206.918C55.4538 202.743 52.1213 198.232 48.6727 193.839C48.263 193.31 48.0714 192.604 48.1438 191.689C48.7163 192.184 49.3522 192.624 49.8429 193.185C52.2815 195.931 54.6312 198.774 57.1332 201.466C58.9207 203.393 60.775 205.304 62.8369 206.922C66.9096 210.135 71.5633 211.272 76.7694 210.658C81.5998 210.098 84.3349 206.916 86.7193 203.318C88.0663 201.289 88.8408 198.873 89.956 196.446C89.198 196.271 88.6961 196.122 88.1811 196.042C84.091 195.41 80.968 193.078 78.2441 190.202C73.6077 185.312 70.4493 179.505 68.2395 173.181C67.8672 172.101 67.7598 170.929 67.4567 169.433C68.8126 169.846 68.9259 170.656 69.2785 171.308C71.5765 175.503 73.8199 179.743 76.2657 183.847C78.1333 186.968 80.7275 189.495 83.7527 191.504C86.6211 193.401 89.6126 194.084 93.0375 192.783C97.0282 191.265 100.745 189.312 104.164 186.781C111.708 181.205 118.235 174.765 121.777 165.785C122.324 164.406 122.351 163.417 121.552 162.054C119.584 158.687 117.883 155.15 116.128 151.657C115.732 150.853 115.28 149.967 115.719 148.793C117.116 149.544 117.699 150.8 118.376 151.901C120.087 154.694 121.677 157.558 123.378 160.352C124.597 162.361 126.126 164.028 128.391 164.983C131.366 166.235 134.163 165.861 136.896 164.36C142.242 161.428 147.215 157.954 151.449 153.55C156.147 148.665 160.671 143.6 165.369 138.714C168.801 135.147 172.352 131.705 175.912 128.262C180.405 123.913 184.298 119.082 187.881 113.967C189.435 111.753 191.082 109.589 192.73 107.436C195.545 103.739 199.06 100.867 203.374 99.143C207.132 97.6458 210.111 95.3115 212.436 92.021C216.1 86.8394 220.342 82.2009 225.835 78.2196C220.481 80.4101 217.356 82.963 214.368 87.3303C213.517 88.5807 212.688 89.8778 211.656 90.9689C209.458 93.3001 206.738 94.3016 203.616 93.1515C200.474 92.0032 199.155 89.4373 198.922 86.2542C198.709 83.2842 199.541 80.5408 200.998 78.004C203.01 74.4979 205.7 71.5745 208.945 69.1572C209.484 68.7561 210.125 68.502 210.729 68.173C211.394 69.1477 210.722 69.4828 210.333 69.9288C208.261 72.3462 206.104 74.7029 204.178 77.2338C202.514 79.4185 201.509 81.992 201.403 84.7763C201.361 86.0209 201.467 87.3888 201.932 88.5186C203.222 91.6244 206.893 92.4799 209.785 90.3685C210.791 89.6315 211.775 88.6523 212.33 87.5659C214.903 82.5039 219.122 79.2158 223.819 76.3527C229.053 73.1669 232.826 68.7375 235.784 63.2983C238.365 58.5482 240.865 53.7567 243.365 48.9652C245.434 45.0142 248.369 41.7753 251.662 38.826C252.312 38.2486 252.984 37.6986 253.455 36.8641C251.963 37.7433 250.472 38.6224 248.981 39.5015C248.842 39.3774 248.705 39.263 248.557 39.1398C248.691 38.6878 248.688 38.1215 248.97 37.7928C250.49 36.0513 252.074 34.3723 253.635 32.6563C254.531 31.6657 255.415 30.6663 256.194 29.5789C250.335 33.1834 245.626 37.9429 241.79 43.609C239.511 46.9735 237.265 50.374 234.924 53.6953C233.826 55.2515 232.605 56.7312 231.286 58.1123C229.63 59.8565 227.429 60.5564 225.093 60.956C223.459 61.2328 221.826 61.6364 220.268 62.209C213.346 64.7679 206.923 68.297 200.875 72.5051C199.966 73.1355 199.213 73.9762 198.405 74.744C197.614 75.4905 196.866 76.282 195.855 77.2832C195.441 75.7482 195.871 74.898 196.544 73.9374C200.794 67.8914 206.43 63.3401 212.414 59.177C213.002 58.7715 213.576 58.3281 214.142 57.8952C214.261 57.8062 214.323 57.6344 214.469 57.4158C214.315 57.1173 214.155 56.7607 213.95 56.4376C213.563 55.838 213.139 55.2613 212.643 54.535C211.209 55.0864 209.814 55.6246 208.417 56.1531C207.672 56.4363 206.928 56.7389 206.166 56.9455C204.299 57.4488 203.935 57.2086 203.304 55.0096C200.691 56.6461 198.077 58.1654 195.596 59.8582C186.894 65.7943 178.181 71.712 169.601 77.8128C165.183 80.9531 161.113 84.5891 156.718 87.7664C151.031 91.8729 145.178 95.7602 139.369 99.7021C134.616 102.922 129.741 105.977 125.067 109.307C120.476 112.58 116.658 116.623 113.8 121.555C112.375 124.011 111.755 126.52 112.307 129.351C112.544 130.551 113.071 131.821 112.315 133.053C110.457 132.383 110.258 131.913 109.215 125.971C107.028 127.353 104.952 128.989 102.618 130.053C98.561 131.91 94.3661 133.437 90.1977 135.041C85.144 136.998 79.9774 138.683 75.2835 141.477C72.1073 143.361 69.1936 145.553 66.7249 148.338C64.309 151.061 63.1372 154.148 63.5096 157.787C63.6817 159.452 63.9127 161.121 64.0363 162.79C64.0835 163.518 63.9265 164.256 63.8392 165.221C61.9332 163.598 61.679 162.742 60.6231 155.16C60.4154 155.237 60.1628 155.251 60.0476 155.379C52.5885 163.477 45.1823 171.62 38.6137 180.487C34.6963 185.789 31.509 191.494 29.2841 197.687C28.3741 200.222 27.73 202.89 27.3104 205.556C26.7534 209.173 27.8016 212.516 29.8646 215.532C30.6542 216.69 31.3989 217.892 32.2079 219.156C30.9165 219.412 28.7919 217.818 25.834 214.377C25.3792 216.978 24.9542 219.479 24.4983 221.963C23.3782 228.172 22.0317 234.362 22.0674 240.719C22.077 242.956 22.0603 245.224 22.4748 247.404C23.4169 252.358 25.7746 256.353 30.7406 258.341C32.2806 258.952 32.5676 260.166 31.2303 261.021C28.3622 262.857 28.2718 265.494 29.037 268.198C30.3371 272.798 31.6513 277.445 33.4803 281.85C38.5607 294.036 45.3092 305.249 54.4393 314.856L54.442 314.885Z" fill="#4C1F21"/>
<path d="M124.391 152.014C124.708 152.601 124.994 153.053 125.214 153.541C126.999 157.461 129.433 158.557 133.525 157.186C134.576 156.835 135.608 156.37 136.585 155.85C139.779 154.16 142.699 152.037 145.216 149.461C149.117 145.47 153.016 141.458 156.703 137.262C164.033 128.931 171.429 120.672 179.497 113.045C184.08 108.717 188.738 104.46 193.375 100.196C193.915 99.6972 194.574 99.3242 195.179 98.8975C195.32 99.0409 195.449 99.1756 195.589 99.3191C195.093 99.98 194.661 100.703 194.101 101.302C191.859 103.686 189.585 106.034 187.301 108.383C182.125 113.703 176.843 118.915 171.806 124.359C165.303 131.384 159.045 138.639 152.607 145.726C148.571 150.16 144.309 154.371 139.094 157.447C136.677 158.88 134.127 160.032 131.276 160.235C127.512 160.501 124.265 157.995 123.662 154.396C123.529 153.578 123.321 152.698 124.391 152.014Z" fill="#4C1F21"/>
<path d="M126.891 113.654C124.749 115.11 122.587 116.549 120.435 117.997C120.303 117.833 120.162 117.68 120.03 117.516C120.589 116.908 121.095 116.246 121.709 115.711C129.144 109.266 137.195 103.682 145.431 98.3066C152.441 93.7272 159.426 89.0913 166.178 84.1447C172.738 79.333 178.939 74.0264 185.376 69.0501C189.479 65.88 193.716 62.8931 197.909 59.8515C198.642 59.3252 199.43 58.7645 200.731 59.212C200.154 59.7435 199.798 60.1181 199.398 60.4381C194.296 64.5301 189.129 68.5597 184.083 72.7248C172.331 82.4575 160.154 91.5941 147.265 99.7896C140.337 104.196 133.682 109.026 126.891 113.654Z" fill="#4C1F21"/>
<path d="M35.4568 277.634C35.0034 276.415 34.4496 275.166 35.128 273.619C35.7045 274.69 36.3082 275.739 36.8381 276.833C41.5601 286.6 47.644 295.461 54.6033 303.753C59.953 310.141 65.8102 315.993 72.1793 321.36C73.1737 322.197 74.2623 322.996 74.6322 324.476C73.7774 324.31 73.0078 324.009 72.3245 323.584C67.8296 320.771 63.8518 317.316 60.203 313.508C53.4999 306.521 47.432 299.007 42.2112 290.829C39.5435 286.648 37.1926 282.301 35.4479 277.644L35.4568 277.634Z" fill="#4C1F21"/>
<path d="M146.84 122.319C147.258 121.88 147.634 121.396 148.086 121.003C159.547 110.867 171.009 100.741 182.493 90.6514C182.8 90.3791 183.455 90.4949 183.947 90.4303C183.895 90.9236 184.034 91.5947 183.769 91.8926C182.599 93.1916 181.389 94.4749 180.058 95.6129C170.658 103.626 161.246 111.62 151.802 119.578C150.37 120.784 148.73 121.745 147.179 122.825C147.066 122.659 146.954 122.494 146.841 122.328L146.84 122.319Z" fill="#4C1F21"/>
<path d="M234.239 58.2621C235.251 57.5929 236.194 56.5881 238.039 56.8001C237.739 57.4627 237.66 57.9877 237.362 58.2495C236.17 59.3064 234.924 60.3095 233.666 61.2845C227.222 66.2909 220.896 71.4134 216.664 78.6009C216.504 78.8794 216.359 79.2151 216.119 79.3738C215.779 79.6003 215.349 79.6984 214.529 80.0275C214.77 78.8136 214.733 77.879 215.119 77.1891C216.328 75.0462 217.471 72.8117 219.039 70.9583C223.357 65.8732 228.685 61.907 234.228 58.2533L234.239 58.2621Z" fill="#4C1F21"/>
<path d="M146.04 101.866C146.731 101.412 147.428 100.82 148.402 101.327C147.076 103.588 122.836 121.509 119.789 122.56C119.67 122.434 119.542 122.319 119.423 122.193C120.249 121.404 121.03 120.551 121.921 119.834C126.577 116.095 131.198 112.292 135.966 108.699C139.208 106.263 142.673 104.118 146.04 101.866Z" fill="#4C1F21"/>
<path d="M79.7678 143.216C77.64 145.14 75.4135 146.947 73.3711 148.951C71.0411 151.226 70.3797 154.129 70.7492 157.31C70.8262 157.938 70.9632 158.58 70.9231 159.209C70.9031 159.523 70.5954 160.001 70.32 160.085C70.026 160.18 69.4529 159.998 69.2934 159.749C68.8721 159.094 68.4631 158.359 68.3067 157.612C67.456 153.655 68.3722 150.015 71.2643 147.268C73.7791 144.879 76.7572 142.964 79.5962 140.916C80.1733 140.502 81.0086 140.455 81.7311 140.242C81.8501 140.475 81.97 140.718 82.089 140.952C81.3185 141.706 80.5806 142.497 79.7775 143.215L79.7678 143.216Z" fill="#4C1F21"/>
<path d="M25.2764 231.095C25.4035 230.458 25.7595 229.869 26.0161 229.259C26.2749 229.314 26.5232 229.359 26.782 229.414C26.7915 230.263 26.8203 231.11 26.7998 231.952C26.7064 235.302 26.5638 238.647 26.51 242.003C26.464 245.231 26.9453 248.352 28.6331 251.216C28.8984 251.661 28.839 252.292 28.9284 252.84C28.7515 252.935 28.5659 253.04 28.389 253.134C27.6826 252.564 26.8671 252.082 26.2874 251.402C24.9518 249.824 24.4688 247.856 24.2947 245.85C23.8394 240.879 24.3171 235.97 25.286 231.094L25.2764 231.095Z" fill="#4C1F21"/>
<path d="M52.4433 263.553C57.6443 261.923 63.2457 261.469 67.8838 258.172C68.2234 257.935 69.256 258.124 69.501 258.453C69.7574 258.801 69.5776 259.609 69.3614 260.127C69.1927 260.523 68.7247 260.85 68.3138 261.053C67.1198 261.661 65.9417 262.443 64.6595 262.727C60.1613 263.715 55.6296 264.55 51.1085 265.395C50.4458 265.514 49.7301 265.374 49.0347 265.35C48.9949 265.129 48.956 264.918 48.9162 264.697C50.0919 264.315 51.2755 263.914 52.4521 263.542L52.4433 263.553Z" fill="#4C1F21"/>
<path d="M44.8894 236.303C50.1179 237.319 55.3341 238.414 60.5731 239.331C62.0318 239.588 63.5852 239.28 65.0808 239.407C65.5729 239.449 66.0179 240.044 66.4785 240.383C66.1206 240.845 65.8579 241.495 65.3916 241.733C64.8689 241.996 64.1453 241.984 63.5265 241.943C62.3381 241.866 61.1243 241.831 59.9745 241.535C54.4349 240.108 48.9094 238.622 43.383 237.125C42.7324 236.95 42.13 236.556 41.5084 236.271C41.5602 236.091 41.6216 235.909 41.6725 235.719C42.7448 235.914 43.8162 236.099 44.8806 236.314L44.8894 236.303Z" fill="#4C1F21"/>
<path d="M87.2211 142.406C87.1576 142.246 87.1029 142.075 87.0394 141.915C87.4924 141.531 87.89 141.075 88.3906 140.785C93.5104 137.844 98.9203 135.512 104.479 133.527C105.047 133.329 105.744 133.48 106.388 133.469C106.448 133.708 106.509 133.947 106.569 134.176C106.225 134.471 105.92 134.87 105.516 135.044C99.9904 137.495 94.4635 139.935 88.912 142.32C88.4236 142.531 87.7853 142.384 87.2105 142.397L87.2211 142.406Z" fill="#4C1F21"/>
<path d="M53.8049 216.181C53.5495 216.058 53.3847 215.751 53.1785 215.526C53.2726 215.38 53.3667 215.235 53.4616 215.099C54.8087 215.523 56.1725 215.916 57.5126 216.369C62.128 217.939 66.7065 219.64 71.7103 219.269C72.5051 219.206 73.1981 219.524 73.3053 220.374C73.4258 221.369 72.6921 221.886 71.8453 221.914C70.5804 221.962 69.2855 221.895 68.0354 221.677C62.9285 220.817 58.3926 218.409 53.7952 216.182L53.8049 216.181Z" fill="#4C1F21"/>
<path d="M84.2887 175.296C84.3969 175.198 84.5051 175.101 84.6132 175.003C85.3275 175.553 86.033 176.113 86.7473 176.663C89.7542 179.006 92.7269 181.401 95.7936 183.65C96.9341 184.484 98.3086 184.993 99.5959 185.617C100.322 185.971 100.806 186.464 100.551 187.298C100.235 188.334 99.3542 188.307 98.5864 188.025C97.6267 187.674 96.6853 187.203 95.8064 186.668C91.3821 183.986 88.0853 180.077 84.6741 176.306C84.4459 176.054 84.4078 175.637 84.279 175.297L84.2887 175.296Z" fill="#4C1F21"/>
<path d="M46.3636 175.029C48.1944 172.634 50.0243 170.229 51.9705 167.921C53.141 166.524 54.5018 165.285 55.8212 164.021C56.3419 163.524 56.9648 163.077 57.666 163.804C56.9952 166.073 47.8974 176.852 45.6738 177.838C45.2565 176.586 45.7964 175.765 46.3548 175.04L46.3636 175.029Z" fill="#4C1F21"/>
<path d="M53.0824 208.51C52.9987 208.449 53.0092 208.243 52.9094 207.793C53.6816 208.123 54.3173 208.348 54.8932 208.666C56.9899 209.813 59.0611 211.001 61.1675 212.146C64.5684 213.994 68.1353 215.308 72.0472 215.487C72.2038 215.492 72.3614 215.507 72.5287 215.521C73.4054 215.607 74.0993 215.934 74.1133 216.939C74.1236 217.798 73.4303 218.223 72.1266 218.059C71.1785 217.941 70.2479 217.694 69.327 217.446C63.1826 215.811 58.1492 212.129 53.0921 208.509L53.0824 208.51Z" fill="#4C1F21"/>
<path d="M71.2926 193.291L71.5183 192.664C72.3881 192.888 73.2887 193.02 74.119 193.344C76.639 194.315 79.1107 195.398 81.6298 196.359C83.0359 196.895 84.5035 197.249 85.9492 197.683C86.7724 197.93 87.506 198.371 87.2823 199.339C87.0744 200.266 86.2453 200.489 85.3826 200.343C84.6088 200.209 83.7865 200.079 83.0918 199.742C79.5977 198.05 76.1282 196.306 72.6755 194.532C72.1427 194.258 71.7515 193.718 71.2935 193.301L71.2926 193.291Z" fill="#4C1F21"/>
<path d="M87.807 174.056C87.9239 173.947 88.0313 173.84 88.1482 173.731C88.5647 173.908 89.0164 174.042 89.4083 174.27C94.3495 177.159 99.1008 180.426 104.696 182.034C105.498 182.263 105.986 182.902 105.597 183.661C105.373 184.092 104.539 184.578 104.119 184.47C102.82 184.15 101.457 183.767 100.356 183.047C96.4214 180.486 92.5816 177.79 88.7241 175.115C88.3489 174.856 88.1127 174.409 87.807 174.056Z" fill="#4C1F21"/>
<path d="M119.214 134.727C119.786 136.492 121.3 137.887 121.538 140.591C120.902 140.249 120.579 140.141 120.336 139.939C119.617 139.331 118.747 138.785 118.266 138.018C116.161 134.645 114.963 130.945 114.754 126.968C114.695 125.782 114.539 124.399 116.272 123.605C116.661 125.611 116.919 127.473 117.408 129.285C117.898 131.125 118.618 132.906 119.214 134.727Z" fill="#4C1F21"/>
<path d="M123.448 124.569C123.583 123.795 123.84 123.302 124.239 122.963C126.975 120.651 129.698 118.291 132.522 116.088C134.409 114.626 136.462 113.373 138.45 112.057C138.966 111.717 139.52 111.266 140.332 112.237C140.017 112.637 139.794 113.077 139.437 113.344C134.65 116.929 129.86 120.494 125.04 124.033C124.609 124.346 123.989 124.393 123.448 124.569Z" fill="#4C1F21"/>
<path d="M73.5831 173.962C73.7449 173.81 73.9067 173.658 74.0792 173.516C75.8459 175.962 77.6223 178.408 79.3706 180.866C81.9595 184.508 84.996 187.6 89.3508 189.096C89.7242 189.228 90.2119 189.33 90.3943 189.616C90.657 190.032 90.9321 190.69 90.7704 191.057C90.6078 191.414 89.9197 191.682 89.4444 191.716C89.0184 191.755 88.5147 191.479 88.1298 191.221C86.7454 190.283 85.3433 189.366 84.0371 188.323C80.2031 185.264 78.038 180.92 75.3898 176.952C74.7447 175.985 74.1824 174.962 73.5831 173.962Z" fill="#4C1F21"/>
<path d="M80.2168 177.74C81.6111 177.72 82.0324 178.483 82.5653 178.971C86.4683 182.463 90.1049 186.35 95.3207 187.973C95.4008 187.995 95.4721 188.027 95.5443 188.07C96.1854 188.46 96.758 188.955 96.454 189.794C96.1097 190.724 95.3352 190.902 94.5005 190.53C93.4923 190.075 92.4893 189.571 91.5567 188.982C87.9486 186.685 85.3449 183.308 82.4044 180.305C81.7155 179.606 81.1251 178.81 80.2274 177.749L80.2168 177.74Z" fill="#4C1F21"/>
<path d="M56.9527 268.122C60.4364 266.611 63.9219 265.119 67.4444 263.712C67.9055 263.523 68.8158 263.655 69.0713 263.993C69.3365 264.33 69.2977 265.399 68.996 265.622C67.9359 266.412 66.7772 267.193 65.5241 267.581C62.4202 268.549 59.2484 269.309 56.0996 270.105C55.5275 270.256 54.9069 270.195 54.3049 270.231C54.2264 270.013 54.1488 269.805 54.0606 269.589C55.0205 269.091 55.9567 268.546 56.9422 268.113L56.9527 268.122Z" fill="#4C1F21"/>
<path d="M61.2175 306.146C63.9207 307.305 74.0062 316.259 75.1639 318.771C70.2696 316.181 66.4662 312.924 62.9434 309.32C62.1356 308.495 60.988 307.691 61.2175 306.146Z" fill="#4C1F21"/>
<path d="M206.658 87.7829C206.504 87.8068 206.35 87.8307 206.196 87.8546C205.815 87.5377 205.217 87.2897 205.092 86.8908C204.729 85.6931 204.24 84.4092 204.355 83.2165C204.724 79.5679 206.779 76.7418 209.312 74.2333C209.58 73.9645 209.998 73.7308 210.358 73.7174C210.777 73.7083 211.2 73.9529 211.784 74.1437C208.291 78.225 205.606 82.2714 206.657 87.7732L206.658 87.7829Z" fill="#4C1F21"/>
<path d="M96.6208 171.792C97.3799 172.299 98.1742 172.764 98.8982 173.313C101.77 175.463 104.572 177.698 107.939 179.069C108.294 179.213 108.713 179.419 108.907 179.723C109.125 180.075 109.314 180.653 109.169 180.989C109.016 181.335 108.496 181.627 108.075 181.724C107.731 181.804 107.287 181.65 106.93 181.487C102.521 179.39 99.1864 176.032 96.1283 172.385C96.2857 172.184 96.444 171.994 96.6014 171.794L96.6208 171.792Z" fill="#4C1F21"/>
<path d="M32.2278 215.325C31.7379 214.666 31.0773 214.063 30.8047 213.326C30.391 212.22 29.9658 210.989 30.0574 209.857C30.3137 206.688 30.7972 203.547 31.2701 200.397C31.3376 199.961 31.8012 199.586 32.0773 199.189C32.2375 199.233 32.3986 199.287 32.5686 199.33C32.5118 201.055 32.4453 202.78 32.3991 204.514C32.3424 206.346 32.1696 208.189 32.2775 210.006C32.3826 211.686 32.7879 213.339 33.0576 215.005C32.784 215.108 32.5103 215.211 32.2375 215.324L32.2278 215.325Z" fill="#4C1F21"/>
<path d="M59.9243 272.637C62.5464 271.312 65.1826 270.035 67.855 268.833C68.2395 268.661 69.0556 268.83 69.2988 269.14C69.5631 269.468 69.5928 270.325 69.3387 270.641C68.8031 271.296 68.0994 271.927 67.3259 272.223C65.0996 273.071 62.8203 273.769 60.5392 274.447C59.9118 274.631 59.2102 274.539 58.5403 274.581C58.4724 274.372 58.3939 274.155 58.326 273.946C58.8511 273.497 59.3163 272.927 59.9138 272.628L59.9243 272.637Z" fill="#4C1F21"/>
<path d="M138.817 148.875C136.59 150.037 134.213 150.948 131.826 151.753C130.709 152.129 129.357 152.184 128.5 150.504C133.775 149.796 138.054 147.05 142.698 145.1C141.98 147.061 140.382 148.058 138.817 148.875Z" fill="#4C1F21"/>
<path d="M73.0695 204.481C75.5592 205.014 78.0437 205.598 80.5352 206.151C81.2932 206.326 81.9686 206.665 81.8918 207.531C81.8081 208.535 81.009 208.765 80.1358 208.718C79.6648 208.693 79.171 208.631 78.7263 208.466C75.7274 207.383 72.7355 206.27 69.7612 205.135C69.3562 204.977 69.0294 204.606 68.6727 204.336C68.7517 204.134 68.8308 203.931 68.9002 203.729C70.2894 203.973 71.6847 204.178 73.0589 204.472L73.0695 204.481Z" fill="#4C1F21"/>
<path d="M70.4117 199.341C70.629 199.155 70.6887 199.062 70.738 199.067C75.2218 200.053 79.4555 202.039 84.1096 202.326C84.4432 202.344 85.067 203.186 84.9739 203.449C84.8044 203.943 84.2134 204.632 83.8024 204.621C82.7954 204.606 81.7389 204.37 80.8055 203.987C77.641 202.694 74.5168 201.31 71.3936 199.935C71.0678 199.789 70.7728 199.552 70.4099 199.322L70.4117 199.341Z" fill="#4C1F21"/>
<path d="M103.157 170.891C106.08 172.313 108.994 173.746 111.875 175.25C112.183 175.417 112.521 176.227 112.391 176.405C112.122 176.771 111.439 177.205 111.116 177.088C109.56 176.518 108 175.898 106.576 175.062C104.956 174.106 103.24 173.179 102.261 171.119C102.737 170.988 103.005 170.826 103.158 170.9L103.157 170.891Z" fill="#4C1F21"/>
<path d="M52.0362 244.725C52.0176 244.521 52.0183 244.316 52.0102 244.121C52.2839 244.018 52.5417 243.848 52.8225 243.822C56.3089 243.512 59.7882 243.233 63.2764 242.942C63.4313 242.928 63.6346 242.91 63.7394 242.988C64.0864 243.259 64.6095 243.534 64.6811 243.888C64.7535 244.253 64.504 244.833 64.197 245.105C63.8821 245.398 63.3312 245.566 62.892 245.567C59.2486 245.549 55.6394 245.156 52.0371 244.734L52.0362 244.725Z" fill="#4C1F21"/>
<path d="M83.2649 299.456C85.0038 301.065 86.5403 302.917 87.2524 305.256C87.3363 305.531 87.0399 305.92 86.9055 306.264C85.2563 305.526 80.6189 300.519 79.2217 297.951C81.329 296.761 82.2537 298.543 83.2552 299.457L83.2649 299.456Z" fill="#4C1F21"/>
<path d="M222.673 73.8592C224.581 70.4994 227.183 67.7795 230.463 65.7498C230.74 65.5778 231.28 65.8215 232.208 65.9319C229.245 69.398 226.495 72.4148 222.764 75.0623C222.694 74.3066 222.581 74.024 222.673 73.8592Z" fill="#4C1F21"/>
<path d="M59.4624 223.371C59.5679 223.244 59.6162 223.133 59.6549 223.129C63.5097 223.43 67.3742 223.731 71.2255 224.101C71.5609 224.139 72.0595 224.679 72.1117 225.036C72.1648 225.402 71.8494 226.115 71.5545 226.201C70.7555 226.43 69.8094 226.654 69.039 226.451C65.9593 225.658 62.9332 224.704 59.8816 223.792C59.7108 223.739 59.5918 223.506 59.4518 223.363L59.4624 223.371Z" fill="#4C1F21"/>
<path d="M60.0566 228.153C60.0961 227.944 60.1258 227.736 60.1653 227.528C61.0525 227.407 61.9484 227.169 62.8295 227.196C64.7291 227.256 66.6235 227.473 68.5293 227.601C69.3744 227.661 70.2336 227.768 70.223 228.824C70.2035 229.783 69.4344 230.127 68.5727 230.206C68.1854 230.242 67.7743 230.23 67.387 230.158C65.5188 229.802 63.6332 229.467 61.787 229.03C61.1786 228.89 60.6404 228.451 60.0663 228.152L60.0566 228.153Z" fill="#4C1F21"/>
<path d="M63.6686 278.127C63.5621 278.136 63.4554 277.931 63.2625 277.744C63.4932 276.638 64.4576 276.188 65.3216 275.709C66.7056 274.937 68.1267 274.25 69.5212 273.487C70.1811 273.124 70.973 272.709 71.3363 273.585C71.5374 274.074 71.2838 275.143 70.8712 275.435C68.7255 276.95 66.3629 278.017 63.6686 278.127Z" fill="#4C1F21"/>
<path d="M40.5672 185.291C39.5165 183.414 39.8007 181.082 41.6873 179.082C42.0118 180.918 42.0358 182.46 42.5773 183.788C43.1417 185.153 44.2051 186.316 45.1303 187.677C43.0982 188.088 41.6848 187.26 40.5672 185.291Z" fill="#4C1F21"/>
<path d="M107.486 168.687C110.051 168.657 112.231 169.864 114.421 170.963C114.749 171.128 115.052 172.097 114.878 172.327C114.564 172.737 113.793 173.169 113.382 173.051C112.249 172.725 111.172 172.159 110.134 171.59C108.973 170.963 107.609 170.571 106.938 169.108C107.248 168.865 107.369 168.697 107.496 168.695L107.486 168.687Z" fill="#4C1F21"/>
<path d="M131.939 146.594C131.111 146.934 130.206 147.388 128.954 146.516C131.957 144.228 135.087 142.906 138.62 142.465C136.856 144.629 134.386 145.598 131.939 146.594Z" fill="#4C1F21"/>
<path d="M72.7327 279.66C70.5868 280.854 68.297 281.65 65.7759 281.519C65.7073 281.516 65.6551 281.266 65.4506 280.845C68.0446 279.641 70.6289 278.437 73.2423 277.23C73.635 278.532 73.5968 279.181 72.7327 279.66Z" fill="#4C1F21"/>
<path d="M136.714 119.964C134.452 122.76 131.681 124.597 128.596 125.983C129.511 123.926 132.8 121.143 135.291 120.094C135.705 119.919 136.23 120.008 136.705 119.965L136.714 119.964Z" fill="#4C1F21"/>
<path d="M62.8588 249.36C60.5874 250.038 58.2874 250.082 55.9543 249.553C58.2143 247.793 60.9935 248.183 63.5526 247.343C64.0562 248.577 63.6085 249.126 62.8676 249.35L62.8588 249.36Z" fill="#4C1F21"/>
<path d="M150.413 124.981C152.262 122.574 156.629 119.302 158.234 119.125C157.469 120.798 152.518 124.514 150.413 124.981Z" fill="#4C1F21"/>
<path d="M71.1727 285.118C71.6915 283.214 73.3414 282.575 74.2339 281.34C74.3992 281.12 74.8886 281.133 75.2319 281.043C75.3387 281.464 75.6842 282.038 75.5294 282.267C74.5376 283.696 73.2833 284.817 71.1727 285.118Z" fill="#4C1F21"/>
<path d="M66.8987 232.821C64.956 233.888 63.3823 233.017 61.8446 231.897C63.6408 231.469 65.3749 231.427 66.8987 232.821Z" fill="#4C1F21"/>
<path d="M35.6854 195.733C35.2695 194.071 35.7589 192.805 36.6708 191.676C36.837 191.465 37.4021 191.452 37.7235 191.55C37.9242 191.61 38.1737 192.095 38.1157 192.315C37.7929 193.693 37.3591 195.032 35.6854 195.733Z" fill="#4C1F21"/>
<path d="M73.0863 288.528C74.3909 287.422 75.2546 286.62 76.1977 285.937C76.4907 285.725 77.0083 285.834 77.4352 285.805C77.4268 286.245 77.5857 286.807 77.3799 287.119C76.5051 288.44 75.1841 288.727 73.0863 288.528Z" fill="#4C1F21"/>
<path d="M37.7774 257.462C36.2879 258.468 35.0039 258.732 33.5138 257.813C35.4879 256.235 36.2034 256.16 37.7774 257.462Z" fill="#4C1F21"/>
<path d="M78.1117 288.82C78.3485 288.74 78.8046 289.03 79.0319 289.273C79.1297 289.382 78.9567 289.944 78.7711 290.049C77.7865 290.599 76.7932 291.159 75.2211 291.156C76.0968 289.845 77.0241 289.203 78.1214 288.819L78.1117 288.82Z" fill="#4C1F21"/>
<path d="M116.336 166.713C114.647 166.927 113.954 166.502 112.963 164.638C114.391 164.986 115.784 165.064 116.336 166.713Z" fill="#4C1F21"/>
<path d="M114.106 138.321C114.272 138.961 114.431 139.532 114.715 140.601C113.487 139.704 113.284 138.944 114.106 138.321Z" fill="#4C1F21"/>
<path d="M132.486 336.81C130.991 338.071 129.641 336.875 128.316 336.577C126.93 336.264 125.591 335.713 124.241 335.26C122.314 334.616 121.105 333.964 120.615 333.306C124.127 333.375 131.097 335.394 132.486 336.81Z" fill="#4C1F21"/>
<path d="M147.775 337.871C152.215 336.888 156.712 336.525 161.29 336.946C156.853 337.958 152.32 338.031 147.775 337.871Z" fill="#4C1F21"/>
<path d="M89.4155 327.586C91.7536 327.851 96.9269 330.396 97.942 331.778C95.7554 331.676 91.0321 329.353 89.4155 327.586Z" fill="#4C1F21"/>
<path d="M166.89 326.878C164.99 328.41 163.095 328.3 161.196 328.142C163.129 326.959 165.129 326.521 166.89 326.878Z" fill="#4C1F21"/>
<path d="M73.5037 246.304C74.718 244.64 75.8513 242.836 77.3458 241.458C80.5968 238.474 84.4312 236.315 88.3829 234.37C88.8589 234.131 89.4416 234.097 89.967 233.971C90.0402 234.13 90.1134 234.29 90.1866 234.449C84.5778 239.193 77.6819 242.463 73.4224 249.36C72.6053 247.793 73.0087 246.975 73.5028 246.295L73.5037 246.304Z" fill="#4C1F21"/>
<path d="M92.7919 215.677C89.9049 218.267 85.3067 219.548 82.6659 218.324C85.6627 216.614 91.2819 215.181 92.7919 215.677Z" fill="#4C1F21"/>
<path d="M93.7633 202.624C96.2779 202.256 98.8463 202.05 101.273 201.359C104.86 200.337 108.343 198.933 111.882 197.701C112.894 197.344 113.919 197.025 114.933 196.688L115.227 197.238C114.81 197.589 114.438 198.004 113.976 198.281C109.09 201.219 103.88 203.397 98.2636 204.429C96.7269 204.707 95.094 204.573 93.5157 204.503C92.859 204.475 92.2241 204.152 91.5717 203.958C91.9473 202.516 92.9149 202.74 93.7633 202.624Z" fill="#4C1F21"/>
<path d="M121.604 174.134C123.651 173.243 128.642 174.115 130.645 175.836C127.952 176.171 125.3 176.111 122.728 175.213C122.315 175.066 122.024 174.555 121.604 174.134Z" fill="#4C1F21"/>
<path d="M114.674 185.555C114.382 185.455 113.966 184.858 114.04 184.704C114.212 184.347 114.656 183.866 114.979 183.876C117.193 183.956 119.345 184.316 121.156 185.967C118.931 186.513 116.78 186.261 114.673 185.545L114.674 185.555Z" fill="#4C1F21"/>
</g>
<defs>
<clipPath id="clip0_35_13910">
<rect width="358.961" height="329.72" fill="white" transform="matrix(-0.996994 0.0913441 0.0913441 0.996994 357.882 0)"/>
</clipPath>
</defs>
</svg>
