<svg width="84" height="75" viewBox="0 0 84 75" fill="none" xmlns="http://www.w3.org/2000/svg">
<g clip-path="url(#clip0_35_14148)">
<path d="M3.16537 43.953C3.08822 44.3153 3.18656 44.9077 3.43421 45.0882C3.66455 45.2581 4.25959 45.1348 4.57647 44.9452C5.19174 44.5758 5.72661 44.0678 6.29376 43.6215C6.53435 43.4287 6.77817 43.2421 7.10003 42.9871C6.70018 44.135 6.26773 45.1232 6.01811 46.1531C5.79869 47.0533 5.68138 48.0061 5.70521 48.9359C5.72845 49.9171 6.49048 50.3149 7.31407 49.7735C7.93784 49.3603 8.42547 48.7397 8.9486 48.1869C9.19417 47.9287 9.38751 47.6232 9.71846 47.1907C9.81652 48.1798 9.81569 48.9577 9.97741 49.6935C10.2407 50.8631 11.1209 51.1793 12.0962 50.5153C12.4433 50.2785 12.7675 49.983 13.0556 49.671C13.746 48.9128 14.471 48.1757 15.0636 47.3509C18.0392 43.2202 21.5861 39.6855 25.8167 36.8488C26.0318 36.7047 26.2198 36.5316 26.4302 36.386C28.5468 34.9552 30.1802 33.059 31.6627 31.0024C32.3841 29.9962 33.1355 29.0097 33.9517 28.0795C34.4969 27.4562 35.1764 26.9471 35.9105 26.2798C36.7665 28.8507 38.5846 29.9753 40.8768 30.5059C41.2955 30.6007 41.7054 30.7236 42.125 30.7825C43.3043 30.95 44.3008 31.4881 45.1972 32.2474C46.8035 33.6046 48.5546 34.7289 50.4933 35.5665C51.1881 35.866 51.8639 36.2266 52.503 36.5396C52.4365 37.8741 52.3735 39.2302 52.309 40.5911C51.9352 40.8969 51.5429 41.2123 51.1553 41.5292C51.0098 41.4838 50.8833 41.4597 50.7704 41.409C49.2824 40.7122 47.7739 40.4934 46.1898 41.127C45.9366 41.2282 45.5616 41.0595 45.2509 40.9985C44.5933 40.8601 43.9196 40.5259 43.2846 40.5955C41.8548 40.7517 40.4722 40.6083 39.097 40.2765C37.0715 39.7828 35.4008 40.2812 34.0597 41.9182C32.2503 44.1304 30.362 46.2819 28.6017 48.5351C26.2915 51.4926 26.0003 54.6841 27.8379 57.9894C28.3083 58.8423 28.8976 59.6447 29.5246 60.392C30.7454 61.8453 32.2823 62.9129 33.9153 63.8714C37.5447 66.0102 41.3536 67.195 45.6392 66.5243C47.53 66.2287 49.465 66.1376 51.3816 66.1387C54.5552 66.1408 57.58 65.5967 60.4572 64.2385C60.9214 64.0229 61.4049 63.8441 61.8805 63.6578C65.1541 62.3668 68.045 60.5029 70.2863 57.766C71.4449 56.3502 72.5337 54.861 73.481 53.2968C75.1976 50.4579 75.7948 47.3259 75.3331 44.0537C74.7959 40.2479 74.1827 36.4543 73.4779 32.6734C73.2405 31.3882 72.7205 30.1333 72.1658 28.9397C69.9975 24.2687 66.9407 20.2476 63.0178 16.904C60.8041 15.0169 58.4781 13.2751 55.7311 12.221C50.8591 10.3484 45.8396 10.053 40.7397 10.9382C38.0588 11.4043 35.5352 12.2906 33.4004 14.0765C32.3254 14.9774 31.1931 15.814 30.1656 16.7606C27.7712 18.9652 25.1916 20.9213 22.467 22.6981C21.6895 23.2075 21.0036 23.8692 20.29 24.4708C19.7786 24.9036 19.3297 25.4332 18.7734 25.7953C12.4593 29.9238 7.58134 35.377 3.89849 41.9198C3.54936 42.5425 3.32494 43.2608 3.17798 43.9621L3.16537 43.953ZM52.502 35.0088C50.5402 34.2619 48.6273 33.3912 47.0378 32.0134C45.3186 30.5229 43.4298 29.5257 41.1608 29.1518C39.583 28.8907 38.1608 28.2145 37.5266 26.4344C37.8984 26.5969 38.2883 26.7342 38.6466 26.9234C39.9213 27.6102 41.276 27.9253 42.712 27.7659C43.7956 27.6458 44.7433 27.911 45.5608 28.6096C46.7469 29.6294 48.1283 30.1228 49.6682 30.1092C50.5766 30.1045 51.0499 30.4533 51.3032 31.3415C51.5881 32.3426 52.2443 33.1454 53.1037 33.7591C53.3781 33.9531 53.6386 34.1581 53.8895 34.3447C53.6616 35.2062 53.1537 35.2485 52.5049 34.9994L52.502 35.0088ZM35.3974 42.5681C35.1363 42.7441 34.869 42.9234 34.6079 43.0995C34.8118 42.8592 35.0125 42.6127 35.2164 42.3724C35.2783 42.4381 35.3402 42.5038 35.3974 42.5681ZM28.589 56.2452C27.7189 54.3296 27.7393 52.4499 28.6024 50.545C29.8792 47.7284 31.8886 45.486 34.0938 43.3923C34.1886 43.3034 34.3388 43.2679 34.4732 43.2172C34.0786 43.738 33.6714 44.2497 33.302 44.7888C32.9825 45.2506 32.7149 45.7442 32.4207 46.2242C32.5046 46.302 32.5932 46.3812 32.6786 46.4542C33.0409 46.2016 33.4209 45.975 33.7609 45.6948C34.5851 45.0196 35.3791 44.3092 36.2079 43.6355C37.3569 42.6959 38.7471 42.3366 40.0188 43.0328C41.2292 43.6944 41.481 45.082 41.4066 46.4088C41.2987 48.2714 40.4056 49.8269 39.2972 51.2635C36.7919 54.5156 33.5011 56.2082 29.3768 56.1977C29.1247 56.1962 28.8686 56.2244 28.5998 56.2435L28.589 56.2452ZM38.2417 64.3729C34.3894 62.8652 31.0311 60.9142 28.9467 57.1454C29.8889 57.1976 30.6955 57.3208 31.4895 57.27C36.3528 56.9601 41.2919 52.7627 42.4574 48.0099C42.8373 46.4642 42.6488 45.0552 41.5813 43.8044C41.061 43.1936 40.6144 42.5284 40.1243 41.8703C41.1865 41.7693 42.1903 41.5418 43.1673 41.6307C43.8234 41.6914 44.5051 42.1156 45.062 42.5267C45.731 43.0242 46.077 43.7971 46.1381 44.6407C46.299 46.8964 46.4849 49.1549 46.5431 51.4095C46.5708 52.3766 46.403 53.3754 46.1455 54.3152C45.8547 55.3941 45.2982 56.4003 44.3587 57.0652C41.8598 58.8455 40.2253 61.3391 38.6132 63.8602C38.524 63.9973 38.4207 64.1299 38.2432 64.3682L38.2417 64.3729ZM56.1869 60.9514C55.3848 62.0509 54.5102 63.1019 53.7113 64.2076C53.4035 64.6319 53.0675 64.8 52.5499 64.8238C49.6575 64.961 46.7661 65.1604 43.8751 65.293C42.313 65.3614 40.7356 65.4457 39.2699 64.7765C40.2551 63.4869 41.1285 62.2912 42.0589 61.1442C42.5682 60.52 43.1612 59.9581 43.7465 59.4041C44.208 58.966 44.7218 58.5751 45.215 58.1675C46.6946 56.9448 47.5859 55.3785 47.8237 53.4791C47.9578 52.4234 48.076 51.3524 48.0404 50.2953C47.9792 48.4623 47.8295 46.6326 47.6363 44.8099C47.5529 44.0212 47.263 43.2504 47.0646 42.467C48.6246 41.8774 50.4424 42.4092 51.4865 43.9C51.9422 44.5526 52.277 45.3116 52.562 46.0654C53.4057 48.3129 54.4495 50.4477 55.834 52.4159C56.1761 52.9041 56.4707 53.429 56.7375 53.9607C57.9565 56.3924 57.8205 58.741 56.2025 60.9511L56.1869 60.9514ZM73.2784 50.5642C72.5534 51.9609 71.9042 53.4122 71.0264 54.7045C68.5716 58.3227 65.3371 61.0224 61.2036 62.5754C60.0466 63.0127 58.9208 63.5318 57.7589 63.952C56.9694 64.2361 56.1434 64.4058 55.2168 64.4358C55.3729 64.2166 55.5257 63.9912 55.6897 63.7796C56.4091 62.8295 57.2104 61.9307 57.8385 60.9263C59.1655 58.7902 59.3338 56.5033 58.3349 54.1918C57.9493 53.2984 57.4645 52.4255 56.902 51.6365C55.7769 50.0586 54.9664 48.3316 54.2465 46.5453C53.7109 45.2082 53.129 43.8876 52.4969 42.3812C53.0353 41.7301 53.7773 41.7301 54.5194 42.0598C56.2688 42.8434 57.9927 43.6757 59.718 44.5034C60.2565 44.7592 60.7664 45.0731 61.2899 45.3603C62.848 46.2285 64.4559 46.3598 66.0682 45.5701C67.4308 44.9034 68.6497 45.109 69.7216 46.0983C70.876 47.1701 71.9555 48.3164 73.0961 49.3993C73.4811 49.767 73.487 50.1604 73.2813 50.5548L73.2784 50.5642ZM72.0825 32.7527C72.5765 35.5918 73.0875 38.5083 73.6358 41.6684C71.1111 40.4467 68.6927 39.6602 66.1368 39.413C66.0872 39.5058 66.0423 39.6 65.9927 39.6927C66.3443 39.9365 66.6644 40.2478 67.0456 40.4132C68.807 41.1748 70.5757 41.913 72.3595 42.6197C72.7623 42.7816 73.2289 42.7728 73.7876 42.8649C74.0136 44.533 74.2211 46.2932 73.8524 48.2649C73.5305 47.9428 73.3116 47.7198 73.0913 47.5015C72.189 46.5961 71.343 45.6258 70.3661 44.8105C69.0351 43.6938 67.4829 43.3016 65.8334 44.0951C64.3487 44.8062 62.9791 44.6874 61.5741 43.8568C60.3265 43.1166 59.038 42.441 57.7288 41.8155C56.5043 41.232 55.2288 40.7458 53.9257 40.1996C53.3942 37.8435 53.995 36.2173 55.9505 34.8238C57.1109 33.996 58.3688 33.3841 59.761 33.0513C61.2988 32.6815 62.8195 32.2342 64.3664 31.9342C66.5876 31.5048 68.7776 31.9005 70.951 32.3992C71.2823 32.4769 71.5989 32.6016 72.0825 32.7527ZM63.2284 19.8092C63.5276 19.7584 63.9654 19.7921 64.1541 19.9799C66.5653 22.3564 68.5425 25.0663 70.187 28.1978C66.5917 28.0278 63.2867 28.5618 59.9524 30.3439C61.3867 30.6683 62.4403 30.1164 63.5283 29.9822C64.7125 29.8369 65.8917 29.6745 67.0745 29.5339C68.2044 29.3974 69.391 29.5414 70.5033 28.8016C70.8065 29.4477 71.1093 30.0783 71.4823 30.8801C71.0398 30.845 70.7675 30.8423 70.5023 30.8007C68.6267 30.5033 66.775 30.5586 64.915 31.0029C63.5956 31.3172 62.2429 31.6058 60.8894 31.6827C58.6967 31.8067 56.6962 32.3875 54.9769 33.6848C53.3299 32.7219 52.7107 31.8998 52.2978 30.1372C54.0764 28.8482 55.0862 26.886 56.407 25.1653C57.9541 23.1495 59.6206 21.2791 62.0248 20.2473C62.4168 20.0812 62.8144 19.8808 63.2269 19.8139L63.2284 19.8092ZM22.2541 24.5176C23.7573 23.467 25.3129 22.4793 26.7793 21.3812C28.2396 20.2864 29.62 19.0842 31.051 17.9184C31.2854 18.5533 31.5167 19.1821 31.7644 19.8572C29.0776 21.414 26.3663 22.9836 23.4011 24.7059C23.8961 24.8863 24.1629 25.0881 24.3594 25.0362C24.9307 24.89 25.512 24.6955 26.031 24.4196C28.2134 23.2567 30.3652 22.043 32.2673 20.3751C33.7518 21.1326 33.2713 22.7036 33.7326 23.8989C34.403 22.9077 34.49 21.0953 33.9442 20.2033C33.8559 20.0572 33.7476 19.9255 33.6408 19.789C32.3487 18.1023 32.3666 17.8141 33.5789 16.111C34.3488 15.0324 35.3584 14.2915 36.5411 13.7386C39.636 12.2939 42.9237 11.9143 46.2827 11.9332C50.1864 11.9573 53.9113 12.7346 57.3617 14.6216C57.8773 14.9012 58.3659 15.2342 59.0663 15.6643C55.5107 16.6044 52.0902 19.2562 51.2571 21.6755C51.5957 21.5648 51.8876 21.5375 52.0948 21.3858C52.6135 21.012 53.1193 20.6135 53.5888 20.183C55.0167 18.8616 56.6184 17.8419 58.4473 17.1508C58.8921 16.9806 59.2321 16.5355 59.73 16.1293C60.5642 16.8074 61.5469 17.6039 62.5675 18.4278C62.4135 18.5909 62.346 18.7244 62.2533 18.7573C59.4292 19.6322 57.3901 21.5407 55.6931 23.855C54.8863 24.953 54.1789 26.1285 53.4178 27.2614C53.1576 27.649 52.8739 28.0293 52.5884 28.3987C52.1404 28.975 51.6061 29.3492 50.8332 29.0356C50.7957 29.0238 50.7458 29.0185 50.7038 29.0209C48.7139 29.1721 47.0473 28.4865 45.6027 27.1231C44.9627 26.5161 44.0936 26.2961 43.2163 26.3827C41.4927 26.5553 39.9182 26.1355 38.4097 25.3396C38.1442 25.1999 37.8637 25.0917 37.5864 24.9896C36.7061 24.6733 35.957 24.7124 35.0812 25.289C33.2084 26.5332 31.9345 28.2686 30.6738 30.0441C30.104 30.8452 29.5516 31.6568 28.936 32.423C28.6382 32.7989 28.2172 33.0744 27.8531 33.3987C27.7589 33.3538 27.6615 33.3027 27.5673 33.2578C27.6509 32.7429 27.6922 32.2147 27.8228 31.7144C28.4928 29.2236 28.229 28.6825 25.79 27.7969C24.9802 27.5026 24.1894 27.3122 23.8733 26.3117C23.7656 25.9637 23.1917 25.7226 22.785 25.5234C22.4584 25.3647 22.069 25.3409 21.5564 25.2168C21.8601 24.9046 22.0253 24.6728 22.2494 24.5161L22.2541 24.5176ZM19.9559 26.2988C20.5372 26.434 21.0257 26.6021 21.5231 26.6596C22.2091 26.7399 22.712 26.928 22.955 27.6841C23.1848 28.4 23.9275 28.596 24.5607 28.8453C24.9134 28.9864 25.3019 29.046 25.6666 29.1651C27.1129 29.6324 27.3632 30.0353 27.0024 31.52C26.9243 31.8357 26.6483 32.2081 26.3587 32.3598C22.4176 34.3852 19.3877 37.5352 16.2351 40.5335C16.0517 40.7081 15.9191 40.9347 15.788 41.1565C15.7352 41.2431 15.7595 41.3795 15.7241 41.724C16.3399 41.3032 16.8399 41.0059 17.2905 40.652C20.0758 38.4665 22.8467 36.261 25.6334 34.0707C25.9615 33.8125 26.3309 33.6033 26.6935 33.3662C27.1225 33.7578 27.1847 34.0865 26.7182 34.4251C26.0968 34.8802 25.5024 35.3644 24.8633 35.7934C20.6134 38.6756 17.0342 42.2312 14.085 46.4422C13.3125 47.5458 12.3461 48.5115 11.4726 49.5423C11.3641 49.4775 11.2617 49.4094 11.1531 49.3446C10.9329 47.4104 11.2975 45.5507 11.9852 43.7455C12.7245 41.7916 13.9676 40.1549 15.451 38.722C16.9253 37.3018 18.5029 35.9963 20.028 34.628C20.386 34.307 20.6946 33.9293 21.0256 33.5792C20.9678 33.4839 20.9147 33.39 20.8569 33.2946C20.5658 33.3686 20.2331 33.378 19.9901 33.5288C16.0667 35.9926 12.6418 38.9059 10.6821 43.2817C9.83277 45.1755 8.4362 46.7592 7.14967 48.403C6.91457 47.3247 7.19942 46.347 7.52241 45.4121C8.81761 41.6789 10.7287 38.3494 13.9509 35.9036C15.4446 34.7676 16.8952 33.5719 18.3569 32.3899C18.7292 32.0888 19.0728 31.7479 19.3735 31.3626C18.0702 31.6253 13.3816 34.6745 11.2342 36.7811C8.90195 39.0669 6.71556 41.4963 4.37395 43.7792C8.16767 36.6835 13.4758 30.9422 19.9624 26.3111L19.9559 26.2988Z" fill="#4C1F21"/>
<path d="M52.5609 24.8088C54.7666 22.2515 56.9742 19.7051 60.427 18.7639C60.67 18.6955 60.9889 18.285 60.9765 18.0441C60.9554 17.5841 60.5041 17.4946 60.1004 17.5333C59.8084 17.5606 59.4871 17.5994 59.2377 17.7379C58.3109 18.247 57.3444 18.718 56.507 19.3531C54.8997 20.572 53.7347 22.2228 52.5312 23.8153C51.9773 24.5492 51.4691 25.3179 50.9404 26.07C51.0367 26.1413 51.1329 26.2126 51.2292 26.2839C51.671 25.7933 52.127 25.3071 52.5562 24.8073L52.5609 24.8088Z" fill="#4C1F21"/>
<path d="M40.7009 14.6415C41.2922 14.5634 41.8816 14.4744 42.4658 14.3529C42.7695 14.2881 43.0515 14.1443 43.4191 14.0066C41.0426 12.1459 34.9388 14.4799 33.9666 17.6081C34.8155 17.7444 35.2773 17.2394 35.7591 16.885C37.2487 15.7787 38.8328 14.8977 40.7009 14.6415Z" fill="#4C1F21"/>
<path d="M49.6927 19.9037C50.0792 19.8544 50.279 19.891 50.3785 19.8036C52.1509 18.3528 53.9216 16.8912 55.6685 15.4067C55.8017 15.2937 55.8439 14.8947 55.7509 14.7471C55.6435 14.5795 55.2873 14.4167 55.1142 14.476C54.638 14.6312 54.1125 14.8123 53.7642 15.1518C52.4935 16.3986 51.2847 17.7112 50.0727 19.0175C49.911 19.1886 49.8696 19.4694 49.688 19.9022L49.6927 19.9037Z" fill="#4C1F21"/>
<path d="M48.7531 18.3425C49.0723 18.1124 49.4265 17.919 49.7075 17.6461C50.6452 16.723 51.5703 15.7908 52.459 14.8265C52.6541 14.6144 52.8419 14.1783 52.7509 13.9747C52.5449 13.529 52.0854 13.6637 51.7598 13.8815C50.2176 14.925 49.0939 16.295 48.4547 18.0277C48.5562 18.1315 48.6563 18.2401 48.7531 18.3425Z" fill="#4C1F21"/>
<path d="M31.9582 22.3707C30.6352 22.416 27.3082 24.422 26.6684 25.6288C28.34 25.507 31.4069 23.5743 31.9582 22.3707Z" fill="#4C1F21"/>
<path d="M46.5204 16.9286C47.8713 16.3819 49.1308 14.5442 49.0222 13.1601C47.8139 13.4319 47.4639 14.4201 46.9654 15.2074C46.6574 15.6986 46.1695 16.2212 46.5204 16.9286Z" fill="#4C1F21"/>
<path d="M31.5992 24.9381C30.5094 24.9789 28.4292 26.1944 27.7893 27.2364C29.3841 27.41 31.1952 26.2805 31.5992 24.9381Z" fill="#4C1F21"/>
<path d="M46.5486 13.5725C45.7215 14.0098 45.3055 14.9619 45.4347 16.1154C46.2902 15.2902 46.6839 14.3929 46.5486 13.5725Z" fill="#4C1F21"/>
<path d="M58.117 51.6399C58.669 53.4356 59.7615 55.0188 59.8529 56.9695C59.949 59.004 58.8247 60.5903 57.8982 62.2693C58.755 62.4957 58.8647 62.5403 59.1962 62.0565C59.7185 61.2921 60.2727 60.4913 60.5581 59.6272C61.6128 56.4165 59.8327 54.0156 58.117 51.6399Z" fill="#4C1F21"/>
<path d="M71.4359 49.7979C70.5742 50.6263 67.7048 54.5324 67.4525 55.2575C67.3936 55.4297 67.4552 55.6448 67.4634 55.8329C68.158 56.0344 68.493 55.5722 68.8034 55.2054C69.4286 54.4578 70.0096 53.6705 70.5638 52.8697C70.9968 52.2424 71.4061 51.5921 71.7526 50.912C71.9641 50.4988 72.0638 50.0147 71.4344 49.8026L71.4359 49.7979Z" fill="#4C1F21"/>
<path d="M60.8312 52.6014C60.7153 52.6425 60.5961 52.6774 60.4802 52.7185C60.6411 53.3253 60.7943 53.94 60.9613 54.5435C61.3718 56.0167 61.781 57.4947 61.6549 59.0527C61.6185 59.5154 61.4686 59.9787 61.4851 60.4374C61.4957 60.6674 61.7234 61.0271 61.9235 61.0793C62.1283 61.133 62.5667 60.9505 62.6347 60.7656C62.8143 60.3064 62.9351 59.7876 62.9242 59.2947C62.8718 56.8564 61.7432 54.7621 60.8297 52.6061L60.8312 52.6014Z" fill="#4C1F21"/>
<path d="M64.492 55.9919C63.8397 54.5668 63.1565 53.1579 62.2732 51.8616C62.1573 51.9027 62.0429 51.9391 61.927 51.9802C62.0083 52.3302 62.0711 52.6899 62.1803 53.0332C62.7376 54.779 63.3134 56.5151 63.866 58.2595C63.9984 58.677 64.2188 58.9777 64.6686 58.907C65.1386 58.8374 65.2976 58.4439 65.1873 58.0384C64.9968 57.3451 64.7875 56.6459 64.4873 55.9904L64.492 55.9919Z" fill="#4C1F21"/>
<path d="M54.1529 42.8368C54.6958 44.2329 56.7035 45.7568 57.7384 45.7761C57.0441 44.6831 56.2333 43.8475 55.2714 43.1657C54.9719 42.9536 54.5329 42.9401 54.1529 42.8368Z" fill="#4C1F21"/>
<path d="M47.9771 56.485C48.3667 55.4524 48.7844 54.4286 49.1599 53.3917C49.2547 53.1379 49.2397 52.8395 49.2796 52.5634C49.2233 52.5457 49.1622 52.5267 49.1044 52.5138C48.9583 52.8495 48.7934 53.1793 48.6693 53.527C47.7646 56.0269 46.7539 58.4371 44.3847 60.0003C43.6964 60.4552 43.1562 61.1779 42.6337 61.8443C42.2737 62.3038 42.0355 62.8683 41.8172 63.4185C41.7594 63.5705 41.932 63.8924 42.0901 64.0294C42.1755 64.1024 42.5176 64.0135 42.6382 63.8914C42.9038 63.6188 43.0933 63.2761 43.3256 62.9777C44.1078 61.975 44.8346 60.919 45.7007 59.9941C46.6765 58.9489 47.4704 57.8262 47.9741 56.4943L47.9771 56.485Z" fill="#4C1F21"/>
<path d="M48.9216 56.9089C48.5461 57.2863 48.1374 57.6378 47.8014 58.0533C46.3996 59.7693 45.023 61.5035 43.6323 63.2333C43.5549 63.3327 43.4354 63.4346 43.4205 63.5484C43.3891 63.7808 43.319 64.1042 43.4352 64.2435C43.5561 64.3843 43.959 64.4638 44.1019 64.3694C44.6194 64.0158 45.196 63.6548 45.5442 63.1504C46.704 61.467 47.7895 59.7243 48.8721 57.991C49.0367 57.7281 49.0423 57.364 49.1203 57.0483C49.051 57.006 48.9833 56.9591 48.914 56.9168L48.9216 56.9089Z" fill="#4C1F21"/>
<path d="M50.2271 58.3216C49.1657 59.8553 48.1089 61.3906 47.0773 62.944C46.9972 63.0684 47.0589 63.4484 47.161 63.5009C47.3479 63.5954 47.6627 63.6267 47.8382 63.527C48.0829 63.387 48.2959 63.134 48.4405 62.8855C49.1831 61.5974 49.9083 60.2987 50.6116 58.9879C50.7213 58.7852 50.7004 58.5055 50.772 58.095C50.4402 58.2335 50.2817 58.2459 50.2242 58.331L50.2271 58.3216Z" fill="#4C1F21"/>
<path d="M48.6279 43.0379C48.4264 43.8149 48.657 44.495 49.6603 45.9679C49.8163 44.5944 49.446 43.6027 48.6279 43.0379Z" fill="#4C1F21"/>
<path d="M50.5205 62.9737C51.1716 62.6051 51.5803 62.0887 51.7736 61.1236C50.8843 61.6445 50.4345 62.1275 50.5205 62.9737Z" fill="#4C1F21"/>
<path d="M63.603 42.1461C64.351 42.7045 65.2382 42.5694 66.0545 42.6287C67.9568 42.7747 69.7261 43.2141 71.2296 44.4877C71.7925 44.9624 72.4665 45.3121 73.2919 45.8534C73.2217 44.4453 71.8554 43.1115 69.8413 42.1525C68.1004 41.3252 64.757 41.306 63.6045 42.1414L63.603 42.1461Z" fill="#4C1F21"/>
<path d="M66.0451 37.5294C66.3227 37.8119 66.4084 37.983 66.5398 38.024C68.3482 38.6354 70.1533 39.2406 71.9778 39.8003C72.1844 39.8649 72.6829 39.6548 72.7052 39.5174C72.7545 39.2443 72.6201 38.8828 72.4461 38.6481C72.3166 38.4685 72.0147 38.3793 71.7726 38.3294C70.2342 38.0085 68.6976 37.6985 67.1521 37.4166C66.8649 37.3629 66.548 37.4701 66.0451 37.5294Z" fill="#4C1F21"/>
<path d="M70.6376 36.3053C70.7901 36.3117 71.0935 36.0664 71.0838 35.9655C71.0612 35.7574 70.9107 35.4476 70.7417 35.3948C69.5351 35.0178 68.3107 34.7641 67.0047 35.1342C68.0936 35.9536 69.3345 36.2537 70.6376 36.3053Z" fill="#4C1F21"/>
<path d="M70.5153 33.4638C69.6702 33.0349 68.8554 33.2183 68.06 33.6861C68.8804 33.7981 69.7052 33.9785 70.5153 33.4638Z" fill="#4C1F21"/>
<path d="M21.9324 27.6583C20.5748 27.7649 17.333 29.9109 16.488 31.3783C18.3682 30.4404 20.1823 29.384 21.8679 28.1122C21.9492 28.05 21.9107 27.8267 21.9324 27.6583Z" fill="#4C1F21"/>
<path d="M26.436 30.1991C25.154 30.2778 24.2507 30.9592 23.5415 31.9589C24.6503 31.6096 25.8269 31.3898 26.436 30.1991Z" fill="#4C1F21"/>
<path d="M24.1074 29.4716C23.0828 29.2545 22.6057 29.528 22.1216 30.5826C22.8874 30.3581 23.65 30.3748 24.1074 29.4716Z" fill="#4C1F21"/>
<path d="M40.0177 55.3071C39.3473 55.5562 38.8368 55.7059 38.3682 55.9357C36.4613 56.8601 34.5642 57.8029 32.6638 58.7396C32.3216 58.911 31.9417 59.0551 32.0711 59.5645C33.8724 59.9675 38.8439 57.3983 40.0177 55.3071Z" fill="#4C1F21"/>
<path d="M34.8613 59.7715C34.3569 60.0004 33.5655 59.8613 33.3687 60.8047C34.6973 60.7251 35.679 60.0733 36.723 59.5853C36.6834 59.4647 36.647 59.3503 36.6074 59.2297C36.0226 59.4026 35.4088 59.52 34.8613 59.7715Z" fill="#4C1F21"/>
<path d="M36.0764 61.5063C36.8674 61.5473 37.3756 61.1084 37.9448 60.606C36.7441 60.2927 36.2031 60.5565 36.0764 61.5063Z" fill="#4C1F21"/>
<path d="M62.01 27.7662C62.0211 27.8624 62.0355 27.9648 62.0467 28.0611C62.4366 28.1159 62.8281 28.2485 63.2086 28.218C64.6857 28.092 66.1557 27.9226 67.6289 27.7594C68.0667 27.7107 68.5344 27.5991 68.4927 27.0399C68.4483 26.4231 67.9495 26.3703 67.4551 26.3859C67.3292 26.393 67.2001 26.3938 67.0778 26.4226C65.7111 26.7067 64.3379 26.9785 62.9812 27.2967C62.642 27.3762 62.3321 27.6092 62.0132 27.7724L62.01 27.7662Z" fill="#4C1F21"/>
<path d="M62.3772 26.0464C62.913 26.1623 63.158 26.2852 63.3878 26.2591C64.4837 26.1326 65.5808 25.9858 66.6711 25.8111C67.0511 25.7495 67.4997 25.6165 67.414 25.1157C67.318 24.5652 66.823 24.5497 66.3955 24.648C65.3204 24.8893 64.2474 25.157 63.1812 25.4525C62.9614 25.5127 62.7945 25.7336 62.3758 26.0511L62.3772 26.0464Z" fill="#4C1F21"/>
<path d="M65.2097 23.3963C65.308 23.3291 65.3708 23.0293 65.3136 22.965C65.1944 22.835 64.938 22.6828 64.8098 22.7303C64.0792 23.007 63.3618 23.324 62.9299 24.096C63.7767 24.1235 64.5375 23.882 65.2144 23.3978L65.2097 23.3963Z" fill="#4C1F21"/>
<path d="M63.5809 21.7486C63.6149 21.6562 63.4415 21.3701 63.359 21.3701C62.7692 21.3611 62.2602 21.506 62.2329 22.2859C62.7963 22.3795 63.3306 22.4176 63.5809 21.7486Z" fill="#4C1F21"/>
<path d="M30.751 49.5725C29.4943 49.9992 29.3553 50.873 29.037 51.562C28.6993 52.2964 28.3517 53.0793 28.7191 54.2453C29.8123 52.9069 30.2462 51.5842 30.6786 50.2661C30.7402 50.069 30.7267 49.8483 30.751 49.5725Z" fill="#4C1F21"/>
</g>
<defs>
<clipPath id="clip0_35_14148">
<rect width="69.6975" height="55.9617" fill="white" transform="translate(67.1539 74.9004) scale(1.00944) rotate(-162.65)"/>
</clipPath>
</defs>
</svg>
