<svg width="192" height="210" viewBox="0 0 192 210" fill="none" xmlns="http://www.w3.org/2000/svg">
<g clip-path="url(#clip0_35_14668)">
<path d="M158.155 9.56718C152.44 6.57887 146.47 4.26661 140.115 3.06788C137.694 2.60771 135.238 2.15888 133.161 4.02801C129.443 0.426127 127.18 -0.391973 122.013 0.159098C120.033 0.369303 118.035 0.670405 116.111 1.17036C112.292 2.16458 108.512 3.3292 104.715 4.42567C104.188 4.57907 103.668 4.86882 103.136 4.88586C100.906 4.97676 98.8352 5.62442 96.8546 6.58454C93.7876 8.06166 90.896 9.82283 88.2704 12.0101C83.7887 15.7426 79.8615 20.0263 75.991 24.3724C73.8633 26.7642 72.0638 29.4571 69.5231 31.4682C69.2005 31.7239 68.9459 32.0761 68.6799 32.3943C66.3316 35.1951 64.8546 38.4504 63.87 41.933C63.0721 44.7565 62.4384 47.6255 61.6405 50.4491C61.0973 52.375 60.4691 54.2782 59.7561 56.1417C59.0828 57.9085 58.0416 59.38 56.3439 60.4139C54.6803 61.4309 53.3109 62.8512 52.066 64.3851C49.5818 67.4473 47.7767 70.9185 45.9659 74.3897C44.4154 77.361 42.9441 80.3834 41.2805 83.2922C39.3622 86.6497 37.2288 89.8767 35.2766 93.2115C33.8902 95.5806 32.6566 98.0406 31.3268 100.444C29.0746 104.523 26.7715 108.568 24.5646 112.664C23.6592 114.34 22.9179 116.107 22.171 117.862C22.0126 118.237 21.9956 118.851 22.2049 119.158C22.5388 119.646 23.0368 119.214 23.4555 119.061C23.5121 119.038 23.597 119.095 23.7441 119.141C23.4838 120.214 23.2179 121.282 22.9519 122.379C22.5558 122.379 22.2842 122.367 22.0069 122.379C19.3643 122.424 17.2819 123.47 16.1954 125.964C15.1259 128.424 15.6408 130.73 17.3158 132.758C18.4589 134.145 20.0886 134.741 21.7692 135.201C22.0918 135.292 22.4087 135.4 22.8614 135.542C21.5882 136.548 20.4564 137.44 19.3303 138.332C16.6877 140.422 14.2658 142.729 12.4607 145.598C11.5949 146.973 10.8536 148.433 10.1689 149.91C9.84067 150.614 9.58037 151.438 10.1519 152.353C11.51 150.893 12.7832 149.524 14.2092 147.995C13.8923 149.677 12.6757 150.887 13.0605 152.858C13.5924 152.353 13.9546 152.103 14.1979 151.768C15.1316 150.489 16.0426 149.194 16.9367 147.887C19.1096 144.717 21.8994 142.24 25.2437 140.377C25.4813 140.246 25.7473 140.172 26.2792 139.956C25.7473 140.718 25.3795 141.201 25.0626 141.712C24.7966 142.144 24.4911 142.649 24.9664 143.104C25.3908 143.507 25.8492 143.223 26.2396 142.968C26.8621 142.558 27.4732 142.138 28.0617 141.684C32.849 137.968 36.7761 133.463 40.1827 128.469C40.9975 127.282 41.8916 126.14 42.8196 125.038C43.4251 124.316 44.1551 123.697 44.9756 122.884C45.134 123.606 45.2359 124.049 45.3321 124.498C46.4299 129.821 46.3676 135.156 45.5867 140.508C44.0136 151.251 41.2126 161.67 37.3816 171.817C35.7462 176.14 33.7996 180.316 31.2306 184.173C29.2274 187.184 26.9017 189.883 23.9478 191.996C23.6253 192.224 23.2688 192.4 22.867 192.633C22.7708 192.337 22.7029 192.167 22.669 191.991C22.154 189.36 20.5696 188.707 18.3514 188.826C15.3919 188.985 12.8285 191.053 11.9061 194.002C11.7137 194.615 11.5722 195.246 11.4138 195.842C11.2667 195.877 11.1761 195.928 11.0856 195.916C5.4382 195.399 0.85464 189.61 1.61857 183.957C2.05994 180.691 3.80849 178.748 7.00566 177.975C7.32254 177.901 7.65641 177.867 7.95066 177.742C8.21096 177.634 8.43731 177.43 8.9862 177.055C8.22228 176.884 7.80353 176.725 7.37347 176.708C5.67586 176.629 4.17064 177.18 2.86348 178.253C1.03006 179.77 0.277451 181.838 0.0567619 184.134C-0.537402 190.229 3.86507 196.104 9.93687 197.354C10.4235 197.456 10.9158 197.547 11.527 197.666C11.5836 198.217 11.5949 198.734 11.7024 199.228C12.4607 202.887 14.3846 205.756 17.5592 207.722C21.1807 209.972 25.1135 210.46 29.2387 209.602C33.4941 208.716 37.11 206.597 40.3128 203.711C44.721 199.74 47.8219 194.843 50.1363 189.434C56.2534 175.134 58.4773 160.295 56.0327 144.837C55.2858 140.116 54.2672 135.474 51.9641 131.224C50.1929 127.958 48.3821 124.708 46.56 121.396C48.5349 119.317 49.91 116.868 50.9003 114.164C51.568 112.352 52.728 110.812 54.1484 109.5C55.3424 108.397 56.5646 107.318 57.8096 106.273C60.339 104.142 62.7892 101.938 64.9056 99.3756C66.9201 96.9327 68.9119 94.4728 70.9434 92.0469C72.1261 90.6266 73.3597 89.246 74.5989 87.8144C75.0573 88.1382 75.4421 88.32 75.7137 88.6154C78.594 91.6946 80.235 95.2227 79.3523 99.5461C79.0184 101.182 78.5091 102.79 78.0111 104.392C77.1567 107.153 76.206 109.88 75.3912 112.647C74.5367 115.55 74.3273 118.51 74.9102 121.504C75.2101 123.061 75.8552 124.43 77.0435 125.503C79.0184 127.282 80.9989 129.049 83.3473 130.333C83.766 130.56 84.1735 130.81 84.5866 131.048C84.5413 131.151 84.496 131.253 84.4508 131.355C83.2228 130.986 81.9666 130.69 80.7782 130.225C76.5738 128.588 74.05 125.515 73.2918 121.055C72.8221 118.305 73.0541 115.561 73.7784 112.874C74.1972 111.3 74.7234 109.755 75.2214 108.204C76.0362 105.659 76.4889 103.046 76.5795 100.376C76.6361 98.7393 76.2286 98.1996 74.7121 97.694C74.05 97.4724 73.3823 97.2793 72.7089 97.0804C72.2619 96.9498 71.7922 96.7566 71.4187 97.1997C71.0283 97.6542 71.3226 98.069 71.5715 98.4723C72.4317 99.8699 72.5335 101.392 72.1544 102.932C71.8884 104.011 71.5093 105.08 71.0566 106.091C69.6249 109.278 68.2159 112.476 67.3275 115.868C66.0656 120.692 66.5183 125.305 69.0817 129.639C70.2644 131.645 71.4697 133.639 72.6637 135.639C72.8957 136.031 73.1164 136.434 73.3427 136.832C70.4851 134.23 68.2442 131.185 66.5409 127.742C65.1093 124.85 64.6226 121.805 65.1036 118.624C65.347 117.01 65.6752 115.414 65.9864 113.812C66.6088 110.653 67.1011 107.471 67.0955 104.239C67.0955 103.495 67.0446 102.745 66.9484 102.012C66.9144 101.75 66.6654 101.517 66.473 101.199C65.6978 101.824 65.8789 102.586 65.8732 103.227C65.8449 106.426 64.7132 109.221 62.9929 111.852C60.8822 115.078 58.2113 117.788 55.4046 120.379C54.5615 121.157 53.6617 121.885 52.7054 122.703C52.0942 122.271 51.6019 121.93 51.1153 121.578C50.9682 121.47 50.8493 121.333 50.64 121.14C51.551 120.424 52.4281 119.748 53.2882 119.055C56.2817 116.658 59.0658 114.079 61.0011 110.693C62.1441 108.693 62.9873 106.585 63.3551 104.301C63.44 103.784 63.638 103.199 63.0721 102.756C62.3591 102.966 62.3591 103.602 62.229 104.102C61.018 108.71 58.5565 112.533 55.0028 115.652C53.1524 117.277 51.2228 118.811 49.3328 120.39C48.5802 121.015 48.5632 121.333 49.3215 121.907C50.0967 122.498 50.9116 123.049 51.7151 123.6C52.4055 124.072 53.1072 124.072 53.7975 123.589C54.137 123.35 54.4935 123.123 54.8048 122.845C58.2905 119.748 61.6122 116.499 64.136 112.522C64.2888 112.278 64.4699 112.045 64.634 111.806C64.7811 112.374 64.7245 112.823 64.6453 113.266C64.3737 114.777 64.0851 116.289 63.8248 117.805C63.1514 121.714 63.7569 125.418 65.6016 128.929C67.237 132.048 69.2854 134.855 71.7243 137.389C73.3484 139.07 75.0912 140.61 77.0888 141.831C77.5188 142.098 78.0055 142.502 78.4355 141.939C78.809 141.445 78.3167 141.138 78.0225 140.769C76.8398 139.275 75.5949 137.815 74.565 136.218C73.1277 133.986 71.8884 131.634 70.519 129.355C67.8481 124.918 67.3897 120.209 68.9912 115.357C69.9814 112.357 71.2433 109.443 72.4543 106.523C73.4502 104.114 74.2141 101.699 73.4898 99.0632C73.4728 98.9893 73.5464 98.8927 73.5804 98.8075C75.2384 99.2109 75.2836 99.2677 75.1761 100.972C75.1535 101.296 75.1139 101.62 75.0912 101.949C74.8649 104.665 74.1066 107.255 73.2069 109.812C72.1034 112.965 71.5263 116.192 71.6734 119.555C71.9337 125.606 75.8608 130.452 81.3102 131.901C84.762 132.815 88.276 133.508 91.7675 134.287C92.0787 134.355 92.4239 134.383 92.7351 134.321C93.318 134.196 93.4821 133.537 93.0237 133.15C92.7464 132.917 92.3956 132.753 92.056 132.616C91.1959 132.27 90.3245 131.935 89.4474 131.634C85.0562 130.122 81.2649 127.651 77.9828 124.384C76.4097 122.822 75.6798 119.663 76.3079 117.368C76.421 117.573 76.5229 117.715 76.5908 117.874C78.3903 122.14 82.4985 123.862 86.4596 123.225C87.8233 123.004 89.1928 122.617 90.4716 122.095C95.0212 120.254 99.203 117.754 103.079 114.738C103.481 114.425 103.883 114.084 104.188 113.687C104.63 113.101 104.285 112.403 103.549 112.425C103.051 112.437 102.542 112.596 102.061 112.755C97.4997 114.215 92.9558 115.726 88.3836 117.146C87.0651 117.555 85.6787 117.857 84.3036 117.953C82.5211 118.072 81.3554 117.198 80.9197 115.453C80.6651 114.437 80.5519 113.306 80.7217 112.283C81.0895 110.085 81.678 107.92 82.1873 105.744C82.2212 105.591 82.3401 105.455 82.4249 105.307C84.1452 106.261 85.7806 107.136 87.3933 108.062C91.3544 110.335 95.4626 110.755 99.718 109.039C102.559 107.892 105.445 106.818 108.2 105.494C112.026 103.654 115.602 101.392 118.403 98.0974C118.709 97.7395 118.941 97.3134 119.246 96.8645C117.605 96.2226 116.315 96.8077 115.059 97.3872C110.447 99.5177 105.631 101.103 100.821 102.693C99.4973 103.131 98.1392 103.466 96.7867 103.79C94.9816 104.222 93.1765 104.165 91.4449 103.46C89.4644 102.654 87.5065 101.796 85.5542 100.932C85.243 100.796 84.9996 100.512 84.745 100.313C87.4159 95.4897 89.2097 90.4505 90.5904 85.2578C91.9599 80.0993 93.1029 74.8896 93.5952 69.5209C93.782 69.6175 93.8951 69.6345 93.9291 69.697C95.6097 72.5604 97.9864 74.776 100.499 76.8667C102.723 78.7131 105.167 79.8891 108.149 79.6675C110.373 79.4971 112.608 79.4801 114.827 79.2642C116.207 79.1335 117.566 78.7699 118.935 78.4915C119.422 78.3893 119.891 78.0939 119.778 77.5655C119.71 77.2474 119.28 76.8951 118.941 76.7758C118.199 76.5202 117.418 76.3327 116.637 76.2418C114.051 75.9463 111.471 75.6282 108.874 75.4691C106.163 75.3044 104.013 74.0545 102.038 72.3388C101.942 72.2536 101.914 72.0945 101.789 71.8388C105.467 73.6 109.168 73.9011 112.971 73.316C115.84 72.8728 118.533 71.8275 121.227 70.8105C121.764 70.606 122.585 70.4867 122.5 69.7425C122.398 68.8619 121.532 69.021 120.915 69.0153C117.707 68.9926 114.504 69.0153 111.296 69.0039C109.949 69.0039 108.596 69.0039 107.261 68.8846C106.248 68.7937 105.269 68.4869 104.528 67.7654C105.694 67.9472 106.888 68.3563 108.042 68.2711C112.835 67.9131 116.756 65.8395 119.631 61.9081C119.767 61.7206 119.937 61.5331 119.993 61.3173C120.05 61.1127 120.061 60.7889 119.942 60.6753C119.772 60.5105 119.433 60.3798 119.224 60.4367C118.827 60.5446 118.471 60.7889 118.103 60.9821C115.755 62.249 113.321 63.3114 110.639 63.5556C109.547 63.6579 108.393 63.6352 107.329 63.3852C104.941 62.8284 103.934 61.2547 104.652 58.8914C105.411 56.3746 106.491 53.9601 107.51 51.3013C107.793 51.7217 107.934 51.8921 108.036 52.091C108.947 53.8124 110.243 55.2043 111.765 56.386C113.01 57.3574 114.385 58.0903 116.015 57.6813C119.925 56.6984 123.547 55.1304 126.461 52.0967C128.136 52.8352 129.828 53.6022 131.537 54.3294C133.936 55.3463 136.347 56.3348 138.933 56.778C139.657 56.9029 140.415 56.9257 141.145 56.8746C141.841 56.8291 142.164 56.2326 142.294 55.6304C142.436 54.9827 141.858 54.7611 141.406 54.5509C140.987 54.3578 140.534 54.2214 140.093 54.0851C137.773 53.3692 135.543 52.4546 133.512 51.0968C131.271 49.5969 128.99 48.1482 126.806 46.5688C125.635 45.7223 125.041 44.4497 125.16 42.876C126.257 44.268 127.655 45.2508 129.132 46.1257C129.771 46.5063 130.433 46.8529 131.095 47.1881C133.925 48.597 136.732 50.0741 139.787 50.9377C142.373 51.6706 144.976 51.9944 147.613 51.1536C149.509 50.5457 150.969 49.381 152.021 47.6994C152.31 47.2335 152.757 46.7222 152.333 46.1768C151.874 45.5917 151.325 46.0405 150.816 46.2223C149.86 46.5688 148.915 47.0745 147.924 47.1995C144.133 47.6767 140.512 47.0915 137.224 45.0008C135.26 43.7566 133.297 42.5125 131.373 41.2001C130.456 40.5752 129.624 39.8253 128.792 39.081C128.504 38.8254 128.334 38.4277 128.062 38.0243C128.781 37.4619 129.375 36.9449 130.026 36.5074C132.154 35.0814 134.338 33.718 135.187 31.1785C138.831 30.7183 142.204 31.1273 145.384 32.701C148.479 34.2293 151.671 35.4791 154.97 36.4847C156.203 36.8597 157.352 37.5073 158.518 38.0811C160.583 39.0981 162.303 40.8479 164.765 41.0013C164.867 41.2796 164.957 41.4898 165.025 41.7114C167.566 49.6197 169.071 57.7324 169.535 66.0099C169.846 71.5946 169.801 77.2019 169.92 82.7979C169.937 83.5876 169.909 84.3886 170.01 85.1726C170.163 86.3543 170.905 86.6668 171.866 85.9623C172.274 85.6669 172.596 85.2522 172.936 84.8715C173.524 84.2068 174.096 83.5251 174.673 82.8547C174.832 83.5251 174.769 84.0762 174.735 84.6272C174.679 85.593 174.996 85.8771 175.975 85.7691C176.111 85.7521 176.252 85.7294 176.388 85.6953C179.941 84.8204 183.252 83.383 186.274 81.3037C187.994 80.1164 188.961 78.4575 188.99 76.3611C189.012 74.5942 188.871 72.8217 188.792 71.0548C188.769 70.5662 188.712 70.0834 188.673 69.5891C189.437 69.4755 190.042 69.4243 190.631 69.288C191.706 69.038 192.034 68.6233 192.034 67.5325C192.034 66.9757 191.972 66.4133 191.921 65.8565C191.038 55.8349 188.141 46.5916 181.775 38.5981C180.1 36.5017 178.838 34.0702 177.384 31.7977C176.891 31.0251 176.71 30.2297 176.824 29.2809C177.05 27.3777 176.62 25.6336 175.516 23.986C173.598 21.1227 171.125 18.8105 168.601 16.5323C165.466 13.6974 161.901 11.5045 158.184 9.56149L158.155 9.56718ZM17.163 190.638C19.7095 189.752 21.0562 190.57 21.7409 193.405C19.121 194.899 16.3425 195.933 13.1114 196.013C13.4453 193.28 14.7298 191.479 17.163 190.638ZM53.3675 139.553C55.7271 150.109 56.1459 160.699 54.0352 171.339C52.6714 178.219 50.6626 184.9 47.5333 191.19C45.0378 196.206 41.8463 200.694 37.3194 204.097C34.3316 206.341 31.0325 207.892 27.2808 208.29C23.2009 208.727 19.5284 207.733 16.484 204.864C14.4752 202.967 13.4057 200.586 13.0888 197.837C13.2472 197.751 13.3604 197.643 13.4849 197.632C19.1889 197.234 23.846 194.621 27.9089 190.775C31.1231 187.73 33.4997 184.054 35.469 180.128C40.3468 170.408 43.3006 160.028 45.6377 149.455C46.6562 144.859 47.4315 140.218 47.7088 135.502C47.8785 132.656 47.7993 129.816 47.3296 126.998C47.2957 126.782 47.29 126.555 47.273 126.333C49.8251 130.565 52.298 134.73 53.3731 139.553L53.3675 139.553ZM26.5961 124.373C27.5751 122.845 28.5201 121.368 29.4707 119.885C29.533 119.913 29.5952 119.936 29.6575 119.964C29.0124 121.862 28.3616 123.759 27.6543 125.85C27.2299 125.254 26.9187 124.816 26.5961 124.373ZM19.3416 127.248C19.9301 126.373 20.745 125.765 21.7749 125.538C22.1314 125.458 22.7086 125.515 22.8897 125.742C23.0764 125.981 22.9293 126.503 22.884 126.895C22.8614 127.066 22.7255 127.225 22.4935 127.662C21.9899 127.98 21.2939 128.52 20.5187 128.867C20.1904 129.014 19.568 128.878 19.2737 128.634C18.821 128.248 19.053 127.685 19.353 127.248L19.3416 127.248ZM28.1862 140.184C28.1126 140.121 28.0391 140.064 27.9712 140.002C29.052 137.837 30.8345 136.428 33.064 135.514C31.44 137.07 29.8103 138.627 28.1862 140.184ZM78.5657 89.7176C77.7339 88.6836 76.67 87.8314 75.6571 86.8543C77.4057 84.7749 79.1485 82.707 80.9933 80.5197C82.1194 84.0989 81.9666 89.0756 80.6594 93.0866C79.9577 91.9333 79.3805 90.7345 78.5657 89.7233L78.5657 89.7176ZM96.9112 105.341C98.224 105.045 99.5595 104.778 100.821 104.33C105.286 102.745 109.728 101.091 114.176 99.4665C114.385 99.387 114.606 99.3245 114.9 99.387C114.674 99.5915 114.459 99.8131 114.216 99.9949C109.123 103.796 103.407 106.329 97.3696 108.176C94.9307 108.92 92.5201 108.784 90.1434 107.784C87.614 106.716 85.1637 105.5 82.6852 104.029C82.9625 103.04 82.9738 102.097 83.6698 101.29C83.9415 101.415 84.2018 101.489 84.4111 101.637C86.4539 103.057 88.6891 104.063 91.0092 104.915C92.9445 105.625 94.9024 105.79 96.9056 105.341L96.9112 105.341ZM81.395 103.432C80.5745 106.091 80.0652 108.852 79.4767 111.579C79.1882 112.914 79.2164 114.266 79.5843 115.601C80.218 117.913 82.0005 119.385 84.3828 119.277C85.8032 119.209 87.2405 118.908 88.6099 118.493C92.2088 117.402 95.7738 116.186 99.3558 115.027C99.6444 114.936 99.9443 114.885 100.459 114.766C100.199 115.073 100.108 115.243 99.9669 115.34C96.3284 117.783 92.5767 120.032 88.3779 121.356C87.0707 121.765 85.6391 121.998 84.2753 121.941C81.1064 121.805 78.8656 120.135 77.6433 117.192C77.2359 116.209 76.953 115.158 76.7266 114.113C76.6248 113.647 76.7436 113.096 76.8907 112.624C77.7961 109.738 78.7468 106.863 79.6635 103.977C80.3878 101.711 81.0838 99.4381 81.0782 97.0179C81.0782 96.66 81.2309 96.2964 81.3045 95.9385C81.8477 93.3876 82.4815 90.8595 82.9059 88.2916C83.3699 85.4908 83.0361 82.7013 82.2382 79.9857C82.0062 79.2017 82.0798 78.5881 82.5155 77.895C83.302 76.6395 83.9754 75.3214 84.8469 73.7648C85.1864 74.7419 85.5146 75.4919 85.707 76.2816C86.1484 78.1166 86.0974 79.9516 85.7466 81.8207C85.0789 85.434 84.5413 89.0756 83.9641 92.7116C83.3869 96.3532 82.4815 99.904 81.395 103.432ZM86.5614 74.6283C86.4879 74.3386 86.4935 73.975 86.6011 73.6909C86.9406 72.7876 87.3423 71.907 87.8573 70.6969C89.0286 73.2592 88.3779 75.4066 87.4838 77.7871C87.1217 76.5713 86.8104 75.6055 86.5558 74.6226L86.5614 74.6283ZM91.858 71.4923C91.0488 77.3666 89.7416 83.1274 87.9195 88.7631C87.0085 91.5867 85.8824 94.3364 84.6205 97.0463C84.6148 96.8702 84.5696 96.6884 84.6035 96.5237C85.4297 91.848 86.2502 87.1724 87.1103 82.4968C87.2235 81.8662 87.5461 81.2753 87.7668 80.6674C88.4062 78.9233 89.1701 77.2133 89.6511 75.4237C90.1887 73.4296 89.9906 71.4298 88.7457 69.6743C88.5024 69.3334 88.0384 68.9017 87.7102 68.9301C87.382 68.9585 86.9802 69.4527 86.8104 69.8334C86.386 70.7935 86.0805 71.8104 85.6561 72.9808C85.0336 71.9184 85.7862 71.1003 85.6447 70.2765C85.4976 69.413 85.3675 68.5267 85.0732 67.7086C84.7846 66.8905 84.3036 66.1349 83.9132 65.3736C85.8598 64.0556 87.8516 62.7091 89.9397 61.3002C90.0812 61.5161 90.2962 61.7945 90.4546 62.1013C92.0334 65.0612 92.2994 68.2199 91.8523 71.4809L91.858 71.4923ZM97.7374 69.6459C99.5482 72.2081 101.834 74.2079 104.573 75.6964C105.993 76.469 107.555 76.6849 109.145 76.7872C110.996 76.9065 112.846 77.0655 114.697 77.2246C115.047 77.253 115.398 77.3666 115.766 77.628C115.489 77.7018 115.217 77.8211 114.934 77.8382C112.337 77.9916 109.745 78.1393 107.148 78.2643C105.609 78.3381 104.205 77.8496 102.955 76.9803C99.3728 74.4806 96.1982 71.5718 94.1045 67.6518C93.6744 66.8394 93.4255 65.9304 93.069 65.0782C92.3899 63.4534 91.6996 61.8399 90.9866 60.1696C92.3729 58.3744 93.8385 56.4712 95.3947 54.46C96.7698 56.278 97.8393 58.1301 97.6469 60.4594C97.5676 61.3854 97.3809 62.3001 97.2281 63.2205C97.081 64.0954 96.9056 64.9589 96.7698 65.8338C96.5604 67.2371 96.9112 68.4869 97.7374 69.6573L97.7374 69.6459ZM101.902 66.686C103.266 68.8903 105.213 70.1799 107.827 70.2936C109.264 70.356 110.702 70.2992 112.139 70.2822C114.085 70.2538 116.032 70.214 117.99 70.1799C117.973 70.3504 117.99 70.4867 117.95 70.4981C114.131 72.032 110.204 72.6853 106.101 71.9866C103.628 71.5662 101.438 70.481 99.3332 69.1744C98.3089 68.5381 97.8902 67.5779 98.0317 66.436C98.2297 64.8794 98.5466 63.3341 98.8182 61.7831C98.9371 61.7604 99.0559 61.7377 99.1747 61.7093C99.7915 62.8341 100.414 63.9647 101.031 65.0896C101.319 65.6179 101.58 66.169 101.897 66.6803L101.902 66.686ZM105.399 53.0227C104.703 54.5453 104.036 56.0848 103.498 57.6699C101.806 62.6353 105.105 64.7317 108.449 65.0555C110.464 65.2487 112.427 64.868 114.334 64.209C114.81 64.0442 115.291 63.8851 115.789 63.7204C115.789 63.834 115.806 63.9022 115.789 63.9249C113.231 65.9872 110.288 67.0269 107.035 66.8394C105.094 66.7258 103.555 65.4588 102.366 64.0272C101.285 62.7205 100.437 61.1809 99.684 59.6526C99.3388 58.9539 99.3614 58.0221 99.3954 57.2041C99.4237 56.4712 99.6783 55.7497 99.8707 55.0282C100.097 54.176 100.38 53.3352 100.601 52.4773C101.24 49.9605 101.71 47.4438 100.216 45.0804C102.236 43.8135 104.103 42.6488 105.999 41.4614C107.187 45.3133 107.159 49.1992 105.411 53.0284L105.399 53.0227ZM98.2806 56.2155C97.4545 55.0679 96.8263 54.1873 96.2209 53.3465C97.2055 50.8809 98.1618 48.4891 99.1238 46.0689C99.7236 47.0461 100.046 48.1425 99.8141 49.3129C99.3671 51.5285 98.8352 53.7272 98.2806 56.2098L98.2806 56.2155ZM124.922 51.5456C121.821 54.0339 116.971 54.2158 113.995 51.9603C112.303 50.6764 111.907 49.0913 112.829 47.1654C113.129 46.5348 113.44 45.9041 113.836 45.3303C115.211 43.3419 115.579 41.1603 115.172 38.8083C115.138 38.6265 115.121 38.4447 115.087 38.2232C116.157 37.888 117.203 37.5585 118.414 37.1778C115.404 44.5577 118.386 48.8925 124.922 51.5456ZM132.391 32.7237C131.509 33.4737 130.564 34.1554 129.647 34.8656C128.804 35.5246 127.944 36.1552 127.134 36.854C126.393 37.496 126.274 37.9789 126.755 38.814C127.168 39.5298 127.661 40.2627 128.294 40.7683C129.568 41.7796 130.948 42.6431 132.301 43.5521C133.229 44.1714 134.219 44.6997 135.108 45.3701C139.312 48.5345 143.986 49.4492 149.085 48.3868C149.169 48.3698 149.266 48.3868 149.735 48.4096C148.909 48.9038 148.372 49.3072 147.777 49.5628C146.431 50.148 145.005 50.3014 143.545 50.1991C141.53 50.0628 139.578 49.5969 137.75 48.7675C134.915 47.4835 132.114 46.12 129.33 44.7168C127.48 43.7851 126.138 42.3477 125.476 40.3138C125.369 39.9786 124.967 39.7457 124.701 39.4617C124.424 39.74 123.988 39.9673 123.892 40.2968C123.145 42.8818 123.354 45.3247 125.38 47.2904C126.308 48.188 127.361 48.9947 128.464 49.6708C131.311 51.4263 134.055 53.3749 137.184 54.6248C137.218 54.6362 137.23 54.7043 137.331 54.9145C136.528 54.6532 135.826 54.4828 135.17 54.1987C131.237 52.5227 127.27 50.9093 123.4 49.097C119.065 47.0688 117.633 42.9897 119.603 38.5697C120.146 37.3426 120.949 36.2347 121.623 35.0701C122.042 34.3486 122.483 33.6327 122.834 32.8715C123.004 32.4965 122.981 32.0363 123.049 31.6159C122.941 31.5591 122.834 31.4966 122.726 31.4398C122.296 31.8204 121.742 32.1272 121.464 32.5988C120.265 34.6156 118.38 35.6382 116.292 36.3995C116.072 36.479 115.862 36.5699 115.636 36.6381C113.831 37.1778 113.87 37.4619 114.08 38.9958C114.385 41.2285 113.712 43.2283 112.501 45.0861C112.071 45.7451 111.68 46.4495 111.392 47.1767C110.639 49.0572 111.035 50.7502 112.393 52.216C113.955 53.8976 115.896 54.7839 118.177 54.9316C118.494 54.9543 118.81 54.9657 119.173 54.9884C116.892 56.795 114.351 56.795 112.207 55.0395C110.668 53.7783 109.423 52.2841 108.687 50.4264C108.489 49.9208 108.33 49.3356 108.381 48.8072C108.744 44.7679 109.162 40.7342 109.564 36.6949C109.575 36.5586 109.615 36.4222 109.655 36.195C109.977 36.1211 110.317 36.0132 110.673 35.962C113.701 35.5359 116.411 34.3656 118.703 32.3545C120.966 30.3661 123.552 29.315 126.54 29.1276C127.604 29.0594 128.651 28.8321 129.839 28.6617C130.648 29.832 131.854 30.6444 133.359 30.9796C133.308 31.8261 132.861 32.3147 132.374 32.7237L132.391 32.7237ZM107.612 42.5182C107.419 42.0182 107.284 41.6546 107.142 41.2967C107.006 40.9558 106.871 40.6149 106.684 40.1604C107.091 39.581 107.453 39.0526 107.821 38.5356C108.065 39.4276 108.008 40.757 107.606 42.5182L107.612 42.5182ZM176.512 32.6044C177.961 35.5984 179.766 38.3709 181.764 41.007C186.721 47.5517 189.16 55.0566 190.206 63.0955C190.41 64.6578 190.563 66.2258 190.755 67.9188C189.952 68.0324 189.284 68.129 188.48 68.2426C187.615 59.7776 184.157 52.375 180.094 45.1997C179.924 44.8929 179.675 44.6316 179.24 44.4782C179.477 45.0122 179.692 45.5576 179.958 46.0803C182.629 51.3808 184.983 56.8064 186.308 62.6239C186.596 63.8965 186.862 65.1748 187.1 66.4644C187.247 67.2768 187.468 68.0722 187.122 68.9357C186.97 69.3164 187.202 69.8447 187.23 70.3106C187.343 72.3104 187.513 74.3102 187.541 76.3099C187.564 77.9575 186.772 79.2642 185.413 80.1902C182.737 82.0196 179.811 83.3035 176.688 84.1273C176.563 84.1614 176.416 84.1159 176.246 84.1046C176.224 83.0649 176.212 82.048 176.178 81.0253C176.161 80.5481 176.088 79.98 175.522 79.9573C175.188 79.9459 174.752 80.2413 174.52 80.5311C173.553 81.7185 172.647 82.9513 171.674 84.2295C171.17 83.741 171.369 83.2581 171.357 82.8376C171.21 76.9178 171.233 70.9867 170.893 65.0725C170.474 57.7381 169.088 50.54 167.04 43.4783C166.768 42.5409 166.434 41.6205 166.129 40.7058C166.938 39.8537 167.724 39.0299 168.658 38.0527C169.886 41.7228 171.057 45.2792 171.889 48.9436C172.732 52.6364 173.225 56.3803 173.524 60.1526C173.819 63.8851 173.864 67.6404 174.322 71.3616C174.419 71.3616 174.515 71.3673 174.611 71.373C174.662 71.0776 174.747 70.7821 174.752 70.481C174.854 64.2772 174.962 58.0676 173.955 51.9092C173.157 47.0006 171.685 42.2909 169.688 37.7403C169.58 37.4903 169.495 37.2346 169.348 36.854C169.903 36.5642 170.412 36.2915 171.046 35.962C171.436 36.8085 171.81 37.5528 172.132 38.314C175.692 46.7052 177.395 55.5054 177.916 64.5669C178.074 67.3166 178.204 70.0663 178.368 72.8103C178.408 73.4239 178.544 74.0375 178.68 74.9521C179.647 72.6513 179.325 61.4877 178.25 54.7895C177.14 47.8698 175.765 43.7226 171.929 35.7348C173.626 34.9906 175.199 34.0361 176.122 32.1897C176.314 32.3886 176.461 32.4851 176.529 32.6158L176.512 32.6044ZM166.281 16.6403C169.45 19.157 172.466 21.884 174.549 25.4575C176.416 28.6731 175.103 32.6669 171.697 34.0816C171.267 34.2577 170.825 34.4111 170.39 34.5588C169.06 35.0076 168.024 35.803 167.306 37.0358C167.028 37.513 166.683 37.9675 166.304 38.3765C165.263 39.5071 164.431 39.6775 163.073 38.9844C162.162 38.5243 161.273 38.0016 160.419 37.4392C158.659 36.2745 156.78 35.3712 154.749 34.8031C151.693 33.9452 148.79 32.6954 145.944 31.3091C142.984 29.8718 139.878 29.3207 136.607 29.5196C135.368 29.5934 134.1 29.8377 132.906 29.2412C131.99 28.7867 131.084 28.3151 130.53 27.23C134.089 23.0089 133.297 18.4298 131.543 13.6008C130.92 14.1121 131.045 14.6405 131.09 15.1063C131.209 16.3619 131.367 17.6117 131.514 18.8616C131.865 21.8556 131.05 24.4803 129.126 26.7869C128.736 27.2584 128.323 27.4857 127.723 27.5482C125.974 27.73 124.226 27.9629 122.415 28.1845C122.387 23.1737 119.127 19.7252 116.343 16.0324C116.179 15.8108 115.941 15.6404 115.721 15.4699C115.619 15.3904 115.472 15.362 115.285 15.2825C115.093 15.9301 115.5 16.3676 115.766 16.8107C116.536 18.089 117.384 19.3161 118.137 20.6001C118.89 21.884 119.62 23.185 120.253 24.5371C120.604 25.287 120.774 26.1279 120.944 26.946C121.091 27.6618 120.932 28.3549 120.395 28.8889C117.102 32.1613 113.378 34.5588 108.534 34.6099C108.444 33.7521 108.41 32.8658 108.24 32.0079C107.68 29.1957 106.271 26.821 103.996 25.1393C101.382 23.2077 98.5919 21.5091 95.8644 19.7365C95.5362 19.5263 95.1174 19.4525 94.5912 19.5434C94.908 19.8502 95.1966 20.1967 95.5475 20.4523C97.2677 21.7249 99.0389 22.9407 100.731 24.2531C101.942 25.1905 103.147 26.1676 104.194 27.2812C106.271 29.4798 107.176 32.1272 107.097 35.1894C107.029 38.03 105.331 39.7912 103.373 41.3705C102.27 42.2625 100.912 42.842 99.5652 43.6203C99.4237 43.1885 99.3105 42.9045 99.237 42.609C98.6541 40.2627 97.1376 38.5697 95.3268 37.1381C92.2485 34.7008 88.7174 33.1726 84.9374 32.2238C84.2923 32.0647 83.6076 32.0647 82.7248 31.9682C83.0361 32.7351 83.5114 32.7578 83.9075 32.9283C86.4596 34.0418 89.0343 35.1212 91.5411 36.3256C93.4481 37.246 95.0495 38.6208 96.3736 40.2741C97.6242 41.8421 98.1788 43.5465 97.6073 45.6087C96.9395 48.0119 96.0058 50.2787 94.7213 52.4034C91.892 57.0904 88.508 61.232 83.4944 63.7715C82.7248 64.1635 82.1533 64.2317 81.3215 63.8397C79.2674 62.8739 77.1284 62.0728 75.012 61.2377C74.5254 61.0502 73.9878 60.8343 73.3314 61.1525C73.8407 61.9251 74.5989 62.1978 75.2723 62.533C76.9813 63.3795 78.7241 64.1522 80.4331 64.993C81.661 65.5952 82.7079 66.3963 83.3813 67.6632C84.264 69.3278 84.1961 70.9753 83.4718 72.6456C82.0571 75.9123 80.3086 78.9915 77.9828 81.69C75.4025 84.684 72.7089 87.5871 70.1286 90.5811C68.2442 92.7684 66.4391 95.0182 64.634 97.2736C62.3535 100.12 59.7618 102.642 56.989 105C55.7894 106.023 54.6237 107.096 53.4637 108.17C51.4718 110.005 49.9949 112.204 49.2253 114.806C48.5576 117.073 47.3636 118.93 45.5811 120.459C42.7744 122.867 40.3128 125.583 38.2983 128.992C39.2829 125.759 40.5958 123.805 42.9668 121.833C43.6458 121.271 44.3531 120.72 44.9303 120.061C46.1639 118.658 46.5996 117.021 45.7678 115.266C44.936 113.499 43.3798 112.868 41.5238 112.903C39.7922 112.937 38.2474 113.567 36.8553 114.55C34.9314 115.908 33.3809 117.629 32.153 119.646C31.9492 119.981 31.8361 120.368 31.6776 120.737C32.2775 121.072 32.4359 120.663 32.6736 120.413C33.9637 119.078 35.2143 117.698 36.5781 116.442C37.7551 115.357 39.1924 114.635 40.7995 114.425C41.5181 114.334 42.316 114.323 42.995 114.533C44.8624 115.118 45.5528 117.209 44.4833 119.004C44.1098 119.629 43.5949 120.254 42.995 120.635C40.1996 122.402 38.519 125.032 37.11 127.918C35.5425 131.134 33.1772 133.565 30.1837 135.576C27.5694 137.332 24.9268 139.042 22.2842 140.752C20.1056 142.166 18.3853 144.047 16.8518 146.121C16.5519 146.53 16.269 146.95 15.8106 147.268C16.2407 146.354 16.6707 145.439 17.1008 144.524C17.0216 144.45 16.948 144.376 16.8688 144.297C16.6141 144.399 16.2859 144.428 16.1105 144.609C15.1825 145.587 14.2941 146.598 13.383 147.598C12.8568 148.171 12.3248 148.74 11.7363 149.251C13.5132 145.649 16.02 142.655 19.0983 140.121C20.9261 138.616 22.7765 137.127 24.5759 135.588C25.4191 134.866 26.2113 134.076 26.9413 133.236C27.8637 132.179 28.1523 130.861 28.2598 129.48C28.3333 128.515 28.4805 127.543 28.7294 126.606C29.8442 122.441 31.5475 118.516 33.6638 114.772C33.9807 114.209 34.4278 113.726 34.8295 113.215C35.22 112.715 35.6387 112.238 36.165 111.596C35.2539 111.437 34.7843 111.732 34.2637 112.175C30.9873 114.971 28.6502 118.493 26.5565 122.197C26.3528 122.561 26.1264 122.919 25.9057 123.271C25.8605 123.345 25.7643 123.39 25.6454 123.487C25.4644 123.413 25.2493 123.339 25.0513 123.237C24.6835 123.044 24.327 122.828 23.8799 122.578C24.1233 121.714 24.3609 120.873 24.5929 120.032C24.7174 119.584 24.8532 119.135 24.9324 118.68C25.1248 117.567 24.9664 117.368 23.6592 117.118C24.4684 115.51 25.2097 113.908 26.0585 112.374C29.035 106.994 32.0002 101.608 35.0785 96.2907C36.663 93.5524 38.553 90.9902 40.16 88.2632C42.2368 84.7352 44.1777 81.1219 46.1526 77.5314C47.7653 74.5942 49.2762 71.5946 50.9568 68.6971C52.6092 65.8509 54.7482 63.4136 57.453 61.4877C58.7998 60.5276 60.2202 60.0333 61.8895 60.2037C62.5968 60.2776 63.3607 60.5162 64.0341 60.0106C63.5475 58.9652 63.2645 58.8743 59.7675 58.5846C60.4522 57.2382 61.2897 55.9428 61.782 54.5282C62.6421 52.0682 63.3042 49.5458 64.0115 47.0347C64.8773 43.9896 65.5789 40.8933 66.9484 38.013C67.8707 36.0643 68.9855 34.252 70.4681 32.6669C71.9167 31.116 73.6426 30.2695 75.7703 30.2922C76.7436 30.3036 77.7225 30.349 78.6958 30.332C79.1202 30.3206 79.539 30.1899 80.0935 30.0877C79.0523 29.0651 78.5431 28.9628 74.0953 28.7526C74.1293 28.6276 74.1236 28.4799 74.1915 28.406C78.4865 23.6338 82.8097 18.89 87.597 14.595C90.4603 12.0328 93.5952 9.87396 97.064 8.24913C98.4843 7.58444 99.9952 7.06744 101.517 6.68112C103.583 6.16412 105.575 6.5959 107.431 7.63555C108.144 8.03324 108.879 8.40251 109.655 8.80587C109.734 8.04081 108.698 6.88943 106.548 5.35171C108.031 4.94834 109.457 4.56771 110.871 4.17004C114.408 3.18719 117.922 2.07366 121.606 1.75552C122.902 1.6419 124.214 1.51121 125.499 1.63621C128.419 1.92027 130.858 3.07923 132.272 5.86302C132.708 6.72656 133.427 6.82882 133.851 6.00504C134.762 4.2382 136.285 4.04504 137.892 4.34615C140.625 4.85746 143.386 5.37444 146.034 6.2039C153.363 8.51046 160.215 11.8396 166.264 16.6403L166.281 16.6403Z" fill="#ED3237"/>
<path d="M75.657 66.0268C76.0135 66.1802 76.2907 66.3223 76.585 66.4245C78.9503 67.254 79.7143 68.6118 79.1371 71.0661C78.99 71.6967 78.7749 72.3216 78.5259 72.9181C77.7167 74.8668 76.6416 76.6791 75.2835 78.2812C73.1784 80.7639 71.0621 83.2466 68.8269 85.6156C64.3905 90.3253 59.9993 95.0691 56.0099 100.171C53.7464 103.068 51.5282 106.005 49.3044 108.931C49.0441 109.272 48.863 109.676 48.6479 110.05C48.7385 110.124 48.8234 110.193 48.9139 110.266C49.2704 109.943 49.6665 109.653 49.9834 109.295C51.2453 107.863 52.4846 106.415 53.7238 104.96C56.5305 101.665 59.2693 98.3131 62.1553 95.0919C65.8787 90.9332 69.7493 86.9053 73.5123 82.7807C75.8663 80.1958 78.0789 77.4915 79.5841 74.293C80.2858 72.8102 80.8177 71.2649 80.7838 69.5946C80.7385 67.3903 79.1144 65.6348 76.9981 65.4758C76.5171 65.4417 75.9965 65.3678 75.657 66.0268Z" fill="#ED3237"/>
<path d="M53.571 69.5265C54.301 68.2027 55.0196 66.8677 55.744 65.5382C55.6421 65.4701 55.5459 65.3962 55.444 65.328C55.1215 65.686 54.765 66.0155 54.4877 66.4018C51.1491 71.0717 48.3424 76.0542 45.6658 81.1332C43.3853 85.4565 41.0709 89.7686 38.5641 93.9613C36.1252 98.0347 33.3807 101.926 30.84 105.937C29.2216 108.494 27.7164 111.119 26.1772 113.721C25.9112 114.175 25.6283 114.664 25.9565 115.396C26.2338 115.033 26.4318 114.806 26.5959 114.556C28.6953 111.369 30.7551 108.147 32.8998 104.989C37.9134 97.6314 42.5592 90.0583 46.6221 82.1217C48.8064 77.8551 51.2509 73.7249 53.571 69.5265Z" fill="#ED3237"/>
<path d="M143.697 7.57876C142.967 7.37992 142.215 7.12425 141.355 7.60147C142.005 7.87985 142.645 8.17528 143.307 8.42525C149.214 10.6523 154.669 13.7201 159.842 17.3277C163.825 20.1001 167.526 23.1964 170.972 26.6165C171.51 27.1505 172.03 27.7413 172.908 27.8777C172.766 27.3891 172.551 26.9573 172.268 26.5824C170.401 24.1167 168.188 21.9863 165.789 20.066C161.386 16.538 156.712 13.4077 151.699 10.8057C149.135 9.47628 146.493 8.34003 143.703 7.57307L143.697 7.57876Z" fill="#ED3237"/>
<path d="M59.6484 80.6731C59.4164 80.9401 59.1561 81.1844 58.9524 81.4685C53.6898 88.6779 48.4329 95.8874 43.1986 103.108C43.0571 103.301 43.159 103.676 43.1476 103.966C43.4306 103.909 43.8267 103.955 43.9851 103.784C44.6755 103.034 45.3545 102.262 45.9431 101.427C50.0852 95.5295 54.2161 89.6267 58.3243 83.7069C58.9468 82.8093 59.4164 81.8037 59.9597 80.8436C59.8578 80.7868 59.756 80.7299 59.6541 80.6731L59.6484 80.6731Z" fill="#ED3237"/>
<path d="M27.1844 134.946C26.8506 135.571 26.3187 136.173 26.5394 137.235C26.9072 137.025 27.2071 136.951 27.3429 136.764C27.8918 136.014 28.4067 135.235 28.9047 134.451C31.4624 130.435 34.0937 126.481 38.0322 123.634C38.185 123.526 38.3717 123.424 38.4509 123.276C38.5641 123.066 38.5981 122.811 38.7452 122.316C38.0548 122.521 37.5116 122.549 37.1325 122.811C35.9554 123.629 34.7218 124.413 33.7316 125.424C31.0154 128.208 29.0009 131.52 27.1788 134.94L27.1844 134.946Z" fill="#ED3237"/>
<path d="M47.7595 81.2979C47.5332 81.724 47.2276 82.1615 47.5728 82.7012C48.812 81.8092 57.9056 66.7484 58.3526 64.919C58.2734 64.8565 58.1998 64.7883 58.1206 64.7258C57.7075 65.2485 57.2548 65.7485 56.887 66.3052C54.9687 69.214 53.0108 72.1057 51.183 75.0713C49.9438 77.0881 48.8856 79.2186 47.7595 81.2979Z" fill="#ED3237"/>
<path d="M68.1931 40.5298C69.1947 39.189 70.1227 37.7971 71.1752 36.5018C72.3692 35.0247 74.0159 34.485 75.8776 34.5304C76.2454 34.5418 76.6246 34.5873 76.9867 34.5304C77.1678 34.502 77.4281 34.2975 77.4621 34.1328C77.5017 33.9566 77.3659 33.6328 77.2131 33.5533C76.8113 33.3431 76.3643 33.1442 75.9229 33.0931C73.5858 32.809 71.5261 33.5362 70.0888 35.3656C68.8382 36.9563 67.8875 38.7913 66.852 40.5525C66.6426 40.9104 66.6596 41.399 66.5747 41.8308C66.7162 41.8876 66.8633 41.9444 67.0048 42.0012C67.4009 41.5126 67.8196 41.0411 68.1931 40.5355L68.1931 40.5298Z" fill="#ED3237"/>
<path d="M116.202 4.13601C115.839 4.24396 115.517 4.48256 115.177 4.66436C115.223 4.81207 115.262 4.9541 115.308 5.10181C115.8 5.06204 116.292 5.03363 116.779 4.97682C118.714 4.74389 120.644 4.48256 122.585 4.27236C124.452 4.07351 126.285 4.18714 128.034 5.01659C128.306 5.14726 128.668 5.07908 128.99 5.10181C129.036 4.99386 129.086 4.88025 129.132 4.7723C128.764 4.39166 128.441 3.94284 128.017 3.64173C127.032 2.94863 125.867 2.77252 124.695 2.7782C121.792 2.7782 118.974 3.31791 116.202 4.14168L116.202 4.13601Z" fill="#ED3237"/>
<path d="M136.443 18.2138C135.775 21.3271 135.809 24.6109 134.145 27.4855C134.027 27.6958 134.191 28.2866 134.394 28.4116C134.609 28.5423 135.068 28.3945 135.356 28.2412C135.577 28.1219 135.741 27.8321 135.837 27.5821C136.126 26.8549 136.516 26.1278 136.613 25.3665C136.946 22.6963 137.19 20.0148 137.439 17.3389C137.473 16.9469 137.354 16.5379 137.303 16.1345C137.173 16.1232 137.048 16.1118 136.918 16.1004C136.76 16.8049 136.59 17.515 136.437 18.2195L136.443 18.2138Z" fill="#ED3237"/>
<path d="M120.259 15.271C121.125 18.2593 122.036 21.2362 122.845 24.2359C123.071 25.071 122.975 25.9914 123.128 26.8549C123.179 27.139 123.547 27.3662 123.767 27.6162C124.016 27.3833 124.378 27.1958 124.492 26.9117C124.616 26.5936 124.571 26.1732 124.514 25.8153C124.407 25.1278 124.322 24.4234 124.09 23.77C122.969 20.6227 121.815 17.4866 120.655 14.3506C120.519 13.9813 120.259 13.6518 120.061 13.3053C119.959 13.345 119.857 13.3905 119.75 13.4302C119.919 14.0438 120.083 14.6574 120.265 15.2653L120.259 15.271Z" fill="#ED3237"/>
<path d="M68.1195 44.9098C68.0233 44.8814 67.9215 44.8587 67.8253 44.8303C67.6272 45.1143 67.3839 45.37 67.2424 45.6768C65.8108 48.8128 64.7469 52.0852 63.8925 55.4257C63.8076 55.7666 63.9321 56.1643 63.9604 56.5393C64.1018 56.562 64.2433 56.5847 64.3791 56.6074C64.5319 56.3915 64.7469 56.1927 64.8261 55.9484C65.9522 52.6022 67.0727 49.2559 68.1591 45.8984C68.2553 45.6029 68.1365 45.2393 68.1139 44.9041L68.1195 44.9098Z" fill="#ED3237"/>
<path d="M109.077 21.5318C108.992 21.3897 108.806 21.3102 108.664 21.2022C108.585 21.2647 108.506 21.3272 108.432 21.3897C108.749 22.151 109.049 22.9236 109.383 23.6792C110.537 26.2812 111.765 28.8548 111.816 31.7863C111.822 32.2522 112.042 32.6385 112.54 32.6555C113.123 32.6726 113.384 32.2181 113.355 31.7238C113.316 30.9853 113.208 30.2354 113.016 29.5195C112.246 26.5937 110.611 24.0826 109.077 21.5261L109.077 21.5318Z" fill="#ED3237"/>
<path d="M87.014 41.45C86.9631 41.5182 86.9121 41.5863 86.8612 41.6545C87.2177 42.0408 87.5799 42.4215 87.9364 42.8078C89.4529 44.4326 90.9977 46.0347 92.4633 47.6993C93.0066 48.3186 93.3744 49.0912 93.8044 49.807C94.0478 50.2104 94.359 50.4661 94.8287 50.2729C95.4115 50.0343 95.3493 49.523 95.1456 49.0912C94.8909 48.5515 94.5684 48.0288 94.2119 47.5459C92.4237 45.1143 89.9848 43.4043 87.6195 41.6204C87.461 41.5011 87.2177 41.5011 87.014 41.4443L87.014 41.45Z" fill="#ED3237"/>
<path d="M84.8467 19.3957C83.5565 20.5887 82.2606 21.7818 81.027 23.0373C80.2801 23.7929 79.635 24.6508 78.9729 25.4859C78.7126 25.8154 78.4863 26.2018 78.9446 26.571C80.2235 26.0597 85.9841 20.1911 86.4367 18.8446C85.6898 18.6685 85.2428 19.0264 84.8523 19.39L84.8467 19.3957Z" fill="#ED3237"/>
<path d="M104.596 21.5204C104.556 21.4749 104.437 21.492 104.171 21.4579C104.403 21.8897 104.567 22.2476 104.782 22.5657C105.558 23.7247 106.355 24.8666 107.131 26.0312C108.381 27.9117 109.332 29.9172 109.643 32.184C109.654 32.2749 109.671 32.3658 109.688 32.4624C109.785 32.968 110.011 33.3543 110.594 33.3089C111.092 33.2691 111.301 32.843 111.137 32.0931C111.018 31.5477 110.826 31.0194 110.633 30.4967C109.36 27.0084 106.961 24.2758 104.596 21.5261L104.596 21.5204Z" fill="#ED3237"/>
<path d="M96.747 32.9283L96.3961 33.093C96.5715 33.5873 96.696 34.1043 96.928 34.5702C97.6241 35.9848 98.3823 37.3653 99.0727 38.7799C99.4575 39.5696 99.7404 40.4048 100.069 41.2229C100.255 41.6887 100.55 42.0921 101.099 41.9103C101.625 41.7398 101.71 41.2456 101.579 40.7513C101.461 40.3082 101.342 39.8366 101.11 39.4503C99.9441 37.5073 98.7501 35.5814 97.5392 33.6668C97.3524 33.3714 97.0186 33.1726 96.7526 32.9283L96.747 32.9283Z" fill="#ED3237"/>
<path d="M86.4821 43.5635C86.4255 43.6374 86.3689 43.7056 86.3123 43.7794C86.4368 44.0124 86.5387 44.268 86.6914 44.4839C88.6267 47.2052 90.7714 49.7958 91.9993 52.9659C92.1747 53.4204 92.5709 53.6704 92.9896 53.4034C93.2273 53.25 93.4649 52.7387 93.38 52.5001C93.1254 51.7615 92.8312 50.9889 92.3558 50.3867C90.6639 48.2335 88.8983 46.1428 87.1441 44.0408C86.9744 43.8362 86.7028 43.7226 86.4821 43.5635Z" fill="#ED3237"/>
<path d="M65.3694 63.9361C66.4219 64.1747 67.3104 64.9815 68.8891 64.9758C68.6571 64.6236 68.5779 64.4418 68.4478 64.3111C68.0573 63.9248 67.6951 63.4476 67.2255 63.2089C65.16 62.1636 62.9532 61.6637 60.6387 61.7546C59.9484 61.783 59.1392 61.7659 58.7714 62.8169C59.954 62.9362 61.0462 62.9874 62.1213 63.1749C63.2134 63.3623 64.2829 63.6862 65.3694 63.9361Z" fill="#ED3237"/>
<path d="M59.7107 66.9415C59.2693 67.0608 58.9977 67.2369 58.8223 67.4869C57.6283 69.2026 56.406 70.9127 55.2799 72.6739C54.533 73.8499 53.9162 75.1111 53.2598 76.3382C53.09 76.6564 52.858 77.0029 53.4635 77.4233C53.6785 77.2188 53.9218 77.0654 54.0576 76.8439C55.8797 73.8669 57.6905 70.89 59.4843 67.896C59.6428 67.6289 59.6371 67.2654 59.7107 66.9415Z" fill="#ED3237"/>
<path d="M85.6729 35.2917C85.5936 35.3939 85.5144 35.4962 85.4409 35.6041C86.9517 36.5017 88.4626 37.4051 89.9791 38.2913C92.2256 39.6037 94.1779 41.2058 95.2757 43.6601C95.3719 43.8703 95.4568 44.1486 95.6322 44.2395C95.8868 44.3702 96.2829 44.4952 96.4867 44.3816C96.6847 44.268 96.8035 43.8532 96.7979 43.5748C96.7979 43.3249 96.6111 43.0465 96.4414 42.8363C95.8246 42.0807 95.2191 41.3137 94.5457 40.6092C92.5708 38.5413 89.9395 37.513 87.5006 36.1836C86.9065 35.8598 86.284 35.5871 85.6729 35.2917Z" fill="#ED3237"/>
<path d="M88.2136 38.9503C88.2759 39.7627 88.7399 39.9672 89.0511 40.2512C91.2806 42.3362 93.7252 44.2451 94.9418 47.1937C94.9588 47.2391 94.9814 47.2789 95.0097 47.3187C95.27 47.6709 95.5869 47.9777 96.0566 47.7561C96.5772 47.5061 96.6394 47.046 96.3791 46.5801C96.0623 46.0177 95.7171 45.4609 95.3266 44.9496C93.8044 42.9725 91.7107 41.6375 89.815 40.0865C89.3737 39.7229 88.8813 39.4218 88.2193 38.9559L88.2136 38.9503Z" fill="#ED3237"/>
<path d="M139.329 20.5944C138.638 22.7021 137.959 24.8099 137.331 26.9346C137.246 27.213 137.371 27.7357 137.58 27.8663C137.79 28.0027 138.406 27.9232 138.52 27.7357C138.921 27.0767 139.312 26.3608 139.47 25.6109C139.866 23.7532 140.138 21.867 140.432 19.9922C140.489 19.6513 140.421 19.2934 140.41 18.9412C140.279 18.9071 140.155 18.873 140.025 18.8332C139.787 19.4184 139.521 19.9922 139.323 20.5887L139.329 20.5944Z" fill="#ED3237"/>
<path d="M161.579 21.0488C162.394 22.56 168.115 27.9515 169.631 28.4912C167.871 25.7813 165.783 23.7417 163.508 21.884C162.988 21.4579 162.462 20.8329 161.579 21.0488Z" fill="#ED3237"/>
<path d="M42.8194 117.323C42.8251 117.232 42.8307 117.141 42.8364 117.05C42.6327 116.845 42.4573 116.51 42.2196 116.459C41.5066 116.311 40.737 116.096 40.0523 116.226C37.9586 116.635 36.4307 117.982 35.1123 119.589C34.9708 119.76 34.8576 120.016 34.8689 120.226C34.8859 120.47 35.05 120.703 35.1915 121.032C37.3701 118.783 39.5713 117.004 42.8138 117.323L42.8194 117.323Z" fill="#ED3237"/>
<path d="M85.6389 48.813C85.9728 49.2277 86.284 49.6652 86.6405 50.0572C88.0382 51.6138 89.4812 53.125 90.4545 55.0112C90.5563 55.21 90.6978 55.443 90.8845 55.5395C91.0996 55.6475 91.4447 55.727 91.6315 55.6248C91.8239 55.5168 91.9654 55.1987 91.9993 54.9487C92.0276 54.7442 91.9144 54.4942 91.8012 54.2954C90.3526 51.8411 88.2306 50.0799 85.9558 48.4949C85.8483 48.5971 85.7464 48.6994 85.6389 48.8016L85.6389 48.813Z" fill="#ED3237"/>
<path d="M107.436 9.02173C107.029 8.77175 106.644 8.41953 106.203 8.30022C105.541 8.11842 104.805 7.93662 104.154 8.05025C102.332 8.36839 100.538 8.81721 98.7388 9.26035C98.4898 9.32284 98.2974 9.61258 98.0824 9.79438C98.1163 9.88528 98.156 9.97617 98.1899 10.0728C99.1858 9.94777 100.182 9.8171 101.183 9.69779C102.242 9.56712 103.3 9.36829 104.358 9.3342C105.337 9.3058 106.316 9.4535 107.295 9.52168C107.34 9.35692 107.385 9.19217 107.436 9.02741L107.436 9.02173Z" fill="#ED3237"/>
<path d="M142.101 22.0828C141.473 23.6793 140.874 25.2814 140.319 26.9005C140.24 27.1334 140.381 27.5993 140.574 27.7243C140.777 27.8606 141.275 27.8322 141.445 27.6675C141.796 27.3209 142.124 26.8778 142.254 26.4119C142.628 25.0712 142.911 23.7077 143.182 22.3442C143.256 21.9692 143.165 21.5659 143.154 21.1739C143.03 21.1454 142.899 21.1114 142.775 21.0829C142.543 21.4125 142.237 21.7136 142.096 22.0772L142.101 22.0828Z" fill="#ED3237"/>
<path d="M74.6044 74.5886C75.1589 73.2308 75.5607 71.7992 75.9002 70.3675C76.0587 69.6971 76.0191 68.9074 75.0005 68.4984C74.8703 71.606 73.5066 74.2421 72.6238 77.0486C73.7216 76.5259 74.2139 75.5431 74.6044 74.5886Z" fill="#ED3237"/>
<path d="M103.322 33.3658C103.764 34.7861 104.233 36.2007 104.686 37.621C104.828 38.0528 105.06 38.4278 105.558 38.3369C106.135 38.2346 106.225 37.7574 106.152 37.2518C106.112 36.9791 106.05 36.695 105.931 36.445C105.144 34.7577 104.341 33.0761 103.526 31.4058C103.413 31.1786 103.181 31.0081 103.005 30.815C102.892 30.8718 102.779 30.9286 102.666 30.9797C102.881 31.7751 103.073 32.5761 103.317 33.3601L103.322 33.3658Z" fill="#ED3237"/>
<path d="M100.204 32.0932C100.108 32.2296 100.057 32.2693 100.063 32.2977C100.872 34.8543 102.247 37.212 102.66 39.9049C102.689 40.098 103.209 40.4162 103.356 40.348C103.634 40.223 104.001 39.8424 103.973 39.6038C103.911 39.0186 103.719 38.4164 103.447 37.8937C102.53 36.1212 101.563 34.3771 100.601 32.6329C100.499 32.4511 100.346 32.2921 100.193 32.0932L100.204 32.0932Z" fill="#ED3237"/>
<path d="M85.4635 52.6648C86.4424 54.2896 87.427 55.9088 88.4513 57.5052C88.5644 57.6756 89.0511 57.829 89.1473 57.7438C89.3453 57.5677 89.5604 57.1473 89.4755 56.9655C89.0624 56.0906 88.621 55.2157 88.0608 54.4317C87.4214 53.5397 86.7933 52.5909 85.5483 52.1308C85.4974 52.4148 85.4182 52.5796 85.4691 52.6648L85.4635 52.6648Z" fill="#ED3237"/>
<path d="M125.516 18.9809C125.397 18.9809 125.278 18.9923 125.165 18.998C125.12 19.1627 125.035 19.3218 125.035 19.4865C125.041 21.5318 125.063 23.5713 125.08 25.6166C125.08 25.7075 125.08 25.8268 125.131 25.8836C125.306 26.0711 125.493 26.3608 125.703 26.3835C125.918 26.4062 126.24 26.2301 126.382 26.037C126.534 25.8381 126.602 25.5086 126.58 25.253C126.376 23.1339 125.957 21.0545 125.522 18.9809L125.516 18.9809Z" fill="#ED3237"/>
<path d="M158.874 34.2349C159.898 35.1609 161.052 35.9563 162.445 36.246C162.609 36.2801 162.818 36.0869 163.01 35.9904C162.495 35.07 159.349 32.6384 157.787 31.9624C157.21 33.252 158.291 33.6951 158.874 34.2292L158.874 34.2349Z" fill="#ED3237"/>
<path d="M35.6046 127.384C33.7599 128.674 32.3226 130.333 31.321 132.349C31.2361 132.52 31.4059 132.821 31.519 133.355C33.3694 131.446 34.9708 129.685 36.3063 127.373C35.8649 127.373 35.6952 127.322 35.6046 127.384Z" fill="#ED3237"/>
<path d="M113.542 24.4405C113.474 24.5087 113.412 24.5428 113.412 24.5655C113.791 26.7926 114.17 29.0253 114.589 31.2466C114.628 31.4398 114.968 31.7011 115.177 31.7125C115.392 31.7238 115.789 31.5023 115.822 31.3262C115.913 30.8489 115.992 30.2865 115.834 29.849C115.211 28.0992 114.498 26.3892 113.808 24.6621C113.768 24.5655 113.627 24.5087 113.536 24.4349L113.542 24.4405Z" fill="#ED3237"/>
<path d="M116.343 24.5313C116.224 24.5654 116.105 24.5938 115.987 24.6279C115.964 25.1506 115.873 25.6846 115.936 26.1959C116.071 27.2981 116.298 28.3889 116.473 29.491C116.552 29.9796 116.66 30.4739 117.271 30.4114C117.826 30.3489 117.984 29.883 117.984 29.3774C117.984 29.1502 117.956 28.9115 117.894 28.69C117.588 27.6219 117.294 26.5425 116.943 25.4915C116.83 25.1449 116.547 24.8552 116.343 24.537L116.343 24.5313Z" fill="#ED3237"/>
<path d="M145.48 23.9691C145.48 23.9066 145.355 23.8555 145.236 23.7532C144.608 23.9464 144.399 24.5315 144.167 25.0599C143.793 25.9064 143.471 26.7699 143.103 27.6221C142.928 28.0255 142.73 28.5083 143.256 28.6731C143.55 28.764 144.156 28.5595 144.303 28.3038C145.067 26.9744 145.559 25.5428 145.48 23.9691Z" fill="#ED3237"/>
<path d="M90.4827 15.4755C89.3397 14.9642 88.0042 15.254 86.946 16.4584C88.0269 16.5493 88.9209 16.4811 89.7188 16.7254C90.5393 16.981 91.2693 17.5378 92.1068 18.0037C92.2369 16.7992 91.6824 16.0209 90.4827 15.4755Z" fill="#ED3237"/>
<path d="M84.4166 55.301C84.5355 56.7951 85.3503 57.9995 86.1029 59.2153C86.2161 59.3971 86.7933 59.5221 86.9178 59.4085C87.1385 59.2039 87.3478 58.7324 87.2573 58.4995C87.0083 57.8575 86.6235 57.261 86.2387 56.6872C85.8143 56.0452 85.5144 55.2726 84.6317 54.9601C84.5072 55.1532 84.4166 55.2328 84.4223 55.3066L84.4166 55.301Z" fill="#ED3237"/>
<path d="M72.9181 70.7082C73.0709 70.2082 73.2859 69.6571 72.7144 68.9754C71.5487 70.8445 70.9489 72.7364 70.881 74.8157C72.041 73.6738 72.4711 72.1853 72.9181 70.7082Z" fill="#ED3237"/>
<path d="M146.849 29.1616C147.426 27.8492 147.766 26.4744 147.557 25.0143C147.551 24.9746 147.404 24.9575 147.149 24.8609C146.589 26.4346 146.029 28.0026 145.468 29.5877C146.244 29.7468 146.617 29.6899 146.849 29.1616Z" fill="#ED3237"/>
<path d="M57.7471 74.9067C59.2467 73.441 60.1634 71.7309 60.8028 69.8618C59.6598 70.5038 58.2225 72.5661 57.7471 74.0716C57.6679 74.3216 57.7471 74.6227 57.7471 74.9011L57.7471 74.9067Z" fill="#ED3237"/>
<path d="M128.775 25.0315C129.047 23.6736 128.951 22.3329 128.521 21.0035C127.621 22.4124 127.994 24.0088 127.643 25.5428C128.385 25.77 128.679 25.4803 128.77 25.0371L128.775 25.0315Z" fill="#ED3237"/>
<path d="M61.38 82.6103C60.0841 83.8147 58.4205 86.5303 58.4035 87.4734C59.3315 86.9394 61.2215 83.8601 61.38 82.6103Z" fill="#ED3237"/>
<path d="M149.927 27.963C148.852 28.3663 148.569 29.3605 147.902 29.9457C147.783 30.0536 147.817 30.3377 147.783 30.5422C148.032 30.582 148.383 30.7524 148.507 30.6502C149.282 29.9968 149.865 29.2071 149.927 27.963Z" fill="#ED3237"/>
<path d="M119.41 28.2639C119.925 27.0765 119.337 26.2073 118.607 25.3722C118.454 26.4403 118.522 27.4515 119.41 28.2639Z" fill="#ED3237"/>
<path d="M96.2716 12.0782C95.287 11.9249 94.5796 12.2771 93.9742 12.8679C93.861 12.9759 93.8836 13.3054 93.9572 13.4872C94.0024 13.6008 94.2967 13.7201 94.4212 13.6747C95.2021 13.4133 95.9547 13.0895 96.2716 12.0782Z" fill="#ED3237"/>
<path d="M152.004 28.8947C151.433 29.7128 151.014 30.2582 150.669 30.8434C150.561 31.0252 150.652 31.3206 150.657 31.5706C150.912 31.5422 151.246 31.6046 151.416 31.4683C152.134 30.8888 152.231 30.1048 152.004 28.8947Z" fill="#ED3237"/>
<path d="M132.137 10.0046C132.64 9.08428 132.725 8.32301 132.114 7.50491C131.305 8.73773 131.299 9.15814 132.137 10.0046Z" fill="#ED3237"/>
<path d="M152.44 31.8035C152.406 31.9455 152.598 32.1955 152.751 32.3148C152.819 32.3659 153.136 32.2352 153.187 32.1216C153.453 31.5194 153.724 30.9115 153.64 29.9968C152.927 30.5763 152.604 31.1501 152.44 31.8091L152.44 31.8035Z" fill="#ED3237"/>
<path d="M83.7432 60.5559C83.7772 59.5617 83.4942 59.1811 82.3625 58.7038C82.6398 59.5162 82.7586 60.323 83.7432 60.5559Z" fill="#ED3237"/>
<path d="M67.1802 60.7717C67.5593 60.8342 67.8988 60.8967 68.5326 61.0046C67.9479 60.338 67.4971 60.2604 67.1802 60.7717Z" fill="#ED3237"/>
<path d="M183.121 60.8855C183.772 59.9481 183.008 59.2266 182.765 58.471C182.51 57.6813 182.12 56.9314 181.786 56.1701C181.311 55.0831 180.869 54.4146 180.462 54.1646C180.688 56.2042 182.227 60.1526 183.121 60.8855Z" fill="#ED3237"/>
<path d="M184.548 69.7255C184.214 72.3616 184.242 74.9976 184.729 77.6394C185.079 75.0033 184.881 72.3616 184.548 69.7255Z" fill="#ED3237"/>
<path d="M175.494 36.3144C175.771 37.6608 177.519 40.5355 178.374 41.0525C178.198 39.7856 176.603 37.1609 175.494 36.3144Z" fill="#ED3237"/>
<path d="M179.194 81.4343C179.981 80.247 179.817 79.1505 179.624 78.054C179.042 79.2414 178.894 80.4288 179.194 81.4343Z" fill="#ED3237"/>
<path d="M127.57 31.3887C126.67 32.1841 125.686 32.9397 124.967 33.8828C123.411 35.9337 122.364 38.28 121.447 40.6832C121.334 40.9729 121.345 41.3138 121.3 41.6263C121.396 41.6603 121.493 41.6944 121.589 41.7285C124.039 38.2119 125.567 34.0248 129.335 31.1785C128.385 30.7865 127.932 31.0649 127.564 31.3887L127.57 31.3887Z" fill="#ED3237"/>
<path d="M110.854 44.2451C112.201 42.4271 112.699 39.6831 111.85 38.2117C111.018 40.0467 110.486 43.3929 110.854 44.2451Z" fill="#ED3237"/>
<path d="M103.345 45.5064C103.266 46.9892 103.283 48.4947 103.011 49.9434C102.609 52.0852 101.981 54.1873 101.455 56.3121C101.302 56.92 101.172 57.5335 101.031 58.1414L101.364 58.2834C101.546 58.0221 101.766 57.7835 101.902 57.4994C103.345 54.4998 104.33 51.3524 104.63 48.0289C104.709 47.1199 104.545 46.1768 104.42 45.2621C104.369 44.8815 104.149 44.5292 104.001 44.16C103.187 44.4554 103.368 45.0065 103.345 45.5064Z" fill="#ED3237"/>
<path d="M88.3211 63.2261C87.9137 64.4646 88.6833 67.3222 89.7867 68.396C89.8377 66.8109 89.6622 65.2713 89.0058 63.8226C88.8983 63.5897 88.5871 63.4477 88.3211 63.2261Z" fill="#ED3237"/>
<path d="M94.5683 58.5846C94.4948 58.4199 94.127 58.2097 94.0421 58.2608C93.844 58.3801 93.5894 58.6642 93.612 58.8517C93.7761 60.1356 94.0987 61.3684 95.1512 62.3342C95.3492 61.0105 95.0889 59.772 94.5627 58.5846L94.5683 58.5846Z" fill="#ED3237"/>
</g>
<defs>
<clipPath id="clip0_35_14668">
<rect width="210" height="192" fill="white" transform="translate(0 210) rotate(-90)"/>
</clipPath>
</defs>
</svg>
