<svg width="171" height="179" viewBox="0 0 171 179" fill="none" xmlns="http://www.w3.org/2000/svg">
<g clip-path="url(#clip0_35_13721)">
<path d="M145.512 143.086C142.146 146.188 138.48 148.875 134.344 150.874C132.768 151.638 131.167 152.401 129.398 151.511C127.515 154.66 126.114 155.639 122.469 156.222C121.072 156.447 119.647 156.613 118.235 156.629C115.432 156.66 112.625 156.567 109.819 156.524C109.43 156.517 109.019 156.416 108.651 156.504C107.105 156.856 105.566 156.799 104.03 156.511C101.654 156.073 99.3454 155.408 97.1405 154.403C93.3772 152.688 89.8922 150.494 86.4345 148.247C84.5332 147.01 82.8013 145.506 80.6872 144.606C80.4188 144.491 80.1791 144.298 79.9379 144.13C77.8096 142.655 76.1949 140.707 74.8758 138.513C73.8065 136.735 72.8414 134.894 71.7721 133.115C71.0435 131.902 70.2608 130.72 69.4273 129.58C68.6388 128.499 67.6528 127.689 66.2975 127.298C64.9687 126.913 63.7671 126.198 62.6298 125.383C60.3601 123.754 58.4804 121.72 56.5968 119.688C54.9842 117.948 53.4164 116.158 51.7378 114.482C49.8015 112.547 47.7419 110.741 45.7866 108.827C44.3978 107.468 43.097 106.018 41.7408 104.625C39.4422 102.26 37.1149 99.9266 34.8442 97.541C33.9134 96.5653 33.0784 95.4971 32.2415 94.4378C32.0636 94.2113 31.9384 93.7957 32.0253 93.5474C32.1639 93.1519 32.5852 93.3541 32.9006 93.381C32.9437 93.386 32.9913 93.3314 33.0838 93.273C32.7068 92.5886 32.3269 91.909 31.9418 91.21C31.6701 91.2836 31.486 91.3419 31.2938 91.3856C29.4733 91.8456 27.8521 91.519 26.6459 90.0186C25.4577 88.5384 25.3842 86.8684 26.1577 85.173C26.6851 84.0145 27.6923 83.3046 28.7596 82.6782C28.9639 82.5563 29.1612 82.4237 29.4454 82.2427C28.3864 81.7929 27.4454 81.3944 26.5083 80.9948C24.3097 80.0589 22.2224 78.9346 20.4541 77.3118C19.6062 76.5343 18.8279 75.6755 18.0852 74.7946C17.7299 74.3747 17.3991 73.8609 17.6218 73.1304C18.8231 73.8746 19.9493 74.5725 21.2097 75.3506C20.6814 74.2618 19.6234 73.6619 19.5227 72.2449C19.981 72.4912 20.2755 72.5945 20.5043 72.7781C21.381 73.4771 22.2452 74.1919 23.0999 74.9176C25.1761 76.6775 27.5471 77.8498 30.1848 78.5003C30.372 78.5453 30.568 78.5463 30.9727 78.5948C30.4671 78.1741 30.1256 77.9128 29.8138 77.6227C29.5516 77.3774 29.2485 77.0891 29.4904 76.6906C29.7068 76.3365 30.0737 76.4452 30.3887 76.5471C30.8911 76.7107 31.3879 76.884 31.8755 77.0849C35.8452 78.7314 39.3712 81.0766 42.6305 83.8521C43.4088 84.5111 44.233 85.1243 45.0732 85.7042C45.6218 86.0841 46.2369 86.3711 46.9497 86.7732C46.9249 86.2513 46.9128 85.9299 46.8958 85.6057C46.6641 81.7685 45.6349 78.1391 44.1097 74.6316C41.0444 67.5915 37.1969 61.0005 32.6936 54.787C30.7727 52.1401 28.6657 49.6518 26.1908 47.4962C24.2604 45.8133 22.1666 44.4036 19.7504 43.51C19.4872 43.4148 19.2102 43.3608 18.8916 43.2765C18.8803 43.496 18.8652 43.6249 18.8745 43.7514C19.0079 45.6424 18.0422 46.3827 16.4992 46.7134C14.4404 47.1547 12.3003 46.2195 11.1226 44.3784C10.8772 43.9954 10.6636 43.5913 10.4446 43.2136C10.3374 43.2176 10.2659 43.1996 10.2059 43.2242C6.42914 44.6262 4.35682 49.429 5.926 53.1452C6.83276 55.2928 8.39103 56.294 10.7262 56.2273C10.9571 56.2189 11.1924 56.1801 11.4172 56.2108C11.6157 56.2361 11.8087 56.3336 12.2544 56.4875C11.7621 56.7458 11.5044 56.9322 11.2127 57.0237C10.0634 57.3934 8.92933 57.2969 7.83445 56.8069C6.29677 56.1123 5.39829 54.8407 4.82251 53.3152C3.28779 49.265 5.22019 44.4377 9.15243 42.4566C9.46721 42.2963 9.78797 42.1428 10.185 41.9479C10.1219 41.5612 10.034 41.2063 10.0163 40.849C9.85967 38.211 10.6483 35.8954 12.4616 33.964C14.5288 31.7556 17.1352 30.6915 20.1224 30.5106C23.2042 30.3248 26.0755 31.0994 28.8053 32.4741C32.5623 34.3655 35.5943 37.1318 38.1814 40.3932C45.0203 49.0164 49.2894 58.7313 50.4719 69.7362C50.8328 73.0972 50.9927 76.4543 50.1994 79.7826C49.589 82.3412 48.9483 84.8956 48.3114 87.4947C50.0501 88.547 51.4458 89.9627 52.6249 91.6244C53.4179 92.7373 54.4981 93.5726 55.7147 94.2044C56.7372 94.7348 57.7749 95.2445 58.8219 95.7266C60.9503 96.7107 63.038 97.76 64.963 99.1156C66.7961 100.409 68.6168 101.718 70.4584 102.996C71.532 103.745 72.6332 104.458 73.7477 105.205C74.0021 104.899 74.2323 104.704 74.3639 104.452C75.7695 101.815 76.2423 99.102 74.8375 96.3152C74.3059 95.2605 73.6594 94.2578 73.0217 93.2568C71.9252 91.5311 70.769 89.8465 69.6986 88.1096C68.5759 86.2869 67.8849 84.3056 67.7309 82.1539C67.6487 81.0357 67.8378 79.9814 68.4541 79.0278C69.4794 77.4472 70.5107 75.8733 71.8835 74.5607C72.1286 74.3278 72.3618 74.0815 72.6009 73.8419C72.5509 73.7805 72.501 73.7191 72.451 73.6577C71.6773 74.1379 70.8706 74.5729 70.1419 75.1117C67.5615 77.0095 66.3994 79.5762 66.7042 82.7609C66.8906 84.7249 67.5572 86.5546 68.5508 88.2541C69.1289 89.2504 69.7755 90.2073 70.4038 91.1733C71.4332 92.7591 72.2269 94.4586 72.7828 96.2642C73.1242 97.3704 72.9446 97.8145 71.9983 98.4413C71.5853 98.7156 71.1631 98.9715 70.7382 99.2323C70.4558 99.4045 70.1695 99.6236 69.8314 99.3906C69.4796 99.1529 69.6047 98.8152 69.7008 98.4936C70.0322 97.3799 69.8204 96.3218 69.2758 95.3415C68.8938 94.6542 68.4363 93.9956 67.9389 93.3895C66.3678 91.4802 64.8102 89.559 63.5738 87.4092C61.8165 84.3516 61.2738 81.119 62.2299 77.6842C62.67 76.0957 63.1277 74.5107 63.5766 72.924C63.6631 72.6134 63.7399 72.2971 63.8215 71.9836C62.3433 74.2904 61.3699 76.7851 60.8386 79.4513C60.3917 81.6909 60.6212 83.8597 61.5393 85.9417C62.0045 86.9977 62.5248 88.0264 63.0345 89.062C64.0454 91.1022 64.9714 93.1822 65.5653 95.3895C65.7029 95.8975 65.8067 96.4188 65.8762 96.9369C65.9013 97.1215 65.7736 97.3268 65.7005 97.5797C65.0534 97.2972 65.0368 96.7439 64.9142 96.3068C64.3033 94.129 63.0104 92.4316 61.3444 90.9559C59.3003 89.1456 56.9678 87.7923 54.5641 86.5456C53.8421 86.171 53.0906 85.8418 52.2836 85.4611C51.9444 85.8694 51.6699 86.1935 51.4013 86.5243C51.3204 86.6253 51.2641 86.7405 51.1563 86.9112C51.9133 87.2305 52.6398 87.529 53.3577 87.8422C55.8537 88.9224 58.2397 90.1655 60.1929 92.117C61.3465 93.2695 62.3144 94.5514 62.989 96.0418C63.1428 96.3789 63.3868 96.7415 63.0807 97.1491C62.553 97.1381 62.4353 96.7038 62.2536 96.3867C60.5712 93.4671 58.1763 91.3148 55.1627 89.8463C53.5935 89.0811 51.9867 88.3927 50.3986 87.6659C49.767 87.3792 49.6965 87.1652 50.1104 86.6327C50.5327 86.0854 50.9895 85.5579 51.4386 85.0325C51.8248 84.5824 52.3059 84.452 52.8686 84.6534C53.1455 84.7531 53.432 84.842 53.6969 84.9742C56.6596 86.4398 59.5382 88.0406 62.0042 90.286C62.1541 90.4243 62.3214 90.5497 62.478 90.682C62.4738 90.2669 62.352 89.9711 62.2158 89.6834C61.75 88.7024 61.2727 87.7246 60.8137 86.7377C59.6291 84.1951 59.3593 81.5545 59.9749 78.8154C60.5195 76.3828 61.4051 74.0868 62.6089 71.9043C63.4115 70.4548 64.3218 69.0802 65.4656 67.8754C65.7112 67.6132 65.9703 67.2475 66.3692 67.5515C66.7166 67.8195 66.4358 68.1203 66.3023 68.427C65.7677 69.6665 65.1841 70.8943 64.7731 72.1753C64.2005 73.9662 63.7857 75.8017 63.268 77.611C62.2571 81.1356 62.8138 84.4352 64.8091 87.449C66.0428 89.3124 67.447 91.0671 68.8174 92.8352C69.9458 94.2942 70.9161 95.8002 70.9069 97.734C70.909 97.7875 70.9773 97.8398 71.0163 97.8916C72.0786 97.3083 72.0991 97.2611 71.7102 96.1178C71.6348 95.901 71.5478 95.6873 71.4713 95.4667C70.8139 93.6553 69.8149 92.028 68.7252 90.4503C67.3854 88.5033 66.3929 86.4081 65.8718 84.0852C64.9314 79.9073 66.728 75.8702 70.1967 73.869C72.3944 72.6034 74.6758 71.4775 76.9259 70.2976C77.1267 70.1932 77.3582 70.1097 77.5831 70.0945C78.0059 70.0716 78.2403 70.4909 77.9974 70.8397C77.8504 71.0502 77.6403 71.2278 77.4327 71.3839C76.907 71.7803 76.3714 72.171 75.8257 72.5394C73.0942 74.3867 70.9515 76.7778 69.3052 79.6171C68.5154 80.9757 68.599 83.2672 69.4542 84.717C69.4939 84.5564 69.5375 84.4406 69.5547 84.3194C69.9995 81.073 72.4982 79.1349 75.3319 78.8332C76.308 78.7311 77.3184 78.7403 78.292 78.8595C81.752 79.2705 85.0817 80.1997 88.2975 81.5385C88.6308 81.6771 88.9693 81.8351 89.2524 82.0498C89.6632 82.3672 89.5558 82.9082 89.0471 83.0294C88.7036 83.1141 88.325 83.1002 87.9657 83.081C84.5683 82.9318 81.1731 82.7446 77.7753 82.6247C76.7956 82.5905 75.7893 82.6426 74.8286 82.8321C73.5843 83.0819 72.9467 83.8956 72.9705 85.1669C72.984 85.9083 73.1154 86.701 73.421 87.3674C74.0798 88.7996 74.8836 90.1676 75.6352 91.5581C75.6868 91.6565 75.7935 91.7275 75.879 91.8125C76.8821 90.8415 77.8417 89.9405 78.7762 89.0089C81.0721 86.7219 83.8113 85.6717 87.0465 86.0521C89.2065 86.3076 91.3839 86.5043 93.5184 86.8958C96.4817 87.4414 99.3521 88.3202 101.882 90.0487C102.158 90.2362 102.396 90.484 102.688 90.7335C101.682 91.4766 100.689 91.3169 99.7203 91.1548C96.164 90.5575 92.5689 90.3704 88.9766 90.1783C87.9878 90.1257 86.9946 90.1493 86.0073 90.1795C84.6897 90.2202 83.4625 90.5944 82.4054 91.3969C81.1966 92.3155 80.0127 93.2647 78.8337 94.2168C78.6455 94.3677 78.5312 94.6068 78.3934 94.7898C81.1168 97.5856 83.2787 100.692 85.1857 103.979C87.0787 107.246 88.8259 110.589 90.1563 114.162C90.2664 114.061 90.3409 114.028 90.3526 113.979C90.9755 111.713 92.1954 109.759 93.5316 107.865C94.715 106.192 96.1738 104.935 98.2596 104.532C99.816 104.236 101.352 103.832 102.913 103.567C103.884 103.4 104.882 103.396 105.873 103.331C106.225 103.311 106.602 103.425 106.622 103.807C106.634 104.036 106.404 104.357 106.194 104.501C105.733 104.813 105.232 105.086 104.713 105.294C102.995 105.976 101.284 106.672 99.5326 107.263C97.7045 107.879 96.4612 109.132 95.4243 110.67C95.3741 110.746 95.3841 110.86 95.346 111.057C97.5424 109.172 100.024 108.279 102.74 107.972C104.789 107.741 106.829 107.954 108.864 108.148C109.271 108.188 109.856 108.117 109.935 108.64C110.028 109.26 109.405 109.312 108.983 109.431C106.787 110.043 104.587 110.622 102.389 111.226C101.465 111.476 100.538 111.727 99.6445 112.057C98.9667 112.307 98.3522 112.698 97.9773 113.329C98.743 112.988 99.4861 112.487 100.293 112.331C103.646 111.684 106.718 112.371 109.417 114.52C109.544 114.623 109.695 114.72 109.774 114.856C109.851 114.985 109.918 115.204 109.858 115.304C109.772 115.448 109.563 115.6 109.409 115.6C109.118 115.6 108.828 115.5 108.54 115.436C106.696 115.008 104.831 114.735 102.946 115.066C102.179 115.2 101.391 115.43 100.708 115.798C99.1736 116.621 98.7739 117.883 99.7038 119.362C100.689 120.939 101.877 122.386 103.067 124.012C103.183 123.672 103.249 123.53 103.282 123.375C103.588 122.031 104.219 120.84 105.044 119.751C105.718 118.856 106.526 118.101 107.719 118.077C110.582 118.021 113.355 118.419 115.914 119.948C116.926 119.133 117.945 118.295 118.982 117.481C120.439 116.341 121.909 115.219 123.6 114.436C124.074 114.216 124.59 114.059 125.1 113.959C125.585 113.86 125.917 114.208 126.117 114.594C126.334 115.01 125.979 115.269 125.708 115.496C125.456 115.706 125.171 115.883 124.894 116.058C123.435 116.978 122.076 118.016 120.934 119.32C119.675 120.76 118.379 122.173 117.173 123.657C116.527 124.452 116.355 125.431 116.727 126.483C117.222 125.329 117.999 124.398 118.85 123.527C119.218 123.148 119.608 122.789 120 122.437C121.679 120.95 123.331 119.42 125.266 118.263C126.904 117.282 128.629 116.578 130.593 116.662C132.005 116.724 133.221 117.248 134.254 118.2C134.538 118.465 134.939 118.73 134.749 119.182C134.543 119.666 134.084 119.462 133.701 119.432C132.981 119.373 132.239 119.204 131.537 119.303C128.849 119.681 126.474 120.754 124.607 122.791C123.49 124.005 122.374 125.219 121.297 126.472C120.784 127.069 120.353 127.736 119.92 128.398C119.769 128.626 119.726 128.929 119.615 129.255C120.212 129.505 120.715 129.748 121.242 129.925C122.964 130.503 124.714 131.028 125.766 132.604C128.35 132.241 130.587 131.335 132.476 129.67C134.316 128.052 136.273 126.606 138.35 125.307C139.126 124.822 139.794 124.166 140.487 123.558C141.715 122.48 142.571 120.966 144.231 120.404C144.249 120.195 144.272 120.035 144.278 119.871C144.558 114.002 144.089 108.185 142.877 102.449C142.058 98.5797 140.99 94.761 140.036 90.9196C139.902 90.3775 139.734 89.836 139.659 89.282C139.545 88.4471 139.996 88.0961 140.786 88.3982C141.12 88.5241 141.418 88.7472 141.721 88.9439C142.247 89.2883 142.765 89.6474 143.285 89.9977C143.27 89.5107 143.125 89.1462 143 88.7763C142.782 88.1277 142.947 87.8749 143.638 87.7667C143.735 87.7531 143.836 87.7424 143.935 87.7404C146.534 87.6773 149.07 88.0433 151.526 88.901C152.925 89.3918 153.895 90.3443 154.303 91.7698C154.645 92.9715 154.876 94.2076 155.148 95.4282C155.223 95.7659 155.273 96.106 155.338 96.4507C155.882 96.3863 156.307 96.3087 156.736 96.2924C157.519 96.2633 157.821 96.4854 158.023 97.2299C158.126 97.6099 158.187 98.0053 158.255 98.3948C159.503 105.399 159.226 112.246 156.339 118.884C155.578 120.626 155.162 122.52 154.585 124.341C154.391 124.96 154.414 125.537 154.667 126.163C155.174 127.42 155.202 128.69 154.75 130.02C153.964 132.331 152.696 134.368 151.387 136.392C149.761 138.909 147.722 141.068 145.532 143.085L145.512 143.086ZM15.3492 45.6972C17.2591 45.829 18.0313 45.0204 17.9766 42.9584C15.9037 42.4253 13.8074 42.2358 11.5771 42.7819C12.3114 44.5849 13.5252 45.5754 15.3492 45.6972ZM49.6214 73.8374C49.2874 66.1946 47.6162 58.8891 44.2011 52.0187C41.9937 47.5764 39.3807 43.3897 36.0719 39.6786C33.4331 36.7184 30.4147 34.2481 26.6813 32.7666C24.2176 31.7901 21.6687 31.3444 19.0226 31.77C16.1441 32.2295 13.8098 33.5903 12.2528 36.1141C11.2263 37.7824 10.9331 39.6058 11.2244 41.5414C11.3488 41.5701 11.4463 41.6228 11.5338 41.6074C15.5185 40.8191 19.1951 41.7375 22.6923 43.6077C25.4594 45.0889 27.7688 47.1561 29.8451 49.4696C34.9873 55.1978 38.9323 61.7332 42.4899 68.515C44.0383 71.4627 45.4283 74.4866 46.4904 77.6534C47.1332 79.5645 47.6041 81.518 47.8032 83.5285C47.8198 83.6822 47.858 83.8383 47.8873 83.9927C48.8546 80.6298 49.7801 77.3281 49.6253 73.8364L49.6214 73.8374ZM34.0718 89.172C35.0257 90.0332 35.9468 90.8657 36.8729 91.7011C36.9103 91.6702 36.9488 91.6431 36.9862 91.6122C36.193 90.4369 35.3959 89.2627 34.5242 87.9672C34.3435 88.4532 34.211 88.8096 34.0718 89.172ZM28.5659 88.5578C29.1312 89.0456 29.8023 89.3091 30.5505 89.2728C30.8097 89.2609 31.195 89.1149 31.2771 88.9261C31.361 88.7286 31.1635 88.3992 31.06 88.14C31.0129 88.0279 30.8904 87.9446 30.6504 87.6891C30.2462 87.5655 29.6692 87.3265 29.0735 87.234C28.8211 87.1942 28.4195 87.4029 28.2629 87.6243C28.024 87.9721 28.2871 88.3128 28.5736 88.5557L28.5659 88.5578ZM32.2382 78.0854C32.1994 78.1418 32.1594 78.1942 32.1244 78.2495C33.2658 79.526 34.7486 80.1565 36.4465 80.3665C35.0451 79.6058 33.6397 78.8462 32.2382 78.0854ZM76.1157 103.169C75.7365 104.03 75.1647 104.809 74.6508 105.664C76.2343 106.758 77.8118 107.846 79.4812 108.996C79.5915 106.344 78.5664 102.976 76.9283 100.481C76.6605 101.399 76.4864 102.324 76.1146 103.166L76.1157 103.169ZM85.8059 89.0978C86.7607 89.0556 87.7258 88.9897 88.6741 89.0616C92.0286 89.3139 95.3802 89.617 98.7305 89.8996C98.8888 89.915 99.0516 89.9166 99.2419 89.8193C99.0488 89.7218 98.8604 89.6105 98.6599 89.5316C94.465 87.8838 90.0775 87.2162 85.5959 87.0778C83.7859 87.023 82.1582 87.5639 80.7135 88.6879C79.1766 89.8868 77.7213 91.1718 76.2939 92.6366C76.6669 93.2598 76.849 93.9013 77.4755 94.3226C77.6386 94.1869 77.8034 94.0881 77.9197 93.9484C79.0577 92.5995 80.4044 91.4979 81.8377 90.4852C83.0334 89.641 84.3454 89.1647 85.802 89.0989L85.8059 89.0978ZM75.5196 93.2834C74.4652 91.6212 73.6054 89.8314 72.6976 88.0795C72.2528 87.2219 72.0222 86.2938 72.0275 85.3142C72.0345 83.6183 72.9846 82.2829 74.6381 81.9139C75.6246 81.6966 76.6658 81.6351 77.6815 81.6637C80.351 81.7395 83.0203 81.907 85.6908 82.0325C85.9055 82.0409 86.1206 82.0201 86.4957 82.0059C86.2605 81.8449 86.1669 81.7453 86.0521 81.7057C83.1054 80.7144 80.1168 79.8759 76.9929 79.7525C76.021 79.7162 74.9962 79.8232 74.0716 80.1154C71.924 80.7972 70.6963 82.3535 70.4024 84.5891C70.3048 85.3356 70.3052 86.1055 70.3433 86.8611C70.3596 87.1979 70.543 87.552 70.7311 87.8465C71.8856 89.648 73.0691 91.4334 74.2314 93.2329C75.1472 94.6455 76.0447 96.0672 76.4884 97.72C76.5546 97.9643 76.7266 98.1841 76.8432 98.4147C77.6875 100.055 78.5896 101.663 79.3555 103.336C80.1916 105.162 80.4785 107.128 80.4336 109.129C80.4195 109.707 80.5834 110.113 81.0104 110.505C81.7819 111.215 82.4874 111.99 83.3728 112.891C83.4249 112.16 83.5112 111.588 83.4971 111.013C83.4604 109.679 83.0862 108.436 82.4999 107.225C81.3739 104.883 80.3318 102.497 79.2637 100.123C78.1944 97.7447 76.917 95.4895 75.5196 93.2834ZM84.3888 111.983C84.3919 112.194 84.463 112.441 84.5893 112.615C84.9891 113.168 85.4275 113.695 86.0043 114.425C86.3337 112.459 85.4904 111.114 84.4371 109.655C84.4136 110.552 84.3788 111.269 84.3859 111.987L84.3888 111.983ZM88.6005 113.139C86.9593 109.28 84.9977 105.591 82.706 102.083C81.5592 100.325 80.2785 98.6576 78.9121 97.0425C78.9408 97.1638 78.9434 97.2963 78.9971 97.4024C80.4283 100.44 81.8556 103.479 83.31 106.51C83.5042 106.92 83.8347 107.263 84.0984 107.637C84.8594 108.708 85.6995 109.734 86.3602 110.866C87.0976 112.127 87.3316 113.529 86.8026 114.958C86.6988 115.236 86.4605 115.617 86.2302 115.658C85.9999 115.7 85.633 115.437 85.4462 115.209C84.9776 114.632 84.5801 113.995 84.0726 113.275C83.8423 114.116 84.5096 114.535 84.565 115.123C84.6238 115.74 84.6984 116.369 84.6479 116.982C84.6013 117.594 84.4113 118.199 84.2843 118.791C85.8628 119.329 87.4776 119.878 89.17 120.452C89.227 120.278 89.323 120.048 89.3749 119.809C89.9101 117.496 89.5083 115.29 88.5987 113.148L88.6005 113.139ZM92.9734 113.307C93.7412 111.222 94.939 109.432 96.5417 107.907C97.3727 107.116 98.4037 106.678 99.4751 106.313C100.722 105.888 101.961 105.436 103.201 104.983C103.436 104.899 103.656 104.756 103.859 104.509C103.656 104.51 103.447 104.479 103.25 104.52C101.441 104.898 99.6364 105.279 97.8323 105.676C96.7632 105.912 95.8913 106.506 95.1945 107.332C93.2007 109.703 91.5619 112.278 90.8511 115.343C90.7065 115.977 90.7039 116.644 90.617 117.292C90.4519 118.527 90.2769 119.756 90.0969 121.029C91.3795 121.996 92.7364 123.023 94.1753 124.107C94.782 122.61 95.1729 121.148 94.6102 119.594C94.3846 118.976 94.0874 118.387 93.8125 117.787C93.5498 117.217 93.2698 116.66 93.0149 116.088C92.6118 115.17 92.6212 114.251 92.9713 113.299L92.9734 113.307ZM96.3766 114.553C96.904 112.795 98.0003 111.553 99.7719 110.99C100.746 110.681 101.742 110.452 102.731 110.197C104.071 109.855 105.413 109.52 106.762 109.18C106.718 109.066 106.705 108.97 106.676 108.97C103.773 108.633 100.959 108.916 98.2754 110.155C96.6575 110.902 95.3566 112.049 94.1548 113.332C93.5702 113.957 93.4606 114.69 93.7688 115.443C94.1925 116.469 94.6955 117.464 95.1686 118.472C95.2543 118.466 95.3399 118.459 95.4267 118.457C95.6416 117.574 95.8593 116.687 96.0742 115.805C96.1744 115.39 96.251 114.966 96.3737 114.558L96.3766 114.553ZM101.301 123.229C100.542 122.319 99.7998 121.392 99.1381 120.41C97.0597 117.336 98.9341 115.292 101.167 114.45C102.513 113.944 103.93 113.839 105.359 113.934C105.716 113.958 106.075 113.977 106.447 113.997C106.426 113.92 106.425 113.87 106.409 113.858C104.274 112.925 102.064 112.762 99.8675 113.495C98.5576 113.933 97.7365 115.084 97.1864 116.282C96.687 117.374 96.3897 118.583 96.1562 119.766C96.0488 120.307 96.2366 120.938 96.4111 121.491C96.5661 121.985 96.8741 122.431 97.1395 122.887C97.4523 123.427 97.8018 123.948 98.1117 124.493C99.0156 126.092 99.8031 127.722 99.2158 129.613C100.835 130.102 102.331 130.55 103.851 131.008C103.953 128.158 103.215 125.511 101.308 123.223L101.301 123.229ZM95.8296 122.372C95.4753 123.309 95.2074 124.027 94.9478 124.713C96.0789 126.213 97.1769 127.668 98.2841 129.141C98.5147 128.363 98.5331 127.554 98.1576 126.799C97.4413 125.369 96.67 123.968 95.8306 122.376L95.8296 122.372ZM114.961 120.61C112.374 119.488 109.015 120.265 107.392 122.357C106.469 123.548 106.49 124.703 107.479 125.846C107.801 126.221 108.131 126.593 108.509 126.912C109.82 128.013 110.475 129.434 110.631 131.115C110.641 131.245 110.663 131.372 110.681 131.53C111.476 131.56 112.255 131.59 113.156 131.625C109.727 127.148 110.97 123.635 114.961 120.61ZM123.563 132.068C122.819 131.721 122.045 131.431 121.285 131.116C120.585 130.823 119.879 130.553 119.195 130.226C118.568 129.926 118.397 129.618 118.572 128.959C118.723 128.394 118.925 127.802 119.266 127.339C119.952 126.412 120.739 125.566 121.499 124.695C122.021 124.1 122.602 123.555 123.087 122.932C125.385 119.992 128.421 118.499 132.113 118.277C132.174 118.273 132.237 118.243 132.555 118.14C131.897 117.956 131.454 117.781 130.999 117.717C129.968 117.568 128.962 117.728 127.979 118.069C126.623 118.536 125.371 119.217 124.271 120.123C122.564 121.526 120.896 122.977 119.246 124.452C118.15 125.431 117.496 126.662 117.418 128.173C117.406 128.422 117.174 128.655 117.044 128.898C116.803 128.76 116.462 128.686 116.335 128.479C115.345 126.853 115.036 125.147 116.062 123.429C116.532 122.644 117.105 121.898 117.737 121.231C119.364 119.504 120.885 117.665 122.8 116.23C122.821 116.216 122.816 116.167 122.847 116.005C122.344 116.333 121.895 116.579 121.497 116.895C119.11 118.77 116.689 120.608 114.37 122.564C111.773 124.754 111.545 127.804 113.713 130.454C114.313 131.191 115.068 131.798 115.746 132.468C116.166 132.882 116.601 133.289 116.982 133.743C117.168 133.968 117.238 134.286 117.362 134.56C117.299 134.619 117.237 134.682 117.173 134.74C116.808 134.56 116.371 134.454 116.094 134.184C114.898 133.03 113.417 132.682 111.845 132.551C111.679 132.537 111.518 132.514 111.35 132.51C110.013 132.477 109.987 132.276 109.847 131.19C109.644 129.609 108.812 128.369 107.639 127.326C107.222 126.956 106.824 126.548 106.491 126.105C105.628 124.962 105.586 123.733 106.246 122.48C107.006 121.042 108.173 120.077 109.71 119.552C109.923 119.478 110.138 119.411 110.382 119.328C108.484 118.519 106.742 118.991 105.596 120.588C104.774 121.734 104.197 122.985 104.036 124.39C103.993 124.772 103.993 125.201 104.126 125.552C105.121 128.242 106.154 130.917 107.176 133.599C107.209 133.69 107.262 133.776 107.331 133.923C107.566 133.914 107.819 133.925 108.073 133.893C110.227 133.622 112.302 133.917 114.246 134.864C116.165 135.8 118.133 136.037 120.216 135.61C120.958 135.459 121.718 135.419 122.565 135.315C122.903 134.366 123.579 133.587 124.549 133.079C124.358 132.511 123.961 132.26 123.552 132.072L123.563 132.068ZM104.761 129.987C104.721 130.364 104.696 130.638 104.665 130.908C104.635 131.166 104.605 131.424 104.561 131.769C104.947 132.089 105.293 132.382 105.641 132.667C105.643 132.013 105.358 131.116 104.757 129.988L104.761 129.987ZM153.839 123.953C154.278 121.64 155.003 119.412 155.886 117.242C158.074 111.854 158.359 106.279 157.59 100.598C157.441 99.4936 157.256 98.395 157.074 97.2038C156.502 97.2755 156.027 97.3337 155.455 97.4054C156.426 103.344 155.425 109.039 153.966 114.691C153.906 114.932 153.784 115.156 153.513 115.342C153.577 114.933 153.624 114.521 153.71 114.115C154.561 110.001 155.172 105.861 155.004 101.644C154.966 100.722 154.912 99.8 154.837 98.8756C154.787 98.2938 154.792 97.7099 154.395 97.1847C154.22 96.9533 154.281 96.5496 154.215 96.2263C153.923 94.8404 153.669 93.444 153.319 92.0739C153.03 90.9452 152.245 90.2005 151.142 89.8208C148.969 89.0695 146.725 88.7368 144.431 88.7549C144.339 88.7547 144.247 88.8131 144.133 88.8524C144.309 89.5662 144.49 90.2623 144.655 90.9666C144.732 91.2955 144.787 91.6969 144.403 91.8175C144.176 91.8873 143.823 91.7666 143.61 91.612C142.727 90.9814 141.878 90.3082 140.974 89.6165C140.719 90.0436 140.944 90.3364 141.014 90.6254C142.008 94.6931 143.121 98.737 143.981 102.837C145.051 107.92 145.431 113.091 145.333 118.291C145.32 118.981 145.261 119.671 145.221 120.352C145.933 120.784 146.625 121.2 147.446 121.693C147.609 118.96 147.754 116.315 147.647 113.66C147.542 110.983 147.188 108.336 146.696 105.706C146.207 103.103 145.544 100.532 145.17 97.9071C145.236 97.8892 145.301 97.8675 145.366 97.8457C145.455 98.0379 145.568 98.2237 145.628 98.4282C146.845 102.644 148.067 106.862 148.515 111.252C148.876 114.75 148.738 118.238 148.21 121.715C148.182 121.906 148.171 122.096 148.141 122.383C148.574 122.478 148.974 122.569 149.47 122.677C149.581 122.026 149.699 121.449 149.78 120.869C150.668 114.481 150.209 108.158 148.89 101.877C148.49 99.9708 148.071 98.07 147.676 96.1666C147.59 95.7405 147.57 95.2965 147.494 94.647C148.583 96.0376 150.426 103.717 150.927 108.488C151.446 113.417 151.27 116.503 150.117 122.668C151.419 122.86 152.674 123.219 153.648 124.308C153.743 124.137 153.826 124.044 153.848 123.942L153.839 123.953ZM149.776 136.749C151.483 134.443 153.047 132.021 153.814 129.195C154.5 126.654 152.861 124.172 150.264 123.839C149.936 123.799 149.605 123.776 149.279 123.756C148.284 123.697 147.427 123.347 146.706 122.639C146.428 122.364 146.107 122.118 145.772 121.91C144.849 121.331 144.247 121.37 143.444 122.095C142.904 122.578 142.391 123.1 141.91 123.643C140.918 124.765 139.797 125.73 138.509 126.495C136.573 127.649 134.813 129.041 133.118 130.516C131.354 132.047 129.326 133 127.047 133.472C126.183 133.652 125.269 133.721 124.56 134.35C124.016 134.83 123.482 135.32 123.303 136.164C126.524 138.384 126.827 141.656 126.518 145.278C125.996 145.044 125.984 144.661 125.929 144.334C125.778 143.455 125.656 142.573 125.525 141.692C125.212 139.584 124.168 137.944 122.422 136.727C122.067 136.478 121.742 136.399 121.319 136.468C120.087 136.669 118.845 136.835 117.562 137.02C118.469 140.445 116.872 143.404 115.646 146.442C115.574 146.624 115.443 146.784 115.323 146.942C115.268 147.015 115.172 147.062 115.059 147.151C114.807 146.744 115.006 146.37 115.106 146.018C115.398 145.003 115.753 144.007 116.031 142.991C116.31 141.975 116.57 140.952 116.754 139.911C116.856 139.334 116.817 138.729 116.782 138.139C116.751 137.623 116.514 137.179 116.047 136.915C113.183 135.293 110.187 134.348 106.856 135.213C106.952 135.816 107.093 136.427 107.135 137.044C107.271 139.067 106.744 140.95 105.495 142.52C104.06 144.325 102.461 146.002 100.919 147.719C100.733 147.923 100.459 148.051 100.081 148.087C100.242 147.819 100.376 147.529 100.569 147.289C101.513 146.101 102.503 144.942 103.42 143.732C104.077 142.867 104.723 141.976 105.235 141.022C106.253 139.135 106.384 137.16 105.763 135.085C105.191 133.159 103.702 132.272 102.067 131.558C101.145 131.154 100.107 131.011 99.0396 130.73C99.0224 131.051 98.9974 131.266 99.0016 131.481C99.0358 133.191 98.309 134.628 97.3321 135.942C95.672 138.177 93.5335 139.876 91.117 141.226C90.7041 141.454 90.2346 141.582 89.6471 141.812C89.7187 141.23 90.0404 141.127 90.2805 140.937C91.8245 139.702 93.3904 138.487 94.8866 137.2C96.024 136.217 96.8678 134.981 97.47 133.607C98.0375 132.304 98.1026 131.038 97.3293 129.737C96.4271 128.221 95.3677 126.847 94.0939 125.635C91.2871 122.962 88.2009 120.764 84.2935 119.962C83.6933 119.838 83.2888 119.897 82.7909 120.32C81.561 121.36 80.2425 122.304 78.9457 123.268C78.6467 123.486 78.318 123.733 77.8091 123.638C78.0154 123.016 78.4849 122.689 78.8847 122.335C79.8999 121.44 80.9521 120.589 81.9684 119.697C82.6991 119.058 83.2687 118.317 83.4962 117.327C83.7937 116.027 83.4424 114.915 82.6369 113.91C81.0627 111.943 79.2943 110.166 77.2006 108.757C74.8775 107.193 72.4937 105.712 70.1707 104.148C68.4741 103.005 66.8203 101.805 65.1655 100.601C63.0754 99.0817 60.8319 97.8416 58.4946 96.7476C57.4829 96.2726 56.485 95.7563 55.491 95.239C53.7859 94.3566 52.3666 93.1304 51.3577 91.4975C50.4806 90.0744 49.3184 89.0283 47.8135 88.3164C45.4435 87.1938 43.2534 85.7977 41.2417 83.8454C42.5147 85.8688 43.7763 86.9588 45.7666 87.8637C46.3363 88.1215 46.9232 88.3662 47.4408 88.7087C48.5462 89.4373 49.1476 90.473 48.9018 91.8257C48.6582 93.1862 47.7078 93.9057 46.4288 94.2273C45.2352 94.5257 44.0593 94.3823 42.923 93.9701C41.3526 93.4009 39.9712 92.5141 38.7562 91.3657C38.5545 91.1747 38.4055 90.9321 38.2285 90.7095C38.5779 90.3693 38.7621 90.619 38.9713 90.7455C40.1029 91.417 41.2157 92.1269 42.383 92.7305C43.3907 93.2524 44.5097 93.4778 45.6506 93.3227C46.1601 93.2512 46.7093 93.1107 47.1361 92.8411C48.3083 92.0948 48.3951 90.5396 47.3297 89.513C46.9581 89.1559 46.4894 88.825 46.0077 88.6766C43.7642 87.9901 42.1254 86.507 40.6255 84.799C38.956 82.8956 36.8845 81.6755 34.46 80.859C32.3427 80.1465 30.2145 79.4704 28.0862 78.7942C26.3307 78.2335 24.8034 77.2696 23.3684 76.1393C23.0871 75.9158 22.8154 75.6814 22.4423 75.5494C22.9063 76.0938 23.3703 76.6382 23.8344 77.1826C23.7937 77.2477 23.7569 77.3118 23.7173 77.3808C23.5238 77.3583 23.2935 77.3999 23.1396 77.3084C22.3226 76.8139 21.5264 76.2887 20.7168 75.7756C20.2498 75.4817 19.78 75.1928 19.2819 74.9531C21.1664 77.0814 23.4389 78.6591 26.0183 79.8165C27.55 80.5045 29.0941 81.1766 30.6127 81.8931C31.3242 82.2289 32.0135 82.6207 32.6695 83.0589C33.4974 83.6088 33.939 84.4548 34.268 85.377C34.4971 86.0225 34.7776 86.6582 35.1217 87.2518C36.6562 89.8869 38.5501 92.2498 40.6936 94.4119C41.0149 94.7369 41.4108 94.9834 41.7808 95.2577C42.141 95.5264 42.5164 95.7743 42.9959 96.1147C42.4007 96.3926 42.024 96.2782 41.5851 96.0725C38.8215 94.7734 36.5677 92.8036 34.447 90.6644C34.2401 90.4541 34.0187 90.2519 33.8022 90.0525C33.7575 90.0105 33.6832 89.9973 33.5838 89.9535C33.4733 90.0376 33.3395 90.1279 33.2226 90.2345C33.0062 90.4347 32.8016 90.6483 32.5413 90.9019C32.8679 91.4461 33.1863 91.9758 33.5009 92.5066C33.6693 92.7898 33.8454 93.0709 33.9838 93.3664C34.3216 94.0906 34.2497 94.2557 33.3996 94.6692C34.2518 95.6162 35.0564 96.5719 35.9221 97.4612C38.958 100.58 41.9872 103.705 45.0813 106.763C46.6742 108.337 48.444 109.735 50.0502 111.297C52.1266 113.32 54.1257 115.425 56.1439 117.509C57.7929 119.214 59.3836 120.98 61.0718 122.646C62.7312 124.281 64.6486 125.547 66.8595 126.359C67.9605 126.764 69.0258 126.838 70.1389 126.411C70.6103 126.23 71.09 125.925 71.6452 126.145C71.5048 126.949 71.3276 127.063 68.9833 127.911C69.7018 128.702 70.5156 129.431 71.1148 130.305C72.1595 131.824 73.0799 133.423 74.0293 135.005C75.1861 136.923 76.2398 138.906 77.7115 140.617C78.7043 141.776 79.8038 142.805 81.1135 143.612C82.3937 144.401 83.7337 144.658 85.1884 144.248C85.8537 144.059 86.5165 143.846 87.1871 143.677C87.4802 143.606 87.7915 143.617 88.1906 143.584C87.6658 144.475 87.3355 144.64 84.3246 145.61C84.371 145.689 84.3944 145.79 84.4546 145.828C88.2822 148.287 92.1239 150.722 96.2007 152.764C98.6379 153.981 101.187 154.872 103.866 155.336C104.963 155.526 106.094 155.598 107.209 155.579C108.721 155.548 110.007 154.883 111.088 153.829C111.503 153.425 111.939 153.036 112.396 152.617C112.592 153.124 112.095 154.103 110.905 155.552C111.996 155.552 113.044 155.546 114.088 155.555C116.694 155.569 119.31 155.676 121.895 155.209C122.804 155.045 123.729 154.891 124.586 154.567C126.536 153.83 127.994 152.586 128.449 150.423C128.588 149.753 129.062 149.55 129.505 150.033C130.457 151.07 131.536 150.919 132.583 150.415C134.362 149.558 136.16 148.692 137.823 147.634C142.421 144.698 146.504 141.153 149.764 136.752L149.776 136.749Z" fill="#4C1F21"/>
<path d="M78.5022 119.879C78.7182 119.708 78.8821 119.56 79.0649 119.435C80.5335 118.43 80.8062 117.361 79.9565 115.793C79.739 115.39 79.476 115.004 79.195 114.643C78.2798 113.463 77.2074 112.426 75.9799 111.585C74.0773 110.281 72.1671 108.98 70.1963 107.778C66.2833 105.388 62.3951 102.966 58.7161 100.225C56.6282 98.6685 54.5641 97.0759 52.4981 95.4921C52.2566 95.3079 52.0578 95.0662 51.841 94.8502C51.8895 94.783 51.9351 94.7207 51.9835 94.6535C52.2878 94.8083 52.613 94.9324 52.8965 95.1178C54.0265 95.8605 55.1442 96.619 56.2629 97.3814C58.7968 99.1089 61.2946 100.888 63.8692 102.55C67.1914 104.697 70.5903 106.727 73.9333 108.843C76.0255 110.17 78.0427 111.604 79.6663 113.508C80.4217 114.389 81.0722 115.345 81.3578 116.492C81.7344 118.004 80.9454 119.504 79.5237 120.006C79.2001 120.119 78.8568 120.266 78.5022 119.879Z" fill="#4C1F21"/>
<path d="M62.7108 121.594C63.4562 122.362 64.1958 123.139 64.9383 123.912C64.8811 123.978 64.8288 124.046 64.7716 124.111C64.4842 123.927 64.1788 123.768 63.9173 123.556C60.7644 120.989 57.9184 118.11 55.1439 115.141C52.7807 112.614 50.3963 110.101 47.902 107.705C45.4764 105.378 42.8749 103.232 40.3909 100.966C38.8084 99.5219 37.2909 98.0101 35.7544 96.5202C35.4879 96.2594 35.2036 95.9785 35.2931 95.4173C35.5505 95.614 35.7283 95.7323 35.887 95.8724C37.916 97.6576 39.924 99.4735 41.9788 101.231C46.7771 105.321 51.3632 109.626 55.6168 114.288C57.9036 116.795 60.3436 119.159 62.7108 121.594Z" fill="#4C1F21"/>
<path d="M135.966 147.13C135.502 147.401 135.033 147.716 134.355 147.55C134.75 147.239 135.134 146.918 135.541 146.625C139.18 144.007 142.353 140.9 145.233 137.477C147.452 134.844 149.417 132.044 151.147 129.069C151.417 128.605 151.665 128.105 152.241 127.849C152.234 128.208 152.167 128.543 152.042 128.852C151.218 130.881 150.094 132.746 148.804 134.503C146.438 137.729 143.812 140.734 140.855 143.441C139.344 144.825 137.742 146.091 135.971 147.133L135.966 147.13Z" fill="#4C1F21"/>
<path d="M64.8168 112.857C64.6083 112.718 64.3846 112.6 64.1924 112.444C59.2507 108.501 54.3128 104.557 49.3883 100.601C49.2556 100.495 49.2561 100.221 49.1948 100.025C49.3993 100.011 49.6625 99.9065 49.8027 99.9934C50.4147 100.377 51.0232 100.778 51.5812 101.239C55.512 104.494 59.4361 107.755 63.3478 111.032C63.9406 111.529 64.4486 112.129 64.9987 112.683C64.9393 112.741 64.88 112.798 64.8207 112.856L64.8168 112.857Z" fill="#4C1F21"/>
<path d="M32.5199 81.8468C32.1754 81.4823 31.6993 81.1701 31.6541 80.404C31.9452 80.4791 32.1645 80.4738 32.2923 80.5765C32.8074 80.9864 33.3044 81.4219 33.7908 81.8645C36.2874 84.1307 38.8229 86.3406 42.0499 87.5515C42.1746 87.5968 42.3215 87.6319 42.4032 87.718C42.5197 87.8404 42.5902 88.0086 42.7825 88.3186C42.2713 88.3073 41.8936 88.3888 41.5853 88.2809C40.6269 87.9412 39.6361 87.6353 38.77 87.1291C36.3928 85.7338 34.3989 83.8474 32.517 81.8517L32.5199 81.8468Z" fill="#4C1F21"/>
<path d="M56.549 114.639C56.315 114.391 56.0246 114.149 56.1615 113.716C57.1762 114.095 66.1967 122.685 66.8416 123.85C66.7988 123.908 66.761 123.968 66.7182 124.025C66.3383 123.745 65.9354 123.488 65.5803 123.176C63.727 121.547 61.8497 119.938 60.048 118.253C58.8253 117.107 57.7057 115.849 56.549 114.639Z" fill="#4C1F21"/>
<path d="M78.0994 138.668C79.0341 139.397 79.9279 140.175 80.8891 140.863C81.981 141.65 83.2099 141.712 84.4781 141.335C84.7282 141.259 84.9797 141.158 85.2386 141.129C85.368 141.115 85.5843 141.206 85.638 141.312C85.6978 141.425 85.6645 141.671 85.5745 141.754C85.3379 141.972 85.0681 142.191 84.7749 142.308C83.225 142.936 81.6781 142.822 80.3543 141.841C79.2026 140.987 78.2114 139.912 77.1756 138.902C76.9659 138.697 76.8871 138.36 76.7491 138.081C76.8356 138.016 76.926 137.95 77.0125 137.885C77.3744 138.145 77.7488 138.389 78.0983 138.664L78.0994 138.668Z" fill="#4C1F21"/>
<path d="M117.749 154.588C117.48 154.582 117.215 154.479 116.949 154.418C116.952 154.308 116.953 154.204 116.957 154.095C117.302 154.031 117.645 153.958 117.989 153.907C119.359 153.706 120.73 153.526 122.1 153.309C123.417 153.098 124.654 152.68 125.699 151.789C125.861 151.649 126.122 151.628 126.339 151.553C126.39 151.618 126.446 151.686 126.497 151.751C126.315 152.08 126.177 152.446 125.942 152.73C125.395 153.386 124.628 153.723 123.824 153.937C121.833 154.476 119.801 154.631 117.748 154.584L117.749 154.588Z" fill="#4C1F21"/>
<path d="M129.025 141.219C127.991 139.218 127.407 136.971 125.735 135.318C125.614 135.196 125.617 134.763 125.734 134.639C125.857 134.51 126.199 134.526 126.425 134.577C126.599 134.617 126.765 134.785 126.877 134.937C127.209 135.38 127.611 135.804 127.818 136.306C128.541 138.066 129.204 139.851 129.869 141.631C129.965 141.892 129.959 142.194 129.999 142.478C129.912 142.51 129.828 142.541 129.741 142.573C129.502 142.122 129.255 141.669 129.02 141.216L129.025 141.219Z" fill="#4C1F21"/>
<path d="M118.472 146.234C118.513 144.034 118.587 141.833 118.587 139.635C118.588 139.023 118.352 138.413 118.297 137.795C118.279 137.592 118.489 137.368 118.594 137.157C118.808 137.269 119.091 137.33 119.221 137.503C119.365 137.697 119.412 137.992 119.44 138.247C119.493 138.736 119.565 139.233 119.527 139.722C119.341 142.078 119.129 144.433 118.913 146.789C118.889 147.066 118.771 147.339 118.699 147.613C118.622 147.604 118.544 147.592 118.463 147.585C118.466 147.135 118.465 146.686 118.477 146.237L118.472 146.234Z" fill="#4C1F21"/>
<path d="M77.239 135.692C77.1783 135.729 77.1126 135.764 77.0519 135.801C76.8636 135.644 76.6494 135.515 76.4957 135.332C74.9341 133.457 73.5995 131.422 72.3958 129.3C72.2746 129.083 72.2864 128.789 72.2365 128.528C72.3293 128.486 72.4221 128.444 72.511 128.403C72.6557 128.522 72.8399 128.618 72.9394 128.77C74.3303 130.845 75.7174 132.92 77.0833 135.01C77.2039 135.194 77.1897 135.464 77.2361 135.697L77.239 135.692Z" fill="#4C1F21"/>
<path d="M109.647 144.039C109.615 144.151 109.501 144.24 109.424 144.34C109.358 144.312 109.293 144.284 109.231 144.255C109.307 143.677 109.37 143.094 109.459 142.516C109.769 140.526 110.135 138.541 109.628 136.531C109.546 136.212 109.626 135.907 109.964 135.803C110.361 135.683 110.623 135.945 110.695 136.288C110.805 136.799 110.87 137.331 110.87 137.855C110.883 139.995 110.226 142.013 109.648 144.042L109.647 144.039Z" fill="#4C1F21"/>
<path d="M90.8345 134.543C90.787 134.506 90.7395 134.469 90.6919 134.432C90.8649 134.102 91.0429 133.775 91.2159 133.445C91.9553 132.054 92.7183 130.674 93.4154 129.266C93.6734 128.742 93.7827 128.146 93.9452 127.578C94.0375 127.257 94.2036 127.025 94.5614 127.07C95.0052 127.124 95.057 127.485 94.9972 127.817C94.9224 128.233 94.7979 128.65 94.6427 129.045C93.8663 131.037 92.5102 132.657 91.2182 134.314C91.1316 134.425 90.9648 134.471 90.8356 134.547L90.8345 134.543Z" fill="#4C1F21"/>
<path d="M93.427 149.999C92.3217 149.424 91.2125 148.85 90.1345 148.223C89.4826 147.846 88.8816 147.38 88.2732 146.933C88.0337 146.757 87.8071 146.535 88.0531 146.198C89.0246 146.309 94.0598 149.244 94.6192 150.079C94.1396 150.338 93.7669 150.177 93.4319 150.001L93.427 149.999Z" fill="#4C1F21"/>
<path d="M106.576 144.879C106.557 144.918 106.472 144.928 106.296 145.001C106.375 144.663 106.422 144.388 106.51 144.131C106.828 143.196 107.164 142.268 107.48 141.329C107.99 139.814 108.27 138.268 108.065 136.663C108.056 136.599 108.05 136.534 108.044 136.465C108.017 136.102 108.1 135.796 108.509 135.719C108.857 135.654 109.08 135.905 109.106 136.448C109.125 136.842 109.091 137.238 109.056 137.631C108.828 140.248 107.688 142.559 106.575 144.875L106.576 144.879Z" fill="#4C1F21"/>
<path d="M99.0843 138.551L98.8133 138.504C98.8421 138.134 98.8319 137.758 98.9048 137.397C99.1205 136.302 99.3851 135.219 99.5969 134.125C99.7147 133.515 99.7543 132.892 99.828 132.273C99.8699 131.92 99.9971 131.59 100.407 131.613C100.799 131.631 100.949 131.953 100.951 132.314C100.952 132.639 100.957 132.983 100.87 133.289C100.43 134.832 99.9672 136.368 99.4909 137.9C99.4175 138.136 99.2254 138.334 99.0882 138.55L99.0843 138.551Z" fill="#4C1F21"/>
<path d="M90.0789 133.2C90.0265 133.16 89.9751 133.124 89.9226 133.084C89.9649 132.902 89.9875 132.708 90.0523 132.533C90.876 130.316 91.8675 128.149 92.1233 125.757C92.1595 125.414 92.3849 125.17 92.7214 125.275C92.9127 125.335 93.1703 125.64 93.1562 125.819C93.1182 126.37 93.0593 126.952 92.8447 127.451C92.0827 129.235 91.2588 130.99 90.4447 132.751C90.3661 132.922 90.2008 133.05 90.0789 133.2Z" fill="#4C1F21"/>
<path d="M71.8347 123.217C72.5123 122.859 72.9723 122.143 74.0559 121.854C73.9619 122.137 73.9412 122.276 73.8762 122.39C73.6799 122.726 73.5198 123.119 73.2419 123.369C72.0189 124.466 70.5981 125.217 68.9944 125.585C68.5157 125.694 67.964 125.856 67.5175 125.207C68.3063 124.906 69.0457 124.668 69.7483 124.34C70.4625 124.01 71.136 123.59 71.8347 123.217Z" fill="#4C1F21"/>
<path d="M67.3988 122.218C67.0741 122.218 66.8552 122.148 66.6887 122.01C65.5527 121.061 64.3984 120.121 63.3005 119.128C62.5709 118.465 61.9147 117.718 61.2377 117.003C61.0625 116.817 60.8393 116.624 61.1767 116.224C61.362 116.324 61.5572 116.383 61.6913 116.509C63.4912 118.203 65.2834 119.898 67.0671 121.608C67.2251 121.761 67.2884 122.01 67.3988 122.218Z" fill="#4C1F21"/>
<path d="M91.0538 138.996C90.9805 138.941 90.9073 138.885 90.8369 138.825C91.7069 137.932 92.5759 137.035 93.4518 136.148C94.7496 134.835 95.7919 133.379 96.0908 131.5C96.1179 131.339 96.1246 131.133 96.2281 131.038C96.3785 130.902 96.627 130.743 96.7877 130.782C96.9445 130.823 97.1027 131.084 97.1503 131.275C97.1965 131.446 97.12 131.671 97.0424 131.846C96.7592 132.476 96.4859 133.112 96.1544 133.718C95.1827 135.496 93.5686 136.687 92.1421 138.047C91.7946 138.379 91.4182 138.68 91.0538 138.996Z" fill="#4C1F21"/>
<path d="M92.1194 136.026C92.0119 135.46 92.2922 135.235 92.4531 134.983C93.5963 133.146 94.9195 131.389 95.2084 129.15C95.2117 129.116 95.2198 129.085 95.2319 129.052C95.3452 128.763 95.5058 128.495 95.8688 128.559C96.272 128.633 96.3998 128.936 96.3075 129.302C96.1942 129.745 96.0605 130.189 95.8873 130.61C95.2092 132.242 94.0204 133.543 93.0074 134.953C92.772 135.284 92.4901 135.581 92.1222 136.022L92.1194 136.026Z" fill="#4C1F21"/>
<path d="M130.563 139.058C129.7 137.748 128.845 136.436 128.021 135.102C127.911 134.928 127.9 134.548 128.019 134.42C128.138 134.288 128.575 134.228 128.688 134.335C129.085 134.71 129.485 135.126 129.732 135.608C130.348 136.802 130.883 138.039 131.431 139.264C131.533 139.486 131.553 139.743 131.61 139.986C131.527 140.033 131.448 140.08 131.366 140.131C131.095 139.776 130.806 139.433 130.56 139.063L130.563 139.058Z" fill="#4C1F21"/>
<path d="M145.736 134.614C146.015 133.431 148.941 128.689 149.881 128.039C149.175 130.215 148.121 131.995 146.904 133.686C146.626 134.073 146.381 134.598 145.736 134.614Z" fill="#4C1F21"/>
<path d="M46.4997 90.9699C46.5204 91.0308 46.5411 91.0918 46.5618 91.1528C46.4599 91.3303 46.4016 91.5916 46.2481 91.6707C45.7865 91.904 45.2988 92.1943 44.8051 92.2323C43.2938 92.3421 41.9972 91.707 40.7958 90.8546C40.6673 90.7646 40.5424 90.6111 40.5113 90.4656C40.4777 90.2957 40.5472 90.1062 40.5832 89.855C42.4931 90.9858 44.3314 91.7905 46.4958 90.9709L46.4997 90.9699Z" fill="#4C1F21"/>
<path d="M88.5301 129.773C88.6824 129.428 88.8149 129.072 88.9868 128.738C89.6574 127.416 90.3673 126.117 90.6859 124.648C90.719 124.494 90.7729 124.308 90.8831 124.208C91.0106 124.094 91.2325 123.976 91.3795 124.011C91.5314 124.049 91.6872 124.24 91.7567 124.404C91.814 124.538 91.7826 124.73 91.7417 124.887C91.2023 126.831 90.0729 128.427 88.8063 129.932C88.7136 129.882 88.6249 129.831 88.5322 129.781L88.5301 129.773Z" fill="#4C1F21"/>
<path d="M110.835 152.882C110.602 153.128 110.403 153.44 110.122 153.603C109.702 153.851 109.231 154.111 108.764 154.155C107.456 154.276 106.143 154.303 104.827 154.335C104.645 154.338 104.459 154.176 104.278 154.092C104.285 154.024 104.295 153.955 104.3 153.882C105.006 153.783 105.713 153.687 106.422 153.582C107.172 153.475 107.934 153.414 108.666 153.24C109.343 153.078 109.987 152.795 110.645 152.567C110.707 152.671 110.768 152.775 110.834 152.878L110.835 152.882Z" fill="#4C1F21"/>
<path d="M132.189 137.527C131.463 136.554 130.756 135.572 130.076 134.57C129.979 134.426 129.989 134.082 130.098 133.961C130.213 133.83 130.559 133.756 130.706 133.837C131.011 134.009 131.318 134.25 131.493 134.544C131.997 135.39 132.444 136.268 132.882 137.148C133.002 137.39 133.014 137.682 133.079 137.952C132.999 137.994 132.916 138.042 132.836 138.084C132.616 137.903 132.351 137.754 132.186 137.532L132.189 137.527Z" fill="#4C1F21"/>
<path d="M76.1972 114.231C76.8285 115.055 77.3688 115.958 77.8663 116.872C78.099 117.3 78.2178 117.846 77.5951 118.314C76.9311 116.218 75.5085 114.672 74.3842 112.92C75.2336 113.073 75.753 113.652 76.1972 114.231Z" fill="#4C1F21"/>
<path d="M103.512 137.031C103.552 135.98 103.613 134.927 103.66 133.873C103.677 133.552 103.767 133.253 104.125 133.223C104.54 133.185 104.69 133.494 104.734 133.853C104.757 134.047 104.767 134.252 104.731 134.445C104.504 135.742 104.264 137.039 104.014 138.331C103.979 138.507 103.851 138.666 103.767 138.831C103.678 138.813 103.59 138.795 103.503 138.781C103.504 138.199 103.487 137.616 103.509 137.036L103.512 137.031Z" fill="#4C1F21"/>
<path d="M101.61 138.479C101.518 138.404 101.476 138.386 101.475 138.366C101.557 136.47 102.064 134.606 101.849 132.691C101.833 132.554 102.131 132.24 102.244 132.259C102.457 132.293 102.78 132.484 102.805 132.653C102.87 133.064 102.85 133.51 102.76 133.918C102.459 135.298 102.118 136.668 101.781 138.037C101.745 138.18 101.67 138.317 101.602 138.481L101.61 138.479Z" fill="#4C1F21"/>
<path d="M87.6975 127.177C88.0683 125.886 88.444 124.598 88.8511 123.318C88.8972 123.181 89.2025 122.986 89.2842 123.026C89.4526 123.11 89.6778 123.357 89.6532 123.496C89.5318 124.17 89.3909 124.849 89.1518 125.489C88.8783 126.216 88.623 126.98 87.8545 127.526C87.767 127.341 87.6822 127.244 87.7014 127.176L87.6975 127.177Z" fill="#4C1F21"/>
<path d="M121.39 142.726C121.309 142.748 121.225 142.762 121.146 142.779C121.085 142.675 120.997 142.582 120.967 142.47C120.593 141.073 120.231 139.677 119.864 138.278C119.848 138.216 119.825 138.134 119.85 138.086C119.935 137.925 120.01 137.693 120.149 137.638C120.293 137.583 120.546 137.643 120.679 137.749C120.821 137.856 120.928 138.068 120.96 138.247C121.212 139.731 121.309 141.228 121.394 142.724L121.39 142.726Z" fill="#4C1F21"/>
<path d="M141.443 126.117C141.974 125.295 142.618 124.537 143.519 124.081C143.625 124.027 143.805 124.12 143.954 124.15C143.771 124.874 142.064 127.118 141.118 127.87C140.484 127.097 141.143 126.594 141.444 126.121L141.443 126.117Z" fill="#4C1F21"/>
<path d="M39.6919 85.4434C38.1885 84.9059 36.8962 84.0407 35.8364 82.8503C35.7467 82.7498 35.8074 82.5127 35.7863 82.1272C37.4081 83.0863 38.8318 83.9908 40.1752 85.3208C39.8725 85.4028 39.7656 85.4692 39.6919 85.4434Z" fill="#4C1F21"/>
<path d="M112.17 141.224C112.111 141.19 112.062 141.178 112.058 141.163C111.906 139.572 111.753 137.978 111.629 136.384C111.621 136.245 111.805 136.004 111.947 135.957C112.092 135.909 112.405 135.987 112.461 136.101C112.611 136.41 112.769 136.779 112.741 137.107C112.638 138.417 112.466 139.716 112.312 141.023C112.302 141.097 112.216 141.162 112.167 141.229L112.17 141.224Z" fill="#4C1F21"/>
<path d="M114.074 140.641C113.986 140.64 113.899 140.643 113.812 140.642C113.7 140.289 113.539 139.942 113.487 139.581C113.376 138.804 113.33 138.017 113.246 137.232C113.21 136.884 113.192 136.527 113.623 136.456C114.015 136.395 114.21 136.684 114.303 137.029C114.345 137.184 114.37 137.352 114.368 137.515C114.356 138.301 114.354 139.092 114.308 139.875C114.294 140.132 114.154 140.383 114.073 140.638L114.074 140.641Z" fill="#4C1F21"/>
<path d="M134.157 135.612C134.168 135.655 134.092 135.713 134.03 135.805C133.563 135.789 133.312 135.429 133.055 135.111C132.642 134.603 132.261 134.074 131.852 133.56C131.657 133.318 131.432 133.025 131.762 132.815C131.947 132.698 132.4 132.725 132.548 132.872C133.318 133.638 133.92 134.523 134.157 135.612Z" fill="#4C1F21"/>
<path d="M98.0165 151.627C97.3272 152.188 96.358 152.239 95.4096 151.613C96.1339 151.35 96.7596 151.231 97.2615 150.916C97.7769 150.589 98.1744 150.073 98.6626 149.6C98.9745 150.398 98.7382 151.032 98.0165 151.627Z" fill="#4C1F21"/>
<path d="M86.4922 125.572C86.2973 124.531 86.6334 123.557 86.9246 122.587C86.9686 122.442 87.3412 122.25 87.4476 122.304C87.6367 122.403 87.8675 122.686 87.8485 122.862C87.7965 123.346 87.643 123.825 87.4852 124.288C87.3129 124.805 87.2502 125.388 86.7027 125.765C86.5816 125.656 86.5048 125.619 86.495 125.567L86.4922 125.572Z" fill="#4C1F21"/>
<path d="M75.7584 117.193C75.9556 117.506 76.205 117.842 75.9391 118.413C74.7942 117.354 74.033 116.174 73.602 114.768C74.6086 115.332 75.1787 116.268 75.7584 117.193Z" fill="#4C1F21"/>
<path d="M134.136 131.814C134.774 132.602 135.261 133.477 135.388 134.513C135.391 134.541 135.293 134.58 135.137 134.693C134.461 133.723 133.787 132.757 133.11 131.779C133.612 131.527 133.879 131.496 134.136 131.814Z" fill="#4C1F21"/>
<path d="M64.5794 117.146C65.8787 117.868 66.8235 118.865 67.6077 120.022C66.7051 119.796 65.3382 118.655 64.7339 117.716C64.6333 117.56 64.632 117.34 64.5805 117.15L64.5794 117.146Z" fill="#4C1F21"/>
<path d="M122.506 137.99C122.944 138.867 123.126 139.8 123.076 140.787C122.199 139.992 122.16 138.833 121.636 137.852C122.102 137.559 122.357 137.702 122.501 137.988L122.506 137.99Z" fill="#4C1F21"/>
<path d="M65.6458 111.213C64.5345 110.632 62.8916 109.088 62.7055 108.447C63.4406 108.639 65.306 110.39 65.6458 111.213Z" fill="#4C1F21"/>
<path d="M136.468 132.06C135.656 131.984 135.278 131.358 134.712 131.083C134.611 131.031 134.582 130.831 134.52 130.698C134.684 130.625 134.893 130.443 134.997 130.49C135.65 130.792 136.195 131.222 136.468 132.06Z" fill="#4C1F21"/>
<path d="M115.487 137.524C116.059 138.239 115.817 138.941 115.471 139.647C115.168 138.947 115.028 138.244 115.487 137.524Z" fill="#4C1F21"/>
<path d="M102.614 152.87C101.967 153.158 101.417 153.049 100.893 152.758C100.795 152.705 100.75 152.476 100.767 152.339C100.777 152.253 100.956 152.116 101.05 152.124C101.634 152.158 102.21 152.239 102.614 152.87Z" fill="#4C1F21"/>
<path d="M137.72 131.038C137.177 130.586 136.789 130.291 136.444 129.956C136.336 129.852 136.344 129.634 136.301 129.462C136.481 129.434 136.699 129.329 136.84 129.391C137.44 129.653 137.651 130.17 137.72 131.038Z" fill="#4C1F21"/>
<path d="M127.59 147.622C128.105 148.157 128.304 148.66 128.037 149.332C127.254 148.641 127.172 148.355 127.59 147.622Z" fill="#4C1F21"/>
<path d="M137.481 128.972C137.431 128.881 137.517 128.675 137.599 128.565C137.637 128.518 137.878 128.548 137.934 128.616C138.228 128.978 138.526 129.342 138.637 129.982C138.041 129.719 137.714 129.387 137.48 128.968L137.481 128.972Z" fill="#4C1F21"/>
<path d="M85.0586 122.111C85.2657 122.783 85.1421 123.096 84.4543 123.632C84.4942 123.026 84.4265 122.453 85.0586 122.111Z" fill="#4C1F21"/>
<path d="M73.6615 125.041C73.91 124.928 74.1312 124.822 74.5458 124.631C74.2681 125.194 73.9734 125.331 73.6615 125.041Z" fill="#4C1F21"/>
<path d="M153.14 103.423C153.76 103.941 153.37 104.576 153.343 105.137C153.314 105.723 153.185 106.307 153.097 106.889C152.972 107.719 152.793 108.257 152.56 108.504C152.338 107.07 152.663 104.089 153.14 103.423Z" fill="#4C1F21"/>
<path d="M152.484 97.1242C151.767 95.3871 151.299 93.5827 151.144 91.6892C151.872 93.4232 152.225 95.263 152.484 97.1242Z" fill="#4C1F21"/>
<path d="M152.454 121.61C152.395 120.64 153.062 118.353 153.553 117.841C153.667 118.738 153.058 120.826 152.454 121.61Z" fill="#4C1F21"/>
<path d="M146.648 90.1272C147.407 90.7915 147.497 91.5703 147.568 92.3544C146.948 91.6523 146.628 90.8692 146.648 90.1272Z" fill="#4C1F21"/>
<path d="M120.504 133.876C119.74 133.5 118.925 133.167 118.258 132.657C116.812 131.546 115.66 130.139 114.587 128.669C114.456 128.493 114.4 128.258 114.312 128.053C114.371 128.012 114.431 127.971 114.491 127.93C116.821 129.875 118.643 132.449 121.754 133.691C121.174 134.135 120.812 134.029 120.5 133.877L120.504 133.876Z" fill="#4C1F21"/>
<path d="M106.665 128.206C107.924 129.197 108.773 130.977 108.463 132.139C107.554 131.041 106.57 128.856 106.665 128.206Z" fill="#4C1F21"/>
<path d="M101.282 128.741C100.954 127.743 100.687 126.713 100.233 125.774C99.5614 124.387 98.7419 123.069 97.9882 121.717C97.771 121.33 97.5683 120.936 97.3589 120.547L97.5615 120.388C97.734 120.533 97.9295 120.655 98.0751 120.823C99.6193 122.602 100.876 124.568 101.697 126.78C101.919 127.386 101.981 128.06 102.065 128.708C102.1 128.977 102.014 129.258 101.981 129.538C101.368 129.487 101.39 129.078 101.282 128.741Z" fill="#4C1F21"/>
<path d="M87.7038 119.438C87.1954 118.668 87.1947 116.575 87.7527 115.637C88.0808 116.71 88.2452 117.793 88.063 118.904C88.0324 119.083 87.8452 119.237 87.7038 119.438Z" fill="#4C1F21"/>
<path d="M92.8459 121.445C92.8259 121.571 92.6126 121.783 92.5449 121.764C92.3871 121.719 92.1599 121.573 92.1408 121.441C92.0159 120.534 92.0091 119.633 92.5521 118.778C92.9327 119.644 92.9833 120.538 92.842 121.446L92.8459 121.445Z" fill="#4C1F21"/>
</g>
<defs>
<clipPath id="clip0_35_13721">
<rect width="148.211" height="136.137" fill="white" transform="matrix(0.262027 0.96706 0.96706 -0.262027 0 35.6715)"/>
</clipPath>
</defs>
</svg>
