<svg width="144" height="115" viewBox="0 0 144 115" fill="none" xmlns="http://www.w3.org/2000/svg">
<g clip-path="url(#clip0_35_13973)">
<path d="M143.127 21.2878C143.056 20.5368 142.506 19.4454 141.915 19.2451C141.364 19.0549 140.283 19.6557 139.782 20.2164C138.811 21.3078 138.08 22.6195 137.249 23.8311C136.898 24.3518 136.538 24.8625 136.067 25.5534C136.147 23.0801 136.388 20.8973 136.248 18.7445C136.127 16.862 135.777 14.9395 135.166 13.1472C134.525 11.2547 132.803 10.9443 131.531 12.4963C130.57 13.6779 129.999 15.1798 129.319 16.5716C128.998 17.2225 128.808 17.9334 128.427 18.9748C127.636 17.1124 127.166 15.6004 126.405 14.2686C125.183 12.1559 123.281 12.0758 121.789 13.9582C121.258 14.6291 120.807 15.4001 120.437 16.1811C119.556 18.0736 118.595 19.946 117.944 21.9086C114.669 31.7414 109.923 40.7632 103.425 48.8437C103.094 49.2542 102.834 49.7048 102.514 50.1154C99.2694 54.1807 97.2467 58.8568 95.6146 63.7531C94.8236 66.1463 93.9625 68.5194 92.9411 70.8224C92.2602 72.3644 91.2489 73.7662 90.2276 75.5085C87.0034 71.0326 82.7879 69.9512 78.0117 70.3117C77.1405 70.3818 76.2694 70.3918 75.4183 70.532C73.0252 70.9225 70.7622 70.4819 68.5593 69.5507C64.6142 67.8885 60.5289 66.7671 56.2533 66.3165C54.7213 66.1563 53.1893 65.8659 51.7574 65.6456C51.0766 63.0122 50.3756 60.3387 49.6747 57.6552C50.2154 56.8341 50.7862 55.983 51.3469 55.1319C51.6573 55.1319 51.9177 55.1019 52.168 55.1319C55.4823 55.5825 58.5463 55.0919 61.2398 52.899C61.6704 52.5485 62.5014 52.6487 63.1423 52.5786C64.5041 52.4484 66.016 52.6887 67.2076 52.168C69.8911 50.9965 72.6647 50.4358 75.5384 50.2455C79.774 49.9752 82.7178 47.9926 84.3299 43.9974C86.5027 38.6004 88.8658 33.2734 90.9185 27.8263C93.612 20.677 92.2402 14.2987 86.6629 8.99177C85.2311 7.61998 83.5989 6.41841 81.9268 5.34702C78.6725 3.2643 75.0378 2.12281 71.2829 1.25168C62.932 -0.700867 54.8114 -0.690854 46.8911 3.21424C43.3965 4.93648 39.6917 6.28824 35.9669 7.44976C29.7988 9.37226 24.2516 12.266 19.4854 16.6518C18.7144 17.3527 17.8833 17.9935 17.0722 18.6444C11.495 23.1402 7.00911 28.5172 4.3156 35.1959C2.92379 38.6504 1.71221 42.2051 0.821047 45.8198C-0.791054 52.3783 -0.0500886 58.8267 2.83367 64.9046C6.18804 71.9739 9.6826 78.973 13.3474 85.892C14.589 88.2451 16.3613 90.3678 18.1637 92.3504C25.2128 100.111 33.5938 106.068 43.2463 110.184C48.6934 112.507 54.2707 114.479 60.2485 114.86C70.8523 115.541 80.7853 113.067 90.1575 108.251C95.0839 105.718 99.4496 102.464 102.514 97.6974C104.056 95.2943 105.748 92.9812 107.17 90.518C110.484 84.7806 114.309 79.4136 118.524 74.3069C119.726 72.845 120.657 71.1428 121.679 69.5407C122.41 68.3892 122.96 67.0875 123.821 66.0461C133.584 54.1907 139.752 40.633 142.936 25.6835C143.237 24.2617 143.237 22.7297 143.096 21.2778L143.127 21.2878ZM52.6887 68.6195C56.9542 68.8798 61.1998 69.4105 65.1249 71.1228C69.3704 72.9752 73.646 73.7662 78.282 73.1153C81.5062 72.6648 84.6804 73.1153 86.9934 76.1894C86.1723 76.0992 85.3312 76.0692 84.5202 75.919C81.6264 75.3583 78.8027 75.5686 76.1092 76.7501C74.0765 77.6413 72.0739 77.7013 70.0613 76.8402C67.1375 75.5786 64.1536 75.4584 61.1697 76.4197C59.4074 76.9804 58.2759 76.5899 57.2446 75.0178C56.0831 73.2455 54.3208 72.084 52.2781 71.4131C51.6273 71.2029 50.9965 70.9625 50.3957 70.7523C50.3156 68.9399 51.2768 68.5494 52.6887 68.6395V68.6195ZM81.336 43.5468C81.7365 43.0462 82.1471 42.5355 82.5476 42.0348C82.2973 42.6256 82.0569 43.2264 81.8066 43.8172C81.6464 43.727 81.4862 43.6369 81.336 43.5468ZM86.2624 12.8368C89.1161 16.0309 90.2176 19.6957 89.6969 23.9212C88.9259 30.1694 86.3826 35.7466 83.3687 41.1537C83.2385 41.384 82.9681 41.5442 82.7378 41.7244C83.1884 40.4728 83.669 39.2312 84.0595 37.9595C84.4 36.8681 84.6203 35.7466 84.9006 34.6352C84.6904 34.5351 84.4701 34.4349 84.2598 34.3448C83.7091 35.0557 83.1083 35.7266 82.6177 36.4776C81.4261 38.29 80.3147 40.1524 79.1131 41.9647C77.4509 44.488 74.9677 46.03 72.0739 45.4493C69.3203 44.8986 67.9886 42.3553 67.3277 39.7318C66.4065 36.047 67.1976 32.4824 68.4792 29.0179C71.373 21.1777 76.74 15.8908 84.7605 13.4075C85.2511 13.2573 85.7317 13.0471 86.2424 12.8468L86.2624 12.8368ZM62.5715 2.90383C70.9725 3.4946 78.6825 5.24689 85.0208 11.3048C83.1584 11.7754 81.5162 12.0257 80.0043 12.6065C70.7422 16.1611 63.693 27.3157 64.3138 37.2586C64.5141 40.4928 65.7357 43.1162 68.5694 44.8986C69.9512 45.7697 71.2228 46.791 72.5746 47.7723C70.572 48.6134 68.7596 49.6648 66.8071 50.0853C65.4954 50.3657 63.9133 49.9552 62.5816 49.4946C60.9795 48.9338 59.838 47.6421 59.2072 46.0401C57.525 41.7545 55.7927 37.4789 54.3108 33.1332C53.6699 31.2708 53.3896 29.2281 53.3195 27.2456C53.2294 24.9726 53.7 22.6796 55.1218 20.8172C58.8967 15.8407 60.5589 10.0031 62.161 4.12542C62.2511 3.80501 62.3713 3.48459 62.5715 2.91385V2.90383ZM29.7788 20.4467C30.67 17.8233 31.7313 15.2499 32.6125 12.6165C32.9529 11.6052 33.5036 11.0745 34.4949 10.714C40.0322 8.69138 45.5293 6.54858 51.0665 4.53596C54.0604 3.45455 57.0744 2.33309 60.3286 2.74362C59.1971 5.84767 58.2259 8.70139 57.1144 11.495C56.5036 13.017 55.6926 14.4689 54.8915 15.9008C54.2607 17.0322 53.4997 18.1036 52.7888 19.1951C50.656 22.4693 49.875 26.054 50.5659 29.889C50.9464 32.0218 51.3669 34.1746 52.0779 36.2072C53.3095 39.7318 54.7113 43.1964 56.1932 46.6208C56.8341 48.1027 57.8654 49.4245 58.7265 50.8263C56.053 52.919 52.198 52.9891 49.2642 50.7262C47.9825 49.7349 46.8711 48.4632 45.8598 47.1715C42.8558 43.3165 39.5315 39.8019 35.6464 36.818C34.6852 36.0771 33.794 35.236 32.9529 34.3648C29.1079 30.3796 27.9464 25.7336 29.7488 20.4567L29.7788 20.4467ZM2.87372 51.0065C3.43445 47.8524 3.81495 44.6382 4.73615 41.5943C7.30951 33.0732 11.9556 25.8638 19.0448 20.3366C21.0274 18.7845 22.8998 17.0923 24.9024 15.5703C26.2642 14.539 27.7662 13.7079 29.5485 13.0871C29.3783 13.6078 29.2181 14.1385 29.0278 14.6491C28.2067 16.9321 27.1954 19.165 26.5846 21.4981C25.303 26.4545 26.3643 31.0005 29.7087 34.8855C31.0004 36.3875 32.4723 37.7893 34.0444 38.9809C37.1885 41.364 39.8119 44.2277 42.2951 47.2617C44.1475 49.5346 46.08 51.7475 48.2228 54.2908C47.572 55.8829 46.1301 56.3335 44.488 56.1432C40.6129 55.6826 36.7579 55.1119 32.9029 54.5512C31.7013 54.3809 30.5198 54.0805 29.3282 53.8402C25.7736 53.0993 22.5694 53.8202 19.9159 56.3335C17.673 58.4562 15.1798 58.7967 12.4963 57.525C9.60249 56.1432 6.80885 54.5712 3.93511 53.1593C2.96384 52.6787 2.71351 51.9177 2.87372 51.0266V51.0065ZM16.0108 84.8907C13.3273 79.6739 10.5637 74.3169 7.57986 68.5093C13.2272 69.3504 18.404 69.4105 23.5206 68.3391C23.5607 68.1289 23.5907 67.9186 23.6308 67.7083C22.7997 67.448 21.9886 67.0374 21.1475 66.9473C17.2625 66.5368 13.3774 66.1763 9.48234 65.8859C8.60119 65.8158 7.70001 66.1162 6.55853 66.2764C5.10663 63.1724 3.63471 59.8781 3.15409 55.8228C3.97516 56.2534 4.53589 56.5538 5.09662 56.8441C7.39962 58.0557 9.63253 59.4275 12.0257 60.4188C15.2899 61.7806 18.5441 61.6003 21.2677 59.057C23.7209 56.7741 26.4545 56.1733 29.6887 56.9343C32.5624 57.6151 35.4762 58.1458 38.4 58.5664C41.1336 58.9569 43.9072 59.1271 46.7709 59.3975C49.2342 63.653 49.0539 67.1776 46.1001 71.0727C44.3478 73.3857 42.2751 75.3383 39.7718 76.8302C37.0082 78.4824 34.3247 80.2747 31.501 81.7967C27.4458 83.9795 22.9499 84.5402 18.424 84.8907C17.7331 84.9408 17.0422 84.8907 16.0108 84.8907ZM41.0735 104.666C40.5228 104.947 39.6517 105.147 39.171 104.897C33.043 101.743 27.5559 97.6774 22.4593 92.5907C29.5485 90.7383 35.6464 87.6944 41.0435 82.2072C38.0596 82.4475 36.3474 84.1598 34.3147 85.0809C32.1018 86.0823 29.909 87.1136 27.6961 88.1049C25.5833 89.0561 23.1902 89.4967 21.478 91.6095C20.4967 90.5381 19.5254 89.4967 18.3139 88.165C19.195 87.9647 19.7257 87.8045 20.2664 87.7244C24.0914 87.1637 27.656 85.9321 31.0004 83.9395C33.3735 82.5276 35.8267 81.1458 38.41 80.1746C42.5955 78.6025 46.1301 76.2594 48.6834 72.6948C52.4684 73.5659 54.1706 74.7875 56.043 77.9617C53.3695 81.5463 52.5985 85.9721 51.0766 90.1175C49.2942 94.9738 47.1915 99.6199 43.1462 103.084C42.4854 103.645 41.8345 104.276 41.0735 104.656V104.666ZM117.834 70.6421C115.551 73.596 113.127 76.4597 110.945 79.4836C108.772 82.4976 106.819 85.6717 104.747 88.8058C103.905 87.7144 103.074 86.633 102.183 85.4715C106.459 80.8154 110.774 76.1193 115.491 70.9726C114.419 70.9225 113.778 70.6922 113.428 70.9125C112.407 71.5433 111.395 72.2743 110.554 73.1254C107.019 76.71 103.575 80.3748 100.891 84.7705C97.5471 84.1998 97.5271 80.8554 95.905 78.8128C95.2041 81.1458 96.1353 84.7205 97.7374 86.1223C97.9977 86.3526 98.2881 86.5429 98.5785 86.7431C102.113 89.2364 102.253 89.8071 100.932 93.8524C100.09 96.4157 98.5785 98.4684 96.6159 100.261C91.4792 104.947 85.3212 107.68 78.7827 109.683C71.1828 112.006 63.4727 112.757 55.6225 111.185C54.451 110.955 53.2995 110.604 51.6773 110.194C58.0156 106.208 63.0522 98.9791 63.2024 93.7723C62.6116 94.1928 62.0609 94.4231 61.7505 94.8437C60.9695 95.885 60.2285 96.9664 59.5776 98.0879C57.6051 101.522 55.1118 104.476 51.9777 106.929C51.2167 107.53 50.8262 108.602 50.1053 109.693C48.0726 108.882 45.6795 107.931 43.1963 106.949C43.3965 106.539 43.4466 106.239 43.6068 106.118C48.5633 102.704 51.3669 97.7575 53.2594 92.2303C54.1606 89.6068 54.8214 86.8933 55.6125 84.2298C55.8828 83.3187 56.2032 82.4075 56.5337 81.5163C57.0543 80.1245 57.8654 79.0731 59.5576 79.2133C59.6377 79.2133 59.7378 79.1933 59.818 79.1632C63.5929 77.6613 67.2476 77.9817 70.8824 79.754C72.4945 80.545 74.3169 80.4449 75.969 79.744C79.2132 78.3622 82.5275 78.222 85.942 78.8528C86.5428 78.963 87.1536 79.003 87.7544 79.0331C89.6568 79.1132 91.0887 78.5825 92.4405 76.9303C95.3242 73.3757 96.7461 69.2303 98.1179 65.0148C98.7387 63.1123 99.3194 61.1998 100.05 59.3374C100.401 58.4262 101.052 57.6352 101.562 56.7841C101.773 56.8141 101.993 56.8542 102.203 56.8842C102.353 57.9356 102.594 58.9869 102.644 60.0383C102.854 65.2851 103.695 66.1763 108.972 66.4166C110.724 66.4967 112.376 66.3866 113.598 68.1389C114.019 68.7497 115.28 68.8698 116.191 69.01C116.922 69.1201 117.693 68.9299 118.765 68.8598C118.364 69.6508 118.184 70.2016 117.844 70.6421H117.834ZM121.218 65.7858C120.006 65.8759 118.955 65.8459 117.954 66.0361C116.572 66.2965 115.481 66.2364 114.549 64.9147C113.668 63.663 112.106 63.7331 110.724 63.633C109.953 63.5729 109.162 63.6931 108.381 63.6831C105.287 63.653 104.556 63.0222 104.356 59.9181C104.316 59.2573 104.626 58.3661 105.097 57.8955C111.525 51.5673 115.501 43.6069 119.806 35.8668C120.056 35.4162 120.177 34.8955 120.297 34.3849C120.347 34.1846 120.217 33.9343 120.076 33.2434C119.135 34.4349 118.344 35.3161 117.683 36.2773C113.598 42.2151 109.553 48.1829 105.467 54.1306C104.987 54.8315 104.396 55.4623 103.835 56.1432C102.764 55.6426 102.444 55.0418 103.144 54.1006C104.076 52.8389 104.937 51.5372 105.918 50.3156C112.427 42.135 117.223 33.0531 120.397 23.0801C121.228 20.4667 122.52 18.0035 123.591 15.4702C123.841 15.5303 124.082 15.6004 124.332 15.6605C125.934 19.2852 126.355 23.1202 126.114 27.0453C125.864 31.2908 124.442 35.226 122.43 38.9108C120.427 42.5655 118.154 46.0601 116.021 49.6448C115.521 50.4859 115.15 51.4071 114.72 52.2882C114.89 52.4384 115.05 52.5886 115.22 52.7388C115.741 52.4184 116.382 52.1981 116.762 51.7575C122.89 44.5882 127.777 36.8481 128.928 27.1554C129.429 22.96 131.181 19.0349 132.683 15.0597C133.794 17.0122 133.834 19.0849 133.774 21.0975C133.524 29.138 131.832 36.768 127.056 43.4767C124.843 46.5908 122.75 49.795 120.627 52.9791C120.087 53.7902 119.626 54.6613 119.275 55.5925C121.649 54.2908 128.908 45.5194 131.802 40.1223C134.946 34.2647 137.719 28.2168 140.884 22.3592C137.82 38.4502 130.991 52.8289 121.198 65.7658L121.218 65.7858Z" fill="#4C1F21"/>
<path d="M58.7666 88.4753C56.0331 94.7835 53.2895 101.072 47.1515 104.997C46.7209 105.277 46.3504 106.268 46.5207 106.729C46.8411 107.61 47.7723 107.51 48.5333 107.19C49.084 106.959 49.6848 106.689 50.0853 106.268C51.5773 104.716 53.1693 103.214 54.411 101.472C56.7941 98.1278 58.0557 94.2127 59.4275 90.3878C60.0583 88.6255 60.579 86.8231 61.1497 85.0408C60.9194 84.9607 60.6891 84.8806 60.4588 84.8005C59.8981 86.0221 59.3073 87.2437 58.7766 88.4753H58.7666Z" fill="#4C1F21"/>
<path d="M87.9847 101.032C86.8832 101.542 85.7918 102.073 84.7304 102.664C84.1797 102.974 83.7191 103.425 83.0883 103.916C88.8358 106.088 99.2794 97.8476 99.2694 91.1789C97.5371 91.4292 96.9463 92.6909 96.2254 93.6722C94.0025 96.7261 91.4592 99.3996 87.9847 101.032Z" fill="#4C1F21"/>
<path d="M67.3178 96.2654C66.5968 96.5958 66.1863 96.6459 66.0461 96.8762C63.4828 100.771 60.9294 104.686 58.4362 108.631C58.2459 108.932 58.4062 109.733 58.6765 109.963C58.9869 110.224 59.7779 110.324 60.0783 110.103C60.9094 109.513 61.8206 108.842 62.2912 107.971C64.0035 104.776 65.5555 101.492 67.1175 98.2179C67.3278 97.7874 67.2377 97.2166 67.3278 96.2654H67.3178Z" fill="#4C1F21"/>
<path d="M70.0914 98.7288C69.6108 99.3696 69.04 99.9604 68.6595 100.661C67.3979 103.024 66.1663 105.397 65.0248 107.811C64.7745 108.341 64.6743 109.303 64.9747 109.643C65.6456 110.384 66.4567 109.843 66.9573 109.222C69.3204 106.259 70.6721 102.914 70.8624 99.1594C70.6021 99.0192 70.3417 98.869 70.0914 98.7288Z" fill="#4C1F21"/>
<path d="M100.281 80.7053C102.824 79.8141 108.071 73.8964 108.582 71.1628C105.407 72.4145 100.621 78.0318 100.281 80.7053Z" fill="#4C1F21"/>
<path d="M75.2882 100.12C72.9952 102.003 71.6634 106.339 72.7148 108.962C74.8977 107.7 74.9778 105.568 75.4684 103.735C75.7688 102.594 76.3996 101.282 75.2882 100.12Z" fill="#4C1F21"/>
<path d="M99.4196 75.4983C101.512 74.7573 104.817 71.1326 105.427 68.7195C102.223 69.3503 99.3896 72.6446 99.4196 75.4983Z" fill="#4C1F21"/>
<path d="M77.2707 106.659C78.6125 105.307 78.8428 103.204 77.8915 101.042C76.73 103.164 76.5097 105.147 77.2707 106.659Z" fill="#4C1F21"/>
<path d="M31.6813 39.7117C29.5185 36.5576 26.4344 34.1444 25.0727 30.4095C23.6508 26.5145 24.8724 22.7496 25.6534 18.9246C23.8511 19.0047 23.6108 18.9846 23.2603 20.1261C22.7096 21.9285 22.1188 23.821 22.0888 25.6734C21.9886 32.5523 26.905 36.137 31.6813 39.7117Z" fill="#4C1F21"/>
<path d="M6.91902 51.3769C8.09054 49.2441 11.2947 39.912 11.3448 38.3499C11.3548 37.9794 11.1045 37.599 10.9743 37.2385C9.50238 37.2685 9.1319 38.37 8.75141 39.2711C7.99041 41.1035 7.33956 42.986 6.74879 44.8784C6.28819 46.3604 5.88767 47.8723 5.62733 49.4043C5.46712 50.3356 5.56725 51.3369 6.91902 51.3669V51.3769Z" fill="#4C1F21"/>
<path d="M25.8237 39.4914C26.0239 39.3412 26.2342 39.201 26.4344 39.0508C25.7536 37.9694 25.0827 36.868 24.3918 35.7966C22.6996 33.1832 21.0074 30.5598 20.3065 27.4557C20.0962 26.5345 20.1062 25.5432 19.7958 24.6621C19.6356 24.2215 18.9747 23.6608 18.5542 23.6808C18.1236 23.7008 17.3826 24.3216 17.3626 24.7222C17.2925 25.7235 17.3726 26.8049 17.6931 27.7561C19.2751 32.4622 22.7396 35.8467 25.8237 39.4814V39.4914Z" fill="#4C1F21"/>
<path d="M16.6517 35.1259C18.7845 37.499 20.9674 39.822 23.4706 41.8046C23.6709 41.6544 23.8711 41.5142 24.0714 41.364C23.7009 40.7332 23.3605 40.0723 22.9399 39.4716C20.7971 36.4176 18.6243 33.3936 16.4915 30.3396C15.9809 29.6087 15.3701 29.1581 14.539 29.5686C13.6678 29.9892 13.5977 30.8503 14.0583 31.5713C14.8494 32.8029 15.6805 34.0345 16.6617 35.1259H16.6517Z" fill="#4C1F21"/>
<path d="M44.7283 54.411C42.8258 52.0279 37.9995 50.2856 35.9769 50.8764C37.9895 52.5786 40.0722 53.7101 42.3552 54.4511C43.0661 54.6814 43.9272 54.441 44.7283 54.411Z" fill="#4C1F21"/>
<path d="M48.4431 24.1414C48.313 26.3843 48.1227 28.6272 48.0226 30.8702C47.9926 31.4209 48.2028 31.9916 48.2929 32.5523C48.4131 32.5523 48.5433 32.5524 48.6634 32.5423C48.7435 31.8014 48.8637 31.0604 48.8937 30.3094C49.134 24.9024 49.6347 19.6055 53.2895 15.1296C54.3508 13.8279 54.9616 12.0957 55.5724 10.4836C55.993 9.37213 56.1131 8.13052 56.2033 6.92895C56.2233 6.59852 55.6926 6.07784 55.3021 5.90762C55.0918 5.8175 54.481 6.198 54.3208 6.5084C53.9704 7.1993 53.8101 7.98032 53.5398 8.70126C52.6286 11.1244 51.8576 13.6177 50.7361 15.9407C49.4745 18.5641 48.6134 21.2276 48.4431 24.1214V24.1414Z" fill="#4C1F21"/>
<path d="M46.3504 23.8913C46.8511 22.93 47.4319 21.9988 47.8324 20.9875C49.5146 16.802 51.1367 12.5965 52.7888 8.39106C52.879 8.15074 53.0492 7.88039 53.0091 7.65009C52.929 7.17948 52.8689 6.5086 52.5585 6.30834C52.2381 6.10808 51.407 6.1982 51.1867 6.46855C50.3957 7.46986 49.4945 8.52123 49.1241 9.71278C47.8925 13.688 46.8411 17.7332 45.7897 21.7585C45.6295 22.3693 45.8398 23.0802 45.8798 23.7411C46.04 23.7811 46.2002 23.8312 46.3605 23.8712L46.3504 23.8913Z" fill="#4C1F21"/>
<path d="M42.956 21.9386C44.0875 18.3139 45.2089 14.6891 46.2703 11.0444C46.3504 10.754 46 10.0531 45.7697 10.013C45.3491 9.94294 44.7183 10.0731 44.4379 10.3735C44.0474 10.7941 43.7871 11.4149 43.6569 11.9856C42.996 14.9395 42.3752 17.9033 41.8045 20.8772C41.7144 21.3378 41.9247 21.8685 42.0348 22.7096C42.5955 22.239 42.8959 22.1188 42.956 21.9186V21.9386Z" fill="#4C1F21"/>
<path d="M55.3421 50.6661C55.262 49.034 54.4009 47.8524 51.5572 45.5995C52.0879 48.3631 53.4096 50.0653 55.3421 50.6661Z" fill="#4C1F21"/>
<path d="M39.5616 13.0771C38.5202 14.1886 38.0396 15.4402 38.2499 17.4328C39.6617 15.8808 40.2425 14.6692 39.5616 13.0771Z" fill="#4C1F21"/>
<path d="M26.7849 61.4902C24.9926 60.8594 23.3505 61.6605 21.7283 62.041C17.9434 62.9121 14.2386 63.1324 10.5438 61.5703C9.16195 60.9896 7.63997 60.7192 5.70745 60.1685C6.69874 62.862 10.1633 64.6243 14.6591 65.2652C18.5442 65.8159 25.0527 63.8233 26.7849 61.5003V61.4902Z" fill="#4C1F21"/>
<path d="M24.8424 71.9437C24.1315 71.5632 23.8611 71.2829 23.5808 71.2829C19.6957 71.1928 15.8207 71.1127 11.9356 71.1327C11.495 71.1327 10.6539 71.8436 10.694 72.124C10.7641 72.6847 11.2447 73.3055 11.7253 73.656C12.0858 73.9263 12.7266 73.9163 13.2273 73.8662C16.4114 73.5558 19.5856 73.2254 22.7597 72.8349C23.3505 72.7648 23.9012 72.3643 24.8424 71.9437Z" fill="#4C1F21"/>
<path d="M16.6617 77.1106C16.3613 77.1907 15.9208 77.8516 16.0009 78.0418C16.1711 78.4323 16.6517 78.943 17.0122 78.943C19.5855 78.943 22.1188 78.6927 24.4319 77.1807C21.8185 76.2495 19.2251 76.4197 16.6617 77.1106Z" fill="#4C1F21"/>
<path d="M18.6243 82.5576C20.5267 82.8781 21.9986 82.027 23.2603 80.6351C21.5981 80.9155 19.8859 81.0657 18.6243 82.5576Z" fill="#4C1F21"/>
<path d="M116.552 64.3439C119.125 63.3125 124.122 57.1745 124.873 53.8101C121.789 56.774 118.905 59.9281 116.402 63.4227C116.282 63.5929 116.492 64.0034 116.552 64.3439Z" fill="#4C1F21"/>
<path d="M106.259 62.1409C108.702 61.2097 110.043 59.3372 110.814 56.9641C108.872 58.3159 106.719 59.4574 106.259 62.1409Z" fill="#4C1F21"/>
<path d="M111.225 62.141C113.348 61.9407 114.109 61.1196 114.409 58.7766C113.057 59.6777 111.565 60.1083 111.225 62.141Z" fill="#4C1F21"/>
<path d="M64.6242 21.5981C65.7757 20.707 66.6769 20.1062 67.4479 19.3752C70.592 16.4214 73.7061 13.4375 76.8301 10.4636C77.3909 9.92292 78.0417 9.41226 77.481 8.50107C73.7361 8.81148 65.6355 16.8219 64.6242 21.5981Z" fill="#4C1F21"/>
<path d="M71.9337 9.79288C72.7748 9.0419 74.3969 8.83163 74.2067 6.87908C71.6734 7.84034 70.1614 9.70277 68.4292 11.2848C68.5794 11.4951 68.7195 11.6954 68.8697 11.9056C69.9011 11.2147 71.0225 10.614 71.9337 9.79288Z" fill="#4C1F21"/>
<path d="M68.5193 7.15923C66.9573 7.55976 66.2363 8.72127 65.4353 10.043C67.9586 9.92284 68.8497 9.08174 68.5193 7.15923Z" fill="#4C1F21"/>
<path d="M38.6103 88.4654C38.5302 88.2851 38.4401 88.0949 38.36 87.9146C37.569 88.0448 36.7279 88.0248 36.0069 88.3152C33.2133 89.4566 30.4597 90.6782 27.6961 91.8898C26.875 92.2503 26.0339 92.7509 26.4545 93.8123C26.9151 94.9839 27.9164 94.7836 28.8676 94.4532C29.1079 94.363 29.3583 94.2829 29.5786 94.1528C32.0618 92.771 34.5651 91.4092 37.0082 89.9673C37.619 89.6068 38.0796 88.966 38.6003 88.4553L38.6103 88.4654Z" fill="#4C1F21"/>
<path d="M38.9407 92.0299C37.8293 92.13 37.2786 92.0399 36.848 92.2301C34.7953 93.1413 32.7527 94.0926 30.7401 95.0939C30.0391 95.4443 29.2481 95.975 29.7187 96.8962C30.2394 97.9075 31.2107 97.6372 31.9817 97.1866C33.9242 96.0651 35.8467 94.8936 37.7392 93.672C38.1297 93.4217 38.3199 92.891 38.9407 92.0199V92.0299Z" fill="#4C1F21"/>
<path d="M35.0457 98.8989C34.8955 99.0892 34.9555 99.71 35.1057 99.8001C35.4161 99.9804 36.0069 100.121 36.2272 99.9503C37.4788 98.969 38.6804 97.9177 39.0509 96.1554C37.3887 96.616 36.057 97.5472 35.0356 98.8989H35.0457Z" fill="#4C1F21"/>
<path d="M39.2111 101.112C39.2011 101.312 39.7118 101.763 39.872 101.713C41.0235 101.372 41.9246 100.781 41.5041 99.2495C40.3526 99.4097 39.2912 99.66 39.2111 101.112Z" fill="#4C1F21"/>
<path d="M86.1122 27.1154C88.2951 25.5233 88.0347 23.741 88.235 22.209C88.4453 20.5769 88.6455 18.8446 87.2237 16.8019C85.912 20.0662 85.8719 22.8999 85.8319 25.7236C85.8319 26.1441 85.9921 26.5647 86.1122 27.1154Z" fill="#4C1F21"/>
</g>
<defs>
<clipPath id="clip0_35_13973">
<rect width="143.04" height="114.85" fill="white" transform="scale(1.00131)"/>
</clipPath>
</defs>
</svg>
