<svg width="118" height="131" viewBox="0 0 118 131" fill="none" xmlns="http://www.w3.org/2000/svg">
<g clip-path="url(#clip0_35_14043)">
<path d="M49.7843 5.19226C49.2256 5.0622 48.3056 5.19705 48.019 5.57514C47.7493 5.92673 47.9227 6.85148 48.2069 7.34757C48.7607 8.31087 49.5313 9.15375 50.2056 10.0448C50.497 10.4229 50.7788 10.8058 51.1641 11.3115C49.3989 10.6589 47.8817 9.96047 46.2947 9.54383C44.9076 9.17776 43.4362 8.96822 41.9961 8.97782C40.4765 8.98503 39.8383 10.153 40.6522 11.4438C41.2735 12.4216 42.22 13.1946 43.0604 14.0206C43.4529 14.4084 43.9201 14.7166 44.58 15.2416C43.0459 15.3644 41.8418 15.3403 40.6979 15.5691C38.8797 15.9423 38.3644 17.2957 39.3637 18.8249C39.7201 19.3692 40.1681 19.8798 40.6425 20.3349C41.796 21.4258 42.9158 22.5698 44.1753 23.5114C50.4823 28.2388 55.8501 33.8332 60.1173 40.4654C60.334 40.8026 60.5965 41.0988 60.8157 41.4287C62.9686 44.7473 65.856 47.3313 68.9962 49.6866C70.5326 50.8329 72.0378 52.025 73.4538 53.3158C74.4026 54.178 75.1708 55.2448 76.1822 56.4008C72.1773 57.6506 70.3832 60.432 69.4945 63.9649C69.3355 64.6103 69.1332 65.2412 69.0297 65.889C68.7358 67.7096 67.8737 69.2364 66.672 70.6018C64.5238 73.0485 62.7321 75.7264 61.3786 78.703C60.8945 79.7698 60.3165 80.8053 59.8132 81.7854C57.7494 81.6433 55.6518 81.506 53.5471 81.3663C53.0847 80.7787 52.6079 80.1622 52.1287 79.5529C52.2033 79.329 52.2443 79.1339 52.3261 78.9605C53.4484 76.6775 53.8313 74.3488 52.897 71.878C52.7477 71.483 53.0198 70.9075 53.1234 70.4282C53.357 69.4144 53.8941 68.3813 53.805 67.3963C53.6051 65.1783 53.8676 63.0423 54.4216 60.9231C55.2452 57.802 54.5228 55.2012 52.0279 53.0771C48.6565 50.2113 45.3814 47.225 41.9449 44.4339C37.4344 40.7709 32.5024 40.2266 27.3319 42.9742C25.9978 43.6774 24.7383 44.566 23.5631 45.5148C21.2776 47.3619 19.5798 49.7099 18.0482 52.2096C14.6308 57.7652 12.6849 63.6268 13.5975 70.2807C13.9996 73.2163 14.0839 76.2145 14.026 79.1814C13.9296 84.0942 14.6833 88.7926 16.7013 93.2863C17.0216 94.0112 17.2841 94.765 17.5586 95.5067C19.461 100.612 22.2617 105.142 26.4326 108.692C28.5903 110.527 30.8637 112.256 33.2574 113.768C37.6017 116.509 42.4326 117.525 47.5115 116.907C53.4189 116.187 59.3093 115.349 65.183 114.369C67.1794 114.039 69.1373 113.271 71.0012 112.447C78.2958 109.227 84.6101 104.613 89.9011 98.6386C92.8873 95.2671 95.652 91.7175 97.3643 87.4959C100.406 80.0089 101.011 72.2472 99.7897 64.3266C99.1468 60.1628 97.8489 56.2302 95.1469 52.8731C93.7839 51.1825 92.522 49.4052 91.0867 47.7869C87.7442 44.0156 84.7918 39.9649 82.1212 35.6951C81.3554 34.4766 80.3512 33.3953 79.4409 32.273C78.7859 31.4687 77.9791 30.7582 77.4349 29.8865C71.2291 19.991 62.9306 12.2798 52.9101 6.38678C51.9565 5.82806 50.8511 5.45958 49.7698 5.21152L49.7843 5.19226ZM62.1829 81.8288C63.3967 78.8138 64.8007 75.8782 66.9802 73.458C69.3378 70.8403 70.9369 67.9457 71.5824 64.4441C72.0328 62.0094 73.1213 59.8276 75.8956 58.8981C75.6331 59.4688 75.4091 60.0685 75.1057 60.6176C74.0051 62.5706 73.4777 64.6585 73.6823 66.8861C73.8364 68.567 73.3981 70.0264 72.2927 71.2714C70.6792 73.0775 69.8748 75.2016 69.8507 77.5857C69.8314 78.9921 69.2775 79.7145 67.8952 80.0806C66.3371 80.4923 65.0751 81.4845 64.0998 82.797C63.7915 83.216 63.4664 83.6133 63.1702 83.9962C61.8433 83.6181 61.7927 82.8306 62.1973 81.8336L62.1829 81.8288ZM50.9827 55.1289C50.7179 54.7195 50.4481 54.3004 50.1832 53.891C50.5493 54.2137 50.925 54.5316 51.291 54.8543C51.1874 54.9482 51.0839 55.0422 50.9827 55.1289ZM30.0098 44.188C33.0009 42.8973 35.91 42.984 38.8335 44.376C43.1562 46.4351 46.5686 49.6116 49.745 53.0867C49.8798 53.236 49.9304 53.4696 50.005 53.6791C49.2103 53.053 48.4301 52.4075 47.6065 51.8199C46.9009 51.3118 46.1447 50.8831 45.4102 50.4135C45.2874 50.5411 45.1622 50.676 45.0466 50.806C45.4271 51.3744 45.7666 51.9692 46.1905 52.5038C47.2115 53.7995 48.288 55.0493 49.3066 56.3522C50.7274 58.1584 51.2427 60.321 50.1277 62.2692C49.0681 64.1235 46.9127 64.4726 44.8609 64.3185C41.9807 64.0969 39.599 62.6688 37.4076 60.9107C32.4467 56.9371 29.923 51.7931 30.0604 45.409C30.07 45.0189 30.0339 44.6215 30.0123 44.2049L30.0098 44.188ZM17.145 58.8923C19.5918 52.973 22.7105 47.8315 28.6059 44.7154C28.4975 46.1724 28.2831 47.4174 28.3385 48.648C28.6755 56.1857 35.0282 63.9547 42.3516 65.8982C44.7333 66.5316 46.9199 66.2812 48.8875 64.6653C49.8483 63.8779 50.8911 63.206 51.9242 62.4667C52.0494 64.1139 52.3721 65.6744 52.2059 67.1844C52.0927 68.1982 51.416 69.241 50.7634 70.091C49.9734 71.1121 48.7669 71.625 47.4593 71.6949C43.9625 71.8778 40.461 72.0993 36.9691 72.1233C35.4712 72.1378 33.93 71.8488 32.4826 71.4225C30.821 70.9408 29.2797 70.0498 28.2779 68.5759C25.5953 64.6553 21.7831 62.052 17.9276 59.4824C17.7181 59.3403 17.5158 59.1765 17.1522 58.8947L17.145 58.8923ZM21.9152 86.7722C20.2367 85.4983 18.6352 84.1135 16.9471 82.8444C16.2993 82.3555 16.0489 81.8305 16.0272 81.0286C15.8996 76.5469 15.6757 72.0652 15.5554 67.5859C15.4952 65.1657 15.411 62.7214 16.4899 60.4721C18.4574 62.0351 20.2828 63.4222 22.0311 64.8961C22.9823 65.7028 23.8348 66.6372 24.6753 67.5596C25.3399 68.2869 25.9299 69.0936 26.5464 69.8691C28.3959 72.1955 30.7944 73.6212 33.7276 74.045C35.358 74.2835 37.0124 74.4978 38.65 74.4738C41.4893 74.4329 44.3262 74.2547 47.1534 74.0091C48.3768 73.9032 49.5785 73.477 50.797 73.1928C51.6639 75.6251 50.7873 78.4234 48.4489 79.996C47.4254 80.6823 46.2406 81.1784 45.0654 81.5974C41.5614 82.8375 38.226 84.3908 35.1386 86.4762C34.3728 86.9916 33.5516 87.4323 32.7208 87.8296C28.9206 89.6453 25.289 89.3659 21.9152 86.7963L21.9152 86.7722ZM37.4934 113.535C35.3525 112.372 33.125 111.324 31.1503 109.927C25.6211 106.021 21.5369 100.935 19.254 94.4905C18.611 92.6867 17.8404 90.9287 17.2239 89.1177C16.8073 87.8871 16.569 86.6036 16.5497 85.1683C16.8844 85.4163 17.2288 85.6596 17.5515 85.9196C19.0012 87.0612 20.3691 88.3279 21.9055 89.3297C25.1734 91.4466 28.7086 91.7742 32.3162 90.2956C33.7105 89.7249 35.076 89 36.3138 88.1524C38.7895 86.457 41.4867 85.253 44.273 84.191C46.3585 83.4011 48.42 82.539 50.7704 81.6047C51.7626 82.4572 51.7409 83.6059 51.2086 84.745C49.9443 87.4301 48.6053 90.0743 47.2735 92.7209C46.8617 93.5469 46.3608 94.3272 45.9008 95.1291C44.5112 97.5156 44.2607 100.001 45.4359 102.52C46.428 104.649 46.074 106.53 44.511 108.16C42.818 109.915 41.0118 111.553 39.302 113.287C38.7216 113.872 38.1123 113.87 37.5079 113.54L37.4934 113.535ZM65.1011 112.206C60.6917 112.887 56.1618 113.593 51.2539 114.349C53.2191 110.477 54.5075 106.756 54.9651 102.807C54.8231 102.727 54.6786 102.655 54.5365 102.575C54.1488 103.112 53.6575 103.599 53.3902 104.184C52.1595 106.888 50.965 109.605 49.8187 112.345C49.5561 112.964 49.5561 113.687 49.3972 114.549C46.8084 114.85 44.0774 115.12 41.0359 114.491C41.544 114.002 41.8956 113.67 42.24 113.335C43.6681 111.965 45.1949 110.684 46.4857 109.195C48.2534 107.168 48.9061 104.776 47.7261 102.2C46.6689 99.8805 46.8929 97.7637 48.2199 95.6132C49.4023 93.7035 50.4861 91.7288 51.4927 89.7204C52.432 87.842 53.2219 85.8817 54.1057 83.8805C57.7686 83.1268 60.2683 84.1046 62.3682 87.1726C63.6157 88.9933 64.5259 90.9584 65.0003 93.1234C65.5277 95.5147 66.1754 97.882 66.5944 100.285C67.194 103.736 66.5172 107.115 65.6815 110.465C65.5515 110.975 65.3492 111.462 65.1011 112.206ZM85.3977 98.8793C85.4676 99.3441 85.4025 100.021 85.1063 100.307C81.3567 103.97 77.1037 106.951 72.2078 109.405C72.5763 103.845 71.8467 98.7129 69.1858 93.4991C68.6415 95.7098 69.4651 97.3571 69.6408 99.0452C69.831 100.883 70.0477 102.713 70.2307 104.548C70.4089 106.301 70.1512 108.134 71.2638 109.877C70.2547 110.328 69.2698 110.778 68.0175 111.332C68.0849 110.648 68.097 110.227 68.1692 109.817C68.6846 106.922 68.6534 104.054 68.0201 101.162C67.5722 99.1102 67.1652 97.0078 67.0858 94.9103C66.9582 91.5123 66.1178 88.3985 64.16 85.6989C65.6988 83.1775 66.9897 82.2431 69.7302 81.6556C71.6736 84.4467 74.6814 86.0675 77.3063 88.1627C80.3816 90.6167 83.228 93.2513 84.7548 97.0033C85.0004 97.615 85.299 98.2363 85.3905 98.8769L85.3977 98.8793ZM79.3108 35.3122C80.893 37.6698 82.3764 40.107 84.0332 42.4092C85.6852 44.7019 87.5058 46.8741 89.2685 49.1234C88.2787 49.4678 87.2986 49.8073 86.2462 50.1709C83.9151 45.9662 81.5648 41.7229 78.9857 37.0822C78.6919 37.8432 78.3716 38.2502 78.4462 38.556C78.6557 39.4447 78.9399 40.3501 79.3517 41.1617C81.0879 44.5742 82.9037 47.9409 85.4298 50.9343C84.2136 53.2101 81.7958 52.4201 79.9318 53.0992C81.4466 54.1661 84.2497 54.354 85.6465 53.5352C85.8753 53.4027 86.0824 53.239 86.2967 53.0776C88.9458 51.127 89.3913 51.1632 91.9921 53.0898C93.6393 54.3132 94.7567 55.8978 95.5779 57.7449C97.7235 62.5782 98.2147 67.6788 98.087 72.8781C97.9352 78.9203 96.6226 84.6639 93.6002 89.9498C93.1523 90.7397 92.6225 91.4862 91.9361 92.5579C90.5852 87.0262 86.5804 81.6534 82.8598 80.2927C83.0211 80.8201 83.0548 81.2729 83.2836 81.598C83.8471 82.412 84.4491 83.2067 85.1018 83.946C87.1053 86.1953 88.6369 88.7047 89.6532 91.556C89.9036 92.2496 90.5827 92.789 91.1968 93.5717C90.1227 94.8432 88.8608 96.3411 87.5555 97.8968C87.3075 97.6536 87.1028 97.5452 87.0546 97.4007C85.7831 93.0033 82.8885 89.7907 79.3557 87.0959C77.6796 85.8147 75.8807 84.6852 74.1492 83.4738C73.5568 83.0596 72.9765 82.6093 72.4129 82.1565C71.534 81.4461 70.9705 80.608 71.4786 79.4208C71.4979 79.363 71.5075 79.2859 71.5051 79.2209C71.3293 76.136 72.4396 73.5761 74.5926 71.3798C75.551 70.4069 75.9171 69.068 75.8088 67.7073C75.5921 65.0342 76.2881 62.6092 77.5645 60.2973C77.7884 59.8903 77.9642 59.4593 78.1304 59.033C78.6458 57.6796 78.6073 56.5188 77.7403 55.1462C75.8692 52.2105 73.2202 50.1876 70.5086 48.1839C69.2853 47.2784 68.045 46.3994 66.8771 45.424C66.3039 44.952 65.8897 44.2922 65.3985 43.719C65.4707 43.5745 65.5526 43.4252 65.6248 43.2807C66.4195 43.4252 67.2359 43.5047 68.0065 43.7215C71.8428 44.8317 72.6881 44.4392 74.1307 40.6896C74.6099 39.4446 74.9278 38.226 76.4859 37.7661C77.0278 37.6096 77.4179 36.7282 77.7382 36.1045C77.9935 35.6035 78.0417 35.0015 78.2488 34.2116C78.7232 34.6909 79.0772 34.9534 79.3132 35.305L79.3108 35.3122ZM76.6209 31.7022C76.3945 32.5981 76.12 33.3494 76.0164 34.1177C75.8719 35.1773 75.566 35.9503 74.3884 36.3043C73.2734 36.639 72.9483 37.7829 72.5437 38.7558C72.3149 39.2976 72.2113 39.8973 72.0163 40.4584C71.2504 42.6836 70.6195 43.0592 68.3317 42.4572C67.8452 42.3271 67.2769 41.8888 67.0505 41.4361C64.0307 35.2758 59.2433 30.493 54.6943 25.5248C54.4294 25.2358 54.0826 25.0239 53.743 24.8144C53.6106 24.7301 53.3987 24.7638 52.8665 24.6988C53.4998 25.6645 53.9453 26.4472 54.4799 27.1552C57.7815 31.5309 61.1144 35.885 64.4232 40.2632C64.8133 40.7786 65.1264 41.3566 65.4828 41.9249C64.8639 42.5775 64.3533 42.6642 63.8428 41.9321C63.1565 40.9568 62.4244 40.0224 61.779 39.0205C57.4419 32.357 52.0428 26.712 45.6106 22.0231C43.9249 20.7949 42.4583 19.2705 40.8881 17.8882C40.9917 17.722 41.1001 17.5655 41.2036 17.3993C44.2043 17.1152 47.0724 17.7342 49.8467 18.8516C52.8497 20.0533 55.347 22.0257 57.5215 24.3641C59.6768 26.6881 61.6515 29.1686 63.725 31.5696C64.2114 32.1331 64.787 32.622 65.3192 33.1446C65.4685 33.0579 65.6154 32.9784 65.7647 32.8917C65.6587 32.439 65.6539 31.9236 65.4276 31.5431C61.7287 25.3973 57.3193 20.0101 50.6029 16.848C47.6962 15.4777 45.2856 13.2693 42.7787 11.2295C44.4548 10.8972 45.9599 11.3668 47.3976 11.8943C53.1388 14.0088 58.2369 17.0649 61.9286 22.1246C63.6432 24.4702 65.4517 26.7508 67.2386 29.0482C67.6937 29.6334 68.2115 30.1753 68.7991 30.6521C68.4306 28.6268 63.8479 21.2793 60.6499 17.8933C57.1797 14.2159 53.4832 10.7601 50.0178 7.06825C60.8908 13.1492 69.6228 21.5347 76.6016 31.7119L76.6209 31.7022Z" fill="#4C1F21"/>
<path d="M77.9708 82.2193C81.8648 85.7089 85.742 89.2008 87.0977 94.5736C87.1965 94.9517 87.8226 95.4574 88.1959 95.4454C88.9087 95.4261 89.0604 94.7301 89.0123 94.104C88.9786 93.6512 88.928 93.1527 88.7209 92.7626C87.9599 91.3129 87.2592 89.8029 86.3007 88.488C84.4609 85.9642 81.9395 84.1122 79.5097 82.2025C78.3899 81.3235 77.2147 80.5143 76.066 79.6738C75.9528 79.8207 75.8396 79.9676 75.7264 80.1145C76.4729 80.8129 77.2123 81.533 77.9732 82.2121L77.9708 82.2193Z" fill="#4C1F21"/>
<path d="M94.058 64.158C94.1616 65.0755 94.2819 65.9906 94.4529 66.8985C94.5444 67.3705 94.7587 67.8112 94.961 68.3844C97.9111 64.7601 94.4772 55.2428 89.6632 53.6461C89.4272 54.9561 90.1954 55.6858 90.73 56.442C92.3988 58.7804 93.7161 61.2585 94.058 64.158Z" fill="#4C1F21"/>
<path d="M85.6483 77.9232C85.7133 78.5228 85.6506 78.8311 85.7831 78.9876C87.9769 81.7739 90.1876 84.5579 92.4344 87.3057C92.6054 87.5152 93.2219 87.5923 93.4531 87.4526C93.7156 87.2912 93.9781 86.7446 93.8914 86.4749C93.665 85.7331 93.4002 84.9143 92.8848 84.3653C90.992 82.3616 88.9956 80.4519 87.0089 78.5373C86.7488 78.282 86.3153 78.2098 85.6507 77.916L85.6483 77.9232Z" fill="#4C1F21"/>
<path d="M88.0927 76.5144C88.4394 77.0153 88.7284 77.5692 89.1426 78.0123C90.5442 79.491 91.9602 80.9504 93.4268 82.3544C93.7494 82.6627 94.4189 82.9661 94.7368 82.8313C95.4328 82.5254 95.2377 81.8102 94.9102 81.2996C93.3401 78.8818 91.2522 77.1021 88.5888 76.0617C88.425 76.2158 88.254 76.3675 88.0927 76.5144Z" fill="#4C1F21"/>
<path d="M82.3495 50.3973C82.3183 48.3479 79.3105 43.1389 77.461 42.1129C77.6006 44.7042 80.5025 49.5086 82.3495 50.3973Z" fill="#4C1F21"/>
<path d="M90.3468 73.0996C91.1535 75.2068 93.9614 77.2105 96.1071 77.0829C95.7219 75.2045 94.2023 74.6337 92.9982 73.839C92.2468 73.3477 91.4521 72.5771 90.3468 73.0996Z" fill="#4C1F21"/>
<path d="M78.3857 49.7663C78.3544 48.0781 76.5338 44.8222 74.9396 43.8011C74.6241 46.2647 76.3194 49.1016 78.3857 49.7663Z" fill="#4C1F21"/>
<path d="M95.5413 73.2418C94.8887 71.9485 93.4269 71.2766 91.6376 71.4428C92.8898 72.7914 94.2673 73.4272 95.5413 73.2418Z" fill="#4C1F21"/>
<path d="M36.2727 90.0332C33.4767 90.8351 30.9938 92.4799 27.9715 92.5641C24.8192 92.6532 22.3966 90.8662 19.8246 89.3827C19.4489 90.7024 19.3767 90.871 20.116 91.3984C21.284 92.2293 22.5073 93.1107 23.8366 93.5779C28.7758 95.3047 32.5447 92.6196 36.2727 90.0332Z" fill="#4C1F21"/>
<path d="M38.7334 110.705C37.4764 109.347 31.5137 104.791 30.3987 104.379C30.1338 104.283 29.7991 104.372 29.5077 104.379C29.1753 105.448 29.8809 105.98 30.4396 106.472C31.5787 107.461 32.7804 108.384 34.0037 109.265C34.9622 109.954 35.9568 110.607 36.9995 111.163C37.6329 111.502 38.3794 111.671 38.7262 110.703L38.7334 110.705Z" fill="#4C1F21"/>
<path d="M34.7049 94.2066C34.6447 94.026 34.5941 93.8405 34.5339 93.6599C33.5899 93.8911 32.6338 94.1102 31.6946 94.351C29.402 94.9434 27.1021 95.5334 24.6939 95.2925C23.9787 95.2227 23.2659 94.977 22.5555 94.9891C22.199 94.9987 21.6355 95.3406 21.5488 95.6489C21.4597 95.9644 21.7294 96.6483 22.0136 96.7591C22.7192 97.0505 23.5187 97.2528 24.2821 97.2504C28.0582 97.2408 31.3334 95.5551 34.6977 94.2042L34.7049 94.2066Z" fill="#4C1F21"/>
<path d="M29.3489 99.7744C31.5741 98.8063 33.7753 97.7901 35.8078 96.4608C35.7476 96.2802 35.6946 96.102 35.6344 95.9213C35.0902 96.0369 34.5315 96.1236 33.9968 96.2825C31.278 97.0941 28.5735 97.9345 25.857 98.7388C25.2068 98.9314 24.7348 99.2638 24.8311 99.9621C24.925 100.692 25.5295 100.95 26.1605 100.791C27.2393 100.516 28.3278 100.213 29.3513 99.7671L29.3489 99.7744Z" fill="#4C1F21"/>
<path d="M50.0163 84.155C47.8393 84.9545 45.4214 88.0177 45.3612 89.6192C47.0734 88.5764 48.3907 87.3459 49.4744 85.8769C49.8116 85.4193 49.8453 84.7402 50.0163 84.155Z" fill="#4C1F21"/>
<path d="M29.07 74.1944C30.657 74.8278 32.2295 75.5045 33.8237 76.1162C34.2139 76.2703 34.6762 76.2559 35.1025 76.3257C35.1314 76.239 35.1627 76.1451 35.1844 76.056C34.669 75.82 34.1633 75.5551 33.6287 75.3528C29.7852 73.8789 26.0838 72.2437 23.7335 68.5302C23.0496 67.4513 21.9466 66.594 20.9304 65.7655C20.2296 65.1948 19.3626 64.8094 18.5174 64.4554C18.2838 64.3615 17.7804 64.6192 17.5637 64.86C17.4481 64.99 17.5757 65.5222 17.7612 65.7125C18.1754 66.1315 18.7003 66.435 19.1555 66.8034C20.6847 68.0437 22.2982 69.1996 23.7045 70.5675C25.2939 72.1088 27.0085 73.3707 29.0555 74.1896L29.07 74.1944Z" fill="#4C1F21"/>
<path d="M28.386 75.6441C27.8128 75.0517 27.2806 74.4087 26.6473 73.8765C24.032 71.6561 21.3878 69.4742 18.7509 67.2706C18.5991 67.1478 18.445 66.96 18.2692 66.9335C17.9104 66.8781 17.4119 66.7601 17.1927 66.9359C16.9712 67.1189 16.8363 67.7402 16.9784 67.9642C17.5106 68.7757 18.0524 69.6788 18.823 70.2327C21.395 72.0774 24.0608 73.809 26.7123 75.5357C27.1144 75.7982 27.6779 75.8175 28.1644 75.9475C28.2318 75.8416 28.3065 75.738 28.3739 75.6321L28.386 75.6441Z" fill="#4C1F21"/>
<path d="M26.1608 77.6236C23.8176 75.9354 21.4721 74.2544 19.0976 72.612C18.9073 72.4843 18.3173 72.5686 18.233 72.7251C18.0813 73.0117 18.0235 73.4982 18.1728 73.7727C18.3823 74.1556 18.7676 74.4928 19.1481 74.724C21.1204 75.9113 23.1096 77.072 25.118 78.1991C25.4287 78.3749 25.8622 78.3508 26.4955 78.4737C26.2908 77.9559 26.2764 77.7103 26.1463 77.6188L26.1608 77.6236Z" fill="#4C1F21"/>
<path d="M49.8673 75.5962C48.6704 75.2614 47.6108 75.5986 45.3013 77.1085C47.4229 77.3903 48.969 76.8461 49.8673 75.5962Z" fill="#4C1F21"/>
<path d="M18.9506 77.9414C19.5021 78.9601 20.2895 79.6079 21.7778 79.9354C20.9976 78.5435 20.2631 77.833 18.9506 77.9414Z" fill="#4C1F21"/>
<path d="M50.8085 98.8041C49.9222 99.9456 50.1052 101.323 49.9896 102.585C49.7078 105.525 48.9757 108.251 46.96 110.542C46.2086 111.399 45.6475 112.432 44.7853 113.694C46.9672 113.627 49.072 111.551 50.6157 108.461C51.9475 105.79 52.0752 100.615 50.8157 98.8065L50.8085 98.8041Z" fill="#4C1F21"/>
<path d="M57.8837 102.72C57.4382 103.141 57.1709 103.269 57.1034 103.471C56.104 106.253 55.1142 109.03 54.1942 111.837C54.0882 112.155 54.3989 112.933 54.6108 112.972C55.0322 113.056 55.5957 112.859 55.9642 112.596C56.246 112.401 56.3929 111.936 56.4772 111.563C57.0191 109.191 57.5441 106.821 58.0258 104.437C58.1173 103.994 57.9608 103.5 57.8837 102.72Z" fill="#4C1F21"/>
<path d="M59.644 109.865C59.6295 110.101 60.0004 110.578 60.1569 110.566C60.4796 110.537 60.9637 110.313 61.0504 110.053C61.6693 108.196 62.098 106.308 61.5634 104.276C60.263 105.937 59.762 107.849 59.644 109.865Z" fill="#4C1F21"/>
<path d="M64.0462 109.759C64.7349 108.464 64.4749 107.197 63.7741 105.952C63.5766 107.219 63.2731 108.49 64.0462 109.759Z" fill="#4C1F21"/>
<path d="M74.458 34.7222C74.3328 32.6174 71.1059 27.536 68.8591 26.185C70.2558 29.123 71.838 31.9623 73.7573 34.609C73.8512 34.7366 74.198 34.6836 74.458 34.7222Z" fill="#4C1F21"/>
<path d="M70.393 41.6192C70.3087 39.6324 69.2804 38.214 67.7536 37.0869C68.2617 38.8136 68.5676 40.6414 70.393 41.6192Z" fill="#4C1F21"/>
<path d="M71.5875 38.0358C71.9535 36.456 71.5442 35.7095 69.9259 34.9292C70.2509 36.1213 70.2028 37.3013 71.5875 38.0358Z" fill="#4C1F21"/>
<path d="M31.1268 61.9076C30.7608 60.8625 30.544 60.0678 30.2021 59.3357C28.827 56.3567 27.4231 53.3922 26.0288 50.4228C25.7735 49.8882 25.5616 49.2958 24.7693 49.4812C24.0926 52.2578 27.9239 60.0292 31.1268 61.9076Z" fill="#4C1F21"/>
<path d="M24.367 53.7943C24.0275 53.0068 24.2659 51.7858 22.8114 51.4535C22.8956 53.5125 23.8757 55.0514 24.6006 56.6817C24.7884 56.6239 24.9666 56.5709 25.1545 56.5132C24.904 55.6028 24.7403 54.6492 24.367 53.7943Z" fill="#4C1F21"/>
<path d="M21.6457 55.6246C21.559 56.8479 22.2237 57.6475 22.9846 58.5433C23.5048 56.6938 23.1123 55.8485 21.6457 55.6246Z" fill="#4C1F21"/>
<path d="M73.1157 96.76C72.9664 96.7744 72.8074 96.7937 72.6581 96.8081C72.5618 97.4102 72.345 98.0122 72.3811 98.6022C72.5328 100.892 72.7519 103.173 72.9614 105.458C73.024 106.138 73.1829 106.865 74.0499 106.817C75.0059 106.766 75.1023 105.995 75.0927 105.23C75.0854 105.035 75.0879 104.835 75.0469 104.644C74.6472 102.52 74.2667 100.387 73.814 98.2771C73.7008 97.7497 73.3492 97.2633 73.106 96.7648L73.1157 96.76Z" fill="#4C1F21"/>
<path d="M75.7671 97.379C75.572 98.205 75.3746 98.5807 75.4083 98.9371C75.572 100.637 75.767 102.34 76.0054 104.033C76.0897 104.623 76.2823 105.321 77.0602 105.203C77.9151 105.071 77.9537 104.305 77.814 103.64C77.472 101.969 77.0892 100.3 76.6629 98.6409C76.5763 98.2989 76.2391 98.034 75.7599 97.3766L75.7671 97.379Z" fill="#4C1F21"/>
<path d="M79.7863 101.841C79.8874 101.996 80.3498 102.101 80.451 102.015C80.6557 101.834 80.8989 101.442 80.8291 101.242C80.4221 100.103 79.9525 98.9828 78.7701 98.2917C78.7026 99.6017 79.0542 100.787 79.7839 101.849L79.7863 101.841Z" fill="#4C1F21"/>
<path d="M82.3848 99.3682C82.5269 99.4236 82.9748 99.1635 82.9773 99.0359C83.0086 98.1232 82.7991 97.3309 81.5926 97.2658C81.4312 98.1352 81.3565 98.9612 82.3848 99.3682Z" fill="#4C1F21"/>
<path d="M40.2757 47.7307C39.6521 45.7728 38.3035 45.532 37.2463 45.019C36.1192 44.4747 34.9175 43.9136 33.1018 44.4482C35.1415 46.1797 37.1764 46.8902 39.2041 47.5982C39.5075 47.6994 39.8495 47.6849 40.2757 47.7307Z" fill="#4C1F21"/>
</g>
<defs>
<clipPath id="clip0_35_14043">
<rect width="108.757" height="87.3236" fill="white" transform="translate(0 103.34) scale(1.0016) rotate(-71.5641)"/>
</clipPath>
</defs>
</svg>
