<svg width="291" height="275" viewBox="0 0 291 275" fill="none" xmlns="http://www.w3.org/2000/svg">
<g clip-path="url(#clip0_35_13658)">
<path d="M241.485 41.8794C246.344 47.8452 250.476 54.2712 253.406 61.4149C254.526 64.1367 255.641 66.9009 253.967 69.7787C259.057 73.261 260.556 75.7115 261.162 81.8859C261.395 84.2526 261.527 86.661 261.41 89.0312C261.174 93.737 260.731 98.4375 260.371 103.141C260.32 103.794 260.108 104.472 260.217 105.098C260.649 107.728 260.395 110.305 259.756 112.852C258.777 116.794 257.425 120.599 255.513 124.195C252.25 130.333 248.211 135.955 244.087 141.526C241.816 144.589 239.116 147.34 237.388 150.795C237.168 151.234 236.82 151.616 236.514 152.004C233.82 155.423 230.387 157.932 226.571 159.921C223.477 161.532 220.29 162.963 217.196 164.574C215.085 165.673 213.022 166.864 211.025 168.146C209.131 169.358 207.669 170.929 206.875 173.163C206.093 175.353 204.77 177.296 203.285 179.12C200.321 182.761 196.716 185.706 193.112 188.658C190.028 191.185 186.865 193.632 183.88 196.277C180.435 199.327 177.194 202.597 173.783 205.682C171.36 207.872 168.794 209.906 166.318 212.039C162.113 215.653 157.961 219.318 153.725 222.883C151.993 224.345 150.115 225.636 148.252 226.932C147.854 227.207 147.144 227.374 146.736 227.203C146.087 226.93 146.469 226.244 146.547 225.718C146.559 225.646 146.473 225.56 146.384 225.399C145.197 225.962 144.018 226.529 142.806 227.104C142.902 227.567 142.98 227.882 143.034 228.209C143.619 231.31 142.905 233.997 140.264 235.867C137.659 237.709 134.85 237.661 132.084 236.189C130.195 235.186 129.107 233.423 128.165 231.568C127.982 231.213 127.78 230.868 127.505 230.373C126.642 232.103 125.877 233.641 125.11 235.173C123.315 238.765 121.214 242.152 118.31 244.952C116.919 246.295 115.398 247.513 113.844 248.669C113.103 249.222 112.207 249.724 111.005 249.276C112.376 247.337 113.663 245.519 115.098 243.484C113.217 244.258 112.102 245.972 109.714 245.996C110.174 245.252 110.378 244.768 110.709 244.403C111.972 243.004 113.26 241.628 114.565 240.268C117.73 236.965 119.94 233.107 121.302 228.748C121.397 228.439 121.419 228.11 121.541 227.436C120.784 228.241 120.31 228.788 119.792 229.281C119.353 229.696 118.838 230.175 118.195 229.728C117.623 229.329 117.843 228.724 118.046 228.206C118.372 227.38 118.714 226.564 119.101 225.767C122.27 219.275 126.566 213.6 131.557 208.416C132.742 207.178 133.856 205.858 134.915 204.508C135.608 203.627 136.153 202.624 136.901 201.469C136.023 201.457 135.482 201.445 134.936 201.44C128.475 201.435 122.28 202.79 116.239 204.989C104.113 209.411 92.6606 215.19 81.7742 222.108C77.1363 225.06 72.7456 228.34 68.8754 232.271C65.8539 235.337 63.2741 238.705 61.5271 242.668C61.3404 243.1 61.2215 243.559 61.0473 244.085C61.4144 244.126 61.6292 244.165 61.8424 244.162C65.0287 244.132 66.1717 245.828 66.5683 248.451C67.0976 251.95 65.3092 255.445 62.0996 257.232C61.4319 257.605 60.7319 257.922 60.0758 258.25C60.0716 258.43 60.034 258.549 60.0691 258.652C62.0342 265.132 69.8796 269.101 76.2754 266.849C79.9714 265.548 81.811 263.037 81.9386 259.112C81.9481 258.724 81.9071 258.325 81.9816 257.951C82.0444 257.62 82.2278 257.307 82.5318 256.575C82.9146 257.427 83.2009 257.878 83.3245 258.377C83.8269 260.344 83.5488 262.236 82.6145 264.023C81.2914 266.532 79.0659 267.909 76.4474 268.718C69.4948 270.878 61.5939 267.141 58.6732 260.341C58.4367 259.796 58.212 259.242 57.9256 258.556C57.2705 258.622 56.666 258.733 56.0646 258.726C51.6227 258.719 47.8185 257.158 44.764 253.918C41.2709 250.223 39.7527 245.741 39.7554 240.711C39.7598 235.521 41.3536 230.783 43.9399 226.344C47.4984 220.235 52.4504 215.432 58.1875 211.425C73.3562 200.836 90.0931 194.669 108.678 193.813C114.354 193.552 120.003 193.628 125.505 195.3C129.736 196.587 133.955 197.924 138.251 199.259C140.195 196.449 142.713 194.253 145.622 192.445C147.57 191.229 149.082 189.502 150.267 187.526C151.262 185.865 152.223 184.176 153.139 182.469C155.009 178.999 156.983 175.603 159.455 172.513C161.812 169.57 164.195 166.649 166.528 163.691C167.896 161.966 169.205 160.192 170.573 158.399C170.085 157.94 169.781 157.534 169.371 157.287C165.091 154.659 160.588 153.587 155.769 155.659C153.945 156.442 152.196 157.424 150.452 158.392C147.444 160.054 144.499 161.821 141.475 163.439C138.302 165.136 134.907 166.092 131.281 166.13C129.397 166.153 127.647 165.728 126.11 164.596C123.564 162.714 121.029 160.822 118.967 158.384C118.602 157.949 118.212 157.533 117.835 157.107C117.727 157.185 117.619 157.262 117.511 157.34C118.237 158.687 118.884 160.085 119.713 161.363C122.633 165.887 126.82 168.1 132.194 167.915C135.508 167.803 138.647 166.873 141.6 165.38C143.331 164.512 145.002 163.525 146.688 162.57C149.454 161.006 152.386 159.848 155.473 159.101C157.364 158.641 158.09 158.988 159.045 160.64C159.463 161.361 159.849 162.096 160.243 162.835C160.503 163.327 160.841 163.83 160.415 164.373C159.981 164.939 159.427 164.694 158.897 164.5C157.063 163.83 155.266 164.077 153.565 164.89C152.373 165.46 151.221 166.161 150.153 166.933C146.789 169.373 143.406 171.789 139.672 173.643C134.362 176.278 128.883 176.857 123.218 174.901C120.598 174 117.986 173.069 115.37 172.154C114.857 171.977 114.335 171.815 113.817 171.646C117.536 174.363 121.621 176.252 126.04 177.416C129.752 178.396 133.414 178.233 137.001 176.906C138.821 176.234 140.6 175.467 142.39 174.718C145.916 173.231 149.501 171.89 153.265 171.12C154.132 170.941 155.017 170.821 155.893 170.757C156.206 170.734 156.537 170.969 156.954 171.118C156.413 172.175 155.483 172.146 154.738 172.307C151.021 173.108 148.041 175.104 145.394 177.747C142.147 180.991 139.637 184.766 137.299 188.671C136.597 189.844 135.968 191.071 135.246 192.386C135.896 192.997 136.412 193.491 136.94 193.975C137.101 194.121 137.288 194.227 137.563 194.426C138.177 193.188 138.752 192 139.351 190.828C141.419 186.751 143.75 182.875 147.224 179.798C149.276 177.981 151.526 176.489 154.096 175.51C154.677 175.286 155.31 174.914 155.963 175.469C155.89 176.353 155.149 176.506 154.599 176.779C149.528 179.302 145.671 183.1 142.899 188.005C141.454 190.559 140.134 193.185 138.752 195.774C138.206 196.805 137.84 196.901 136.989 196.152C136.114 195.387 135.276 194.567 134.44 193.76C133.725 193.066 133.555 192.245 133.951 191.322C134.147 190.867 134.325 190.396 134.574 189.965C137.337 185.144 140.318 180.479 144.338 176.572C144.585 176.334 144.813 176.067 145.051 175.817C144.354 175.782 143.845 175.956 143.348 176.155C141.655 176.836 139.965 177.536 138.262 178.205C133.875 179.932 129.417 180.114 124.885 178.8C120.859 177.637 117.098 175.916 113.56 173.673C111.21 172.178 108.997 170.509 107.093 168.467C106.678 168.028 106.091 167.556 106.642 166.918C107.127 166.362 107.603 166.864 108.104 167.119C110.129 168.144 112.129 169.249 114.236 170.069C117.182 171.214 120.219 172.098 123.202 173.152C129.011 175.209 134.604 174.614 139.866 171.575C143.118 169.696 146.206 167.52 149.313 165.402C151.877 163.659 154.503 162.185 157.746 162.399C157.836 162.401 157.931 162.291 158.022 162.231C157.152 160.389 157.075 160.35 155.117 160.885C154.746 160.99 154.378 161.114 154 161.219C150.894 162.137 148.061 163.646 145.302 165.312C141.898 167.361 138.281 168.811 134.331 169.447C127.225 170.597 120.636 167.168 117.634 161.144C115.736 157.327 114.081 153.384 112.332 149.487C112.177 149.14 112.061 148.743 112.059 148.364C112.063 147.652 112.791 147.302 113.351 147.745C113.689 148.014 113.966 148.384 114.206 148.749C114.817 149.671 115.418 150.61 115.98 151.563C118.799 156.335 122.592 160.175 127.186 163.229C129.385 164.693 133.238 164.788 135.758 163.502C135.493 163.418 135.303 163.333 135.101 163.292C129.7 162.213 126.705 157.822 126.489 153.037C126.418 151.389 126.537 149.694 126.837 148.073C127.881 142.31 129.781 136.819 132.357 131.561C132.624 131.016 132.924 130.464 133.313 130.012C133.887 129.355 134.784 129.591 134.935 130.456C135.042 131.041 134.98 131.675 134.911 132.276C134.313 137.961 133.65 143.638 133.101 149.326C132.943 150.966 132.927 152.66 133.147 154.291C133.438 156.405 134.738 157.558 136.873 157.648C138.119 157.702 139.462 157.562 140.611 157.118C143.082 156.159 145.46 154.951 147.869 153.833C148.04 153.756 148.17 153.584 148.321 153.45C146.795 151.667 145.382 149.965 143.914 148.301C140.313 144.215 138.832 139.512 139.802 134.123C140.452 130.525 141.005 126.892 141.881 123.351C143.1 118.435 144.868 113.709 148.028 109.642C148.371 109.199 148.811 108.825 149.259 108.36C150.403 110.125 150.033 111.774 149.662 113.382C148.295 119.288 147.613 125.3 146.922 131.308C146.733 132.961 146.67 134.63 146.62 136.289C146.553 138.504 147.055 140.602 148.293 142.457C149.71 144.58 151.182 146.663 152.658 148.739C152.892 149.07 153.281 149.286 153.574 149.536C158.544 145.254 163.977 141.945 169.688 139.083C175.362 136.242 181.151 133.653 187.281 131.787C187.124 131.592 187.077 131.464 186.996 131.439C183.257 130.162 180.104 127.915 177.064 125.479C174.378 123.322 172.419 120.745 171.957 117.205C171.618 114.563 171.098 111.945 170.814 109.299C170.633 107.653 170.728 105.977 170.722 104.309C170.723 103.715 170.954 103.095 171.596 103.1C171.983 103.103 172.497 103.521 172.718 103.89C173.194 104.695 173.601 105.564 173.895 106.455C174.863 109.408 175.857 112.349 176.669 115.349C177.515 118.479 179.489 120.693 181.963 122.591C182.085 122.683 182.277 122.678 182.605 122.762C179.667 118.883 178.423 114.628 178.186 110.04C178.01 106.578 178.576 103.177 179.11 99.7829C179.218 99.105 179.159 98.1168 180.046 98.0372C181.095 97.9448 181.119 98.9955 181.275 99.7155C182.076 103.462 182.822 107.213 183.61 110.963C183.935 112.538 184.262 114.119 184.723 115.653C185.073 116.815 185.667 117.886 186.686 118.58C186.193 117.26 185.428 115.962 185.249 114.592C184.508 108.901 185.975 103.816 189.858 99.5098C190.043 99.306 190.22 99.0624 190.458 98.9443C190.683 98.829 191.057 98.738 191.218 98.8496C191.45 99.0086 191.685 99.3742 191.669 99.6327C191.639 100.122 191.441 100.598 191.305 101.074C190.397 104.125 189.747 107.226 190.111 110.421C190.255 111.723 190.56 113.068 191.108 114.252C192.333 116.911 194.408 117.71 196.985 116.302C199.732 114.81 202.282 112.966 205.131 111.136C204.573 110.906 204.341 110.782 204.085 110.71C201.861 110.059 199.928 108.878 198.185 107.381C196.753 106.159 195.568 104.727 195.651 102.723C195.851 97.9139 196.802 93.3018 199.63 89.1647C198.366 87.3833 197.065 85.5889 195.806 83.7651C194.043 81.2036 192.31 78.622 191.17 75.7042C190.85 74.8871 190.64 74.0058 190.523 73.1399C190.408 72.315 191.025 71.7944 191.694 71.4975C192.414 71.1764 192.811 71.7982 193.165 72.2771C193.491 72.7204 193.759 73.217 194.024 73.7004C195.418 76.2417 197.021 78.6293 199.092 80.6788C201.379 82.939 203.616 85.2578 205.981 87.4327C207.249 88.5991 208.874 88.9882 210.677 88.4711C208.792 87.5217 207.311 86.1233 205.936 84.6063C205.338 83.95 204.775 83.259 204.225 82.5653C201.902 79.595 199.505 76.6676 197.762 73.3015C196.285 70.4533 195.279 67.487 195.621 64.2011C195.871 61.8381 196.875 59.8509 198.578 58.2159C199.051 57.7665 199.538 57.1208 200.275 57.4861C201.067 57.8815 200.677 58.6313 200.588 59.2706C200.416 60.4722 200.055 61.6989 200.149 62.887C200.509 67.4355 202.064 71.5302 205.292 74.8727C207.214 76.8701 209.136 78.8675 211.128 80.8021C212.077 81.724 213.151 82.5166 214.218 83.3106C214.585 83.5867 215.089 83.6896 215.624 83.9104C216.106 82.9348 216.564 82.1157 216.916 81.2495C218.062 78.4186 219.122 75.5366 221.873 73.9337C221.529 69.5613 220.239 65.7155 217.639 62.3745C215.113 59.1218 212.888 55.6898 210.921 52.0733C210.187 50.7207 209.155 49.533 208.206 48.3076C206.524 46.1365 204.071 44.5452 203.299 41.7034C202.95 41.6511 202.683 41.5958 202.409 41.5696C192.59 40.4986 182.783 40.6877 173.036 42.1341C166.46 43.1121 159.943 44.5124 153.401 45.7181C152.477 45.888 151.552 46.1136 150.614 46.1829C149.202 46.2882 148.659 45.4963 149.247 44.202C149.493 43.6546 149.898 43.1777 150.259 42.6892C150.89 41.8412 151.546 41.009 152.187 40.1729C151.368 40.1487 150.742 40.3539 150.109 40.526C148.998 40.8243 148.591 40.522 148.48 39.3512C148.467 39.1882 148.46 39.0174 148.466 38.8503C148.627 34.4842 149.501 30.2675 151.192 26.234C152.159 23.9369 153.856 22.4066 156.29 21.8698C158.341 21.4187 160.438 21.1582 162.514 20.8263C163.088 20.7354 163.664 20.6855 164.249 20.6131C164.197 19.6924 164.11 18.972 164.127 18.251C164.158 16.9336 164.562 16.4501 165.832 16.188C166.48 16.0542 167.15 15.9919 167.81 15.9176C179.689 14.5419 191.148 15.709 201.99 21.2331C204.834 22.6882 207.969 23.5797 210.966 24.7344C211.984 25.1244 212.954 25.1451 214.031 24.7847C216.191 24.0627 218.325 24.1466 220.51 25.0411C224.306 26.5965 227.594 28.9328 230.856 31.3368C234.912 34.3218 238.326 37.964 241.485 41.845L241.485 41.8794ZM64.7456 250.276C65.1625 247.085 63.8851 245.707 60.4198 245.587C59.313 249.01 58.7801 252.508 59.4676 256.306C62.5679 255.259 64.3542 253.324 64.7456 250.276ZM115.472 195.661C102.615 195.438 90.1864 197.492 78.3094 202.518C70.63 205.766 63.3378 209.721 56.7724 214.891C51.5353 219.015 47.0813 223.826 44.2129 229.938C42.3219 233.971 41.313 238.202 41.7557 242.685C42.2315 247.562 44.2754 251.618 48.35 254.489C51.0438 256.382 54.0729 257.061 57.3502 256.77C57.4112 256.565 57.5095 256.406 57.4927 256.258C56.5786 249.492 58.4964 243.418 61.9927 237.742C64.7614 233.251 68.4665 229.589 72.5608 226.342C82.6985 218.302 94.0677 212.354 105.811 207.08C110.915 204.784 116.131 202.762 121.553 201.305C124.825 200.422 128.151 199.833 131.544 199.705C131.804 199.693 132.07 199.645 132.332 199.611C126.789 197.644 121.344 195.752 115.47 195.654L115.472 195.661ZM139.605 223.321C141.148 221.809 142.639 220.349 144.136 218.881C144.087 218.815 144.046 218.748 143.998 218.682C141.945 219.892 139.893 221.109 137.63 222.439C138.427 222.792 139.011 223.05 139.605 223.321ZM138.01 232.496C138.886 231.597 139.397 230.498 139.413 229.239C139.42 228.803 139.214 228.142 138.906 227.985C138.583 227.824 138.01 228.121 137.565 228.269C137.372 228.336 137.22 228.533 136.766 228.909C136.518 229.575 136.057 230.519 135.841 231.508C135.748 231.928 136.057 232.623 136.413 232.908C136.972 233.345 137.571 232.938 138.007 232.483L138.01 232.496ZM120.817 225.261C120.907 225.332 120.991 225.404 121.08 225.469C123.339 223.685 124.549 221.261 125.075 218.434C123.655 220.708 122.237 222.988 120.817 225.261ZM167.4 154.217C168.804 154.941 170.053 155.981 171.435 156.93C173.433 154.386 175.42 151.851 177.52 149.168C173.082 148.711 167.326 150.085 162.973 152.578C164.484 153.121 166.019 153.508 167.393 154.218L167.4 154.217ZM144.784 136.517C144.811 134.91 144.8 133.284 145.018 131.701C145.785 126.098 146.637 120.506 147.455 114.914C147.497 114.65 147.516 114.377 147.372 114.048C147.189 114.362 146.983 114.667 146.83 114.995C143.635 121.864 142.065 129.157 141.374 136.662C141.096 139.693 141.837 142.479 143.575 145.018C145.429 147.72 147.435 150.293 149.746 152.838C150.83 152.276 151.925 152.036 152.696 151.029C152.485 150.741 152.336 150.454 152.114 150.245C149.967 148.197 148.257 145.825 146.705 143.316C145.411 141.224 144.747 138.974 144.786 136.523L144.784 136.517ZM150.752 154.204C147.855 155.802 144.764 157.061 141.732 158.405C140.248 159.063 138.667 159.355 137.024 159.245C134.179 159.06 132.036 157.329 131.587 154.517C131.323 152.839 131.327 151.086 131.479 149.385C131.88 144.914 132.434 140.453 132.919 135.985C132.955 135.626 132.942 135.263 132.957 134.632C132.662 135.01 132.486 135.157 132.407 135.346C130.442 140.188 128.729 145.116 128.202 150.344C128.041 151.971 128.116 153.702 128.511 155.283C129.435 158.956 131.92 161.175 135.641 161.897C136.883 162.138 138.175 162.216 139.446 162.23C140.013 162.237 140.626 161.965 141.139 161.68C144.28 159.928 147.397 158.125 150.535 156.36C152.999 154.968 155.477 153.608 158.295 153.033C158.712 152.947 159.098 152.681 159.497 152.509C162.335 151.261 165.125 149.912 168.012 148.798C171.16 147.583 174.488 147.303 177.842 147.583C178.81 147.666 179.507 147.433 180.208 146.757C181.48 145.535 182.852 144.431 184.453 143.038C183.234 142.876 182.282 142.672 181.316 142.637C179.073 142.562 176.95 143.062 174.858 143.921C170.814 145.571 166.704 147.074 162.611 148.623C158.512 150.173 154.597 152.085 150.752 154.204ZM183.034 141.24C183.389 141.257 183.811 141.163 184.116 140.969C185.085 140.355 186.013 139.673 187.298 138.78C184.032 138.026 181.69 139.303 179.135 140.921C180.637 141.052 181.837 141.184 183.042 141.245L183.034 141.24ZM185.406 134.292C178.763 136.65 172.373 139.563 166.253 143.048C163.186 144.792 160.257 146.77 157.407 148.897C157.613 148.861 157.836 148.871 158.019 148.791C163.263 146.702 168.507 144.618 173.742 142.489C174.449 142.205 175.059 141.686 175.713 141.282C177.589 140.115 179.395 138.811 181.362 137.818C183.554 136.71 185.93 136.461 188.274 137.495C188.729 137.698 189.344 138.137 189.39 138.528C189.436 138.918 188.958 139.507 188.556 139.797C187.54 140.524 186.43 141.126 185.171 141.903C186.557 142.376 187.328 141.299 188.321 141.267C189.362 141.231 190.425 141.17 191.448 141.318C192.47 141.459 193.466 141.84 194.446 142.113C195.511 139.52 196.597 136.867 197.733 134.087C197.448 133.973 197.072 133.789 196.676 133.677C192.85 132.542 189.109 132.99 185.421 134.296L185.406 134.292ZM186.136 126.973C182.716 125.471 179.836 123.278 177.443 120.433C176.2 118.957 175.572 117.183 175.069 115.348C174.483 113.212 173.852 111.087 173.22 108.961C173.102 108.557 172.885 108.174 172.492 107.807C172.473 108.149 172.4 108.495 172.448 108.83C172.897 111.905 173.35 114.971 173.832 118.039C174.117 119.857 175.025 121.38 176.339 122.634C180.113 126.222 184.266 129.236 189.334 130.742C190.384 131.05 191.502 131.123 192.58 131.335C194.635 131.739 196.68 132.158 198.797 132.591C200.552 130.538 202.413 128.367 204.379 126.064C201.93 124.892 199.516 124.087 196.851 124.871C195.793 125.187 194.773 125.625 193.738 126.025C192.756 126.407 191.793 126.82 190.807 127.189C189.224 127.771 187.684 127.661 186.123 126.976L186.136 126.973ZM188.576 121.391C185.681 120.326 183.71 118.359 182.946 115.329C182.527 113.663 182.246 111.969 181.919 110.284C181.482 108.001 181.058 105.715 180.625 103.417C180.431 103.477 180.268 103.49 180.264 103.539C179.401 108.375 179.588 113.125 181.392 117.755C182.479 120.545 184.27 122.846 186.3 124.994C187.288 126.038 188.506 126.297 189.801 125.858C191.566 125.252 193.288 124.51 195.028 123.82C195.026 123.675 195.023 123.531 195.028 123.385C193.569 122.934 192.103 122.478 190.645 122.027C189.96 121.816 189.256 121.644 188.584 121.396L188.576 121.391ZM203.637 114.018C202.032 115.198 200.401 116.349 198.686 117.358C193.314 120.53 190.078 117.176 188.893 113.343C188.182 111.033 188.151 108.645 188.458 106.257C188.535 105.661 188.604 105.061 188.676 104.439C188.543 104.466 188.46 104.463 188.438 104.488C186.655 107.975 186.155 111.666 187.158 115.426C187.759 117.668 189.606 119.164 191.559 120.21C193.341 121.16 195.338 121.782 197.299 122.295C198.195 122.531 199.275 122.281 200.219 122.044C201.065 121.835 201.843 121.364 202.637 120.966C203.574 120.496 204.485 119.963 205.43 119.499C208.205 118.146 211.021 116.992 214.133 118.172C215.12 115.505 216.025 113.041 216.95 110.539C212.179 110.075 207.662 111.041 203.627 114.006L203.637 114.018ZM201.638 123.111C203.174 123.801 204.35 124.324 205.475 124.83C208.108 123.086 210.661 121.393 213.246 119.686C211.964 119.22 210.61 119.106 209.303 119.658C206.832 120.714 204.401 121.864 201.645 123.109L201.638 123.111ZM200.643 90.8323C198.495 95.0567 199.454 100.772 202.798 103.711C204.701 105.381 206.642 105.463 208.661 103.922C209.323 103.419 209.982 102.904 210.554 102.303C212.537 100.217 214.987 99.2626 217.824 99.1739C218.043 99.1699 218.259 99.1461 218.525 99.1325C218.657 97.8012 218.788 96.4978 218.939 94.9901C211.075 100.284 205.309 97.8382 200.643 90.8323ZM220.749 77.5741C220.09 78.7867 219.524 80.0557 218.919 81.2984C218.355 82.4428 217.829 83.6002 217.211 84.7145C216.642 85.7356 216.109 85.9906 215.021 85.6288C214.088 85.3177 213.116 84.9181 212.374 84.2984C210.89 83.0524 209.551 81.6452 208.166 80.282C207.222 79.3455 206.368 78.3144 205.373 77.4365C200.674 73.2799 198.481 68.0335 198.487 61.8157C198.486 61.7123 198.443 61.6039 198.303 61.0601C197.927 62.1451 197.588 62.8707 197.433 63.627C197.077 65.3426 197.243 67.0471 197.715 68.7299C198.36 71.053 199.373 73.2242 200.78 75.1624C202.959 78.1693 205.222 81.1174 207.528 84.0362C209.059 85.9763 211.056 87.1993 213.584 87.4848C214 87.53 214.368 87.9439 214.763 88.1867C214.506 88.5778 214.346 89.142 213.986 89.3337C211.157 90.8283 208.263 91.1705 205.486 89.2737C204.217 88.4041 203.024 87.3671 201.97 86.2391C199.24 83.3322 196.309 80.5909 194.098 77.2316C194.077 77.1947 193.995 77.1978 193.726 77.1292C194.224 78.0061 194.592 78.7858 195.081 79.4852C197.981 83.6817 200.817 87.933 203.861 92.024C207.268 96.6058 212.362 97.2999 217.032 93.9349C218.329 93.0047 219.425 91.7988 220.618 90.7314C221.357 90.0683 222.083 89.3801 222.885 88.7869C223.28 88.4983 223.821 88.4142 224.294 88.2337C224.387 88.3458 224.485 88.4565 224.577 88.5686C224.238 89.163 224.015 89.8853 223.533 90.3229C221.475 92.2105 220.739 94.6599 220.357 97.2847C220.318 97.5619 220.263 97.8286 220.238 98.1097C220.045 100.35 219.705 100.372 217.869 100.496C215.196 100.675 213.031 101.943 211.161 103.806C210.498 104.467 209.772 105.093 208.995 105.605C206.988 106.937 204.921 106.881 202.887 105.645C200.553 104.223 199.052 102.166 198.33 99.5342C198.227 99.1691 198.137 98.8012 198.023 98.3831C196.471 101.484 197.084 104.456 199.645 106.542C201.485 108.039 203.525 109.136 205.865 109.549C206.502 109.66 207.221 109.704 207.824 109.518C212.438 108.124 217.033 106.665 221.638 105.224C221.794 105.178 221.943 105.099 222.198 104.998C222.206 104.603 222.249 104.18 222.223 103.751C221.988 100.108 222.696 96.657 224.484 93.4936C226.252 90.3687 226.851 87.0919 226.348 83.5527C226.171 82.2922 226.182 81.0133 226.094 79.5826C224.536 78.9175 223.3 77.7032 222.546 76.0234C221.573 76.2864 221.112 76.9266 220.754 77.594L220.749 77.5741ZM215.33 108.907C215.959 109.011 216.415 109.083 216.866 109.162C217.295 109.239 217.725 109.316 218.299 109.425C218.875 108.81 219.403 108.259 219.916 107.705C218.819 107.634 217.285 108.02 215.332 108.913L215.33 108.907ZM210.237 25.9474C206.402 24.9727 202.739 23.5278 199.188 21.8252C190.373 17.6008 181.048 16.5519 171.438 17.2593C169.57 17.3965 167.708 17.5946 165.691 17.7764C165.752 18.7434 165.801 19.5476 165.863 20.5146C175.926 19.493 185.377 21.7576 194.711 24.7849C195.109 24.9097 195.473 25.1381 195.757 25.6108C195.078 25.4612 194.391 25.3408 193.718 25.1553C186.904 23.3055 180.02 21.8562 172.928 21.7056C171.377 21.6739 169.825 21.67 168.266 21.702C167.285 21.7251 166.306 21.6582 165.384 22.2694C164.978 22.5395 164.307 22.3951 163.758 22.474C161.402 22.8222 159.034 23.1042 156.699 23.5516C154.776 23.921 153.446 25.1615 152.696 26.9723C151.212 30.542 150.424 34.2719 150.219 38.1228C150.21 38.2766 150.298 38.4377 150.352 38.6335C151.568 38.4102 152.754 38.179 153.953 37.973C154.513 37.8782 155.192 37.8277 155.355 38.484C155.449 38.8717 155.21 39.4523 154.929 39.7932C153.78 41.2102 152.564 42.5652 151.311 44.0106C152.001 44.4822 152.515 44.1346 153.007 44.0468C159.934 42.7964 166.833 41.3447 173.799 40.3206C182.438 39.0479 191.151 38.9396 199.866 39.6383C201.023 39.7307 202.175 39.9 203.313 40.0375C204.11 38.8864 204.879 37.7686 205.791 36.4419C201.222 35.8878 196.8 35.3725 192.333 35.2802C187.831 35.1815 183.354 35.5054 178.891 36.0611C174.475 36.6139 170.093 37.4634 165.65 37.8215C165.627 37.709 165.597 37.5979 165.567 37.4867C165.899 37.3562 166.222 37.1859 166.571 37.1069C173.769 35.4971 180.971 33.8792 188.383 33.5774C194.289 33.3309 200.127 33.9198 205.906 35.1624C206.223 35.2281 206.541 35.2659 207.02 35.3465C207.223 34.6283 207.418 33.9672 207.648 33.1469C206.569 32.8936 205.612 32.6357 204.648 32.4414C194.021 30.2952 183.366 30.4179 172.692 31.9865C169.453 32.462 166.221 32.9705 162.987 33.438C162.263 33.5391 161.516 33.5277 160.419 33.5886C162.864 31.9041 175.936 29.5988 183.993 29.2467C192.316 28.881 197.475 29.4925 207.7 32.0599C208.156 29.8957 208.887 27.8267 210.814 26.3043C210.536 26.1271 210.388 25.9782 210.22 25.9302L210.237 25.9474ZM231.29 34.076C227.595 30.9749 223.693 28.1029 219.03 26.5263C214.837 25.1152 210.504 27.6102 209.68 31.9339C209.579 32.4792 209.507 33.0323 209.44 33.5773C209.239 35.2403 208.563 36.6425 207.301 37.7791C206.813 38.2181 206.367 38.731 205.982 39.2727C204.918 40.762 204.92 41.7757 206.055 43.1974C206.81 44.1523 207.633 45.0657 208.494 45.9298C210.275 47.7081 211.78 49.6881 212.932 51.9273C214.668 55.2947 216.824 58.3892 219.124 61.3849C221.512 64.5005 222.903 68.0012 223.462 71.874C223.675 73.341 223.696 74.8821 224.679 76.1351C225.429 77.0979 226.197 78.0435 227.594 78.4313C231.648 73.2544 237.17 73.0806 243.214 73.9717C242.77 74.8225 242.124 74.8039 241.571 74.8629C240.081 75.0256 238.588 75.1406 237.097 75.2689C233.528 75.578 230.669 77.1617 228.448 79.966C227.994 80.5359 227.829 81.0736 227.901 81.7901C228.112 83.8786 228.263 85.9795 228.442 88.1504C234.282 86.9794 239.083 89.9625 244.053 92.3311C244.351 92.4697 244.607 92.7067 244.858 92.9239C244.975 93.0239 245.044 93.1891 245.182 93.3884C244.474 93.769 243.867 93.3977 243.287 93.1931C241.613 92.6003 239.98 91.9025 238.303 91.3309C236.627 90.7592 234.936 90.2182 233.209 89.8019C232.252 89.5718 231.232 89.5753 230.239 89.5734C229.37 89.5733 228.601 89.9252 228.109 90.6822C225.095 95.32 223.203 100.251 224.313 105.928C225.334 105.827 226.374 105.654 227.413 105.646C230.822 105.626 233.926 106.703 236.433 108.959C239.313 111.552 241.964 114.407 244.685 117.171C245.009 117.504 245.196 117.976 245.218 118.613C244.784 118.316 244.311 118.062 243.929 117.713C242.032 116.007 240.189 114.228 238.253 112.565C236.869 111.374 235.441 110.199 233.892 109.242C230.831 107.342 227.531 106.919 223.986 107.748C220.695 108.51 219.055 110.918 217.689 113.587C216.917 115.092 216.571 116.82 215.99 118.582C216.527 118.643 216.885 118.708 217.246 118.723C220.118 118.84 222.455 120.207 224.559 121.981C228.139 124.995 230.77 128.757 232.787 132.95C233.128 133.666 233.294 134.467 233.619 135.476C232.651 135.296 232.51 134.746 232.216 134.324C230.304 131.607 228.426 128.855 226.418 126.213C224.887 124.204 222.9 122.661 220.656 121.51C218.528 120.424 216.411 120.185 214.148 121.349C211.512 122.708 209.098 124.344 206.935 126.357C202.162 130.792 198.158 135.745 196.412 142.218C196.142 143.212 196.201 143.897 196.858 144.776C198.478 146.946 199.927 149.255 201.41 151.529C201.745 152.053 202.126 152.63 201.915 153.474C200.892 153.064 200.392 152.243 199.839 151.536C198.441 149.741 197.121 147.888 195.73 146.092C194.732 144.801 193.547 143.769 191.91 143.286C189.759 142.653 187.857 143.129 186.088 144.377C182.627 146.816 179.465 149.601 176.885 152.97C174.023 156.707 171.294 160.554 168.431 164.291C166.34 167.021 164.157 169.672 161.967 172.325C159.205 175.676 156.894 179.313 154.819 183.122C153.918 184.771 152.95 186.392 151.98 188.007C150.325 190.777 148.122 193.033 145.279 194.558C142.801 195.884 140.927 197.726 139.578 200.178C137.452 204.039 134.885 207.571 131.403 210.746C134.929 208.817 136.887 206.813 138.609 203.566C139.1 202.637 139.571 201.677 140.198 200.844C141.534 199.064 143.333 198.161 145.578 198.712C147.835 199.26 148.945 200.929 149.353 203.107C149.732 205.141 149.371 207.099 148.563 208.963C147.447 211.539 145.817 213.766 143.766 215.687C143.425 216.006 143.002 216.231 142.611 216.505C142.076 215.884 142.514 215.6 142.747 215.262C143.99 213.433 145.295 211.638 146.427 209.742C147.406 208.105 147.899 206.25 147.756 204.32C147.688 203.458 147.509 202.522 147.1 201.779C145.968 199.735 143.368 199.43 141.536 201.113C140.899 201.7 140.296 202.452 139.998 203.245C138.616 206.939 135.96 209.536 132.94 211.877C129.576 214.483 127.316 217.834 125.698 221.818C124.285 225.297 122.933 228.798 121.58 232.3C120.459 235.187 118.686 237.651 116.642 239.943C116.238 240.392 115.817 240.824 115.557 241.436C116.518 240.713 117.479 239.991 118.44 239.268C118.545 239.343 118.649 239.411 118.761 239.485C118.703 239.807 118.749 240.198 118.58 240.446C117.667 241.767 116.704 243.049 115.76 244.354C115.219 245.108 114.686 245.866 114.233 246.677C117.997 243.734 120.877 240.083 123.083 235.874C124.394 233.375 125.68 230.853 127.038 228.379C127.675 227.219 128.403 226.103 129.205 225.047C130.212 223.715 131.677 223.06 133.258 222.603C134.365 222.285 135.46 221.879 136.491 221.363C141.069 219.059 145.228 216.123 149.075 212.749C149.653 212.243 150.108 211.604 150.606 211.011C151.093 210.435 151.548 209.83 152.168 209.06C152.573 210.088 152.343 210.708 151.953 211.423C149.49 215.927 145.954 219.506 142.147 222.845C141.773 223.17 141.411 223.521 141.055 223.864C140.98 223.934 140.95 224.058 140.866 224.22C140.996 224.414 141.134 224.648 141.301 224.855C141.614 225.239 141.952 225.604 142.351 226.066C143.297 225.574 144.218 225.094 145.141 224.621C145.634 224.367 146.123 224.101 146.633 223.899C147.883 223.406 148.153 223.544 148.759 225.012C150.435 223.68 152.121 222.428 153.702 221.067C159.246 216.293 164.8 211.531 170.246 206.653C173.052 204.142 175.578 201.316 178.364 198.782C181.97 195.505 185.707 192.367 189.41 189.195C192.44 186.603 195.567 184.115 198.534 181.454C201.448 178.837 203.769 175.75 205.358 172.124C206.15 170.318 206.383 168.538 205.781 166.627C205.525 165.818 205.062 164.982 205.488 164.073C206.823 164.391 206.997 164.7 208.178 168.72C209.58 167.595 210.886 166.305 212.414 165.389C215.07 163.792 217.846 162.412 220.598 160.981C223.934 159.237 227.369 157.672 230.391 155.379C232.437 153.832 234.277 152.093 235.765 149.978C237.22 147.911 237.789 145.689 237.249 143.206C237.001 142.071 236.711 140.937 236.496 139.795C236.407 139.296 236.458 138.775 236.443 138.101C237.885 139.073 238.127 139.644 239.445 144.795C239.583 144.726 239.756 144.697 239.826 144.6C244.344 138.43 248.822 132.234 252.666 125.604C254.957 121.639 256.714 117.454 257.768 113.007C258.199 111.187 258.436 109.295 258.518 107.422C258.621 104.883 257.638 102.657 255.979 100.736C255.344 99.998 254.737 99.2264 254.08 98.4167C254.952 98.1402 256.542 99.0746 258.851 101.22C258.962 99.3891 259.061 97.6299 259.183 95.8799C259.473 91.5077 259.921 87.1306 259.402 82.746C259.221 81.2032 259.057 79.6365 258.601 78.1643C257.565 74.8179 255.627 72.2441 252.045 71.2586C250.935 70.9566 250.643 70.1407 251.499 69.4465C253.336 67.9564 253.193 66.1299 252.455 64.3228C251.2 61.2493 249.931 58.1441 248.326 55.2463C243.872 47.2307 238.343 40.0166 231.294 34.0959L231.29 34.076Z" fill="#4C1F21"/>
<path d="M195.679 151.926C195.414 151.546 195.182 151.255 194.992 150.936C193.455 148.369 191.691 147.802 188.973 149.067C188.274 149.39 187.599 149.792 186.965 150.226C184.892 151.641 183.042 153.334 181.504 155.307C179.123 158.365 176.744 161.437 174.525 164.62C170.114 170.94 165.652 177.215 160.677 183.107C157.85 186.45 154.967 189.75 152.098 193.054C151.764 193.44 151.338 193.749 150.953 194.09C150.846 194.002 150.746 193.919 150.638 193.831C150.929 193.337 151.17 192.804 151.511 192.347C152.872 190.527 154.26 188.73 155.653 186.931C158.812 182.857 162.052 178.849 165.105 174.7C169.047 169.346 172.802 163.851 176.694 158.46C179.135 155.085 181.749 151.848 185.109 149.319C186.665 148.142 188.336 147.149 190.288 146.787C192.865 146.311 195.301 147.788 195.997 150.225C196.153 150.779 196.364 151.37 195.679 151.926Z" fill="#4C1F21"/>
<path d="M196.937 178.596C198.302 177.424 199.682 176.263 201.055 175.096C201.159 175.199 201.268 175.294 201.372 175.396C201.033 175.859 200.736 176.356 200.353 176.773C195.723 181.799 190.601 186.279 185.335 190.629C180.853 194.335 176.392 198.078 172.116 202.017C167.964 205.848 164.096 209.993 160.04 213.928C157.455 216.435 154.763 218.826 152.106 221.251C151.641 221.672 151.141 222.12 150.208 221.912C150.565 221.501 150.781 221.214 151.033 220.962C154.236 217.741 157.488 214.558 160.648 211.291C168.001 203.66 175.695 196.407 183.953 189.749C188.392 186.169 192.61 182.318 196.937 178.596Z" fill="#4C1F21"/>
<path d="M247.29 58.3099C247.698 59.1158 248.177 59.9345 247.829 61.0551C247.348 60.361 246.85 59.6841 246.399 58.9699C242.381 52.5962 237.492 46.9539 232.044 41.7722C227.856 37.7796 223.358 34.1956 218.545 30.9873C217.793 30.4869 216.98 30.0201 216.609 29.0271C217.212 29.0751 217.767 29.2229 218.272 29.4636C221.593 31.055 224.607 33.1306 227.421 35.4751C232.591 39.7759 237.363 44.4899 241.602 49.7279C243.769 52.4063 245.729 55.2237 247.295 58.3019L247.29 58.3099Z" fill="#4C1F21"/>
<path d="M182.495 174.167C182.24 174.502 182.018 174.865 181.737 175.172C174.615 183.058 167.492 190.939 160.35 198.795C160.16 199.007 159.699 198.978 159.364 199.061C159.362 198.716 159.213 198.264 159.373 198.038C160.08 197.05 160.815 196.07 161.645 195.181C167.51 188.92 173.384 182.671 179.283 176.444C180.178 175.5 181.235 174.71 182.221 173.843C182.312 173.949 182.403 174.054 182.493 174.16L182.495 174.167Z" fill="#4C1F21"/>
<path d="M127.156 225.173C126.509 225.714 125.936 226.481 124.646 226.478C124.802 225.997 124.816 225.629 125.001 225.425C125.742 224.603 126.523 223.814 127.316 223.043C131.374 219.087 135.342 215.059 137.704 209.769C137.793 209.565 137.867 209.322 138.019 209.194C138.237 209.011 138.526 208.91 139.066 208.619C138.995 209.475 139.093 210.117 138.88 210.624C138.212 212.197 137.597 213.828 136.659 215.229C134.074 219.074 130.705 222.226 127.164 225.179L127.156 225.173Z" fill="#4C1F21"/>
<path d="M184.637 188.22C184.196 188.587 183.761 189.05 183.049 188.776C183.788 187.112 199.125 172.859 201.146 171.896C201.238 171.974 201.335 172.044 201.427 172.121C200.918 172.73 200.446 173.379 199.886 173.943C196.963 176.886 194.07 179.87 191.059 182.72C189.011 184.654 186.786 186.404 184.637 188.22Z" fill="#4C1F21"/>
<path d="M227.161 154.527C228.48 153.034 229.876 151.614 231.13 150.072C232.561 148.321 232.792 146.265 232.289 144.099C232.187 143.672 232.043 143.239 232.022 142.802C232.011 142.583 232.186 142.23 232.37 142.151C232.565 142.062 232.975 142.143 233.105 142.302C233.446 142.722 233.786 143.197 233.952 143.701C234.847 146.366 234.497 148.949 232.715 151.07C231.165 152.914 229.258 154.467 227.458 156.101C227.092 156.432 226.519 156.53 226.037 156.733C225.937 156.581 225.835 156.423 225.735 156.271C226.208 155.69 226.656 155.087 227.154 154.529L227.161 154.527Z" fill="#4C1F21"/>
<path d="M257.936 89.6378C257.897 90.0873 257.697 90.5218 257.568 90.9626C257.385 90.9451 257.21 90.9329 257.027 90.9155C256.955 90.3302 256.869 89.7476 256.818 89.1649C256.621 86.8456 256.46 84.5262 256.236 82.2058C256.017 79.9742 255.442 77.8574 254.054 76.0118C253.836 75.7256 253.828 75.2857 253.724 74.9139C253.839 74.835 253.959 74.7482 254.073 74.6693C254.605 75.008 255.206 75.2773 255.659 75.7013C256.703 76.6862 257.19 78.0072 257.466 79.3784C258.166 82.7733 258.219 86.1986 257.929 89.6392L257.936 89.6378Z" fill="#4C1F21"/>
<path d="M236.662 69.3493C233.199 70.8783 229.368 71.6277 226.423 74.264C226.207 74.4535 225.48 74.4036 225.285 74.1954C225.081 73.9753 225.143 73.4038 225.251 73.0294C225.337 72.7427 225.635 72.4811 225.902 72.3086C226.679 71.7963 227.432 71.165 228.294 70.8695C231.322 69.8375 234.385 68.9085 237.44 67.9744C237.888 67.8405 238.392 67.8811 238.874 67.8438C238.919 67.9933 238.962 68.1361 239.007 68.2856C238.225 68.6402 237.439 69.0093 236.656 69.3573L236.662 69.3493Z" fill="#4C1F21"/>
<path d="M243.994 87.5687C240.307 87.2742 236.621 86.9241 232.934 86.6986C231.907 86.6346 230.859 86.9682 229.817 86.997C229.474 87.0057 229.121 86.6302 228.777 86.4322C228.988 86.085 229.118 85.6164 229.422 85.4158C229.762 85.1938 230.262 85.1457 230.693 85.1259C231.519 85.0864 232.359 85.0164 233.176 85.1308C237.11 85.6848 241.039 86.2812 244.97 86.8843C245.433 86.9544 245.879 87.1796 246.33 87.3279C246.308 87.4566 246.28 87.5866 246.26 87.7219C245.505 87.6708 244.751 87.6264 243.999 87.5607L243.994 87.5687Z" fill="#4C1F21"/>
<path d="M222.08 155.666C222.136 155.772 222.187 155.885 222.244 155.991C221.961 156.291 221.722 156.637 221.399 156.876C218.094 159.304 214.542 161.334 210.859 163.136C210.483 163.318 209.99 163.268 209.547 163.325C209.486 163.165 209.426 163.005 209.366 162.851C209.581 162.621 209.76 162.321 210.026 162.17C213.649 160.049 217.274 157.935 220.92 155.857C221.24 155.674 221.692 155.725 222.088 155.671L222.08 155.666Z" fill="#4C1F21"/>
<path d="M239.406 102.15C239.592 102.215 239.729 102.414 239.889 102.553C239.835 102.661 239.782 102.769 239.727 102.87C238.764 102.682 237.792 102.517 236.832 102.308C233.525 101.583 230.232 100.766 226.808 101.411C226.264 101.516 225.761 101.351 225.621 100.773C225.46 100.095 225.927 99.6814 226.509 99.5957C227.378 99.4645 228.277 99.4101 229.157 99.4631C232.748 99.66 236.066 100.969 239.412 102.148L239.406 102.15Z" fill="#4C1F21"/>
<path d="M221.546 132.738C221.479 132.814 221.412 132.89 221.345 132.966C220.809 132.642 220.279 132.31 219.743 131.986C217.485 130.603 215.248 129.181 212.956 127.867C212.104 127.381 211.116 127.136 210.179 126.805C209.65 126.618 209.278 126.315 209.389 125.719C209.526 124.98 210.136 124.93 210.688 125.065C211.378 125.233 212.064 125.485 212.712 125.785C215.975 127.292 218.554 129.734 221.202 132.071C221.379 132.228 221.437 132.512 221.553 132.737L221.546 132.738Z" fill="#4C1F21"/>
<path d="M247.742 129.973C246.665 131.769 245.589 133.571 244.425 135.315C243.726 136.37 242.883 137.331 242.071 138.306C241.75 138.69 241.355 139.047 240.814 138.6C241.101 136.981 246.541 128.834 248 127.981C248.385 128.813 248.076 129.421 247.747 129.965L247.742 129.973Z" fill="#4C1F21"/>
<path d="M240.501 107.388C240.563 107.424 240.572 107.567 240.676 107.869C240.118 107.702 239.661 107.596 239.239 107.421C237.703 106.793 236.181 106.134 234.638 105.507C232.147 104.497 229.583 103.867 226.869 104.048C226.761 104.056 226.651 104.058 226.534 104.061C225.923 104.07 225.418 103.899 225.33 103.206C225.257 102.614 225.702 102.267 226.615 102.279C227.278 102.287 227.94 102.385 228.594 102.484C232.962 103.135 236.722 105.284 240.494 107.389L240.501 107.388Z" fill="#4C1F21"/>
<path d="M229.116 119.308L229.009 119.758C228.392 119.672 227.76 119.65 227.161 119.491C225.347 119.017 223.557 118.462 221.743 117.994C220.731 117.734 219.691 117.604 218.659 117.417C218.072 117.31 217.531 117.063 217.61 116.377C217.682 115.721 218.237 115.503 218.843 115.536C219.388 115.569 219.965 115.595 220.471 115.773C223.014 116.669 225.544 117.603 228.065 118.559C228.454 118.707 228.766 119.049 229.115 119.302L229.116 119.308Z" fill="#4C1F21"/>
<path d="M219.214 133.868C219.142 133.952 219.076 134.035 219.004 134.119C218.703 134.029 218.381 133.971 218.093 133.844C214.458 132.235 210.924 130.349 206.938 129.675C206.366 129.579 205.98 129.176 206.189 128.622C206.311 128.307 206.848 127.907 207.147 127.949C208.068 128.069 209.038 128.227 209.854 128.638C212.769 130.1 215.629 131.662 218.499 133.209C218.778 133.358 218.976 133.648 219.214 133.868Z" fill="#4C1F21"/>
<path d="M200.596 163.454C200.064 162.281 198.911 161.436 198.536 159.588C199.002 159.775 199.233 159.824 199.417 159.944C199.961 160.308 200.603 160.617 200.995 161.109C202.71 163.273 203.825 165.734 204.278 168.462C204.411 169.277 204.627 170.219 203.492 170.902C203.067 169.547 202.744 168.282 202.267 167.07C201.785 165.838 201.149 164.665 200.596 163.454Z" fill="#4C1F21"/>
<path d="M198.464 170.794C198.432 171.339 198.292 171.699 198.044 171.964C196.335 173.773 194.639 175.613 192.861 177.353C191.672 178.509 190.353 179.534 189.083 180.596C188.754 180.871 188.406 181.226 187.771 180.619C187.957 180.318 188.077 179.997 188.302 179.785C191.327 176.939 194.355 174.105 197.408 171.288C197.68 171.039 198.105 170.958 198.464 170.794Z" fill="#4C1F21"/>
<path d="M229.039 132.827C228.939 132.944 228.839 133.061 228.731 133.173C227.321 131.622 225.905 130.072 224.507 128.512C222.437 126.2 220.101 124.302 216.979 123.607C216.711 123.545 216.367 123.513 216.218 123.33C216.005 123.063 215.764 122.63 215.847 122.365C215.931 122.106 216.385 121.867 216.711 121.807C217.002 121.747 217.371 121.898 217.657 122.046C218.685 122.586 219.724 123.11 220.707 123.728C223.591 125.541 225.423 128.371 227.559 130.904C228.08 131.521 228.547 132.183 229.039 132.827Z" fill="#4C1F21"/>
<path d="M224.166 130.735C223.206 130.857 222.856 130.363 222.45 130.068C219.484 127.961 216.672 125.561 212.946 124.847C212.889 124.838 212.838 124.821 212.784 124.798C212.312 124.578 211.878 124.281 212.022 123.678C212.188 123.01 212.708 122.826 213.314 123.019C214.045 123.254 214.776 123.524 215.466 123.858C218.134 125.163 220.194 127.291 222.457 129.135C222.987 129.564 223.456 130.067 224.158 130.729L224.166 130.735Z" fill="#4C1F21"/>
<path d="M233.194 66.5462C230.907 67.8601 228.617 69.1606 226.296 70.4058C225.992 70.5719 225.354 70.5519 225.151 70.3385C224.942 70.1264 224.885 69.386 225.076 69.2086C225.747 68.5803 226.486 67.9517 227.32 67.5862C229.387 66.6766 231.517 65.9057 233.629 65.1111C234.012 64.963 234.445 64.9564 234.857 64.885C234.929 65.029 234.998 65.1664 235.076 65.3091C234.452 65.7276 233.848 66.1765 233.202 66.5515L233.194 66.5462Z" fill="#4C1F21"/>
<path d="M227.293 40.6347C225.338 40.0449 217.681 34.65 216.686 33.0061C220.266 34.4131 223.144 36.3649 225.855 38.5788C226.477 39.0852 227.332 39.5505 227.293 40.6347Z" fill="#4C1F21"/>
<path d="M143.896 202.654C144 202.626 144.104 202.597 144.209 202.569C144.496 202.758 144.929 202.882 145.046 203.148C145.39 203.946 145.827 204.794 145.84 205.627C145.869 208.173 144.671 210.284 143.117 212.212C142.953 212.418 142.683 212.612 142.435 212.649C142.147 212.688 141.836 212.552 141.419 212.466C143.511 209.378 145.05 206.376 143.897 202.661L143.896 202.654Z" fill="#4C1F21"/>
<path d="M213.307 136.116C212.744 135.825 212.16 135.566 211.617 135.243C209.468 133.983 207.36 132.658 204.93 131.973C204.674 131.902 204.368 131.792 204.211 131.597C204.033 131.372 203.857 130.987 203.931 130.744C204.011 130.493 204.347 130.251 204.63 130.152C204.861 130.069 205.179 130.142 205.438 130.226C208.645 131.331 211.207 133.389 213.601 135.668C213.508 135.819 213.414 135.962 213.321 136.113L213.307 136.116Z" fill="#4C1F21"/>
<path d="M254.364 101.063C254.754 101.479 255.257 101.844 255.502 102.332C255.873 103.062 256.263 103.879 256.287 104.667C256.357 106.875 256.268 109.08 256.186 111.291C256.174 111.598 255.883 111.892 255.723 112.187C255.609 112.169 255.494 112.145 255.373 112.128C255.278 110.934 255.19 109.738 255.087 108.538C254.983 107.269 254.959 105.983 254.744 104.738C254.54 103.586 254.132 102.477 253.816 101.348C253.997 101.256 254.178 101.163 254.358 101.064L254.364 101.063Z" fill="#4C1F21"/>
<path d="M230.792 63.6611C229.085 64.7793 227.365 65.8658 225.614 66.9034C225.362 67.052 224.786 66.9985 224.594 66.8035C224.386 66.598 224.299 66.0089 224.45 65.7707C224.768 65.2772 225.205 64.7869 225.716 64.5227C227.186 63.7638 228.705 63.1052 230.227 62.46C230.645 62.2838 231.137 62.2928 231.596 62.2118C231.659 62.3506 231.73 62.4946 231.793 62.6334C231.466 62.9839 231.189 63.4136 230.8 63.6664L230.792 63.6611Z" fill="#4C1F21"/>
<path d="M185.967 155.214C187.414 154.239 188.983 153.425 190.568 152.684C191.31 152.338 192.239 152.194 192.961 153.287C189.375 154.186 186.635 156.414 183.582 158.121C183.925 156.712 184.95 155.9 185.967 155.214Z" fill="#4C1F21"/>
<path d="M227.02 111.724C225.26 111.549 223.5 111.339 221.737 111.151C221.2 111.09 220.708 110.908 220.694 110.304C220.673 109.605 221.207 109.384 221.813 109.348C222.14 109.329 222.486 109.334 222.806 109.413C224.96 109.927 227.111 110.463 229.252 111.014C229.544 111.092 229.798 111.322 230.066 111.481C230.027 111.627 229.988 111.773 229.956 111.918C228.978 111.858 227.999 111.825 227.028 111.729L227.02 111.724Z" fill="#4C1F21"/>
<path d="M229.254 115.064C229.118 115.209 229.084 115.278 229.05 115.279C225.879 114.947 222.802 113.905 219.568 114.069C219.336 114.082 218.84 113.55 218.884 113.362C218.962 113.007 219.317 112.486 219.601 112.461C220.297 112.394 221.045 112.474 221.719 112.666C224.004 113.312 226.267 114.025 228.53 114.731C228.766 114.806 228.988 114.946 229.257 115.077L229.254 115.064Z" fill="#4C1F21"/>
<path d="M208.866 137.246C206.738 136.492 204.616 135.729 202.51 134.915C202.284 134.824 201.988 134.292 202.064 134.159C202.222 133.885 202.659 133.532 202.891 133.588C204.009 133.861 205.134 134.167 206.182 134.633C207.375 135.167 208.631 135.673 209.467 137.019C209.149 137.147 208.976 137.279 208.865 137.24L208.866 137.246Z" fill="#4C1F21"/>
<path d="M238.407 82.3124C238.435 82.4514 238.451 82.5931 238.472 82.7268C238.291 82.8193 238.126 82.9568 237.934 82.9964C235.552 83.4812 233.172 83.9449 230.788 84.4165C230.682 84.4383 230.543 84.467 230.464 84.4211C230.204 84.261 229.822 84.1122 229.745 83.8728C229.666 83.6268 229.793 83.2073 229.984 82.9954C230.179 82.769 230.546 82.6104 230.849 82.5754C233.365 82.3044 235.886 82.2945 238.405 82.3058L238.407 82.3124Z" fill="#4C1F21"/>
<path d="M212.597 46.9665C211.272 45.9912 210.067 44.8323 209.394 43.274C209.315 43.0903 209.489 42.799 209.555 42.5508C210.751 42.9319 214.341 46.027 215.505 47.6911C214.143 48.6759 213.366 47.5184 212.604 46.9651L212.597 46.9665Z" fill="#4C1F21"/>
<path d="M133.925 213.509C132.869 215.977 131.285 218.056 129.179 219.712C129.001 219.852 128.61 219.726 127.961 219.722C129.736 217.099 131.4 214.803 133.769 212.686C133.876 213.202 133.976 213.388 133.925 213.509Z" fill="#4C1F21"/>
<path d="M234.942 97.6274C234.879 97.7232 234.854 97.8041 234.828 97.8096C232.144 97.9014 229.453 97.9945 226.767 98.0385C226.532 98.0386 226.146 97.7044 226.082 97.4622C226.017 97.2135 226.179 96.697 226.376 96.615C226.91 96.3944 227.545 96.1666 228.093 96.2468C230.28 96.5543 232.443 96.9772 234.62 97.3696C234.742 97.3927 234.842 97.5445 234.95 97.6326L234.942 97.6274Z" fill="#4C1F21"/>
<path d="M234.16 94.3734C234.149 94.5206 234.145 94.6664 234.134 94.8136C233.531 94.9656 232.931 95.1998 232.321 95.2499C231.005 95.3559 229.68 95.3533 228.355 95.413C227.767 95.4378 227.166 95.4308 227.091 94.7011C227.03 94.0375 227.534 93.7403 228.123 93.6188C228.387 93.5642 228.672 93.5399 228.945 93.5595C230.262 93.6602 231.589 93.7449 232.897 93.9027C233.328 93.9518 233.734 94.213 234.153 94.3748L234.16 94.3734Z" fill="#4C1F21"/>
<path d="M227.781 60.1638C227.853 60.1488 227.943 60.2821 228.091 60.3965C228.018 61.1775 227.387 61.5629 226.828 61.9612C225.933 62.6014 225.005 63.1861 224.102 63.821C223.675 64.1231 223.161 64.4708 222.842 63.8949C222.665 63.5726 222.757 62.8154 223.019 62.5819C224.382 61.3691 225.93 60.4493 227.781 60.1638Z" fill="#4C1F21"/>
<path d="M250.944 122.44C251.816 123.654 251.801 125.286 250.654 126.812C250.287 125.57 250.151 124.508 249.674 123.634C249.178 122.736 248.354 122.016 247.609 121.148C248.98 120.707 250.02 121.168 250.944 122.44Z" fill="#4C1F21"/>
<path d="M206.05 139.104C204.282 139.324 202.683 138.661 201.086 138.073C200.848 137.984 200.563 137.339 200.665 137.166C200.85 136.859 201.348 136.501 201.641 136.551C202.448 136.687 203.236 136.994 203.997 137.306C204.846 137.648 205.818 137.813 206.395 138.771C206.2 138.963 206.129 139.088 206.042 139.099L206.05 139.104Z" fill="#4C1F21"/>
<path d="M190.891 156.253C191.436 155.955 192.026 155.571 192.957 156.075C191.063 157.888 189.005 159.044 186.601 159.623C187.651 157.992 189.279 157.131 190.891 156.253Z" fill="#4C1F21"/>
<path d="M221.406 59.8101C222.794 58.8197 224.312 58.0923 226.063 57.9863C226.11 57.9834 226.166 58.1513 226.339 58.4259C224.643 59.4592 222.953 60.4912 221.243 61.5272C220.871 60.6588 220.847 60.2084 221.406 59.8101Z" fill="#4C1F21"/>
<path d="M189.666 175.004C191.01 172.899 192.78 171.416 194.801 170.219C194.33 171.71 192.276 173.886 190.638 174.804C190.366 174.957 189.997 174.936 189.673 175.003L189.666 175.004Z" fill="#4C1F21"/>
<path d="M230.577 79.9543C232.092 79.3104 233.676 79.1007 235.327 79.2842C233.904 80.675 231.956 80.6219 230.255 81.4007C229.811 80.5884 230.078 80.1747 230.571 79.9623L230.577 79.9543Z" fill="#4C1F21"/>
<path d="M179.822 172.607C178.732 174.412 175.973 177.01 174.879 177.256C175.277 176.043 178.405 173.093 179.822 172.607Z" fill="#4C1F21"/>
<path d="M222.058 55.922C221.848 57.2763 220.759 57.8461 220.239 58.7676C220.142 58.9325 219.803 58.9611 219.573 59.0499C219.467 58.7683 219.184 58.3989 219.273 58.2288C219.846 57.1652 220.625 56.2938 222.058 55.922Z" fill="#4C1F21"/>
<path d="M229.075 91.6835C230.332 90.796 231.486 91.2754 232.635 91.9284C231.428 92.3637 230.235 92.5273 229.075 91.6835Z" fill="#4C1F21"/>
<path d="M253.502 114.854C253.918 115.968 253.679 116.88 253.137 117.73C253.039 117.889 252.65 117.941 252.42 117.899C252.277 117.873 252.067 117.558 252.09 117.401C252.206 116.425 252.401 115.467 253.502 114.854Z" fill="#4C1F21"/>
<path d="M220.472 53.7171C219.658 54.5821 219.124 55.2029 218.526 55.7471C218.34 55.9166 217.975 55.8817 217.682 55.9351C217.654 55.6305 217.501 55.2551 217.618 55.0238C218.119 54.0441 219.009 53.7432 220.472 53.7171Z" fill="#4C1F21"/>
<path d="M247.257 72.4127C248.207 71.6025 249.073 71.3203 250.173 71.8385C248.933 73.081 248.445 73.1887 247.257 72.4127Z" fill="#4C1F21"/>
<path d="M216.981 53.9065C216.824 53.9803 216.486 53.8154 216.31 53.6654C216.235 53.5983 216.31 53.1963 216.43 53.1094C217.067 52.6537 217.709 52.1899 218.794 52.0694C218.292 53.0425 217.702 53.5576 216.974 53.9079L216.981 53.9065Z" fill="#4C1F21"/>
<path d="M200.095 141.154C201.245 140.876 201.756 141.115 202.585 142.324C201.572 142.195 200.604 142.25 200.095 141.154Z" fill="#4C1F21"/>
<path d="M203.843 160.576C203.678 160.148 203.524 159.766 203.245 159.05C204.162 159.574 204.361 160.083 203.843 160.576Z" fill="#4C1F21"/>
<path d="M175.721 25.0135C176.655 24.0272 177.679 24.7472 178.617 24.8502C179.598 24.9583 180.565 25.2347 181.532 25.4422C182.912 25.7369 183.797 26.0925 184.186 26.5089C181.757 26.7342 176.79 25.883 175.721 25.0135Z" fill="#4C1F21"/>
<path d="M165.086 25.4701C162.098 26.4939 159.023 27.0943 155.83 27.1599C158.814 26.1162 161.937 25.713 165.086 25.4701Z" fill="#4C1F21"/>
<path d="M206.164 28.03C204.53 28.0292 200.762 26.6751 199.954 25.8001C201.471 25.7008 204.911 26.9363 206.164 28.03Z" fill="#4C1F21"/>
<path d="M152.749 34.5441C153.941 33.3389 155.257 33.2674 156.58 33.2289C155.338 34.1958 153.992 34.6532 152.749 34.5441Z" fill="#4C1F21"/>
<path d="M223.467 82.8915C222.759 84.1348 222.117 85.4679 221.193 86.5349C219.181 88.8476 216.702 90.6357 214.126 92.2852C213.816 92.4872 213.417 92.5559 213.064 92.6839C213.001 92.5796 212.938 92.4753 212.875 92.371C216.377 88.6605 220.883 85.8676 223.286 80.7763C223.972 81.7938 223.757 82.3901 223.469 82.8981L223.467 82.8915Z" fill="#4C1F21"/>
<path d="M212.537 105.53C214.328 103.518 217.402 102.276 219.32 102.915C217.385 104.329 213.618 105.755 212.537 105.53Z" fill="#4C1F21"/>
<path d="M212.882 114.614C211.175 115.063 209.418 115.405 207.797 116.071C205.401 117.056 203.106 118.295 200.76 119.421C200.089 119.746 199.406 120.046 198.733 120.357L198.487 120.001C198.747 119.726 198.972 119.411 199.27 119.184C202.413 116.775 205.839 114.868 209.635 113.718C210.674 113.407 211.812 113.373 212.907 113.298C213.362 113.266 213.825 113.44 214.291 113.523C214.143 114.547 213.458 114.468 212.882 114.614Z" fill="#4C1F21"/>
<path d="M195.882 136.442C194.539 137.216 191.026 137.003 189.51 135.97C191.343 135.53 193.178 135.365 195.022 135.785C195.319 135.855 195.56 136.184 195.882 136.442Z" fill="#4C1F21"/>
<path d="M199.777 128.021C199.986 128.067 200.32 128.447 200.281 128.559C200.19 128.819 199.921 129.185 199.697 129.203C198.163 129.32 196.65 129.239 195.271 128.24C196.765 127.691 198.269 127.697 199.778 128.028L199.777 128.021Z" fill="#4C1F21"/>
</g>
<defs>
<clipPath id="clip0_35_13658">
<rect width="249.436" height="229.117" fill="white" transform="matrix(0.980017 -0.202303 -0.202303 -0.980017 46.351 275)"/>
</clipPath>
</defs>
</svg>
