<svg width="192" height="210" viewBox="0 0 192 210" fill="none" xmlns="http://www.w3.org/2000/svg">
<g clip-path="url(#clip0_35_14731)">
<path d="M33.8446 200.433C39.5599 203.421 45.5298 205.733 51.8845 206.932C54.3064 207.392 56.7623 207.841 58.8391 205.972C62.5568 209.574 64.8203 210.392 69.9867 209.841C71.9673 209.631 73.9648 209.33 75.8888 208.83C79.7084 207.835 83.4884 206.671 87.2854 205.574C87.8117 205.421 88.3323 205.131 88.8642 205.114C91.0937 205.023 93.1648 204.376 95.1453 203.415C98.2124 201.938 101.104 200.177 103.73 197.99C108.211 194.257 112.138 189.974 116.009 185.628C118.137 183.236 119.936 180.543 122.477 178.532C122.799 178.276 123.054 177.924 123.32 177.606C125.668 174.805 127.145 171.55 128.13 168.067C128.928 165.243 129.562 162.374 130.359 159.551C130.903 157.625 131.531 155.722 132.244 153.858C132.917 152.091 133.958 150.62 135.656 149.586C137.32 148.569 138.689 147.149 139.934 145.615C142.418 142.553 144.223 139.081 146.034 135.61C147.585 132.639 149.056 129.617 150.72 126.708C152.638 123.35 154.771 120.123 156.723 116.788C158.11 114.419 159.343 111.959 160.673 109.556C162.925 105.477 165.228 101.432 167.435 97.336C168.341 95.6601 169.082 93.8932 169.829 92.1377C169.987 91.7628 170.004 91.1492 169.795 90.8424C169.461 90.3538 168.963 90.7856 168.544 90.939C168.488 90.9617 168.403 90.9049 168.256 90.8595C168.516 89.7857 168.782 88.7176 169.048 87.6212C169.444 87.6212 169.716 87.6325 169.993 87.6212C172.636 87.5757 174.718 86.5304 175.805 84.0363C176.874 81.5764 176.359 79.2698 174.684 77.2416C173.541 75.8554 171.911 75.2589 170.231 74.7987C169.908 74.7078 169.591 74.5999 169.139 74.4578C170.412 73.4522 171.544 72.5603 172.67 71.6684C175.312 69.5777 177.734 67.2711 179.539 64.4021C180.405 63.0272 181.146 61.5672 181.831 60.0901C182.159 59.3856 182.42 58.5618 181.848 57.6471C180.49 59.1072 179.217 60.4764 177.791 62.0046C178.108 60.323 179.324 59.1129 178.94 57.1415C178.408 57.6471 178.045 57.8971 177.802 58.2323C176.868 59.5106 175.957 60.8059 175.063 62.1126C172.89 65.2827 170.101 67.7597 166.756 69.6231C166.519 69.7538 166.253 69.8276 165.721 70.0435C166.253 69.2822 166.621 68.7993 166.937 68.288C167.203 67.8563 167.509 67.3506 167.034 66.8961C166.609 66.4928 166.151 66.7768 165.76 67.0325C165.138 67.4415 164.527 67.8619 163.938 68.3164C159.151 72.032 155.224 76.5371 151.817 81.5309C151.002 82.7183 150.108 83.8602 149.18 84.9624C148.575 85.6839 147.845 86.3031 147.024 87.1155C146.866 86.394 146.764 85.9509 146.668 85.5021C145.57 80.1788 145.632 74.8441 146.413 69.4925C147.986 58.7493 150.787 48.33 154.618 38.1833C156.254 33.8599 158.2 29.6843 160.769 25.8267C162.773 22.8157 165.098 20.1171 168.052 18.0037C168.375 17.7765 168.731 17.6003 169.133 17.3674C169.229 17.6628 169.297 17.8333 169.331 18.0094C169.846 20.6398 171.43 21.2931 173.649 21.1738C176.608 21.0147 179.172 18.9468 180.094 15.9982C180.286 15.3847 180.428 14.7541 180.586 14.1575C180.733 14.1234 180.824 14.0723 180.914 14.0837C186.562 14.6007 191.145 20.3898 190.381 26.0426C189.94 29.3093 188.192 31.2523 184.994 32.0249C184.677 32.0988 184.344 32.1329 184.049 32.2579C183.789 32.3658 183.563 32.5703 183.014 32.9453C183.778 33.1157 184.196 33.2748 184.627 33.2918C186.324 33.3714 187.829 32.8203 189.137 31.7465C190.97 30.2297 191.723 28.1617 191.943 25.8665C192.537 19.7706 188.135 13.8962 182.063 12.6463C181.576 12.5441 181.084 12.4532 180.473 12.3339C180.416 11.7828 180.405 11.2658 180.298 10.7715C179.539 7.11284 177.615 4.24384 174.441 2.27814C170.819 0.0283847 166.886 -0.460199 162.761 0.397662C158.506 1.28393 154.89 3.40302 151.687 6.28907C147.279 10.2602 144.178 15.1574 141.864 20.5659C135.747 34.8655 133.523 49.7048 135.967 65.1634C136.714 69.8845 137.733 74.526 140.036 78.7755C141.807 82.0422 143.618 85.2919 145.44 88.604C143.465 90.6833 142.09 93.1319 141.1 95.8362C140.432 97.6485 139.272 99.1881 137.852 100.5C136.658 101.603 135.435 102.682 134.19 103.727C131.661 105.858 129.211 108.062 127.094 110.624C125.08 113.067 123.088 115.527 121.057 117.953C119.874 119.373 118.64 120.754 117.401 122.186C116.943 121.862 116.558 121.68 116.286 121.385C113.406 118.305 111.765 114.777 112.648 110.454C112.982 108.818 113.491 107.21 113.989 105.608C114.843 102.847 115.794 100.12 116.609 97.3531C117.463 94.45 117.673 91.4901 117.09 88.4961C116.79 86.9394 116.145 85.5702 114.956 84.4965C112.982 82.7183 111.001 80.9514 108.653 79.6675C108.234 79.4402 107.827 79.1903 107.413 78.9516C107.459 78.8494 107.504 78.7471 107.549 78.6449C108.777 79.0141 110.033 79.3096 111.222 79.7754C115.426 81.4116 117.95 84.4851 118.708 88.9449C119.178 91.6946 118.946 94.4386 118.222 97.1258C117.803 98.6995 117.277 100.245 116.779 101.796C115.964 104.341 115.511 106.954 115.421 109.624C115.364 111.261 115.771 111.8 117.288 112.306C117.95 112.528 118.618 112.721 119.291 112.92C119.738 113.05 120.208 113.243 120.581 112.8C120.972 112.346 120.677 111.931 120.428 111.528C119.568 110.13 119.466 108.608 119.846 107.068C120.112 105.988 120.491 104.92 120.943 103.909C122.375 100.722 123.784 97.5235 124.672 94.1318C125.934 89.3085 125.482 84.6953 122.918 80.3606C121.736 78.3551 120.53 76.361 119.336 74.3612C119.104 73.9692 118.884 73.5659 118.657 73.1682C121.515 75.7702 123.756 78.8153 125.459 82.2581C126.891 85.1498 127.377 88.195 126.896 91.3764C126.653 92.9899 126.325 94.5863 126.014 96.1884C125.391 99.3472 124.899 102.529 124.904 105.761C124.904 106.505 124.955 107.255 125.052 107.988C125.086 108.25 125.335 108.483 125.527 108.801C126.302 108.176 126.121 107.414 126.127 106.773C126.155 103.574 127.287 100.779 129.007 98.1484C131.118 94.9215 133.789 92.2116 136.595 89.621C137.439 88.8426 138.338 88.1154 139.295 87.2973C139.906 87.7291 140.398 88.07 140.885 88.4222C141.032 88.5302 141.151 88.6665 141.36 88.8597C140.449 89.5755 139.572 90.2516 138.712 90.9447C135.718 93.3421 132.934 95.9214 130.999 99.3074C129.856 101.307 129.013 103.415 128.645 105.699C128.56 106.216 128.362 106.801 128.928 107.244C129.641 107.034 129.641 106.398 129.771 105.898C130.982 101.29 133.443 97.4667 136.997 94.3477C138.848 92.7229 140.777 91.189 142.667 89.6096C143.42 88.9847 143.437 88.6665 142.679 88.0927C141.903 87.5019 141.088 86.9508 140.285 86.3997C139.595 85.9282 138.893 85.9282 138.202 86.4111C137.863 86.6497 137.506 86.8769 137.195 87.1553C133.709 90.2516 130.388 93.5012 127.864 97.4781C127.711 97.7223 127.53 97.9553 127.366 98.1939C127.219 97.6258 127.276 97.177 127.355 96.7338C127.626 95.2226 127.915 93.7114 128.175 92.1945C128.849 88.2859 128.243 84.5817 126.398 81.0707C124.763 77.9518 122.715 75.1452 120.276 72.6114C118.652 70.9298 116.909 69.3902 114.911 68.1687C114.481 67.9017 113.995 67.4983 113.564 68.0608C113.191 68.5551 113.683 68.8618 113.978 69.2311C115.16 70.7253 116.405 72.1853 117.435 73.7818C118.872 76.0145 120.112 78.3665 121.481 80.6447C124.152 85.0817 124.61 89.7914 123.009 94.6431C122.019 97.6428 120.757 100.557 119.546 103.477C118.55 105.886 117.786 108.301 118.51 110.937C118.527 111.011 118.454 111.107 118.42 111.192C116.762 110.789 116.716 110.732 116.824 109.028C116.846 108.704 116.886 108.38 116.909 108.051C117.135 105.335 117.893 102.745 118.793 100.188C119.897 97.0349 120.474 93.808 120.327 90.4447C120.066 84.3942 116.139 79.5482 110.69 78.0995C107.238 77.1848 103.724 76.4917 100.233 75.7134C99.9213 75.6452 99.5761 75.6168 99.2649 75.6793C98.682 75.8043 98.5179 76.4633 98.9763 76.8496C99.2536 77.0825 99.6044 77.2473 99.9439 77.3836C100.804 77.7302 101.675 78.0654 102.553 78.3665C106.944 79.8777 110.735 82.349 114.017 85.6157C115.59 87.178 116.32 90.3368 115.692 92.632C115.579 92.4275 115.477 92.2854 115.409 92.1264C113.61 87.8598 109.501 86.1384 105.54 86.7747C104.177 86.9962 102.807 87.3825 101.528 87.9052C96.9788 89.7459 92.797 92.2457 88.9208 95.2624C88.519 95.5748 88.1172 95.9157 87.8117 96.3134C87.3703 96.8986 87.7155 97.5974 88.4511 97.5746C88.9491 97.5633 89.4583 97.4042 89.9393 97.2451C94.5003 95.7851 99.0442 94.2739 103.616 92.8536C104.935 92.4445 106.321 92.1434 107.696 92.0468C109.479 91.9275 110.645 92.8024 111.08 94.5466C111.335 95.5635 111.448 96.6941 111.278 97.7167C110.911 99.9153 110.322 102.08 109.813 104.256C109.779 104.409 109.66 104.545 109.575 104.693C107.855 103.739 106.219 102.864 104.607 101.938C100.646 99.6653 96.5374 99.2449 92.282 100.961C89.4414 102.108 86.5554 103.182 83.7996 104.506C79.9743 106.346 76.398 108.608 73.597 111.903C73.2914 112.261 73.0594 112.687 72.7538 113.135C74.3949 113.777 75.685 113.192 76.9413 112.613C81.5531 110.482 86.3687 108.897 91.1786 107.307C92.5027 106.869 93.8608 106.534 95.2133 106.21C97.0184 105.778 98.8235 105.835 100.555 106.54C102.536 107.346 104.494 108.204 106.446 109.068C106.757 109.204 107 109.488 107.255 109.687C104.584 114.51 102.79 119.55 101.41 124.742C100.04 129.901 98.8971 135.11 98.4048 140.479C98.218 140.383 98.1049 140.365 98.0709 140.303C96.3903 137.44 94.0136 135.224 91.5011 133.133C89.2773 131.287 86.8327 130.111 83.8506 130.332C81.6267 130.503 79.3915 130.52 77.1733 130.736C75.7926 130.866 74.4345 131.23 73.0651 131.508C72.5784 131.611 72.1087 131.906 72.2219 132.434C72.2898 132.753 72.7199 133.105 73.0594 133.224C73.8007 133.48 74.5816 133.667 75.3625 133.758C77.9485 134.054 80.5289 134.372 83.1263 134.531C85.8368 134.696 87.9871 135.945 89.962 137.661C90.0582 137.746 90.0865 137.905 90.2109 138.161C86.5328 136.4 82.832 136.099 79.0293 136.684C76.1604 137.127 73.4668 138.173 70.7733 139.189C70.2357 139.394 69.4152 139.513 69.5001 140.258C69.6019 141.138 70.4677 140.979 71.0845 140.985C74.293 141.007 77.4958 140.985 80.7043 140.996C82.0511 140.996 83.4035 140.996 84.739 141.115C85.7519 141.206 86.7308 141.513 87.4721 142.235C86.3064 142.053 85.1125 141.644 83.9581 141.729C79.1652 142.087 75.2437 144.161 72.369 148.092C72.2332 148.279 72.0635 148.467 72.0069 148.683C71.9503 148.887 71.939 149.211 72.0578 149.325C72.2276 149.489 72.5671 149.62 72.7765 149.563C73.1726 149.455 73.5291 149.211 73.8969 149.018C76.2453 147.751 78.6785 146.689 81.3607 146.444C82.4529 146.342 83.6072 146.365 84.6711 146.615C87.0591 147.172 88.0663 148.745 87.3476 151.109C86.5894 153.625 85.5086 156.04 84.49 158.699C84.2071 158.278 84.0656 158.108 83.9637 157.909C83.0527 156.188 81.7568 154.796 80.2347 153.614C78.9897 152.643 77.6147 151.91 75.985 152.319C72.0748 153.302 68.4532 154.87 65.539 157.903C63.864 157.165 62.1721 156.398 60.4631 155.671C58.0638 154.654 55.6532 153.665 53.0672 153.222C52.3429 153.097 51.5846 153.074 50.8546 153.125C50.1586 153.171 49.8361 153.767 49.7059 154.37C49.5644 155.017 50.1416 155.239 50.5943 155.449C51.0131 155.642 51.4658 155.779 51.9071 155.915C54.2272 156.631 56.4567 157.545 58.4882 158.903C60.7291 160.403 63.0095 161.852 65.1938 163.431C66.3652 164.278 66.9593 165.55 66.8405 167.124C65.7427 165.732 64.345 164.749 62.8681 163.874C62.2286 163.494 61.5666 163.147 60.9045 162.812C58.0751 161.403 55.2684 159.926 52.2127 159.062C49.6267 158.329 47.0237 158.006 44.3867 158.846C42.4911 159.454 41.0311 160.619 39.9786 162.301C39.69 162.766 39.243 163.278 39.6674 163.823C40.1257 164.408 40.6746 163.959 41.1839 163.778C42.1402 163.431 43.0852 162.926 44.0755 162.801C47.8668 162.323 51.4884 162.908 54.7761 164.999C56.7397 166.243 58.7033 167.488 60.6272 168.8C61.5439 169.425 62.3758 170.175 63.2076 170.919C63.4962 171.175 63.6659 171.572 63.9376 171.976C63.2189 172.538 62.6247 173.055 61.974 173.493C59.8463 174.919 57.6621 176.282 56.8133 178.822C53.169 179.282 49.7965 178.873 46.6162 177.299C43.5209 175.771 40.3294 174.521 37.0304 173.515C35.7968 173.14 34.6481 172.493 33.4824 171.919C31.417 170.902 29.6967 169.152 27.2352 168.999C27.1333 168.72 27.0428 168.51 26.9749 168.289C24.4341 160.38 22.9289 152.268 22.4649 143.99C22.1537 138.405 22.1989 132.798 22.0801 127.202C22.0631 126.412 22.0914 125.611 21.9896 124.827C21.8368 123.646 21.0955 123.333 20.1335 124.038C19.7261 124.333 19.4035 124.748 19.064 125.128C18.4755 125.793 17.904 126.475 17.3268 127.145C17.1683 126.475 17.2306 125.924 17.2645 125.373C17.3211 124.407 17.0042 124.123 16.0253 124.231C15.8895 124.248 15.748 124.271 15.6122 124.305C12.0585 125.18 8.74818 126.617 5.72643 128.696C4.00619 129.884 3.03854 131.543 3.01025 133.639C2.9876 135.406 3.12908 137.178 3.20831 138.945C3.23094 139.434 3.28752 139.917 3.32713 140.411C2.56321 140.525 1.95773 140.576 1.36923 140.712C0.294061 140.962 -0.0341248 141.377 -0.0341249 142.467C-0.0341249 143.024 0.0281004 143.587 0.0790342 144.143C0.961801 154.165 3.85905 163.408 10.2251 171.402C11.9001 173.498 13.162 175.93 14.6163 178.202C15.1086 178.975 15.2896 179.77 15.1765 180.719C14.9501 182.622 15.3802 184.366 16.4836 186.014C18.4019 188.877 20.8748 191.19 23.3986 193.468C26.5335 196.303 30.0985 198.496 33.8163 200.439L33.8446 200.433ZM174.837 19.3615C172.291 20.2478 170.944 19.4297 170.259 16.5948C172.879 15.1006 175.657 14.0666 178.889 13.9871C178.555 16.7198 177.27 18.5207 174.837 19.3615ZM138.633 70.4469C136.273 59.8912 135.854 49.3015 137.965 38.6606C139.329 31.7806 141.337 25.0995 144.467 18.8104C146.962 13.7939 150.154 9.30579 154.681 5.90275C157.668 3.65867 160.967 2.1077 164.719 1.71002C168.799 1.27257 172.472 2.26678 175.516 5.13579C177.525 7.03331 178.594 9.41373 178.911 12.1634C178.753 12.2487 178.64 12.3566 178.515 12.368C172.811 12.7656 168.154 15.379 164.091 19.2252C160.877 22.2703 158.5 25.946 156.531 29.8717C151.653 39.5923 148.699 49.9718 146.362 60.5446C145.344 65.1407 144.569 69.7822 144.291 74.4976C144.121 77.3439 144.201 80.1845 144.67 83.0024C144.704 83.2182 144.71 83.4455 144.727 83.6671C142.175 79.4346 139.702 75.2702 138.627 70.4469L138.633 70.4469ZM165.404 85.6271C164.425 87.1553 163.48 88.6324 162.529 90.1152C162.467 90.0868 162.405 90.0641 162.343 90.0357C162.988 88.1382 163.638 86.2406 164.346 84.1499C164.77 84.7465 165.081 85.1839 165.404 85.6271ZM172.658 82.7524C172.07 83.6273 171.255 84.2352 170.225 84.4624C169.869 84.542 169.291 84.4851 169.11 84.2579C168.924 84.0193 169.071 83.4966 169.116 83.1046C169.139 82.9342 169.274 82.7751 169.506 82.3376C170.01 82.0195 170.706 81.4798 171.481 81.1332C171.81 80.9855 172.432 81.1219 172.726 81.3662C173.179 81.7525 172.947 82.3149 172.647 82.7524L172.658 82.7524ZM163.814 69.8163C163.887 69.8788 163.961 69.9356 164.029 69.9981C162.948 72.1626 161.166 73.5716 158.936 74.4862C160.56 72.9296 162.19 71.3729 163.814 69.8163ZM113.434 120.282C114.266 121.316 115.33 122.169 116.343 123.146C114.594 125.225 112.851 127.293 111.007 129.48C109.881 125.901 110.033 120.924 111.341 116.913C112.042 118.067 112.619 119.265 113.434 120.277L113.434 120.282ZM95.0888 104.659C93.7759 104.955 92.4405 105.222 91.1786 105.67C86.7139 107.255 82.2718 108.909 77.824 110.533C77.6147 110.613 77.394 110.675 77.0997 110.613C77.3261 110.408 77.5411 110.187 77.7844 110.005C82.8773 106.204 88.5926 103.671 94.6304 101.824C97.0693 101.08 99.4799 101.216 101.857 102.216C104.386 103.284 106.836 104.5 109.315 105.971C109.037 106.96 109.026 107.903 108.33 108.71C108.059 108.585 107.798 108.511 107.589 108.363C105.546 106.943 103.311 105.937 100.991 105.085C99.0555 104.375 97.0976 104.21 95.0944 104.659L95.0888 104.659ZM110.605 106.568C111.425 103.909 111.935 101.148 112.523 98.4211C112.812 97.0861 112.784 95.7339 112.416 94.3988C111.782 92.0866 109.999 90.6152 107.617 90.7231C106.197 90.7913 104.76 91.0924 103.39 91.5071C99.7911 92.5979 96.2262 93.8137 92.6442 94.9726C92.3556 95.0635 92.0557 95.1147 91.5408 95.234C91.8011 94.9272 91.8916 94.7568 92.0331 94.6602C95.6716 92.2173 99.4233 89.9675 103.622 88.6438C104.929 88.2347 106.361 88.0018 107.725 88.0586C110.894 88.195 113.134 89.8652 114.357 92.8081C114.764 93.791 115.047 94.842 115.273 95.8873C115.375 96.3532 115.256 96.9042 115.109 97.3758C114.204 100.262 113.253 103.137 112.337 106.023C111.612 108.289 110.916 110.562 110.922 112.982C110.922 113.34 110.769 113.704 110.695 114.061C110.152 116.612 109.518 119.14 109.094 121.708C108.63 124.509 108.964 127.299 109.762 130.014C109.994 130.798 109.92 131.412 109.485 132.105C108.698 133.361 108.025 134.679 107.153 136.235C106.814 135.258 106.485 134.508 106.293 133.718C105.852 131.883 105.903 130.048 106.253 128.179C106.921 124.566 107.459 120.924 108.036 117.288C108.613 113.647 109.518 110.096 110.605 106.568ZM105.439 135.372C105.512 135.661 105.506 136.025 105.399 136.309C105.059 137.212 104.658 138.093 104.143 139.303C102.971 136.741 103.622 134.593 104.516 132.213C104.878 133.429 105.19 134.395 105.444 135.377L105.439 135.372ZM100.142 138.508C100.951 132.633 102.258 126.873 104.08 121.237C104.992 118.413 106.118 115.664 107.379 112.954C107.385 113.13 107.43 113.312 107.396 113.476C106.57 118.152 105.75 122.828 104.89 127.503C104.776 128.134 104.454 128.725 104.233 129.333C103.594 131.077 102.83 132.787 102.349 134.576C101.811 136.57 102.009 138.57 103.254 140.326C103.498 140.667 103.962 141.098 104.29 141.07C104.618 141.042 105.02 140.547 105.19 140.167C105.614 139.206 105.92 138.19 106.344 137.019C106.966 138.082 106.214 138.9 106.355 139.723C106.502 140.587 106.633 141.473 106.927 142.291C107.215 143.109 107.696 143.865 108.087 144.626C106.14 145.944 104.148 147.291 102.06 148.7C101.919 148.484 101.704 148.206 101.545 147.899C99.9666 144.939 99.7006 141.78 100.148 138.519L100.142 138.508ZM94.2626 140.354C92.4518 137.792 90.1657 135.792 87.4269 134.304C86.0065 133.531 84.4447 133.315 82.8546 133.213C81.0042 133.094 79.1538 132.934 77.3034 132.775C76.9526 132.747 76.6018 132.633 76.2339 132.372C76.5112 132.298 76.7828 132.179 77.0658 132.162C79.6631 132.008 82.2548 131.861 84.8522 131.736C86.3913 131.662 87.7947 132.15 89.0453 133.02C92.6272 135.519 95.8018 138.428 97.8955 142.348C98.3255 143.161 98.5745 144.07 98.931 144.922C99.6101 146.547 100.3 148.16 101.013 149.83C99.627 151.626 98.1614 153.529 96.6053 155.54C95.2302 153.722 94.1607 151.87 94.3531 149.541C94.4324 148.615 94.6191 147.7 94.7719 146.78C94.919 145.905 95.0944 145.041 95.2302 144.166C95.4396 142.763 95.0888 141.513 94.2626 140.343L94.2626 140.354ZM90.0978 143.314C88.734 141.11 86.7874 139.82 84.1731 139.706C82.7358 139.644 81.2985 139.701 79.8612 139.718C77.9146 139.746 75.968 139.786 74.0101 139.82C74.027 139.65 74.0101 139.513 74.0497 139.502C77.8693 137.968 81.7964 137.315 85.899 138.013C88.3719 138.434 90.5618 139.519 92.6668 140.826C93.6911 141.462 94.1098 142.422 93.9683 143.564C93.7703 145.121 93.4534 146.666 93.1818 148.217C93.0629 148.24 92.9441 148.262 92.8253 148.291C92.2085 147.166 91.586 146.035 90.9692 144.91C90.6806 144.382 90.4203 143.831 90.1034 143.32L90.0978 143.314ZM86.6007 156.977C87.2967 155.455 87.9644 153.915 88.502 152.33C90.194 147.365 86.895 145.268 83.5507 144.944C81.5362 144.751 79.5726 145.132 77.6656 145.791C77.1903 145.956 76.7093 146.115 76.2113 146.28C76.2113 146.166 76.1943 146.098 76.2113 146.075C78.769 144.013 81.7116 142.973 84.9653 143.161C86.9063 143.274 88.4454 144.541 89.6338 145.973C90.7146 147.279 91.5634 148.819 92.316 150.347C92.6612 151.046 92.6385 151.978 92.6046 152.796C92.5763 153.529 92.3216 154.25 92.1293 154.972C91.9029 155.824 91.62 156.665 91.3993 157.523C90.7599 160.039 90.2902 162.556 91.7841 164.92C89.7639 166.187 87.8965 167.351 86.0009 168.539C84.8125 164.687 84.8408 160.801 86.5894 156.972L86.6007 156.977ZM93.7194 153.784C94.5455 154.932 95.1736 155.813 95.7791 156.653C94.7945 159.119 93.8382 161.511 92.8762 163.931C92.2764 162.954 91.9538 161.857 92.1858 160.687C92.6329 158.471 93.1648 156.273 93.7194 153.79L93.7194 153.784ZM67.0781 158.454C70.1791 155.966 75.0286 155.784 78.0051 158.04C79.6971 159.324 80.0932 160.909 79.1708 162.835C78.8709 163.465 78.5597 164.096 78.1636 164.67C76.7885 166.658 76.4207 168.84 76.8281 171.192C76.8621 171.373 76.879 171.555 76.913 171.777C75.8435 172.112 74.7966 172.442 73.5857 172.822C76.5961 165.442 73.614 161.108 67.0781 158.454ZM59.6087 177.276C60.4914 176.526 61.4364 175.845 62.3531 175.134C63.1963 174.475 64.0564 173.845 64.8656 173.146C65.6069 172.504 65.7257 172.021 65.2447 171.186C64.8316 170.47 64.3393 169.737 63.7056 169.232C62.4324 168.22 61.0516 167.357 59.6992 166.448C58.7712 165.829 57.7809 165.3 56.8925 164.63C52.6881 161.465 48.014 160.551 42.9155 161.613C42.8306 161.63 42.7344 161.613 42.2647 161.59C43.0909 161.096 43.6285 160.693 44.2226 160.437C45.5694 159.852 46.9954 159.699 48.4553 159.801C50.4698 159.937 52.4221 160.403 54.2499 161.233C57.0849 162.516 59.8859 163.88 62.67 165.283C64.5204 166.215 65.8615 167.652 66.5236 169.686C66.6311 170.021 67.0329 170.254 67.2988 170.538C67.5761 170.26 68.0118 170.033 68.108 169.703C68.855 167.118 68.6456 164.675 66.6198 162.71C65.6918 161.812 64.6392 161.005 63.5358 160.329C60.6895 158.574 57.945 156.625 54.8157 155.375C54.7818 155.364 54.7705 155.296 54.6686 155.085C55.4721 155.347 56.1738 155.517 56.8302 155.801C60.763 157.477 64.7298 159.091 68.6003 160.903C72.9349 162.931 74.3666 167.01 72.3973 171.43C71.8541 172.657 71.0506 173.765 70.3772 174.93C69.9584 175.651 69.517 176.367 69.1662 177.129C68.9964 177.503 69.0191 177.964 68.9512 178.384C69.0587 178.441 69.1662 178.503 69.2737 178.56C69.7038 178.18 70.2583 177.873 70.5356 177.401C71.7353 175.384 73.6196 174.362 75.7077 173.601C75.9284 173.521 76.1377 173.43 76.3641 173.362C78.1692 172.822 78.1296 172.538 77.9202 171.004C77.6147 168.771 78.2881 166.772 79.499 164.914C79.9291 164.255 80.3195 163.55 80.6081 162.823C81.3607 160.943 80.9646 159.25 79.6065 157.784C78.0447 156.102 76.1038 155.216 73.8233 155.068C73.5064 155.046 73.1896 155.034 72.8274 155.012C75.1079 153.205 77.6486 153.205 79.7933 154.96C81.3324 156.222 82.5773 157.716 83.313 159.574C83.511 160.079 83.6695 160.664 83.6186 161.193C83.2564 165.232 82.8377 169.266 82.4359 173.305C82.4246 173.441 82.385 173.578 82.3453 173.805C82.0228 173.879 81.6833 173.987 81.3268 174.038C78.2994 174.464 75.5888 175.634 73.2971 177.646C71.0336 179.634 68.4476 180.685 65.4598 180.872C64.3959 180.941 63.3491 181.168 62.1607 181.338C61.3515 180.168 60.1462 179.356 58.641 179.02C58.6919 178.174 59.139 177.685 59.6256 177.276L59.6087 177.276ZM84.3881 167.482C84.5805 167.982 84.7163 168.345 84.8578 168.703C84.9936 169.044 85.1294 169.385 85.3162 169.84C84.9087 170.419 84.5466 170.947 84.1788 171.464C83.9354 170.572 83.992 169.243 84.3938 167.482L84.3881 167.482ZM15.4877 177.396C14.0391 174.402 12.234 171.629 10.2364 168.993C5.2794 162.448 2.84048 154.943 1.79362 146.905C1.58991 145.342 1.43713 143.774 1.24473 142.081C2.04827 141.968 2.716 141.871 3.51954 141.757C4.38532 150.222 7.84278 157.625 11.9057 164.8C12.0755 165.107 12.3245 165.368 12.7602 165.522C12.5225 164.988 12.3075 164.442 12.0416 163.92C9.37064 158.619 7.01663 153.194 5.69248 147.376C5.40389 146.103 5.13792 144.825 4.90025 143.536C4.75312 142.723 4.53245 141.928 4.87763 141.064C5.03042 140.684 4.79841 140.155 4.7701 139.689C4.65693 137.69 4.48716 135.69 4.45887 133.69C4.43624 132.042 5.22846 130.736 6.58656 129.81C9.26312 127.98 12.1887 126.696 15.3123 125.873C15.4368 125.839 15.5839 125.884 15.7537 125.895C15.7763 126.935 15.7876 127.952 15.8216 128.975C15.8385 129.452 15.9121 130.02 16.478 130.043C16.8119 130.054 17.2476 129.759 17.4796 129.469C18.4472 128.282 19.3526 127.049 20.3259 125.77C20.8295 126.259 20.6315 126.742 20.6428 127.162C20.7899 133.082 20.7673 139.013 21.1068 144.927C21.5256 152.262 22.9119 159.46 24.9604 166.522C25.232 167.459 25.5659 168.379 25.8714 169.294C25.0622 170.146 24.2757 170.97 23.342 171.947C22.1141 168.277 20.9427 164.721 20.1109 161.056C19.2677 157.364 18.7754 153.62 18.4755 149.847C18.1813 146.115 18.136 142.36 17.6776 138.638C17.5814 138.638 17.4852 138.633 17.389 138.627C17.3381 138.922 17.2532 139.218 17.2476 139.519C17.1457 145.723 17.0382 151.932 18.0454 158.091C18.8433 162.999 20.3146 167.709 22.3121 172.26C22.4196 172.51 22.5045 172.765 22.6516 173.146C22.0971 173.436 21.5878 173.708 20.954 174.038C20.5636 173.191 20.1901 172.447 19.8675 171.686C16.3082 163.295 14.6049 154.495 14.0843 145.433C13.9259 142.683 13.7958 139.934 13.6316 137.19C13.592 136.576 13.4562 135.963 13.3204 135.048C12.3528 137.349 12.6753 148.512 13.7505 155.21C14.8596 162.13 16.2347 166.277 20.0713 174.265C18.3736 175.009 16.8005 175.964 15.8782 177.81C15.6858 177.611 15.5386 177.515 15.4707 177.384L15.4877 177.396ZM25.7186 193.36C22.5498 190.843 19.5337 188.116 17.4513 184.542C15.5839 181.327 16.8967 177.333 20.3033 175.918C20.7333 175.742 21.1747 175.589 21.6104 175.441C22.9402 174.992 23.9758 174.197 24.6944 172.964C24.9717 172.487 25.3169 172.032 25.696 171.623C26.7372 170.493 27.5691 170.322 28.9271 171.016C29.8382 171.476 30.7266 171.998 31.5811 172.561C33.3409 173.725 35.2196 174.629 37.2511 175.197C40.3068 176.055 43.2097 177.305 46.0561 178.691C49.0156 180.128 52.1222 180.679 55.3929 180.48C56.6322 180.407 57.8997 180.162 59.0937 180.759C60.0104 181.213 60.9158 181.685 61.4704 182.77C57.911 186.991 58.7033 191.57 60.4574 196.399C61.0799 195.888 60.9554 195.36 60.9101 194.894C60.7913 193.638 60.6329 192.388 60.4858 191.138C60.1349 188.144 60.9498 185.52 62.8737 183.213C63.2642 182.742 63.6773 182.514 64.2771 182.452C66.0256 182.27 67.7742 182.037 69.585 181.816C69.6133 186.826 72.8727 190.275 75.6567 193.968C75.8208 194.189 76.0585 194.36 76.2792 194.53C76.3811 194.61 76.5282 194.638 76.7149 194.718C76.9073 194.07 76.4999 193.632 76.2339 193.189C75.4644 191.911 74.6155 190.684 73.8629 189.4C73.1103 188.116 72.3804 186.815 71.7466 185.463C71.3957 184.713 71.226 183.872 71.0562 183.054C70.9091 182.338 71.0675 181.645 71.6051 181.111C74.8985 177.839 78.6219 175.441 83.4658 175.39C83.5563 176.248 83.5903 177.134 83.76 177.992C84.3202 180.804 85.7293 183.179 88.0041 184.861C90.6184 186.792 93.4081 188.491 96.1356 190.263C96.4638 190.474 96.8826 190.548 97.4088 190.457C97.0919 190.15 96.8033 189.803 96.4525 189.548C94.7323 188.275 92.9611 187.059 91.2691 185.747C90.0582 184.81 88.8529 183.832 87.806 182.719C85.7292 180.52 84.8239 177.873 84.9031 174.811C84.971 171.97 86.6686 170.209 88.6265 168.629C89.73 167.737 91.0881 167.158 92.4348 166.38C92.5763 166.811 92.6895 167.096 92.763 167.391C93.3459 169.737 94.8624 171.43 96.6732 172.862C99.7515 175.299 103.283 176.827 107.063 177.776C107.708 177.935 108.392 177.935 109.275 178.032C108.964 177.265 108.489 177.242 108.092 177.072C105.54 175.958 102.966 174.879 100.459 173.674C98.5519 172.754 96.9505 171.379 95.6263 169.726C94.3758 168.158 93.8212 166.454 94.3927 164.391C95.0605 161.988 95.9942 159.721 97.2787 157.597C100.108 152.91 103.492 148.768 108.506 146.228C109.275 145.836 109.847 145.768 110.678 146.16C112.733 147.126 114.872 147.927 116.988 148.762C117.475 148.95 118.012 149.166 118.669 148.848C118.159 148.075 117.401 147.802 116.728 147.467C115.019 146.62 113.276 145.848 111.567 145.007C110.339 144.405 109.292 143.604 108.619 142.337C107.736 140.672 107.804 139.025 108.528 137.354C109.943 134.088 111.691 131.009 114.017 128.31C116.598 125.316 119.291 122.413 121.871 119.419C123.756 117.232 125.561 114.982 127.366 112.726C129.646 109.88 132.238 107.358 135.011 105C136.211 103.977 137.376 102.904 138.536 101.83C140.528 99.9948 142.005 97.7962 142.775 95.1942C143.442 92.9274 144.636 91.0697 146.419 89.5414C149.226 87.1326 151.687 84.417 153.702 81.0082C152.717 84.2409 151.404 86.1952 149.033 88.1666C148.354 88.729 147.647 89.2801 147.07 89.9391C145.836 91.3424 145.4 92.9785 146.232 94.734C147.064 96.5009 148.62 97.1315 150.476 97.0974C152.208 97.0633 153.753 96.4327 155.145 95.4499C157.069 94.0921 158.619 92.3706 159.847 90.3538C160.051 90.0186 160.164 89.6323 160.322 89.263C159.723 88.9278 159.564 89.3369 159.326 89.5869C158.036 90.9219 156.786 92.3025 155.422 93.558C154.245 94.6431 152.808 95.3646 151.201 95.5749C150.482 95.6657 149.684 95.6771 149.005 95.4669C147.138 94.8817 146.447 92.7911 147.517 90.9958C147.89 90.3709 148.405 89.7459 149.005 89.3653C151.8 87.5984 153.481 84.968 154.89 82.082C156.457 78.8664 158.823 76.4349 161.816 74.4237C164.431 72.6682 167.073 70.9582 169.716 69.2482C171.894 67.8335 173.615 65.9531 175.148 63.8794C175.448 63.4704 175.731 63.05 176.189 62.7318C175.759 63.6465 175.329 64.5612 174.899 65.4758C174.978 65.5497 175.052 65.6236 175.131 65.7031C175.386 65.6008 175.714 65.5724 175.889 65.3906C176.818 64.4135 177.706 63.4022 178.617 62.4023C179.143 61.8285 179.675 61.2604 180.264 60.7491C178.487 64.351 175.98 67.345 172.902 69.8788C171.074 71.3843 169.224 72.8728 167.424 74.4124C166.581 75.1339 165.789 75.9236 165.059 76.7644C164.136 77.8211 163.848 79.1391 163.74 80.5197C163.667 81.4855 163.52 82.457 163.271 83.3943C162.156 87.5587 160.453 91.4844 158.336 95.2283C158.019 95.7907 157.572 96.2736 157.17 96.7849C156.78 97.2849 156.361 97.7621 155.835 98.4041C156.746 98.5632 157.216 98.2677 157.736 97.8246C161.013 95.0295 163.35 91.5071 165.443 87.803C165.647 87.4394 165.874 87.0815 166.094 86.7292C166.14 86.6554 166.236 86.6099 166.355 86.5133C166.536 86.5872 166.751 86.661 166.949 86.7633C167.317 86.9565 167.673 87.1724 168.12 87.4223C167.877 88.2859 167.639 89.1267 167.407 89.9675C167.283 90.4163 167.147 90.8651 167.068 91.3196C166.875 92.4332 167.034 92.632 168.341 92.882C167.532 94.4897 166.79 96.0918 165.941 97.6258C162.965 103.006 160 108.392 156.921 113.709C155.337 116.448 153.447 119.01 151.84 121.737C149.763 125.265 147.822 128.878 145.847 132.469C144.235 135.406 142.724 138.405 141.043 141.303C139.391 144.149 137.252 146.586 134.547 148.512C133.2 149.472 131.78 149.967 130.111 149.796C129.403 149.722 128.639 149.484 127.966 149.989C128.453 151.035 128.735 151.126 132.233 151.415C131.548 152.762 130.71 154.057 130.218 155.472C129.358 157.932 128.696 160.454 127.988 162.965C127.123 166.01 126.421 169.107 125.052 171.987C124.129 173.936 123.014 175.748 121.532 177.333C120.083 178.884 118.357 179.731 116.23 179.708C115.256 179.696 114.277 179.651 113.304 179.668C112.88 179.679 112.461 179.81 111.906 179.912C112.948 180.935 113.457 181.037 117.905 181.247C117.871 181.372 117.876 181.52 117.808 181.594C113.514 186.366 109.19 191.11 104.403 195.405C101.54 197.967 98.4048 200.126 94.936 201.751C93.5156 202.416 92.0048 202.933 90.4826 203.319C88.4171 203.836 86.4253 203.404 84.5692 202.364C83.8562 201.967 83.1206 201.597 82.3453 201.194C82.2661 201.959 83.3017 203.111 85.452 204.648C83.9694 205.052 82.5434 205.432 81.1287 205.83C77.592 206.813 74.078 207.926 70.3942 208.244C69.0983 208.358 67.7855 208.489 66.501 208.364C63.5811 208.08 61.1422 206.921 59.7275 204.137C59.2918 203.273 58.5731 203.171 58.1487 203.995C57.2376 205.762 55.7155 205.955 54.1084 205.654C51.3752 205.143 48.6138 204.626 45.9655 203.796C38.6375 201.49 31.7848 198.16 25.7356 193.36L25.7186 193.36Z" fill="#ED3237"/>
<path d="M116.343 143.973C115.987 143.82 115.709 143.678 115.415 143.575C113.05 142.746 112.286 141.388 112.863 138.934C113.01 138.303 113.225 137.678 113.474 137.082C114.283 135.133 115.358 133.321 116.717 131.719C118.822 129.236 120.938 126.753 123.173 124.384C127.61 119.674 132.001 114.931 135.99 109.829C138.254 106.931 140.472 103.994 142.696 101.068C142.956 100.728 143.137 100.324 143.352 99.9493C143.262 99.8754 143.177 99.8073 143.086 99.7334C142.73 100.057 142.333 100.347 142.017 100.705C140.755 102.137 139.515 103.585 138.276 105.04C135.469 108.335 132.731 111.687 129.845 114.908C126.121 119.067 122.251 123.094 118.488 127.219C116.134 129.804 113.921 132.508 112.416 135.707C111.714 137.19 111.182 138.735 111.216 140.405C111.262 142.609 112.886 144.365 115.002 144.524C115.483 144.558 116.004 144.632 116.343 143.973Z" fill="#ED3237"/>
<path d="M138.429 140.473C137.699 141.797 136.98 143.132 136.256 144.462C136.358 144.53 136.454 144.604 136.556 144.672C136.878 144.314 137.235 143.984 137.512 143.598C140.851 138.928 143.658 133.946 146.334 128.867C148.615 124.543 150.929 120.231 153.436 116.038C155.875 111.965 158.619 108.073 161.16 104.062C162.778 101.506 164.284 98.8812 165.823 96.2792C166.089 95.8247 166.372 95.3361 166.043 94.6033C165.766 94.9669 165.568 95.1941 165.404 95.4441C163.305 98.6312 161.245 101.852 159.1 105.011C154.087 112.368 149.441 119.941 145.378 127.878C143.194 132.145 140.749 136.275 138.429 140.473Z" fill="#ED3237"/>
<path d="M48.3027 202.421C49.0327 202.62 49.7853 202.876 50.6454 202.399C49.9947 202.12 49.3553 201.825 48.6932 201.575C42.7855 199.348 37.3305 196.28 32.1584 192.672C28.1747 189.9 24.4739 186.804 21.0278 183.384C20.4902 182.85 19.9696 182.259 19.0925 182.122C19.234 182.611 19.449 183.043 19.7319 183.418C21.5993 185.883 23.8118 188.014 26.2111 189.934C30.6136 193.462 35.2877 196.592 40.3013 199.194C42.8647 200.524 45.5073 201.66 48.2971 202.427L48.3027 202.421Z" fill="#ED3237"/>
<path d="M132.352 129.327C132.584 129.06 132.844 128.816 133.048 128.532C138.31 121.322 143.567 114.113 148.801 106.892C148.943 106.699 148.841 106.324 148.852 106.034C148.569 106.091 148.173 106.045 148.015 106.216C147.324 106.966 146.645 107.738 146.057 108.573C141.915 114.471 137.784 120.373 133.676 126.293C133.053 127.191 132.584 128.196 132.04 129.156C132.142 129.213 132.244 129.27 132.346 129.327L132.352 129.327Z" fill="#ED3237"/>
<path d="M164.816 75.0544C165.149 74.4295 165.681 73.8273 165.461 72.7649C165.093 72.9751 164.793 73.049 164.657 73.2364C164.108 73.9864 163.593 74.7647 163.095 75.5487C160.538 79.5653 157.906 83.5194 153.968 86.3657C153.815 86.4736 153.628 86.5759 153.549 86.7236C153.436 86.9338 153.402 87.1895 153.255 87.6837C153.945 87.4792 154.488 87.4508 154.868 87.1895C156.045 86.3714 157.278 85.5874 158.268 84.5761C160.985 81.7923 162.999 78.4802 164.821 75.0601L164.816 75.0544Z" fill="#ED3237"/>
<path d="M144.24 128.702C144.467 128.276 144.772 127.839 144.427 127.299C143.188 128.191 134.094 143.252 133.647 145.081C133.727 145.143 133.8 145.212 133.879 145.274C134.292 144.751 134.745 144.252 135.113 143.695C137.031 140.786 138.989 137.894 140.817 134.929C142.056 132.912 143.114 130.781 144.24 128.702Z" fill="#ED3237"/>
<path d="M123.807 169.47C122.805 170.811 121.877 172.203 120.825 173.498C119.631 174.975 117.984 175.515 116.122 175.47C115.755 175.458 115.375 175.413 115.013 175.47C114.832 175.498 114.572 175.702 114.538 175.867C114.498 176.043 114.634 176.367 114.787 176.447C115.189 176.657 115.636 176.856 116.077 176.907C118.414 177.191 120.474 176.464 121.911 174.634C123.162 173.044 124.112 171.209 125.148 169.447C125.357 169.09 125.34 168.601 125.425 168.169C125.284 168.112 125.137 168.056 124.995 167.999C124.599 168.487 124.18 168.959 123.807 169.465L123.807 169.47Z" fill="#ED3237"/>
<path d="M75.7984 205.864C76.1606 205.756 76.4831 205.517 76.8226 205.336C76.7774 205.188 76.7377 205.046 76.6925 204.898C76.2002 204.938 75.7079 204.966 75.2212 205.023C73.2859 205.256 71.3563 205.517 69.4154 205.728C67.548 205.926 65.7146 205.813 63.966 204.983C63.6944 204.853 63.3323 204.921 63.0097 204.898C62.9645 205.006 62.9135 205.12 62.8683 205.228C63.2361 205.608 63.5586 206.057 63.983 206.358C64.9676 207.051 66.1333 207.227 67.3047 207.222C70.2076 207.222 73.0256 206.682 75.7984 205.858L75.7984 205.864Z" fill="#ED3237"/>
<path d="M55.5572 191.786C56.2249 188.673 56.191 185.389 57.8547 182.514C57.9735 182.304 57.8094 181.713 57.6057 181.588C57.3906 181.458 56.9323 181.605 56.6437 181.759C56.423 181.878 56.2589 182.168 56.1627 182.418C55.8741 183.145 55.4837 183.872 55.3875 184.633C55.0536 187.303 54.8103 189.985 54.5613 192.661C54.5273 193.053 54.6462 193.462 54.6971 193.865C54.8272 193.877 54.9517 193.888 55.0819 193.899C55.2403 193.195 55.4101 192.485 55.5629 191.78L55.5572 191.786Z" fill="#ED3237"/>
<path d="M71.7411 194.729C70.8753 191.74 69.9642 188.764 69.1551 185.764C68.9287 184.929 69.0249 184.008 68.8721 183.145C68.8212 182.861 68.4534 182.634 68.2327 182.384C67.9837 182.616 67.6215 182.804 67.5084 183.088C67.3839 183.406 67.4291 183.827 67.4857 184.184C67.5932 184.872 67.6781 185.576 67.9101 186.23C69.0306 189.377 70.1849 192.513 71.345 195.649C71.4808 196.018 71.7411 196.348 71.9391 196.694C72.041 196.655 72.1429 196.609 72.2504 196.57C72.0806 195.956 71.9165 195.342 71.7354 194.734L71.7411 194.729Z" fill="#ED3237"/>
<path d="M123.88 165.09C123.977 165.119 124.078 165.141 124.175 165.17C124.373 164.886 124.616 164.63 124.758 164.323C126.189 161.187 127.253 157.915 128.107 154.574C128.192 154.233 128.068 153.836 128.04 153.461C127.898 153.438 127.757 153.415 127.621 153.393C127.468 153.608 127.253 153.807 127.174 154.052C126.048 157.398 124.927 160.744 123.841 164.102C123.745 164.397 123.863 164.761 123.886 165.096L123.88 165.09Z" fill="#ED3237"/>
<path d="M82.9227 188.468C83.0076 188.61 83.1943 188.69 83.3358 188.798C83.415 188.735 83.4942 188.673 83.5678 188.61C83.2509 187.849 82.951 187.076 82.6171 186.321C81.4628 183.719 80.2348 181.145 80.1839 178.214C80.1782 177.748 79.9575 177.362 79.4596 177.344C78.8767 177.327 78.6164 177.782 78.6447 178.276C78.6843 179.015 78.7919 179.765 78.9843 180.48C79.7538 183.406 81.3892 185.917 82.9227 188.474L82.9227 188.468Z" fill="#ED3237"/>
<path d="M104.986 168.55C105.037 168.482 105.088 168.414 105.139 168.345C104.782 167.959 104.42 167.579 104.064 167.192C102.547 165.567 101.002 163.965 99.5367 162.301C98.9934 161.681 98.6256 160.909 98.1956 160.193C97.9522 159.79 97.641 159.534 97.1713 159.727C96.5885 159.966 96.6507 160.477 96.8544 160.909C97.1091 161.449 97.4316 161.971 97.7881 162.454C99.5763 164.886 102.015 166.596 104.381 168.38C104.539 168.499 104.782 168.499 104.986 168.556L104.986 168.55Z" fill="#ED3237"/>
<path d="M107.153 190.604C108.443 189.411 109.739 188.218 110.973 186.963C111.72 186.207 112.365 185.349 113.027 184.514C113.287 184.185 113.514 183.798 113.055 183.429C111.776 183.94 106.016 189.809 105.563 191.155C106.31 191.332 106.757 190.974 107.148 190.61L107.153 190.604Z" fill="#ED3237"/>
<path d="M87.4044 188.48C87.444 188.525 87.5628 188.508 87.8288 188.542C87.5968 188.11 87.4327 187.752 87.2177 187.434C86.4424 186.275 85.6445 185.133 84.8693 183.969C83.6187 182.088 82.6681 180.083 82.3568 177.816C82.3455 177.725 82.3285 177.634 82.3116 177.538C82.2154 177.032 81.989 176.646 81.4062 176.691C80.9082 176.731 80.6988 177.157 80.8629 177.907C80.9818 178.452 81.1742 178.981 81.3666 179.503C82.6398 182.992 85.0391 185.724 87.4044 188.474L87.4044 188.48Z" fill="#ED3237"/>
<path d="M95.253 177.072L95.6039 176.907C95.4285 176.413 95.304 175.896 95.072 175.43C94.3759 174.015 93.6177 172.635 92.9273 171.22C92.5425 170.43 92.2596 169.595 91.9314 168.777C91.7446 168.311 91.4504 167.908 90.9015 168.09C90.3752 168.26 90.2904 168.754 90.4205 169.249C90.5393 169.692 90.6582 170.163 90.8902 170.55C92.0559 172.493 93.2499 174.419 94.4608 176.333C94.6476 176.629 94.9814 176.827 95.2474 177.072L95.253 177.072Z" fill="#ED3237"/>
<path d="M105.518 166.436C105.575 166.363 105.631 166.294 105.688 166.221C105.563 165.988 105.461 165.732 105.309 165.516C103.373 162.795 101.229 160.204 100.001 157.034C99.8253 156.58 99.4291 156.33 99.0104 156.597C98.7727 156.75 98.5351 157.261 98.62 157.5C98.8746 158.238 99.1688 159.011 99.6442 159.613C101.336 161.767 103.102 163.857 104.856 165.959C105.026 166.164 105.297 166.277 105.518 166.436Z" fill="#ED3237"/>
<path d="M126.631 146.064C125.578 145.825 124.69 145.018 123.111 145.024C123.343 145.376 123.422 145.558 123.552 145.689C123.943 146.075 124.305 146.552 124.775 146.791C126.84 147.836 129.047 148.336 131.361 148.245C132.052 148.217 132.861 148.234 133.229 147.183C132.046 147.064 130.954 147.012 129.879 146.825C128.787 146.637 127.717 146.314 126.631 146.064Z" fill="#ED3237"/>
<path d="M132.289 143.058C132.731 142.939 133.002 142.763 133.178 142.513C134.372 140.797 135.594 139.087 136.72 137.326C137.467 136.15 138.084 134.889 138.74 133.662C138.91 133.344 139.142 132.997 138.537 132.577C138.321 132.781 138.078 132.935 137.942 133.156C136.12 136.133 134.309 139.11 132.516 142.104C132.357 142.371 132.363 142.735 132.289 143.058Z" fill="#ED3237"/>
<path d="M106.327 174.708C106.406 174.606 106.486 174.504 106.559 174.396C105.048 173.498 103.537 172.595 102.021 171.709C99.7744 170.396 97.8221 168.794 96.7243 166.34C96.6281 166.13 96.5432 165.851 96.3678 165.76C96.1132 165.63 95.7171 165.505 95.5133 165.618C95.3153 165.732 95.1965 166.147 95.2021 166.425C95.2021 166.675 95.3889 166.954 95.5586 167.164C96.1754 167.919 96.7809 168.686 97.4543 169.391C99.4292 171.459 102.06 172.487 104.499 173.816C105.094 174.14 105.716 174.413 106.327 174.708Z" fill="#ED3237"/>
<path d="M103.786 171.05C103.724 170.237 103.26 170.033 102.949 169.749C100.719 167.664 98.2748 165.755 97.0582 162.806C97.0412 162.761 97.0186 162.721 96.9903 162.681C96.73 162.329 96.4131 162.022 95.9434 162.244C95.4228 162.494 95.3606 162.954 95.6209 163.42C95.9377 163.982 96.2829 164.539 96.6734 165.05C98.1956 167.027 100.289 168.363 102.185 169.914C102.626 170.277 103.119 170.578 103.781 171.044L103.786 171.05Z" fill="#ED3237"/>
<path d="M52.6713 189.406C53.3616 187.298 54.0407 185.19 54.6688 183.065C54.7537 182.787 54.6292 182.264 54.4198 182.134C54.2104 181.997 53.5936 182.077 53.4805 182.264C53.0787 182.923 52.6882 183.639 52.5298 184.389C52.1337 186.247 51.8621 188.133 51.5678 190.008C51.5112 190.349 51.5791 190.707 51.5904 191.059C51.7206 191.093 51.8451 191.127 51.9752 191.167C52.2129 190.582 52.4789 190.008 52.6769 189.411L52.6713 189.406Z" fill="#ED3237"/>
<path d="M30.4212 188.951C29.6063 187.44 23.8854 182.049 22.3689 181.509C24.1287 184.219 26.2168 186.258 28.4916 188.116C29.0122 188.542 29.5384 189.167 30.4212 188.951Z" fill="#ED3237"/>
<path d="M149.181 92.6774C149.175 92.7683 149.169 92.8591 149.164 92.95C149.367 93.1546 149.543 93.4898 149.78 93.5409C150.493 93.6886 151.263 93.9045 151.948 93.7738C154.041 93.3648 155.569 92.0183 156.888 90.4106C157.029 90.2401 157.142 89.9845 157.131 89.7743C157.114 89.53 156.95 89.297 156.809 88.9675C154.63 91.2173 152.429 92.9955 149.186 92.6774L149.181 92.6774Z" fill="#ED3237"/>
<path d="M106.361 161.187C106.027 160.772 105.716 160.335 105.359 159.943C103.962 158.386 102.519 156.875 101.546 154.989C101.444 154.79 101.302 154.557 101.115 154.46C100.9 154.353 100.555 154.273 100.369 154.375C100.176 154.483 100.035 154.801 100.001 155.051C99.9724 155.256 100.086 155.506 100.199 155.705C101.647 158.159 103.769 159.92 106.044 161.505C106.152 161.403 106.254 161.301 106.361 161.198L106.361 161.187Z" fill="#ED3237"/>
<path d="M84.5638 200.978C84.9712 201.228 85.356 201.58 85.7974 201.7C86.4594 201.882 87.1951 202.063 87.8458 201.95C89.6679 201.632 91.4617 201.183 93.2612 200.74C93.5102 200.677 93.7026 200.387 93.9176 200.206C93.8837 200.115 93.844 200.024 93.8101 199.927C92.8142 200.052 91.8182 200.183 90.8166 200.302C89.7585 200.433 88.7003 200.632 87.6421 200.666C86.6631 200.694 85.6842 200.546 84.7052 200.478C84.66 200.643 84.6147 200.808 84.5638 200.973L84.5638 200.978Z" fill="#ED3237"/>
<path d="M49.8985 187.917C50.5266 186.321 51.1264 184.719 51.681 183.1C51.7602 182.867 51.6188 182.401 51.4264 182.276C51.2226 182.139 50.7247 182.168 50.5549 182.333C50.2041 182.679 49.8759 183.122 49.7457 183.588C49.3722 184.929 49.0893 186.292 48.8177 187.656C48.7441 188.031 48.8347 188.434 48.846 188.826C48.9705 188.855 49.1006 188.889 49.2251 188.917C49.4571 188.588 49.7627 188.286 49.9042 187.923L49.8985 187.917Z" fill="#ED3237"/>
<path d="M117.396 135.411C116.841 136.769 116.439 138.201 116.1 139.633C115.941 140.303 115.981 141.093 116.999 141.502C117.13 138.394 118.493 135.758 119.376 132.951C118.278 133.474 117.786 134.457 117.396 135.411Z" fill="#ED3237"/>
<path d="M88.6776 176.634C88.2363 175.214 87.7666 173.799 87.3139 172.379C87.1724 171.947 86.9404 171.572 86.4424 171.663C85.8653 171.765 85.7747 172.243 85.8483 172.748C85.8879 173.021 85.9501 173.305 86.069 173.555C86.8555 175.242 87.6591 176.924 88.4739 178.594C88.5871 178.821 88.8191 178.992 88.9945 179.185C89.1077 179.128 89.2209 179.071 89.334 179.02C89.119 178.225 88.9266 177.424 88.6833 176.64L88.6776 176.634Z" fill="#ED3237"/>
<path d="M91.7955 177.907C91.8917 177.77 91.9427 177.731 91.937 177.702C91.1278 175.146 89.7528 172.788 89.3397 170.095C89.3114 169.902 88.7908 169.584 88.6436 169.652C88.3664 169.777 87.9985 170.158 88.0268 170.396C88.0891 170.981 88.2815 171.584 88.5531 172.106C89.4698 173.879 90.4375 175.623 91.3994 177.367C91.5013 177.549 91.6541 177.708 91.8069 177.907L91.7955 177.907Z" fill="#ED3237"/>
<path d="M106.536 157.335C105.558 155.71 104.573 154.091 103.549 152.495C103.436 152.324 102.949 152.171 102.853 152.256C102.655 152.432 102.44 152.853 102.524 153.035C102.938 153.909 103.379 154.784 103.939 155.568C104.579 156.46 105.207 157.409 106.452 157.869C106.503 157.585 106.582 157.42 106.531 157.335L106.536 157.335Z" fill="#ED3237"/>
<path d="M66.4842 191.019C66.603 191.019 66.7218 191.008 66.835 191.002C66.8803 190.837 66.9651 190.678 66.9651 190.513C66.9595 188.468 66.9369 186.429 66.9199 184.383C66.9199 184.293 66.9199 184.173 66.869 184.116C66.6935 183.929 66.5068 183.639 66.2974 183.616C66.0824 183.594 65.7598 183.77 65.6184 183.963C65.4656 184.162 65.3977 184.491 65.4203 184.747C65.624 186.866 66.0428 188.945 66.4785 191.019L66.4842 191.019Z" fill="#ED3237"/>
<path d="M33.1261 175.765C32.1018 174.839 30.9475 174.044 29.5554 173.754C29.3913 173.72 29.1819 173.913 28.9895 174.01C29.5045 174.93 32.6507 177.362 34.2125 178.038C34.7897 176.748 33.7089 176.305 33.1261 175.771L33.1261 175.765Z" fill="#ED3237"/>
<path d="M156.395 82.616C158.24 81.3263 159.677 79.6674 160.679 77.6506C160.764 77.4802 160.594 77.1791 160.481 76.645C158.631 78.5539 157.029 80.3151 155.694 82.6273C156.135 82.6273 156.305 82.6785 156.395 82.616Z" fill="#ED3237"/>
<path d="M78.458 185.559C78.5259 185.491 78.5881 185.457 78.5881 185.434C78.209 183.207 77.8299 180.975 77.4111 178.753C77.3715 178.56 77.032 178.299 76.8226 178.288C76.6076 178.276 76.2115 178.498 76.1775 178.674C76.087 179.151 76.0078 179.714 76.1662 180.151C76.7887 181.901 77.5017 183.611 78.192 185.338C78.2316 185.434 78.3731 185.491 78.4636 185.565L78.458 185.559Z" fill="#ED3237"/>
<path d="M75.6569 185.469C75.7757 185.435 75.8946 185.406 76.0134 185.372C76.036 184.849 76.1266 184.315 76.0643 183.804C75.9285 182.702 75.7022 181.611 75.5268 180.509C75.4475 180.02 75.34 179.526 74.7289 179.589C74.1743 179.651 74.0159 180.117 74.0159 180.623C74.0159 180.85 74.0442 181.088 74.1064 181.31C74.412 182.378 74.7062 183.458 75.0571 184.509C75.1703 184.855 75.4532 185.145 75.6569 185.463L75.6569 185.469Z" fill="#ED3237"/>
<path d="M46.5203 186.031C46.5203 186.093 46.6447 186.145 46.7636 186.247C47.3917 186.054 47.6011 185.468 47.8331 184.94C48.2066 184.094 48.5291 183.23 48.8969 182.378C49.0723 181.975 49.2704 181.492 48.7441 181.327C48.4499 181.236 47.8444 181.441 47.6973 181.696C46.9333 183.026 46.441 184.457 46.5203 186.031Z" fill="#ED3237"/>
<path d="M101.517 194.524C102.66 195.036 103.996 194.746 105.054 193.542C103.973 193.451 103.079 193.519 102.281 193.275C101.461 193.019 100.731 192.462 99.8931 191.996C99.763 193.201 100.318 193.979 101.517 194.524Z" fill="#ED3237"/>
<path d="M107.583 154.699C107.465 153.205 106.65 152 105.897 150.785C105.784 150.603 105.207 150.478 105.082 150.592C104.862 150.796 104.652 151.268 104.743 151.501C104.992 152.143 105.376 152.739 105.761 153.313C106.186 153.955 106.486 154.727 107.368 155.04C107.493 154.847 107.583 154.767 107.578 154.693L107.583 154.699Z" fill="#ED3237"/>
<path d="M119.082 139.292C118.929 139.792 118.714 140.343 119.286 141.025C120.451 139.155 121.051 137.264 121.119 135.184C119.959 136.326 119.529 137.815 119.082 139.292Z" fill="#ED3237"/>
<path d="M45.1508 180.838C44.5736 182.151 44.2341 183.526 44.4435 184.986C44.4491 185.025 44.5963 185.042 44.8509 185.139C45.4111 183.565 45.9713 181.997 46.5316 180.412C45.7563 180.253 45.3828 180.31 45.1508 180.838Z" fill="#ED3237"/>
<path d="M134.253 135.093C132.753 136.559 131.837 138.269 131.197 140.138C132.34 139.496 133.778 137.434 134.253 135.928C134.332 135.678 134.253 135.377 134.253 135.099L134.253 135.093Z" fill="#ED3237"/>
<path d="M63.2248 184.969C62.9531 186.326 63.0494 187.667 63.4794 188.997C64.3791 187.588 64.0057 185.991 64.3565 184.457C63.6152 184.23 63.321 184.52 63.2304 184.963L63.2248 184.969Z" fill="#ED3237"/>
<path d="M130.62 127.39C131.916 126.185 133.579 123.47 133.596 122.527C132.668 123.061 130.778 126.14 130.62 127.39Z" fill="#ED3237"/>
<path d="M42.0725 182.037C43.1477 181.634 43.4306 180.639 44.0983 180.054C44.2172 179.946 44.1832 179.662 44.2172 179.458C43.9682 179.418 43.6173 179.248 43.4928 179.35C42.7176 180.003 42.1348 180.793 42.0725 182.037Z" fill="#ED3237"/>
<path d="M72.5899 181.736C72.075 182.923 72.6635 183.793 73.3934 184.628C73.5462 183.56 73.4783 182.548 72.5899 181.736Z" fill="#ED3237"/>
<path d="M95.7283 197.922C96.713 198.075 97.4203 197.723 98.0258 197.132C98.1389 197.024 98.1163 196.695 98.0428 196.513C97.9975 196.399 97.7032 196.28 97.5787 196.325C96.7978 196.587 96.0452 196.91 95.7283 197.922Z" fill="#ED3237"/>
<path d="M39.9958 181.105C40.5673 180.287 40.986 179.742 41.3312 179.157C41.4387 178.975 41.3482 178.679 41.3425 178.429C41.0879 178.458 40.754 178.395 40.5843 178.532C39.8656 179.111 39.7694 179.895 39.9958 181.105Z" fill="#ED3237"/>
<path d="M59.8635 199.995C59.3598 200.916 59.275 201.677 59.8861 202.495C60.6953 201.262 60.701 200.842 59.8635 199.995Z" fill="#ED3237"/>
<path d="M39.56 178.197C39.594 178.055 39.4016 177.805 39.2488 177.685C39.1809 177.634 38.864 177.765 38.8131 177.878C38.5471 178.481 38.2755 179.088 38.3604 180.003C39.0734 179.424 39.3959 178.85 39.56 178.191L39.56 178.197Z" fill="#ED3237"/>
<path d="M108.257 149.444C108.223 150.438 108.506 150.819 109.637 151.296C109.36 150.484 109.241 149.677 108.257 149.444Z" fill="#ED3237"/>
<path d="M124.82 149.228C124.441 149.166 124.101 149.103 123.467 148.995C124.052 149.662 124.503 149.739 124.82 149.228Z" fill="#ED3237"/>
<path d="M8.8785 149.115C8.22775 150.052 8.99166 150.773 9.23499 151.529C9.48963 152.319 9.88009 153.069 10.2139 153.83C10.6893 154.917 11.1307 155.585 11.5381 155.835C11.3117 153.796 9.77258 149.847 8.8785 149.115Z" fill="#ED3237"/>
<path d="M7.4525 140.275C7.78636 137.638 7.75806 135.002 7.27141 132.361C6.92057 134.997 7.11863 137.638 7.4525 140.275Z" fill="#ED3237"/>
<path d="M16.5064 173.686C16.2291 172.339 14.4806 169.464 13.6261 168.948C13.8015 170.214 15.3973 172.839 16.5064 173.686Z" fill="#ED3237"/>
<path d="M12.8056 128.566C12.0191 129.753 12.1832 130.85 12.3756 131.946C12.9584 130.759 13.1055 129.571 12.8056 128.566Z" fill="#ED3237"/>
<path d="M64.43 178.611C65.3298 177.816 66.3144 177.06 67.033 176.117C68.5892 174.066 69.6361 171.72 70.5528 169.317C70.6659 169.027 70.6546 168.686 70.6999 168.374C70.6037 168.34 70.5075 168.306 70.4113 168.271C67.9611 171.788 66.4332 175.975 62.6645 178.821C63.6152 179.213 64.0679 178.935 64.4357 178.611L64.43 178.611Z" fill="#ED3237"/>
<path d="M81.1459 165.755C79.7991 167.573 79.3012 170.317 80.15 171.788C80.9818 169.953 81.5137 166.607 81.1459 165.755Z" fill="#ED3237"/>
<path d="M88.655 164.494C88.7342 163.011 88.7173 161.505 88.9889 160.057C89.3906 157.915 90.0188 155.813 90.545 153.688C90.6978 153.08 90.828 152.466 90.9694 151.859L90.6356 151.717C90.4545 151.978 90.2338 152.217 90.098 152.501C88.655 155.5 87.6704 158.648 87.3705 161.971C87.2913 162.88 87.4554 163.823 87.5799 164.738C87.6308 165.119 87.8515 165.471 87.9986 165.84C88.8135 165.545 88.6324 164.994 88.655 164.494Z" fill="#ED3237"/>
<path d="M103.679 146.774C104.086 145.535 103.317 142.678 102.213 141.604C102.162 143.189 102.338 144.729 102.994 146.177C103.102 146.41 103.413 146.552 103.679 146.774Z" fill="#ED3237"/>
<path d="M97.4317 151.415C97.5052 151.58 97.873 151.79 97.9579 151.739C98.156 151.62 98.4106 151.336 98.388 151.148C98.2239 149.864 97.9013 148.632 96.8488 147.666C96.6508 148.989 96.9111 150.228 97.4373 151.415L97.4317 151.415Z" fill="#ED3237"/>
</g>
<defs>
<clipPath id="clip0_35_14731">
<rect width="210" height="192" fill="white" transform="translate(192) rotate(90)"/>
</clipPath>
</defs>
</svg>
